<svg width="72" height="72" viewBox="0 0 72 72" fill="none" xmlns="http://www.w3.org/2000/svg">
<path fill-rule="evenodd" clip-rule="evenodd" d="M36 65C52.0163 65 65 52.0163 65 36C65 19.9837 52.0163 7 36 7C19.9837 7 7 19.9837 7 36C7 52.0163 19.9837 65 36 65ZM36 68C53.6731 68 68 53.6731 68 36C68 18.3269 53.6731 4 36 4C18.3269 4 4 18.3269 4 36C4 53.6731 18.3269 68 36 68Z" fill="#FE3D2F"/>
<circle cx="36" cy="51.5" r="2.5" fill="#FE3D2F"/>
<path fill-rule="evenodd" clip-rule="evenodd" d="M36 16.5C36.8284 16.5 37.5 17.1716 37.5 18L37.5 43C37.5 43.8284 36.8284 44.5 36 44.5C35.1716 44.5 34.5 43.8284 34.5 43L34.5 18C34.5 17.1716 35.1716 16.5 36 16.5Z" fill="#FE3D2F"/>
</svg>
