<svg width="72" height="72" viewBox="0 0 72 72" fill="none" xmlns="http://www.w3.org/2000/svg">
<g clip-path="url(#clip0_2927_20928)">
<path d="M58 67H14C14 55.95 23.85 47 36 47C48.15 47 58 55.95 58 67Z" fill="#C0C9D8"/>
<path d="M36 45C42.0751 45 47 40.0751 47 34C47 27.9249 42.0751 23 36 23C29.9249 23 25 27.9249 25 34C25 40.0751 29.9249 45 36 45Z" fill="#FFCBAE"/>
<path d="M61 8H11C8.79 8 7 9.79 7 12V66C7 68.21 8.79 70 11 70H61C63.21 70 65 68.21 65 66V12C65 9.79 63.21 8 61 8ZM61 64C61 65.1 60.1 66 59 66H13C11.9 66 11 65.1 11 64V14C11 12.9 11.9 12 13 12H59C60.1 12 61 12.9 61 14V64Z" fill="#FFD110"/>
<path d="M43 2H35V8H43V2Z" fill="#A0523A"/>
<path d="M42 14H30C29.4477 14 29 14.4477 29 15C29 15.5523 29.4477 16 30 16H42C42.5523 16 43 15.5523 43 15C43 14.4477 42.5523 14 42 14Z" fill="#A0523A"/>
<path d="M40 2H32V16H40V2Z" fill="#DB8161"/>
</g>
<defs>
<clipPath id="clip0_2927_20928">
<rect width="58" height="68" fill="white" transform="translate(7 2)"/>
</clipPath>
</defs>
</svg>
