<svg width="72" height="72" viewBox="0 0 72 72" fill="none" xmlns="http://www.w3.org/2000/svg">
<g clip-path="url(#clip0_2853_14043)">
<g clip-path="url(#clip1_2853_14043)">
<path d="M24 48C37.2548 48 48 37.2548 48 24C48 10.7452 37.2548 0 24 0C10.7452 0 0 10.7452 0 24C0 37.2548 10.7452 48 24 48Z" fill="#FFDD33"/>
<path d="M11 18.24C10.72 18.24 10.5 18.02 10.5 17.74V13.41C10.5 11.81 11.8 10.5 13.41 10.5H17.74C18.02 10.5 18.24 10.72 18.24 11C18.24 11.28 18.02 11.5 17.74 11.5H13.41C12.36 11.5 11.5 12.36 11.5 13.41V17.74C11.5 18.02 11.28 18.24 11 18.24Z" fill="#141414"/>
<path d="M37 18.24C36.72 18.24 36.5 18.02 36.5 17.74V13.41C36.5 12.36 35.64 11.5 34.59 11.5H30.26C29.98 11.5 29.76 11.28 29.76 11C29.76 10.72 29.98 10.5 30.26 10.5H34.59C36.19 10.5 37.5 11.8 37.5 13.41V17.74C37.5 18.02 37.28 18.24 37 18.24Z" fill="#141414"/>
<path d="M17.74 37.5H13.41C11.81 37.5 10.5 36.2 10.5 34.59V30.26C10.5 29.98 10.72 29.76 11 29.76C11.28 29.76 11.5 29.98 11.5 30.26V34.59C11.5 35.64 12.36 36.5 13.41 36.5H17.74C18.02 36.5 18.24 36.72 18.24 37C18.24 37.28 18.02 37.5 17.74 37.5Z" fill="#141414"/>
<path d="M34.59 37.5H30.26C29.98 37.5 29.76 37.28 29.76 37C29.76 36.72 29.98 36.5 30.26 36.5H34.59C35.64 36.5 36.5 35.64 36.5 34.59V30.26C36.5 29.98 36.72 29.76 37 29.76C37.28 29.76 37.5 29.98 37.5 30.26V34.59C37.5 36.19 36.2 37.5 34.59 37.5Z" fill="#141414"/>
<path d="M22.5601 26.43C22.2801 26.43 22.0601 26.21 22.0601 25.93C22.0601 25.65 22.2801 25.43 22.5601 25.43C23.0801 25.43 23.5001 25.01 23.5001 24.49V19.68C23.5001 19.4 23.7201 19.18 24.0001 19.18C24.2801 19.18 24.5001 19.4 24.5001 19.68V24.49C24.5001 25.56 23.6301 26.43 22.5601 26.43Z" fill="#141414"/>
<path d="M23.5199 30.76C21.4799 30.76 19.6099 29.91 18.7699 28.61C18.6199 28.38 18.6899 28.07 18.9199 27.92C19.1499 27.77 19.4599 27.84 19.6099 28.07C20.2799 29.1 21.8099 29.77 23.5199 29.77C25.2299 29.77 26.7699 29.1 27.4299 28.07C27.5799 27.84 27.8899 27.77 28.1199 27.92C28.3499 28.07 28.4199 28.38 28.2699 28.61C27.4199 29.92 25.5599 30.76 23.5199 30.76Z" fill="#141414"/>
<path d="M17.74 22.09C17.46 22.09 17.24 21.87 17.24 21.59V19.66C17.24 19.38 17.46 19.16 17.74 19.16C18.02 19.16 18.24 19.38 18.24 19.66V21.59C18.24 21.87 18.02 22.09 17.74 22.09Z" fill="#141414"/>
<path d="M30.26 22.09C29.98 22.09 29.76 21.87 29.76 21.59V19.66C29.76 19.38 29.98 19.16 30.26 19.16C30.54 19.16 30.76 19.38 30.76 19.66V21.59C30.76 21.87 30.54 22.09 30.26 22.09Z" fill="#141414"/>
<path d="M48 72C61.2548 72 72 61.2548 72 48C72 34.7452 61.2548 24 48 24C34.7452 24 24 34.7452 24 48C24 61.2548 34.7452 72 48 72Z" fill="#9D70FF"/>
<path d="M35.03 49.89C34.76 49.89 34.54 49.67 34.53 49.4V48.96C34.5 48.22 34.47 47.45 34.56 46.67C34.73 45.17 35.09 43.82 35.67 42.52C36.52 40.63 37.74 39.01 39.31 37.7C41.71 35.7 44.62 34.62 47.95 34.51C48.63 34.49 49.31 34.58 49.9 34.66C51.06 34.81 52.19 35.12 53.26 35.57C54.98 36.3 56.51 37.36 57.81 38.73C59.35 40.36 60.44 42.32 61.05 44.58C61.24 45.3 61.34 46.03 61.44 46.78C61.48 47.09 61.48 47.41 61.48 47.73V48.12C61.49 48.4 61.28 48.63 61 48.63C60.75 48.63 60.49 48.42 60.49 48.14V47.73C60.49 47.45 60.49 47.17 60.45 46.9C60.36 46.16 60.27 45.49 60.09 44.83C59.53 42.74 58.52 40.91 57.09 39.41C55.88 38.14 54.47 37.16 52.88 36.48C51.89 36.06 50.85 35.78 49.77 35.63C49.22 35.56 48.58 35.47 47.99 35.49C44.89 35.6 42.18 36.59 39.95 38.45C38.5 39.66 37.37 41.16 36.58 42.91C36.04 44.11 35.7 45.37 35.55 46.76C35.47 47.47 35.49 48.17 35.51 48.91V49.36C35.53 49.64 35.31 49.86 35.03 49.87H35.02L35.03 49.89Z" fill="white"/>
<path d="M47.4801 61.5C47.3901 61.5 47.3101 61.48 47.2301 61.43C46.9901 61.29 46.9101 60.99 47.0501 60.75L47.4501 60.07C48.0701 59.02 48.7101 57.93 49.2001 56.8C49.8101 55.41 50.2401 53.96 50.5001 52.5C50.7401 51.14 50.8401 49.77 50.7901 48.42C50.7601 47.55 50.6301 46.65 49.9001 45.99C49.4501 45.59 48.9801 45.37 48.4301 45.31C46.6501 45.12 45.6501 46.24 45.3501 47.25C45.2101 47.7 45.2301 48.2 45.2601 48.63C45.3601 50.07 45.1801 51.56 44.7001 53.18C44.3101 54.51 43.6301 55.69 42.9801 56.83L42.5901 57.52C42.2901 58.05 41.9901 58.58 41.6701 59.09C41.6101 59.18 41.6101 59.28 41.6101 59.48L41.1101 59.55H40.6101C40.6101 59.21 40.6101 58.89 40.8301 58.55C41.1501 58.06 41.4401 57.54 41.7201 57.03L42.1101 56.34C42.7601 55.2 43.3801 54.11 43.7401 52.9C44.1801 51.4 44.3501 50.02 44.2601 48.7C44.2201 48.18 44.2001 47.57 44.3901 46.96C44.8401 45.48 46.3101 44.09 48.5401 44.32C49.3001 44.4 49.9701 44.7 50.5801 45.24C51.6001 46.15 51.7701 47.34 51.8101 48.38C51.8601 49.8 51.7501 51.24 51.5001 52.67C51.2301 54.21 50.7701 55.74 50.1301 57.2C49.6201 58.38 48.9601 59.5 48.3301 60.58L47.9401 61.25C47.8501 61.41 47.6801 61.5 47.5101 61.5H47.4801Z" fill="white"/>
<path d="M56.15 58.76H56.14C55.86 58.76 55.65 58.52 55.65 58.25C55.65 57.97 55.75 57.73 55.83 57.53L55.89 57.37C56.35 56.08 56.71 54.68 56.98 53.07C57.25 51.51 57.34 49.83 57.26 47.81C57.17 45.57 56.44 43.62 55.07 42.02C53.8 40.52 52.22 39.54 50.25 39.03C49.27 38.78 48.32 38.69 47.42 38.78C45.2 39.01 43.4 39.76 41.91 41.08C40.24 42.56 39.25 44.33 38.87 46.5C38.75 47.19 38.76 47.87 38.77 48.6V49.19C38.77 50.44 38.47 51.6 37.87 52.64L36.96 54.24C36.82 54.48 36.51 54.56 36.28 54.43C36.04 54.29 35.96 53.99 36.09 53.75L37 52.15C37.52 51.25 37.77 50.29 37.78 49.2V48.62C37.77 47.88 37.75 47.11 37.89 46.33C38.3 43.96 39.43 41.94 41.25 40.33C42.9 38.87 44.89 38.03 47.32 37.78C48.34 37.68 49.41 37.77 50.5 38.05C52.64 38.61 54.43 39.72 55.83 41.36C57.34 43.14 58.16 45.29 58.25 47.76C58.33 49.86 58.25 51.6 57.96 53.23C57.67 54.89 57.3 56.35 56.83 57.69L56.76 57.88C56.7 58.02 56.65 58.15 56.65 58.26C56.65 58.53 56.42 58.75 56.15 58.75V58.76Z" fill="white"/>
<path d="M51.4801 61.04C51.3901 61.04 51.3001 61.02 51.2201 60.97C50.9801 60.83 50.9101 60.52 51.0501 60.28C51.6501 59.3 52.1801 58.16 52.6801 56.82C53.3601 54.98 53.8001 52.96 53.9801 50.82C54.0301 50.19 54.0401 49.5 54.0201 48.59V48.29C54.0001 47.77 53.9901 47.28 53.8901 46.81C53.6001 45.46 52.9801 44.38 51.9901 43.5C50.5901 42.26 48.9901 41.8 47.1101 42.1C44.9801 42.44 43.4201 43.63 42.4701 45.66C42.0901 46.47 41.9301 47.34 42.0001 48.18C42.0701 49.05 42.0601 49.83 41.9601 50.57C41.7801 51.88 41.3701 53.09 40.7301 54.18C40.3301 54.86 39.9401 55.55 39.5501 56.24L39.0201 57.18C38.8801 57.42 38.5801 57.5 38.3401 57.37C38.1001 57.23 38.0201 56.93 38.1501 56.69L38.6801 55.75C39.0701 55.06 39.4701 54.37 39.8601 53.68C40.4301 52.7 40.8001 51.61 40.9601 50.43C41.0501 49.76 41.0601 49.05 41.0001 48.26C40.9101 47.25 41.1101 46.2 41.5601 45.23C42.6601 42.88 44.4701 41.49 46.9501 41.1C49.1201 40.76 51.0401 41.31 52.6501 42.74C53.7901 43.75 54.5401 45.04 54.8601 46.59C54.9801 47.16 54.9901 47.71 55.0001 48.26V48.55C55.0401 49.5 55.0201 50.22 54.9701 50.89C54.7901 53.12 54.3301 55.23 53.6101 57.15C53.0901 58.55 52.5301 59.74 51.9001 60.78C51.8101 60.94 51.6401 61.02 51.4701 61.02L51.4801 61.04Z" fill="white"/>
<path d="M44.0601 60.93C43.9801 60.93 43.8901 60.91 43.8101 60.87C43.5701 60.73 43.4801 60.43 43.6201 60.19C43.8801 59.73 44.1501 59.27 44.4201 58.81C45.0101 57.81 45.6301 56.77 46.1201 55.7C47.0201 53.75 47.4901 51.71 47.5101 49.66C47.5101 49.13 47.5101 48.61 47.4901 48.08L47.4701 47.35C47.4701 47.07 47.6901 46.85 47.9601 46.84C48.2301 46.84 48.4601 47.06 48.4601 47.33L48.4801 48.05C48.4901 48.59 48.5101 49.13 48.5001 49.67C48.4701 51.87 47.9701 54.04 47.0201 56.12C46.5101 57.24 45.8801 58.3 45.2701 59.32C45.0001 59.77 44.7401 60.22 44.4801 60.68C44.3901 60.84 44.2201 60.93 44.0401 60.93H44.0601Z" fill="white"/>
</g>
</g>
<defs>
<clipPath id="clip0_2853_14043">
<rect width="72" height="72" fill="white"/>
</clipPath>
<clipPath id="clip1_2853_14043">
<rect width="72" height="72" fill="white"/>
</clipPath>
</defs>
</svg>
