<svg width="72" height="72" viewBox="0 0 72 72" fill="none" xmlns="http://www.w3.org/2000/svg">
<g clip-path="url(#clip0_2230_11374)">
<path d="M53.3501 50.61L7.13011 30.79C5.61011 30.14 5.62011 28.02 7.16011 27.39L51.6501 10.13C52.8601 9.66001 54.1701 10.5 54.2301 11.76L56.0001 48.9C56.0001 50.23 54.6001 51.13 53.3501 50.6V50.61Z" fill="#91B1FF"/>
<path d="M23.5302 52L19.9702 36.29L51.2202 12.31L23.5302 52Z" fill="#2D6AFF"/>
<path d="M51 61C59.2843 61 66 54.2843 66 46C66 37.7157 59.2843 31 51 31C42.7157 31 36 37.7157 36 46C36 54.2843 42.7157 61 51 61Z" fill="#FA2B5C"/>
<path d="M51 57C57.0751 57 62 52.0751 62 46C62 39.9249 57.0751 35 51 35C44.9249 35 40 39.9249 40 46C40 52.0751 44.9249 57 51 57Z" fill="#FFEAEF"/>
<path d="M58.7739 35.3895L40.3892 53.7742L43.2176 56.6027L61.6024 38.2179L58.7739 35.3895Z" fill="#FA2B5C"/>
</g>
<defs>
<clipPath id="clip0_2230_11374">
<rect width="60" height="51" fill="white" transform="translate(6 10)"/>
</clipPath>
</defs>
</svg>
