<svg width="72" height="72" viewBox="0 0 72 72" fill="none" xmlns="http://www.w3.org/2000/svg">
<path d="M36 68C36 68 9 55.96 9 43V15L36 4V68Z" fill="#4BBB17"/>
<path d="M36 68C36 68 63 55.96 63 43V15L36 4V68Z" fill="#66CB30"/>
<path d="M36 64.1L35.58 63.91C34.64 63.48 12.5 53.16 12.5 41.52V17.79L36 7.92L59.5 17.79V41.52C59.5 53.16 37.36 63.48 36.42 63.91L36 64.1ZM14.5 19.12V41.52C14.5 51.08 32.96 60.43 36 61.9C39.04 60.43 57.5 51.09 57.5 41.52V19.12L36 10.08L14.5 19.12Z" fill="#A0EA78"/>
<path d="M32.51 41.45C32.87 41.81 33.28 41.99 33.76 41.99C34.24 41.99 34.65 41.81 35.01 41.45L46.02 30.44C46.34 30.12 46.49 29.71 46.47 29.21C46.45 28.71 46.26 28.28 45.9 27.92C45.54 27.56 45.12 27.39 44.62 27.41C44.12 27.43 43.68 27.62 43.28 27.98L33.76 37.55L29.41 32.92C29.05 32.52 28.61 32.33 28.07 32.35C27.53 32.37 27.09 32.58 26.73 32.98C26.37 33.38 26.18 33.84 26.16 34.36C26.14 34.88 26.33 35.32 26.73 35.68L32.5 41.46L32.51 41.45Z" fill="white"/>
</svg>
