<svg width="72" height="72" viewBox="0 0 72 72" fill="none" xmlns="http://www.w3.org/2000/svg">
<g clip-path="url(#clip0_8359_35513)">
<path d="M39.6 42.51L11.31 70.8L9.9 60.9L0 59.49L28.28 31.2L39.6 42.51Z" fill="#2D6AFF"/>
<path d="M32 42.51L60.28 70.8L61.7 60.9L71.6 59.49L43.31 31.2L32 42.51Z" fill="#2D6AFF"/>
<path d="M35.8 53C50.1595 53 61.8 41.3594 61.8 27C61.8 12.6406 50.1595 1 35.8 1C21.4406 1 9.80005 12.6406 9.80005 27C9.80005 41.3594 21.4406 53 35.8 53Z" fill="#F4C708"/>
<path d="M35.7999 50.4C48.7234 50.4 59.1999 39.9235 59.1999 27C59.1999 14.0765 48.7234 3.6 35.7999 3.6C22.8764 3.6 12.3999 14.0765 12.3999 27C12.3999 39.9235 22.8764 50.4 35.7999 50.4Z" fill="#FFDD33"/>
<path d="M35.8001 45.2C45.8517 45.2 54.0001 37.0516 54.0001 27C54.0001 16.9484 45.8517 8.8 35.8001 8.8C25.7485 8.8 17.6001 16.9484 17.6001 27C17.6001 37.0516 25.7485 45.2 35.8001 45.2Z" fill="#F4C708"/>
<path d="M35.8 15.73L39.28 22.58L47.07 23.68L41.43 29.01L42.76 36.53L35.8 32.98L28.84 36.53L30.17 29.01L24.53 23.68L32.32 22.58L35.8 15.73Z" fill="#FFE667"/>
</g>
<defs>
<clipPath id="clip0_8359_35513">
<rect width="71.6" height="69.8" fill="white" transform="translate(0 1)"/>
</clipPath>
</defs>
</svg>
