<svg width="72" height="72" viewBox="0 0 72 72" fill="none" xmlns="http://www.w3.org/2000/svg">
<g clip-path="url(#clip0_8359_35526)">
<path d="M20.57 57.66L11.27 55.78C10.72 55.68 10.26 55.39 9.88 54.92C9.5 54.44 9.37 53.91 9.47 53.31L10.52 44.31L4.6 37.41C4.2 37.01 4 36.51 4 35.91C4 35.31 4.2 34.81 4.6 34.41L10.52 27.58L9.47 18.58C9.37 17.98 9.51 17.44 9.88 16.97C10.25 16.5 10.72 16.21 11.27 16.11L20.57 14.24L25.22 6.21C25.52 5.71 25.95 5.36 26.49 5.16C27.04 4.96 27.59 4.99 28.14 5.23L36.31 9.05L44.5 5.23C45.05 4.98 45.61 4.93 46.19 5.08C46.77 5.23 47.18 5.58 47.43 6.13L52.16 14.23L61.38 16.1C61.93 16.2 62.39 16.49 62.77 16.96C63.15 17.43 63.28 17.97 63.18 18.57L62.13 27.57L68.05 34.4C68.45 34.8 68.65 35.3 68.65 35.9C68.65 36.5 68.45 37 68.05 37.4L62.13 44.3L63.18 53.3C63.28 53.9 63.14 54.44 62.77 54.91C62.39 55.38 61.93 55.67 61.38 55.77L52.16 57.65L47.43 65.68C47.18 66.23 46.77 66.58 46.19 66.73C45.61 66.88 45.05 66.83 44.5 66.58L36.33 62.75L28.16 66.58C27.61 66.83 27.06 66.86 26.51 66.66C25.96 66.46 25.54 66.11 25.24 65.61L20.59 57.66H20.57Z" fill="#E85B8A"/>
<path d="M45.9794 24.1326L24.5541 45.5579C23.9683 46.1437 23.9683 47.0934 24.5541 47.6792C25.1399 48.265 26.0896 48.265 26.6754 47.6792L48.1007 26.2539C48.6865 25.6681 48.6865 24.7184 48.1007 24.1326C47.5149 23.5468 46.5652 23.5468 45.9794 24.1326Z" fill="white"/>
<path d="M30 33C32.2091 33 34 31.2091 34 29C34 26.7909 32.2091 25 30 25C27.7909 25 26 26.7909 26 29C26 31.2091 27.7909 33 30 33Z" fill="white"/>
<path d="M43 47C45.2091 47 47 45.2091 47 43C47 40.7909 45.2091 39 43 39C40.7909 39 39 40.7909 39 43C39 45.2091 40.7909 47 43 47Z" fill="white"/>
</g>
<defs>
<clipPath id="clip0_8359_35526">
<rect width="64.65" height="61.82" fill="white" transform="translate(4 5)"/>
</clipPath>
</defs>
</svg>
