<svg width="72" height="72" viewBox="0 0 72 72" fill="none" xmlns="http://www.w3.org/2000/svg">
<g clip-path="url(#clip0_8359_35494)">
<path d="M10.1 37.82C8.27004 39.67 8.27004 42.67 10.1 44.51C11.93 46.36 14.89 46.36 16.72 44.51C14.89 46.36 14.89 49.36 16.72 51.2C18.55 53.05 21.51 53.05 23.34 51.2C21.51 53.05 21.51 56.05 23.34 57.89C25.17 59.74 28.13 59.74 29.96 57.89C28.13 59.74 28.13 62.74 29.96 64.58C31.79 66.43 34.75 66.43 36.58 64.58L62.54 38.31C69.85 30.92 69.85 18.93 62.54 11.53C55.23 4.14 43.39 4.14 36.08 11.53L10.1 37.82Z" fill="#CE7D55"/>
<path d="M61.9001 37.82C63.7301 39.67 63.7301 42.67 61.9001 44.51C60.0701 46.36 57.1101 46.36 55.2801 44.51C57.1101 46.36 57.1101 49.36 55.2801 51.2C53.4501 53.05 50.4901 53.05 48.6601 51.2C50.4901 53.05 50.4901 56.05 48.6601 57.89C46.8301 59.74 43.8701 59.74 42.0401 57.89L35.4201 64.58L9.48006 38.32C2.17006 30.93 2.17006 18.94 9.48006 11.54C16.7901 4.15 28.6301 4.15 35.9401 11.54L61.9001 37.81V37.82Z" fill="#FFCBAE"/>
<path d="M41.9602 58.28C41.8402 58.28 41.7202 58.23 41.6302 58.14L27.1702 43.51C26.9902 43.33 26.9902 43.03 27.1702 42.84C27.3502 42.65 27.6502 42.66 27.8302 42.84L42.2902 57.47C42.4702 57.65 42.4702 57.95 42.2902 58.14C42.2002 58.23 42.0802 58.28 41.9602 58.28Z" fill="#F2A786"/>
<path d="M49 52.01C48.88 52.01 48.76 51.96 48.67 51.87L34.21 37.24C34.03 37.06 34.03 36.76 34.21 36.57C34.39 36.38 34.69 36.39 34.87 36.57L49.33 51.2C49.51 51.38 49.51 51.68 49.33 51.87C49.24 51.96 49.12 52.01 49 52.01Z" fill="#F2A786"/>
<path d="M55.6201 45.32C55.5001 45.32 55.3801 45.27 55.2901 45.18L40.8301 30.55C40.6501 30.37 40.6501 30.07 40.8301 29.88C41.0101 29.69 41.3101 29.7 41.4901 29.88L55.9501 44.51C56.1301 44.69 56.1301 44.99 55.9501 45.18C55.8601 45.27 55.7401 45.32 55.6201 45.32Z" fill="#F2A786"/>
<path d="M28.65 45.82L23.29 51.24C21.48 53.07 18.55 53.07 16.74 51.24L16.68 51.18C14.87 49.35 14.87 46.38 16.68 44.55L22.04 39.13C23.85 37.3 26.78 37.3 28.59 39.13L28.65 39.19C30.46 41.02 30.46 43.99 28.65 45.82Z" fill="#CE7D55"/>
<path d="M22.0399 39.12L16.6799 44.54C14.8699 46.37 11.9399 46.37 10.1299 44.54L10.0699 44.48C8.2599 42.65 8.2599 39.68 10.0699 37.85L15.4299 32.43C17.2399 30.6 20.1699 30.6 21.9799 32.43L22.0399 32.49C23.8499 34.32 23.8499 37.29 22.0399 39.12Z" fill="#CE7D55"/>
<path d="M43.0498 17.85L34.0198 26.99C32.1898 28.84 29.2298 28.84 27.3998 26.99C25.5698 25.14 25.5698 22.14 27.3998 20.3L36.4298 11.16C38.2598 9.31 41.2198 9.31 43.0498 11.16C44.8798 13.01 44.8798 16.01 43.0498 17.85Z" fill="#CE7D55"/>
<path d="M35.2699 52.51L29.9099 57.93C28.0999 59.76 25.1699 59.76 23.3599 57.93L23.2999 57.87C21.4899 56.04 21.4899 53.07 23.2999 51.24L28.6599 45.82C30.4699 43.99 33.3999 43.99 35.2099 45.82L35.2699 45.88C37.0799 47.71 37.0799 50.68 35.2699 52.51Z" fill="#CE7D55"/>
<path d="M41.88 59.21L36.52 64.63C34.71 66.46 31.78 66.46 29.97 64.63L29.91 64.57C28.1 62.74 28.1 59.77 29.91 57.94L35.27 52.52C37.08 50.69 40.01 50.69 41.82 52.52L41.88 52.58C43.69 54.41 43.69 57.38 41.88 59.21Z" fill="#CE7D55"/>
</g>
<defs>
<clipPath id="clip0_8359_35494">
<rect width="64" height="60" fill="white" transform="translate(4 6)"/>
</clipPath>
</defs>
</svg>
