<svg width="72" height="72" viewBox="0 0 72 72" fill="none" xmlns="http://www.w3.org/2000/svg">
<circle cx="36" cy="36" r="30" fill="#FFDB25"/>
<ellipse cx="27.2638" cy="32.5783" rx="3.0375" ry="5.31562" fill="#333539"/>
<ellipse cx="45.487" cy="32.5783" rx="3.0375" ry="5.31562" fill="#333539"/>
<path fill-rule="evenodd" clip-rule="evenodd" d="M36.3741 44.8125C34.5721 44.8125 33.0364 45.98 32.5678 46.9172C32.151 47.7508 31.1374 48.0886 30.3038 47.6718C29.4702 47.2551 29.1323 46.2414 29.5491 45.4078C30.5993 43.3075 33.3161 41.4375 36.3741 41.4375C39.4321 41.4375 42.1489 43.3075 43.1991 45.4078C43.6159 46.2414 43.278 47.2551 42.4444 47.6718C41.6108 48.0886 40.5972 47.7508 40.1804 46.9172C39.7118 45.98 38.1761 44.8125 36.3741 44.8125Z" fill="#333539"/>
<path d="M21.0876 53.0988C15.3901 51.5721 19.7149 44.1769 23.7983 39.9094C24.3034 39.3815 25.1613 39.6114 25.3348 40.3211C26.7373 46.0585 26.7851 54.6254 21.0876 53.0988Z" fill="#81A6FF"/>
</svg>
