<svg width="72" height="72" viewBox="0 0 72 72" fill="none" xmlns="http://www.w3.org/2000/svg">
<g clip-path="url(#clip0_8359_35535)">
<path d="M67 29V16C67 14.34 65.66 13 64 13H8C6.34 13 5 14.34 5 16V29C8.87 29 12 32.13 12 36C12 39.87 8.87 43 5 43V56C5 57.66 6.34 59 8 59H64C65.66 59 67 57.66 67 56V43C63.13 43 60 39.87 60 36C60 32.13 63.13 29 67 29Z" fill="#A77EFF"/>
<path d="M63 19H9V21H63V19Z" fill="#CEB7FF"/>
<path d="M63 52H9V54H63V52Z" fill="#CEB7FF"/>
<path d="M35.89 28.06L38.39 32.99L44 33.78L39.94 37.62L40.9 43.04L35.89 40.48L30.87 43.04L31.83 37.62L27.78 33.78L33.38 32.99L35.89 28.06Z" fill="white"/>
</g>
<defs>
<clipPath id="clip0_8359_35535">
<rect width="62" height="46" fill="white" transform="translate(5 13)"/>
</clipPath>
</defs>
</svg>
