<svg width="72" height="72" viewBox="0 0 72 72" fill="none" xmlns="http://www.w3.org/2000/svg">
<g clip-path="url(#clip0_2363_11244)">
<path d="M17 24H55V57C55 59.76 52.76 62 50 62H23C19.69 62 17 59.31 17 56V24Z" fill="#FA2B5C"/>
<path d="M57 17H15C13.8954 17 13 17.8954 13 19C13 20.1046 13.8954 21 15 21H57C58.1046 21 59 20.1046 59 19C59 17.8954 58.1046 17 57 17Z" fill="#9D70FF"/>
<path d="M26 13V21H30V14C30 13.45 30.45 13 31 13H41C41.55 13 42 13.45 42 14V21H46V13C46 10.79 44.21 9 42 9H30C27.79 9 26 10.79 26 13Z" fill="#9D70FF"/>
<path d="M37 31H35C34.4477 31 34 31.4477 34 32V54C34 54.5523 34.4477 55 35 55H37C37.5523 55 38 54.5523 38 54V32C38 31.4477 37.5523 31 37 31Z" fill="#FFEAEF"/>
<path d="M47 31H45C44.4477 31 44 31.4477 44 32V54C44 54.5523 44.4477 55 45 55H47C47.5523 55 48 54.5523 48 54V32C48 31.4477 47.5523 31 47 31Z" fill="#FFEAEF"/>
<path d="M27 31H25C24.4477 31 24 31.4477 24 32V54C24 54.5523 24.4477 55 25 55H27C27.5523 55 28 54.5523 28 54V32C28 31.4477 27.5523 31 27 31Z" fill="#FFEAEF"/>
</g>
<defs>
<clipPath id="clip0_2363_11244">
<rect width="46" height="53" fill="white" transform="translate(13 9)"/>
</clipPath>
</defs>
</svg>
