<svg width="72" height="72" viewBox="0 0 72 72" fill="none" xmlns="http://www.w3.org/2000/svg">
<g clip-path="url(#clip0_837_6812)">
<path d="M50.52 17.34H12.52C11.4154 17.34 10.52 18.2355 10.52 19.34V27.34C10.52 28.4446 11.4154 29.34 12.52 29.34H50.52C51.6246 29.34 52.52 28.4446 52.52 27.34V19.34C52.52 18.2355 51.6246 17.34 50.52 17.34Z" fill="#FFC200"/>
<path d="M49.16 37.16L62.04 25.57C63.36 24.38 63.36 22.3 62.04 21.11L49.16 9.52003C47.71 8.22003 45.45 9.54003 45.87 11.44L48.51 23.34L45.87 35.24C45.45 37.14 47.71 38.46 49.16 37.16Z" fill="#FFC200"/>
<path d="M21.51 55.34L59.51 55.34C60.6146 55.34 61.51 54.4446 61.51 53.34V45.34C61.51 44.2355 60.6146 43.34 59.51 43.34L21.51 43.34C20.4054 43.34 19.51 44.2355 19.51 45.34V53.34C19.51 54.4446 20.4054 55.34 21.51 55.34Z" fill="#9D70FF"/>
<path d="M22.87 63.16L9.99 51.57C8.67 50.38 8.67 48.3 9.99 47.11L22.87 35.52C24.32 34.22 26.58 35.54 26.16 37.44L23.52 49.34L26.16 61.24C26.58 63.14 24.32 64.46 22.87 63.16Z" fill="#9D70FF"/>
</g>
<defs>
<clipPath id="clip0_837_6812">
<rect width="54.03" height="54.68" fill="white" transform="translate(9 9)"/>
</clipPath>
</defs>
</svg>
