<svg width="72" height="72" viewBox="0 0 72 72" fill="none" xmlns="http://www.w3.org/2000/svg">
<g clip-path="url(#clip0_2483_17771)">
<path d="M22 6V66H56C58.21 66 60 64.21 60 62V10C60 7.79 58.21 6 56 6H22Z" fill="#DCE4EE"/>
<path d="M60 13H62C63.1 13 64 13.9 64 15V21C64 22.1 63.1 23 62 23H60V13Z" fill="#FA2B5C"/>
<path d="M60 23H62C63.1 23 64 23.9 64 25V31C64 32.1 63.1 33 62 33H60V23Z" fill="#FFD110"/>
<path d="M16 6H24V66H16C13.79 66 12 64.21 12 62V10C12 7.79 13.79 6 16 6Z" fill="#C0C9D8"/>
<path d="M16 19H10C9.44772 19 9 19.4477 9 20V21C9 21.5523 9.44772 22 10 22H16C16.5523 22 17 21.5523 17 21V20C17 19.4477 16.5523 19 16 19Z" fill="#8396B2"/>
<path d="M16 29H10C9.44772 29 9 29.4477 9 30V31C9 31.5523 9.44772 32 10 32H16C16.5523 32 17 31.5523 17 31V30C17 29.4477 16.5523 29 16 29Z" fill="#8396B2"/>
<path d="M16 39H10C9.44772 39 9 39.4477 9 40V41C9 41.5523 9.44772 42 10 42H16C16.5523 42 17 41.5523 17 41V40C17 39.4477 16.5523 39 16 39Z" fill="#8396B2"/>
<path d="M16 49H10C9.44772 49 9 49.4477 9 50V51C9 51.5523 9.44772 52 10 52H16C16.5523 52 17 51.5523 17 51V50C17 49.4477 16.5523 49 16 49Z" fill="#8396B2"/>
</g>
<defs>
<clipPath id="clip0_2483_17771">
<rect width="55" height="60" fill="white" transform="translate(9 6)"/>
</clipPath>
</defs>
</svg>
