<svg width="72" height="72" viewBox="0 0 72 72" fill="none" xmlns="http://www.w3.org/2000/svg">
<g clip-path="url(#clip0_2483_17751)">
<path d="M12 17.51H22V53.51H12C8.69 53.51 6 50.82 6 47.51V23.51C6 20.2 8.69 17.51 12 17.51Z" fill="#9D70FF"/>
<path d="M47.77 61.82L22 53.51V17.51L47.77 9.20001C50.35 8.37001 53 10.29 53 13.01V58.02C53 60.73 50.35 62.66 47.77 61.83V61.82Z" fill="#CEB7FF"/>
<path d="M62.5945 19.278L57.3983 22.278C56.4417 22.8302 56.114 24.0534 56.6663 25.01C57.2185 25.9666 58.4417 26.2943 59.3983 25.7421L64.5945 22.7421C65.551 22.1898 65.8788 20.9666 65.3265 20.01C64.7742 19.0534 63.551 18.7257 62.5945 19.278Z" fill="#8396B2"/>
<path d="M65 33.51H59C57.8954 33.51 57 34.4054 57 35.51C57 36.6146 57.8954 37.51 59 37.51H65C66.1046 37.51 67 36.6146 67 35.51C67 34.4054 66.1046 33.51 65 33.51Z" fill="#8396B2"/>
<path d="M64.5945 48.2746L59.3983 45.2746C58.4417 44.7223 57.2185 45.0501 56.6663 46.0066C56.114 46.9632 56.4417 48.1864 57.3983 48.7387L62.5945 51.7387C63.551 52.291 64.7742 51.9632 65.3265 51.0066C65.8788 50.0501 65.551 48.8269 64.5945 48.2746Z" fill="#8396B2"/>
</g>
<defs>
<clipPath id="clip0_2483_17751">
<rect width="61" height="53.02" fill="white" transform="translate(6 9)"/>
</clipPath>
</defs>
</svg>
