<svg width="72" height="72" viewBox="0 0 72 72" fill="none" xmlns="http://www.w3.org/2000/svg">
<path d="M17.1022 24.1334C27.539 13.9555 44.461 13.9555 54.8978 24.1334L56.1539 25.3582C56.2777 25.4776 56.3762 25.6208 56.4434 25.7791C56.5107 25.9374 56.5453 26.1076 56.5453 26.2796C56.5453 26.4516 56.5107 26.6218 56.4434 26.7801C56.3762 26.9384 56.2777 27.0815 56.1539 27.2009L51.8571 31.3912C51.7302 31.5136 51.5609 31.582 51.3846 31.582C51.2084 31.582 51.039 31.5136 50.9122 31.3912L49.1836 29.7056C41.9024 22.6053 30.0975 22.6053 22.8163 29.7056L20.9651 31.5104C20.8383 31.6328 20.6689 31.7013 20.4927 31.7013C20.3164 31.7013 20.147 31.6328 20.0202 31.5104L15.7234 27.3202C15.5996 27.2008 15.5011 27.0577 15.4339 26.8994C15.3666 26.7411 15.3319 26.5708 15.3319 26.3988C15.3319 26.2268 15.3666 26.0566 15.4339 25.8983C15.5011 25.74 15.5996 25.5969 15.7234 25.4775L17.1022 24.1334ZM63.7851 32.799L67.6092 36.5282C67.733 36.6476 67.8315 36.7908 67.8988 36.9491C67.966 37.1074 68.0007 37.2776 68.0007 37.4496C68.0007 37.6216 67.966 37.7918 67.8988 37.9501C67.8315 38.1084 67.733 38.2515 67.6092 38.3709L50.3653 55.1865C50.1118 55.4314 49.773 55.5683 49.4205 55.5683C49.0679 55.5683 48.7292 55.4314 48.4756 55.1865L36.237 43.2521C36.1737 43.1909 36.089 43.1567 36.0008 43.1567C35.9127 43.1567 35.828 43.1909 35.7646 43.2521L23.5261 55.1865C23.2725 55.4314 22.9337 55.5683 22.5812 55.5683C22.2287 55.5683 21.8899 55.4314 21.6363 55.1865L4.39242 38.3707C4.26862 38.2513 4.17015 38.1082 4.10289 37.9499C4.03563 37.7916 4.00098 37.6213 4.00098 37.4493C4.00098 37.2773 4.03563 37.1071 4.10289 36.9488C4.17015 36.7905 4.26862 36.6474 4.39242 36.528L8.21657 32.7987C8.47022 32.554 8.80895 32.4172 9.16144 32.4172C9.51393 32.4172 9.85267 32.554 10.1063 32.7987L22.3451 44.7334C22.4085 44.7946 22.4932 44.8288 22.5813 44.8288C22.6695 44.8288 22.7542 44.7946 22.8175 44.7334L35.0558 32.7987C35.3094 32.5538 35.6482 32.417 36.0007 32.417C36.3532 32.417 36.692 32.5538 36.9456 32.7987L49.1844 44.7334C49.2478 44.7946 49.3325 44.8288 49.4206 44.8288C49.5087 44.8288 49.5934 44.7946 49.6568 44.7334L61.8956 32.799C62.1492 32.5541 62.4879 32.4172 62.8405 32.4172C63.193 32.4172 63.5318 32.5541 63.7854 32.799H63.7851Z" fill="#3B99FC"/>
</svg>
