<svg width="72" height="72" viewBox="0 0 72 72" fill="none" xmlns="http://www.w3.org/2000/svg">
<g clip-path="url(#clip0_2483_17750)">
<path d="M42 61.5C41.17 61.5 40.5 60.83 40.5 60C40.5 59.17 41.17 58.5 42 58.5C47.79 58.5 52.5 53.79 52.5 48C52.5 47.17 53.17 46.5 54 46.5C54.83 46.5 55.5 47.17 55.5 48C55.5 55.44 49.44 61.5 42 61.5Z" fill="#C0C9D8"/>
<path d="M11 28H13V48H11C8.79 48 7 46.21 7 44V32C7 29.79 8.79 28 11 28Z" fill="#2D6AFF"/>
<path d="M19 25H17C14.7909 25 13 26.7909 13 29V47C13 49.2091 14.7909 51 17 51H19C21.2091 51 23 49.2091 23 47V29C23 26.7909 21.2091 25 19 25Z" fill="#DCE4EE"/>
<path d="M61 48H59V28H61C63.21 28 65 29.79 65 32V44C65 46.21 63.21 48 61 48Z" fill="#2D6AFF"/>
<path d="M53 51H55C57.2091 51 59 49.2091 59 47V29C59 26.7909 57.2091 25 55 25H53C50.7909 25 49 26.7909 49 29V47C49 49.2091 50.7909 51 53 51Z" fill="#DCE4EE"/>
<path d="M54 28C53.17 28 52.5 27.33 52.5 26.5C52.5 17.66 45.41 11 36 11C26.59 11 19.5 17.66 19.5 26.5C19.5 27.33 18.83 28 18 28C17.17 28 16.5 27.33 16.5 26.5C16.5 15.95 24.88 8 36 8C47.12 8 55.5 15.95 55.5 26.5C55.5 27.33 54.83 28 54 28Z" fill="#C0C9D8"/>
<path d="M41 57H31C29.3431 57 28 58.3431 28 60C28 61.6569 29.3431 63 31 63H41C42.6569 63 44 61.6569 44 60C44 58.3431 42.6569 57 41 57Z" fill="#8396B2"/>
</g>
<defs>
<clipPath id="clip0_2483_17750">
<rect width="58" height="55" fill="white" transform="translate(7 8)"/>
</clipPath>
</defs>
</svg>
