<svg width="72" height="72" viewBox="0 0 72 72" fill="none" xmlns="http://www.w3.org/2000/svg">
<g clip-path="url(#clip0_2483_17772)">
<path d="M50 6H22C13.1634 6 6 13.1634 6 22V50C6 58.8366 13.1634 66 22 66H50C58.8366 66 66 58.8366 66 50V22C66 13.1634 58.8366 6 50 6Z" fill="#2D6AFF"/>
<path d="M36 59.5C23.04 59.5 12.5 48.96 12.5 36C12.5 23.04 23.04 12.5 36 12.5C48.96 12.5 59.5 23.04 59.5 36C59.5 48.96 48.96 59.5 36 59.5ZM36 13.5C23.59 13.5 13.5 23.59 13.5 36C13.5 48.41 23.59 58.5 36 58.5C48.41 58.5 58.5 48.41 58.5 36C58.5 23.59 48.41 13.5 36 13.5Z" fill="#C0D3FF"/>
<path d="M36 48C29.38 48 24 42.62 24 36C24 29.38 29.38 24 36 24C42.62 24 48 29.38 48 36C48 42.62 42.62 48 36 48ZM36 25C29.93 25 25 29.93 25 36C25 42.07 29.93 47 36 47C42.07 47 47 42.07 47 36C47 29.93 42.07 25 36 25Z" fill="#C0D3FF"/>
</g>
<defs>
<clipPath id="clip0_2483_17772">
<rect width="60" height="60" fill="white" transform="translate(6 6)"/>
</clipPath>
</defs>
</svg>
