<svg width="72" height="72" viewBox="0 0 72 72" fill="none" xmlns="http://www.w3.org/2000/svg">
<g clip-path="url(#clip0_2483_17748)">
<path d="M55 52.8C55 63.73 11 63.73 11 52.8C11 41.87 20.85 33 33 33C45.15 33 55 41.86 55 52.8Z" fill="#C0C9D8"/>
<path d="M33 31C39.0751 31 44 26.0751 44 20C44 13.9249 39.0751 9 33 9C26.9249 9 22 13.9249 22 20C22 26.0751 26.9249 31 33 31Z" fill="#FFCBAE"/>
<path d="M55.58 60.09L51.23 63L46.7 60.09C42.21 57.2 40.37 54.72 40.22 49.95L40 43.33L51 39L62 43.33L61.77 50.14C61.62 54.8 59.9 57.19 55.58 60.09Z" fill="#2D6AFF"/>
</g>
<defs>
<clipPath id="clip0_2483_17748">
<rect width="51" height="54" fill="white" transform="translate(11 9)"/>
</clipPath>
</defs>
</svg>
