<svg width="72" height="72" viewBox="0 0 72 72" fill="none" xmlns="http://www.w3.org/2000/svg">
<g clip-path="url(#clip0_2483_17746)">
<path d="M20.57 57.66L11.27 55.78C10.72 55.68 10.26 55.39 9.88 54.92C9.5 54.44 9.37 53.91 9.47 53.31L10.52 44.31L4.6 37.41C4.2 37.01 4 36.51 4 35.91C4 35.31 4.2 34.81 4.6 34.41L10.52 27.58L9.47 18.58C9.37 17.98 9.51 17.44 9.88 16.97C10.25 16.5 10.72 16.21 11.27 16.11L20.57 14.24L25.22 6.21001C25.52 5.71001 25.95 5.36001 26.49 5.16001C27.04 4.96001 27.59 4.99001 28.14 5.23001L36.31 9.05001L44.5 5.23001C45.05 4.98001 45.61 4.93001 46.19 5.08001C46.77 5.23001 47.18 5.58001 47.43 6.13001L52.16 14.23L61.38 16.1C61.93 16.2 62.39 16.49 62.77 16.96C63.15 17.43 63.28 17.97 63.18 18.57L62.13 27.57L68.05 34.4C68.45 34.8 68.65 35.3 68.65 35.9C68.65 36.5 68.45 37 68.05 37.4L62.13 44.3L63.18 53.3C63.28 53.9 63.14 54.44 62.77 54.91C62.39 55.38 61.93 55.67 61.38 55.77L52.16 57.65L47.43 65.68C47.18 66.23 46.77 66.58 46.19 66.73C45.61 66.88 45.05 66.83 44.5 66.58L36.33 62.75L28.16 66.58C27.61 66.83 27.06 66.86 26.51 66.66C25.96 66.46 25.54 66.11 25.24 65.61L20.59 57.66H20.57ZM31.52 44.31C31.97 44.76 32.49 44.98 33.09 44.98C33.69 44.98 34.21 44.75 34.67 44.31L48.54 30.58C48.94 30.18 49.13 29.67 49.1 29.04C49.08 28.42 48.84 27.88 48.39 27.43C47.94 26.98 47.4 26.77 46.78 26.79C46.16 26.81 45.59 27.05 45.09 27.5L33.09 39.43L27.61 33.65C27.16 33.15 26.6 32.91 25.92 32.94C25.25 32.96 24.68 33.23 24.23 33.73C23.78 34.23 23.54 34.8 23.52 35.45C23.5 36.1 23.73 36.65 24.23 37.1L31.51 44.3L31.52 44.31Z" fill="#4BCB0E"/>
</g>
<defs>
<clipPath id="clip0_2483_17746">
<rect width="64.65" height="61.82" fill="white" transform="translate(4 5)"/>
</clipPath>
</defs>
</svg>
