<svg width="72" height="72" viewBox="0 0 72 72" fill="none" xmlns="http://www.w3.org/2000/svg">
<g clip-path="url(#clip0_2483_17749)">
<path d="M11 10V62C11 64.21 12.87 66 15.17 66H56.83C59.13 66 61 64.21 61 62V10C61 7.79 59.13 6 56.83 6H15.17C12.87 6 11 7.79 11 10Z" fill="#DCE4EE"/>
<path d="M51 41H21V45H51V41Z" fill="#97A4B9"/>
<path d="M51 53H21V57H51V53Z" fill="#97A4B9"/>
<path d="M45.5001 30.5H42.8701V27.5H45.5001C46.5601 27.5 47.4301 26.63 47.4301 25.57V19.43C47.4301 18.37 46.5601 17.5 45.5001 17.5H25.5001C24.4401 17.5 23.5701 18.37 23.5701 19.43V25.57C23.5701 26.63 24.4401 27.5 25.5001 27.5H37.0001V30.5H25.5001C22.7801 30.5 20.5701 28.29 20.5701 25.57V19.43C20.5701 16.71 22.7801 14.5 25.5001 14.5H45.5001C48.2201 14.5 50.4301 16.71 50.4301 19.43V25.57C50.4301 28.29 48.2201 30.5 45.5001 30.5Z" fill="#1D59EF"/>
<path d="M35.5 22H37.5C37.78 22 38 22.22 38 22.5V29H35V22.5C35 22.22 35.22 22 35.5 22Z" fill="#1D59EF"/>
<path d="M38 28V30C38 30.28 37.78 30.5 37.5 30.5H31V27.5H37.5C37.78 27.5 38 27.72 38 28Z" fill="#1D59EF"/>
<path d="M45 27.5V30.5H42.5C42.22 30.5 42 30.28 42 30V28C42 27.72 42.22 27.5 42.5 27.5H45Z" fill="#1D59EF"/>
</g>
<defs>
<clipPath id="clip0_2483_17749">
<rect width="50" height="60" fill="white" transform="translate(11 6)"/>
</clipPath>
</defs>
</svg>
