<svg width="72" height="72" viewBox="0 0 72 72" fill="none" xmlns="http://www.w3.org/2000/svg">
<g clip-path="url(#clip0_2483_17770)">
<path d="M36 6C33.79 6 32 7.79 32 10C32 12.21 33.79 14 36 14C38.21 14 40 12.21 40 10C40 7.79 38.21 6 36 6ZM36 12C34.9 12 34 11.1 34 10C34 8.9 34.9 8 36 8C37.1 8 38 8.9 38 10C38 11.1 37.1 12 36 12Z" fill="#FFC200"/>
<path d="M36 66C40.4183 66 44 62.4183 44 58C44 53.5817 40.4183 50 36 50C31.5817 50 28 53.5817 28 58C28 62.4183 31.5817 66 36 66Z" fill="#FFC200"/>
<path d="M62.7301 54.53L58.4601 46.27C56.7401 42.94 55.8401 39.26 55.8401 35.53V29.19C55.8401 18.9 47.4701 10.5 36.9601 10.01C36.6401 9.98999 36.3201 10.01 36.0001 10.01C35.6801 10.01 35.3601 9.98999 35.0401 10.01C24.5301 10.51 16.1601 18.9 16.1601 29.19V35.53C16.1601 39.26 15.2601 42.93 13.5401 46.27L9.27007 54.53C8.45007 56.13 9.64007 58 11.4901 58H60.5201C62.3601 58 63.5601 56.12 62.7401 54.53H62.7301Z" fill="#FFDD33"/>
<path d="M63 55H9C7.89543 55 7 55.8954 7 57C7 58.1046 7.89543 59 9 59H63C64.1046 59 65 58.1046 65 57C65 55.8954 64.1046 55 63 55Z" fill="#DB8161"/>
</g>
<defs>
<clipPath id="clip0_2483_17770">
<rect width="58" height="60" fill="white" transform="translate(7 6)"/>
</clipPath>
</defs>
</svg>
