<svg width="72" height="72" viewBox="0 0 72 72" fill="none" xmlns="http://www.w3.org/2000/svg">
<g clip-path="url(#clip0_2483_17747)">
<path d="M50 6H22C13.1634 6 6 13.1634 6 22V50C6 58.8366 13.1634 66 22 66H50C58.8366 66 66 58.8366 66 50V22C66 13.1634 58.8366 6 50 6Z" fill="#2D6AFF"/>
<path d="M53.82 30.79C53.33 28.44 51.31 27 48.53 27H23.49C20.71 27 18.67 28.46 18.18 30.81L18.13 31.03C18.04 31.54 18 32.05 18 32.67V39.24C18 40.06 18.09 40.64 18.09 40.65V40.67C18.42 43.37 20.44 44.99 23.49 44.99H41.59C41.75 44.99 41.88 44.86 41.88 44.71V34.06C41.88 33.9 41.75 33.77 41.59 33.77H39.66C39.5 33.77 39.36 33.9 39.36 34.05V42.48H23.89C21.68 42.48 20.52 41.02 20.52 39.29V32.65C20.52 30.8 21.45 29.49 23.89 29.49H48.12C50.21 29.49 51.47 30.77 51.47 32.63V39.27C51.47 41.25 50.29 42.47 48.12 42.47H47.56C47.33 42.47 47.13 42.47 46.9 42.47H46.59C46.43 42.47 46.3 42.61 46.3 42.77V44.68C46.3 44.84 46.43 44.97 46.58 44.97H47.31H47.6H48.51C51.56 44.97 53.56 43.35 53.89 40.64V40.62C53.89 40.62 53.98 40.03 53.98 39.21V32.64C53.98 32.22 53.94 31.68 53.85 30.99L53.8 30.77L53.82 30.79Z" fill="white"/>
</g>
<defs>
<clipPath id="clip0_2483_17747">
<rect width="60" height="60" fill="white" transform="translate(6 6)"/>
</clipPath>
</defs>
</svg>
