<svg width="72" height="72" viewBox="0 0 72 72" fill="none" xmlns="http://www.w3.org/2000/svg">
<path d="M36 67C53.1208 67 67 53.1208 67 36C67 18.8792 53.1208 5 36 5C18.8792 5 5 18.8792 5 36C5 53.1208 18.8792 67 36 67Z" fill="#747E83"/>
<path d="M36 55.7266C25.1038 55.7266 16.2734 46.8962 16.2734 36C16.2734 25.1038 25.1038 16.2734 36 16.2734C41.4456 16.2734 46.3766 18.4816 49.9487 22.0513L57.9198 14.0802C52.3093 8.4697 44.5581 5 36 5C18.8788 5 5 18.8788 5 36C5 53.1212 18.8788 67 36 67C44.5606 67 52.3093 63.5303 57.9223 57.9223L49.9512 49.9513C46.3766 53.5184 41.4456 55.7266 36 55.7266Z" fill="#C3CED3"/>
<path d="M55.7269 36.0002H45.8623C45.8623 30.5546 41.4459 26.1356 35.9978 26.1356C30.5497 26.1356 26.1357 30.5521 26.1357 36.0002C26.1357 38.653 27.1849 41.0586 28.891 42.8347L28.8835 42.8422L41.0962 55.0548L41.0987 55.0573C49.5219 52.8091 55.7269 45.1303 55.7269 36.0002Z" fill="#5C6164"/>
<path d="M66.998 36H55.7246C55.7246 45.1301 49.5171 52.809 41.0989 55.0571L49.8044 63.7626C59.9961 58.6842 66.998 48.1602 66.998 36Z" fill="#A1ACB1"/>
<path d="M41.1016 55.0571L41.3763 55.3319C49.6547 52.9938 55.7273 45.3849 55.7273 36.3522V36C55.7273 45.1301 49.5198 52.8089 41.1016 55.0571Z" fill="white" fill-opacity="0.05"/>
<path d="M61.3638 33.1812H35.9994C34.4431 33.1812 33.1816 34.4427 33.1816 35.9989C33.1816 37.5552 34.4431 38.8167 35.9994 38.8167H61.3613C62.9175 38.8167 64.179 37.5552 64.179 35.9989C64.1815 34.4427 62.92 33.1812 61.3638 33.1812Z" fill="#C3CED3"/>
<path d="M10.6332 38.1135C11.8003 38.1135 12.7465 37.1673 12.7465 36.0001C12.7465 34.8329 11.8003 33.8867 10.6332 33.8867C9.46597 33.8867 8.51978 34.8329 8.51978 36.0001C8.51978 37.1673 9.46597 38.1135 10.6332 38.1135Z" fill="#E2EAEE"/>
<path d="M35.9974 12.7488C37.1646 12.7488 38.1108 11.8026 38.1108 10.6354C38.1108 9.46826 37.1646 8.52206 35.9974 8.52206C34.8302 8.52206 33.884 9.46826 33.884 10.6354C33.884 11.8026 34.8302 12.7488 35.9974 12.7488Z" fill="#E2EAEE"/>
<path d="M35.9974 63.4754C37.1646 63.4754 38.1108 62.5292 38.1108 61.362C38.1108 60.1949 37.1646 59.2487 35.9974 59.2487C34.8302 59.2487 33.884 60.1949 33.884 61.362C33.884 62.5292 34.8302 63.4754 35.9974 63.4754Z" fill="#E2EAEE"/>
<path d="M18.0331 20.1778C19.2002 20.1778 20.1464 19.2316 20.1464 18.0644C20.1464 16.8972 19.2002 15.951 18.0331 15.951C16.8659 15.951 15.9197 16.8972 15.9197 18.0644C15.9197 19.2316 16.8659 20.1778 18.0331 20.1778Z" fill="#E2EAEE"/>
<path d="M18.0331 56.079C19.2002 56.079 20.1464 55.1328 20.1464 53.9656C20.1464 52.7985 19.2002 51.8523 18.0331 51.8523C16.8659 51.8523 15.9197 52.7985 15.9197 53.9656C15.9197 55.1328 16.8659 56.079 18.0331 56.079Z" fill="#E2EAEE"/>
<path d="M53.9654 56.0788C55.1326 56.0788 56.0788 55.1326 56.0788 53.9654C56.0788 52.7982 55.1326 51.852 53.9654 51.852C52.7982 51.852 51.8521 52.7982 51.8521 53.9654C51.8521 55.1326 52.7982 56.0788 53.9654 56.0788Z" fill="#C3CED3"/>
<path d="M35.9989 33.5344H61.3609C62.8572 33.5344 64.0812 34.7035 64.1686 36.1773C64.1711 36.1173 64.1786 36.0599 64.1786 35.9999C64.1786 34.4437 62.9172 33.1822 61.3609 33.1822H35.9989C34.4426 33.1822 33.1812 34.4437 33.1812 35.9999C33.1812 36.0599 33.1837 36.1173 33.1911 36.1773C33.2786 34.7035 34.5001 33.5344 35.9989 33.5344Z" fill="white" fill-opacity="0.2"/>
</svg>
