<svg width="72" height="72" viewBox="0 0 72 72" fill="none" xmlns="http://www.w3.org/2000/svg">
<path fill-rule="evenodd" clip-rule="evenodd" d="M36 65C52.0163 65 65 52.0163 65 36C65 19.9837 52.0163 7 36 7C19.9837 7 7 19.9837 7 36C7 52.0163 19.9837 65 36 65ZM36 68C53.6731 68 68 53.6731 68 36C68 18.3269 53.6731 4 36 4C18.3269 4 4 18.3269 4 36C4 53.6731 18.3269 68 36 68Z" fill="#2D6AFF"/>
<path d="M46 21H26C22.69 21 20 23.69 20 27V58.38C20 60.33 20.95 62.19 22.71 63.02C25.74 64.45 30.48 65.99 36 65.99C41.52 65.99 46.26 64.44 49.29 63.02C51.06 62.19 52 60.33 52 58.38V27C52 23.69 49.31 21 46 21Z" fill="#EAF1FF"/>
<path fill-rule="evenodd" clip-rule="evenodd" d="M19 27C19 23.1377 22.1377 20 26 20H46C49.8623 20 53 23.1377 53 27V58.38C53 60.6281 51.9103 62.8958 49.7146 63.9254L49.7144 63.9255C46.5863 65.3915 41.7007 66.99 36 66.99C30.3006 66.99 25.4146 65.4022 22.2832 63.9243C20.1018 62.8955 19 60.6311 19 58.38V27ZM26 22C23.2423 22 21 24.2423 21 27V58.38C21 60.0288 21.7981 61.4843 23.1365 62.1155L23.1368 62.1157C26.0654 63.4978 30.6594 64.99 36 64.99C41.3392 64.99 45.9335 63.4886 48.8654 62.1146C50.2097 61.4842 51 60.0319 51 58.38V27C51 24.2423 48.7577 22 46 22H26Z" fill="#2D6AFF"/>
<path d="M50.9457 24.4653C50.9516 24.4772 50.9573 24.4888 50.9629 24.5H21.1259C21.1462 24.4429 21.1704 24.3791 21.199 24.3037L21.2028 24.2937C21.2431 24.1876 21.2898 24.0642 21.333 23.9324C21.4192 23.6697 21.5001 23.3501 21.5001 23C21.5001 22.1761 22.1763 21.5 23.0001 21.5H49.0001C49.824 21.5 50.5001 22.1761 50.5001 23C50.5001 23.3662 50.602 23.6971 50.7123 23.9662C50.7823 24.137 50.8749 24.3231 50.9457 24.4653ZM20.9224 24.4863C20.9226 24.4861 20.9252 24.4868 20.9295 24.4885C20.9244 24.4872 20.9222 24.4864 20.9224 24.4863ZM51.0854 24.7807C51.086 24.7836 51.0862 24.7849 51.0861 24.7849C51.0861 24.7848 51.0857 24.7834 51.0854 24.7807Z" fill="#2D6AFF" stroke="#2D6AFF"/>
</svg>
