<svg width="72" height="72" viewBox="0 0 72 72" fill="none" xmlns="http://www.w3.org/2000/svg">
<g clip-path="url(#clip0_4803_19673)">
<path d="M7.29004 24.92L22.93 9.87C24.18 8.67 25.79 8 27.46 8H44.53C46.2 8 47.82 8.66 49.06 9.87L64.7 24.92C67.63 27.74 67.77 32.65 64.99 35.66L40.81 61.84C38.15 64.73 33.82 64.73 31.16 61.84L7.00004 35.65C4.23004 32.65 4.36004 27.74 7.29004 24.91V24.92Z" fill="#6CDAF4"/>
<path d="M66.99 30.12H5.01002C4.93002 32.11 5.59002 34.13 7.00002 35.66L14.49 43.77L31.18 61.84C33.84 64.73 38.17 64.73 40.83 61.84L57.52 43.77L65.01 35.66C66.42 34.13 67.07 32.11 67 30.12H66.99Z" fill="#2BB2D6"/>
<path d="M17.81 30.15H54.19L47.62 8.8C46.67 8.28 45.62 8 44.53 8H27.47C26.39 8 25.33 8.28 24.38 8.8L17.8 30.14L17.81 30.15Z" fill="#8BE4FC"/>
<path d="M17.8101 30.15L34.3801 63.78C35.4401 64.06 36.5501 64.06 37.6101 63.78L54.1901 30.15H17.8101Z" fill="#4AC4E5"/>
</g>
<defs>
<clipPath id="clip0_4803_19673">
<rect width="62" height="56" fill="white" transform="translate(5 8)"/>
</clipPath>
</defs>
</svg>
