<svg width="72" height="72" viewBox="0 0 72 72" fill="none" xmlns="http://www.w3.org/2000/svg">
<path fill-rule="evenodd" clip-rule="evenodd" d="M36 65C52.0163 65 65 52.0162 65 36C65 19.9837 52.0163 6.99996 36 6.99996C19.9837 6.99996 7 19.9837 7 36C7 52.0162 19.9837 65 36 65ZM36 68C53.6731 68 68 53.6731 68 36C68 18.3269 53.6731 3.99996 36 3.99996C18.3269 3.99996 4 18.3269 4 36C4 53.6731 18.3269 68 36 68Z" fill="#2D6AFF"/>
<path fill-rule="evenodd" clip-rule="evenodd" d="M53.0442 24.9232C53.639 25.4999 53.6536 26.4495 53.0769 27.0442L31.7435 49.0442C31.1754 49.6301 30.2431 49.6543 29.6454 49.0986L18.9787 39.1831C18.372 38.6191 18.3373 37.67 18.9014 37.0632C19.4654 36.4565 20.4145 36.4218 21.0213 36.9859L30.6122 45.9014L50.9232 24.9558C51.4999 24.3611 52.4495 24.3464 53.0442 24.9232Z" fill="#2D6AFF"/>
</svg>
