<svg width="72" height="72" viewBox="0 0 72 72" fill="none" xmlns="http://www.w3.org/2000/svg">
<path d="M50.2582 26.4758C49.2251 25.8748 47.8818 25.8748 46.7454 26.4758L38.6864 31.084L33.2104 34.0896L25.1514 38.6978C24.1182 39.2989 22.775 39.2989 21.6384 38.6978L15.2325 35.0914C14.1994 34.4903 13.4762 33.3883 13.4762 32.1862V25.0736C13.4708 24.4742 13.6322 23.885 13.9424 23.372C14.2525 22.859 14.6992 22.4423 15.2325 22.1685L21.5352 18.6623C22.5683 18.0611 23.9116 18.0611 25.0481 18.6623L31.3506 22.1685C32.3839 22.7695 33.107 23.8715 33.107 25.0736V29.6819L38.5831 26.5763V21.9681C38.5885 21.3686 38.427 20.7795 38.1169 20.2665C37.8067 19.7534 37.36 19.3368 36.8267 19.063L25.1514 12.4508C24.1182 11.8497 22.775 11.8497 21.6384 12.4508L9.75658 19.0626C9.22324 19.3364 8.77652 19.7531 8.46634 20.2661C8.15617 20.7791 7.99475 21.3683 8.00013 21.9678V35.2915C7.99475 35.891 8.15617 36.4801 8.46634 36.9932C8.77652 37.5062 9.22324 37.9228 9.75658 38.1966L21.6384 44.8084C22.6717 45.4095 24.0148 45.4095 25.1514 44.8084L33.2104 40.3L38.6864 37.195L46.7454 32.6866C47.7786 32.0855 49.1218 32.0855 50.2582 32.6866L56.5607 36.1928C57.594 36.794 58.3173 37.8957 58.3173 39.098V46.2105C58.3227 46.81 58.1613 47.3992 57.8511 47.9122C57.5409 48.4252 57.0941 48.8419 56.5607 49.1156L50.2582 52.7221C49.2251 53.3233 47.8818 53.3233 46.7454 52.7221L40.4428 49.2159C39.4097 48.6149 38.6864 47.5128 38.6864 46.3108V41.7034L33.2104 44.8089V49.4171C33.205 50.0166 33.3664 50.6058 33.6766 51.1188C33.9867 51.6319 34.4335 52.0486 34.9669 52.3223L46.8487 58.9341C47.8818 59.5351 49.2251 59.5351 50.3615 58.9341L62.2434 52.3223C63.2766 51.7213 63.9999 50.6193 63.9999 49.4171V36.093C64.0053 35.4935 63.8439 34.9043 63.5337 34.3912C63.2235 33.8782 62.7768 33.4615 62.2434 33.1877L50.2582 26.4758Z" fill="#8247E5"/>
</svg>
