<svg width="72" height="72" viewBox="0 0 72 72" fill="none" xmlns="http://www.w3.org/2000/svg">
<g clip-path="url(#clip0_2645_13356)">
<path d="M36 10C33.79 10 32 11.79 32 14C32 16.21 33.79 18 36 18C38.21 18 40 16.21 40 14C40 11.79 38.21 10 36 10ZM36 16C34.9 16 34 15.1 34 14C34 12.9 34.9 12 36 12C37.1 12 38 12.9 38 14C38 15.1 37.1 16 36 16Z" fill="#FFC200"/>
<path d="M37 61C41.4183 61 45 57.4183 45 53C45 48.5817 41.4183 45 37 45C32.5817 45 29 48.5817 29 53C29 57.4183 32.5817 61 37 61Z" fill="#FFC200"/>
<path d="M54.11 45.22C52.72 42.44 52 39.38 52 36.28V34C46.48 34 42 29.52 42 24C42 21.51 42.92 19.23 44.43 17.48C42.2 16.05 39.6 15.15 36.78 15.02C27.59 14.59 20.01 21.91 20.01 31V36.28C20.01 39.38 19.29 42.45 17.9 45.22L14.46 52.1C13.8 53.43 14.76 54.99 16.25 54.99H55.76C57.25 54.99 58.21 53.43 57.55 52.1L54.11 45.22Z" fill="#FFDD33"/>
<path d="M57 51H15C13.8954 51 13 51.8954 13 53C13 54.1046 13.8954 55 15 55H57C58.1046 55 59 54.1046 59 53C59 51.8954 58.1046 51 57 51Z" fill="#DB8161"/>
<path d="M52 31C55.866 31 59 27.866 59 24C59 20.134 55.866 17 52 17C48.134 17 45 20.134 45 24C45 27.866 48.134 31 52 31Z" fill="#FA2B5C"/>
</g>
<defs>
<clipPath id="clip0_2645_13356">
<rect width="46" height="51" fill="white" transform="translate(13 10)"/>
</clipPath>
</defs>
</svg>
