<svg width="72" height="72" viewBox="0 0 72 72" fill="none" xmlns="http://www.w3.org/2000/svg">
<path d="M36 62C50.3594 62 62 50.3594 62 36C62 21.6406 50.3594 10 36 10C21.6406 10 10 21.6406 10 36C10 50.3594 21.6406 62 36 62Z" fill="#747E83"/>
<path d="M36 52.5449C26.8612 52.5449 19.4551 45.1388 19.4551 36C19.4551 26.8612 26.8612 19.4551 36 19.4551C40.5673 19.4551 44.703 21.3072 47.699 24.3011L54.3844 17.6156C49.6788 12.9101 43.1778 10 36 10C21.6403 10 10 21.6403 10 36C10 50.3597 21.6403 62 36 62C43.1799 62 49.6788 59.0899 54.3865 54.3865L47.701 47.7011C44.703 50.6928 40.5673 52.5449 36 52.5449Z" fill="#C3CED3"/>
<path d="M52.5454 36.0002H44.2719C44.2719 31.4329 40.5678 27.7267 35.9984 27.7267C31.4291 27.7267 27.7271 31.4308 27.7271 36.0002C27.7271 38.2252 28.607 40.2427 30.0379 41.7323L30.0316 41.7386L40.2745 51.9815L40.2766 51.9836C47.3412 50.098 52.5454 43.6577 52.5454 36.0002Z" fill="#5C6164"/>
<path d="M61.9985 36H52.5433C52.5433 43.6575 47.337 50.0978 40.2766 51.9834L47.578 59.2848C56.1259 55.0255 61.9985 46.1989 61.9985 36Z" fill="#A1ACB1"/>
<path d="M40.2788 51.9834L40.5093 52.2139C47.4524 50.2529 52.5455 43.8712 52.5455 36.2954V36C52.5455 43.6575 47.3392 50.0978 40.2788 51.9834Z" fill="white" fill-opacity="0.05"/>
<path d="M57.2731 33.6357H35.9997C34.6945 33.6357 33.6365 34.6938 33.6365 35.999C33.6365 37.3043 34.6945 38.3623 35.9997 38.3623H57.271C58.5762 38.3623 59.6342 37.3043 59.6342 35.999C59.6363 34.6938 58.5783 33.6357 57.2731 33.6357Z" fill="#C3CED3"/>
<path d="M14.7247 37.7726C15.7036 37.7726 16.4972 36.979 16.4972 36.0001C16.4972 35.0211 15.7036 34.2275 14.7247 34.2275C13.7457 34.2275 12.9521 35.0211 12.9521 36.0001C12.9521 36.979 13.7457 37.7726 14.7247 37.7726Z" fill="#E2EAEE"/>
<path d="M35.9976 16.4989C36.9766 16.4989 37.7701 15.7054 37.7701 14.7264C37.7701 13.7475 36.9766 12.9539 35.9976 12.9539C35.0187 12.9539 34.2251 13.7475 34.2251 14.7264C34.2251 15.7054 35.0187 16.4989 35.9976 16.4989Z" fill="#E2EAEE"/>
<path d="M35.9976 59.0439C36.9766 59.0439 37.7701 58.2503 37.7701 57.2714C37.7701 56.2924 36.9766 55.4988 35.9976 55.4988C35.0187 55.4988 34.2251 56.2924 34.2251 57.2714C34.2251 58.2503 35.0187 59.0439 35.9976 59.0439Z" fill="#E2EAEE"/>
<path d="M20.931 22.7298C21.9099 22.7298 22.7035 21.9362 22.7035 20.9573C22.7035 19.9783 21.9099 19.1848 20.931 19.1848C19.952 19.1848 19.1584 19.9783 19.1584 20.9573C19.1584 21.9362 19.952 22.7298 20.931 22.7298Z" fill="#E2EAEE"/>
<path d="M20.931 52.8404C21.9099 52.8404 22.7035 52.0468 22.7035 51.0679C22.7035 50.0889 21.9099 49.2953 20.931 49.2953C19.952 49.2953 19.1584 50.0889 19.1584 51.0679C19.1584 52.0468 19.952 52.8404 20.931 52.8404Z" fill="#E2EAEE"/>
<path d="M51.0679 52.8402C52.0469 52.8402 52.8404 52.0466 52.8404 51.0677C52.8404 50.0887 52.0469 49.2952 51.0679 49.2952C50.089 49.2952 49.2954 50.0887 49.2954 51.0677C49.2954 52.0466 50.089 52.8402 51.0679 52.8402Z" fill="#C3CED3"/>
<path d="M35.9992 33.9321H57.2706C58.5256 33.9321 59.5522 34.9126 59.6255 36.1487C59.6276 36.0984 59.6339 36.0502 59.6339 35.9999C59.6339 34.6947 58.5759 33.6367 57.2706 33.6367H35.9992C34.694 33.6367 33.636 34.6947 33.636 35.9999C33.636 36.0502 33.6381 36.0984 33.6444 36.1487C33.7177 34.9126 34.7422 33.9321 35.9992 33.9321Z" fill="white" fill-opacity="0.2"/>
</svg>
