<svg width="72" height="72" viewBox="0 0 72 72" fill="none" xmlns="http://www.w3.org/2000/svg">
<g clip-path="url(#clip0_837_6786)">
<path d="M18.32 18C17.52 18 16.8 18.48 16.48 19.21L7.57 39.91C7.2 40.62 7 41.42 7 42.22V58.99C7 61.2 8.79 62.99 11 62.99H61C63.21 62.99 65 61.2 65 58.99V42.22C65 41.41 64.81 40.62 64.43 39.91L55.52 19.21C55.2 18.48 54.48 18 53.68 18H18.32Z" fill="#DB8161"/>
<path d="M19.5 21L11 41V49H61V41L52.5 21H19.5Z" fill="#A0523A"/>
<path d="M9 41H19C21.21 41 23 42.79 23 45V55H9V41Z" fill="#DB8161"/>
<path d="M63 55H49V45C49 42.79 50.79 41 53 41H63V55Z" fill="#DB8161"/>
<path d="M39 12C39 10.3431 37.6569 9 36 9C34.3431 9 33 10.3431 33 12V39C33 40.6569 34.3431 42 36 42C37.6569 42 39 40.6569 39 39V12Z" fill="#FFD110"/>
<path d="M43.853 26.9038L33.8828 36.874C32.7112 38.0456 32.7112 39.945 33.8828 41.1166C35.0544 42.2882 36.9539 42.2882 38.1254 41.1166L48.0956 31.1464C49.2672 29.9748 49.2672 28.0753 48.0956 26.9038C46.9241 25.7322 45.0246 25.7322 43.853 26.9038Z" fill="#FFD110"/>
<path d="M28.1486 26.9107C26.9771 25.7391 25.0776 25.7391 23.906 26.9107C22.7344 28.0822 22.7344 29.9817 23.906 31.1533L33.8762 41.1235C35.0478 42.2951 36.9473 42.2951 38.1188 41.1235C39.2904 39.9519 39.2904 38.0524 38.1188 36.8809L28.1486 26.9107Z" fill="#FFD110"/>
<path d="M47 53H25C23.8954 53 23 53.8954 23 55V57C23 58.1046 23.8954 59 25 59H47C48.1046 59 49 58.1046 49 57V55C49 53.8954 48.1046 53 47 53Z" fill="#EAE0DC"/>
<path d="M26 57C26.5523 57 27 56.5523 27 56C27 55.4477 26.5523 55 26 55C25.4477 55 25 55.4477 25 56C25 56.5523 25.4477 57 26 57Z" fill="white"/>
<path d="M46 57C46.5523 57 47 56.5523 47 56C47 55.4477 46.5523 55 46 55C45.4477 55 45 55.4477 45 56C45 56.5523 45.4477 57 46 57Z" fill="white"/>
</g>
<defs>
<clipPath id="clip0_837_6786">
<rect width="58" height="54" fill="white" transform="translate(7 9)"/>
</clipPath>
</defs>
</svg>
