<svg width="72" height="72" viewBox="0 0 72 72" fill="none" xmlns="http://www.w3.org/2000/svg">
<path d="M9.14687 25.6368L23.7753 11.5602C24.9445 10.4378 26.4504 9.81116 28.0124 9.81116H43.9783C45.5403 9.81116 47.0556 10.4285 48.2154 11.5602L62.8438 25.6368C65.5843 28.2745 65.7153 32.8669 63.1151 35.6822L40.4989 60.169C38.011 62.8721 33.961 62.8721 31.4731 60.169L8.87562 35.6729C6.28478 32.8669 6.40637 28.2745 9.14687 25.6275V25.6368Z" fill="#C0A6FF"/>
<path d="M64.9858 30.5005H7.01437C6.93954 32.3618 7.55685 34.2512 8.87566 35.6822L15.8812 43.2677L31.4918 60.169C33.9798 62.8721 38.0297 62.8721 40.5177 60.169L56.1282 43.2677L63.1338 35.6822C64.4526 34.2512 65.0606 32.3618 64.9951 30.5005H64.9858Z" fill="#8862EF"/>
<path d="M18.9864 30.5286H53.0135L46.8684 10.5594C45.9799 10.073 44.9978 9.81116 43.9783 9.81116H28.0216C27.0115 9.81116 26.02 10.073 25.1315 10.5594L18.9771 30.5192L18.9864 30.5286Z" fill="#CEB7FF"/>
<path d="M18.9863 30.5286L34.4846 61.9836C35.4761 62.2455 36.5143 62.2455 37.5057 61.9836L53.0134 30.5286H18.9863Z" fill="#9D70FF"/>
<path d="M45 30H27C25.8954 30 25 30.8954 25 32C25 33.1046 25.8954 34 27 34H45C46.1046 34 47 33.1046 47 32C47 30.8954 46.1046 30 45 30Z" fill="#F6F1FF"/>
<path d="M34 23V41C34 42.1046 34.8954 43 36 43C37.1046 43 38 42.1046 38 41V23C38 21.8954 37.1046 21 36 21C34.8954 21 34 21.8954 34 23Z" fill="#F6F1FF"/>
</svg>
