<svg width="72" height="72" viewBox="0 0 72 72" fill="none" xmlns="http://www.w3.org/2000/svg">
<g clip-path="url(#clip0_2230_11375)">
<path d="M55.8501 47.42C54.7901 48.78 52.5901 48.78 51.5301 47.42L45.2001 39.33C43.9301 37.71 45.1901 35.44 47.3601 35.44H60.0201C62.1901 35.44 63.4501 37.71 62.1801 39.33L55.8501 47.42Z" fill="#4BCB0E"/>
<path d="M57 36C57 23.3 46.48 13 33.5 13C20.52 13 10 23.3 10 36C10 47.62 18.8 57.22 30.23 58.78C32.34 59.07 34.86 58.43 35.31 56.35C35.35 56.15 35.38 55.94 35.38 55.72C35.38 55.22 35.29 54.78 35.14 54.4C34.53 52.8 32.59 52.5 30.9 52.24C22.86 51.02 16.71 44.22 16.71 36.01C16.71 26.94 24.23 19.58 33.5 19.58C42.77 19.58 50.29 26.94 50.29 36.01H57V36Z" fill="#4BCB0E"/>
</g>
<defs>
<clipPath id="clip0_2230_11375">
<rect width="52.68" height="45.84" fill="white" transform="translate(10 13)"/>
</clipPath>
</defs>
</svg>
