<svg width="72" height="72" viewBox="0 0 72 72" fill="none" xmlns="http://www.w3.org/2000/svg">
<g clip-path="url(#clip0_429_2456)">
<path d="M36 64C51.464 64 64 51.464 64 36C64 20.536 51.464 8 36 8C20.536 8 8 20.536 8 36C8 51.464 20.536 64 36 64Z" fill="#FFDD33"/>
<path d="M36 66C52.5685 66 66 52.5685 66 36C66 19.4315 52.5685 6 36 6C19.4315 6 6 19.4315 6 36C6 52.5685 19.4315 66 36 66Z" fill="#F4C708"/>
<path d="M36 63C50.9117 63 63 50.9117 63 36C63 21.0883 50.9117 9 36 9C21.0883 9 9 21.0883 9 36C9 50.9117 21.0883 63 36 63Z" fill="#FFDD33"/>
<path d="M36 57C47.598 57 57 47.598 57 36C57 24.402 47.598 15 36 15C24.402 15 15 24.402 15 36C15 47.598 24.402 57 36 57Z" fill="#F4C708"/>
<path d="M45 34H27C25.8954 34 25 34.8954 25 36C25 37.1046 25.8954 38 27 38H45C46.1046 38 47 37.1046 47 36C47 34.8954 46.1046 34 45 34Z" fill="white"/>
</g>
<defs>
<clipPath id="clip0_429_2456">
<rect width="60" height="60" fill="white" transform="translate(6 6)"/>
</clipPath>
</defs>
</svg>
