<svg width="72" height="72" viewBox="0 0 72 72" fill="none" xmlns="http://www.w3.org/2000/svg">
<g clip-path="url(#clip0_2374_11221)">
<path d="M58 12H12V58H58V12Z" fill="white"/>
<path d="M45.11 30.56L23.54 53.63C22.35 54.91 23.25 57 25 57H58.6199L58.9599 42.25L48.03 30.56C47.24 29.71 45.9 29.71 45.11 30.56Z" fill="#4BCB0E"/>
<path d="M22.6499 37.56L12.8799 48.01V57H39.1399C40.8899 57 41.7999 54.91 40.5999 53.63L25.5699 37.56C24.7799 36.71 23.4399 36.71 22.6499 37.56Z" fill="#4BCB0E"/>
<path d="M56 14C56 14 55.93 14 55.9 14.01C55.44 11.72 53.42 10 51 10C48.58 10 46.56 11.72 46.1 14.01C46.07 14.01 46.03 14 46 14C44.34 14 43 15.34 43 17C43 18.66 44.34 20 46 20H56C57.66 20 59 18.66 59 17C59 15.34 57.66 14 56 14Z" fill="#C0D3FF"/>
<path d="M56 10H14C11.79 10 10 11.79 10 14V56C10 58.21 11.79 60 14 60H56C58.21 60 60 58.21 60 56V14C60 11.79 58.21 10 56 10ZM56 54C56 55.1 55.1 56 54 56H16C14.9 56 14 55.1 14 54V16C14 14.9 14.9 14 16 14H54C55.1 14 56 14.9 56 16V54Z" fill="#DB8161"/>
<path d="M63 47V65L58 62L53 65V47H63Z" fill="#2D6AFF"/>
<path d="M58 52C61.866 52 65 48.866 65 45C65 41.134 61.866 38 58 38C54.134 38 51 41.134 51 45C51 48.866 54.134 52 58 52Z" fill="#FFDB25"/>
<path d="M31 24C31 24 30.93 24 30.9 24.01C30.44 21.72 28.42 20 26 20C23.58 20 21.56 21.72 21.1 24.01C21.07 24.01 21.03 24 21 24C19.34 24 18 25.34 18 27C18 28.66 19.34 30 21 30H31C32.66 30 34 28.66 34 27C34 25.34 32.66 24 31 24Z" fill="#C0D3FF"/>
</g>
<defs>
<clipPath id="clip0_2374_11221">
<rect width="55" height="55" fill="white" transform="translate(10 10)"/>
</clipPath>
</defs>
</svg>
