<svg width="72" height="72" viewBox="0 0 72 72" fill="none" xmlns="http://www.w3.org/2000/svg">
<path d="M9.34069 25.7116L23.8637 11.7364C25.0244 10.6221 26.5194 10 28.0702 10H43.921C45.4718 10 46.9761 10.6129 48.1275 11.7364L62.6505 25.7116C65.3713 28.3302 65.5013 32.8895 62.9198 35.6846L40.4667 59.9948C37.9967 62.6784 33.9759 62.6784 31.5059 59.9948L9.0714 35.6753C6.49923 32.8895 6.61994 28.3302 9.34069 25.7023V25.7116Z" fill="#FFDD50"/>
<path d="M64.777 30.5402H7.22355C7.14926 32.3881 7.76213 34.2638 9.07143 35.6846L16.0265 43.2154L31.5245 59.9948C33.9945 62.6784 38.0153 62.6784 40.4853 59.9948L55.9833 43.2154L62.9384 35.6846C64.2477 34.2638 64.8513 32.3881 64.7863 30.5402H64.777Z" fill="#FFC200"/>
<path d="M19.1094 30.5681H52.8912L46.7904 10.7429C45.9082 10.26 44.9332 10 43.9211 10H28.0795C27.0766 10 26.0923 10.26 25.2102 10.7429L19.1001 30.5588L19.1094 30.5681Z" fill="#FFE667"/>
<path d="M19.1094 30.5681L34.496 61.7963C35.4803 62.0563 36.511 62.0563 37.4953 61.7963L52.8911 30.5681H19.1094Z" fill="#FFD110"/>
<path d="M45.5699 29.87H27.5699C26.4654 29.87 25.5699 30.7654 25.5699 31.87C25.5699 32.9746 26.4654 33.87 27.5699 33.87H45.5699C46.6745 33.87 47.5699 32.9746 47.5699 31.87C47.5699 30.7654 46.6745 29.87 45.5699 29.87Z" fill="white"/>
</svg>
