<svg width="72" height="72" viewBox="0 0 72 72" fill="none" xmlns="http://www.w3.org/2000/svg">
<g clip-path="url(#clip0_2879_16144)">
<path d="M51 53.8C51 64.73 7 64.73 7 53.8C7 42.87 16.85 34 29 34C41.15 34 51 42.86 51 53.8Z" fill="#C0C9D8"/>
<path d="M29 32C35.0751 32 40 27.0751 40 21C40 14.9249 35.0751 10 29 10C22.9249 10 18 14.9249 18 21C18 27.0751 22.9249 32 29 32Z" fill="#FFCBAE"/>
<path d="M58 39H42V55H58V39Z" fill="white"/>
<path d="M42.69 56.7L38.37 55.82C38.11 55.77 37.9 55.64 37.73 55.42C37.56 55.2 37.49 54.95 37.54 54.66L38.03 50.44L35.28 47.2C35.09 47.01 35 46.78 35 46.5C35 46.22 35.09 45.98 35.28 45.8L38.03 42.6L37.54 38.38C37.49 38.1 37.56 37.85 37.73 37.62C37.9 37.39 38.12 37.26 38.37 37.22L42.69 36.34L44.85 32.58C44.99 32.35 45.19 32.18 45.44 32.09C45.7 32 45.95 32.01 46.21 32.13L50 33.92L53.79 32.13C54.05 32.01 54.31 31.99 54.57 32.06C54.84 32.13 55.03 32.29 55.14 32.55L57.33 36.35L61.61 37.23C61.87 37.28 62.08 37.41 62.25 37.63C62.42 37.85 62.49 38.1 62.44 38.39L61.95 42.61L64.7 45.81C64.89 46 64.98 46.23 64.98 46.51C64.98 46.79 64.89 47.03 64.7 47.21L61.95 50.45L62.44 54.67C62.49 54.95 62.42 55.2 62.25 55.43C62.08 55.65 61.86 55.79 61.61 55.83L57.33 56.71L55.14 60.47C55.02 60.73 54.83 60.89 54.57 60.96C54.3 61.03 54.04 61.01 53.79 60.89L50 59.1L46.21 60.89C45.95 61.01 45.7 61.02 45.44 60.93C45.18 60.84 44.99 60.67 44.85 60.44L42.69 56.71V56.7ZM47.77 50.44C47.98 50.65 48.22 50.76 48.5 50.76C48.78 50.76 49.02 50.65 49.23 50.44L55.67 44C55.86 43.81 55.94 43.57 55.93 43.28C55.92 42.99 55.81 42.73 55.6 42.52C55.39 42.31 55.14 42.21 54.85 42.22C54.56 42.23 54.3 42.34 54.07 42.55L48.5 48.14L45.96 45.43C45.75 45.2 45.49 45.08 45.18 45.1C44.87 45.11 44.61 45.23 44.4 45.47C44.19 45.7 44.08 45.97 44.07 46.28C44.06 46.58 44.17 46.84 44.4 47.05L47.78 50.43L47.77 50.44Z" fill="#2D6AFF"/>
</g>
<defs>
<clipPath id="clip0_2879_16144">
<rect width="58" height="52" fill="white" transform="translate(7 10)"/>
</clipPath>
</defs>
</svg>
