<svg width="400" height="400" viewBox="0 0 400 400" fill="none" xmlns="http://www.w3.org/2000/svg">
<g clip-path="url(#clip0_1321_4057)">
<g clip-path="url(#clip1_1321_4057)">
<path d="M252.767 131C283.244 131 307.942 106.38 307.942 76C307.942 45.62 283.244 21 252.767 21C222.291 21 197.593 45.62 197.593 76C197.593 106.38 222.291 131 252.767 131Z" fill="#FFDB25"/>
<path d="M224.568 65.15C225.029 65.15 225.471 64.97 225.792 64.65C226.113 64.33 226.304 63.89 226.304 63.44V55.17C226.304 53.22 227.076 51.38 228.48 50.01C229.875 48.63 231.731 47.87 233.697 47.86H240.9C241.361 47.86 241.803 47.68 242.124 47.36C242.445 47.05 242.635 46.6 242.635 46.15C242.635 45.7 242.455 45.25 242.124 44.94C241.803 44.62 241.361 44.44 240.9 44.44H233.687C232.262 44.44 230.858 44.72 229.534 45.25C228.21 45.79 227.026 46.58 226.013 47.58C224.999 48.59 224.207 49.76 223.655 51.07C223.113 52.38 222.833 53.77 222.833 55.19V63.46C222.833 63.91 223.013 64.36 223.344 64.67C223.665 64.99 224.107 65.17 224.568 65.17V65.15Z" fill="#1C1E22"/>
<path d="M240.087 66.13C239.766 66.45 239.576 66.88 239.576 67.33V71.66C239.576 72.11 239.756 72.56 240.087 72.87C240.408 73.19 240.85 73.37 241.311 73.37C241.773 73.37 242.214 73.19 242.535 72.87C242.856 72.55 243.047 72.1 243.047 71.66V67.35C243.047 66.9 242.866 66.45 242.535 66.14C241.873 65.49 240.749 65.49 240.097 66.14L240.087 66.13Z" fill="#1C1E22"/>
<path d="M264.404 73.38C264.866 73.38 265.307 73.2 265.628 72.88C265.949 72.56 266.14 72.12 266.14 71.67V67.36C266.14 66.91 265.959 66.46 265.628 66.15C264.966 65.5 263.842 65.5 263.19 66.15C262.869 66.47 262.679 66.9 262.679 67.35V71.68C262.679 72.13 262.859 72.58 263.19 72.89C263.511 73.21 263.953 73.39 264.414 73.39L264.404 73.38Z" fill="#1C1E22"/>
<path d="M252.236 83.73C254.764 79.9 256.098 75.46 256.108 70.88L256.138 67.85C256.138 67.39 255.967 66.96 255.626 66.64C254.964 65.99 253.831 65.99 253.179 66.64C252.858 66.96 252.667 67.4 252.667 67.85V70.86C252.667 74.77 251.523 78.59 249.356 81.87L249.226 82.06L252.095 83.93L252.226 83.74L252.236 83.73Z" fill="#1C1E22"/>
<path d="M263.461 89.13L263.531 89.04C263.712 88.67 263.752 88.24 263.651 87.84C263.541 87.43 263.29 87.09 262.949 86.86C262.608 86.63 262.177 86.53 261.765 86.58C261.344 86.64 260.973 86.83 260.682 87.15L260.622 87.24C260.532 87.36 260.431 87.48 260.321 87.59C259.91 88.02 259.438 88.42 258.947 88.75C257.141 89.9 255.054 90.51 252.907 90.51C250.761 90.51 248.674 89.9 246.878 88.76C246.377 88.42 245.915 88.02 245.504 87.59C245.394 87.47 245.313 87.37 245.243 87.29L245.193 87.19C245.093 86.96 244.942 86.75 244.752 86.58C244.561 86.41 244.34 86.29 244.1 86.22C243.859 86.15 243.598 86.14 243.347 86.17C243.096 86.21 242.856 86.3 242.645 86.45C242.434 86.59 242.254 86.78 242.123 86.99C241.993 87.21 241.913 87.45 241.893 87.7C241.863 87.95 241.893 88.21 241.983 88.44C242.053 88.64 242.163 88.84 242.314 89L242.354 89.1C242.404 89.16 242.444 89.23 242.495 89.28C242.655 89.48 242.816 89.68 242.986 89.86C243.568 90.48 244.23 91.03 244.932 91.52C247.31 93.06 250.068 93.87 252.907 93.87C255.746 93.87 258.505 93.06 260.883 91.52C261.585 91.04 262.247 90.49 262.829 89.87C263.009 89.69 263.17 89.49 263.34 89.29L263.471 89.11L263.461 89.13Z" fill="#1C1E22"/>
<path d="M240.93 104.16H233.727C231.741 104.16 229.885 103.39 228.48 102.01C227.086 100.63 226.304 98.78 226.304 96.82V88.55C226.304 88.09 226.123 87.66 225.792 87.34C225.13 86.69 223.996 86.69 223.344 87.34C223.023 87.66 222.833 88.1 222.833 88.55V96.82C222.833 98.24 223.113 99.63 223.665 100.95C224.217 102.26 225.019 103.44 226.033 104.44C227.046 105.45 228.25 106.22 229.574 106.77C230.908 107.31 232.292 107.58 233.737 107.56L240.92 107.59C241.381 107.59 241.823 107.41 242.144 107.09C242.465 106.77 242.655 106.33 242.655 105.88C242.655 105.43 242.485 104.99 242.144 104.67C241.823 104.35 241.381 104.17 240.92 104.17L240.93 104.16Z" fill="#1C1E22"/>
<path d="M281.879 51.05C281.328 49.74 280.535 48.57 279.522 47.56C278.509 46.55 277.325 45.77 276.001 45.23C274.677 44.69 273.282 44.42 271.848 44.42H264.635C264.173 44.42 263.732 44.6 263.411 44.92C263.09 45.24 262.899 45.69 262.899 46.13C262.899 46.57 263.09 47.03 263.411 47.34C263.732 47.66 264.173 47.84 264.635 47.84H271.838C273.814 47.84 275.66 48.62 277.054 49.99C278.449 51.37 279.221 53.2 279.231 55.15V63.42C279.231 63.87 279.412 64.32 279.743 64.63C280.064 64.95 280.505 65.13 280.967 65.13C281.428 65.13 281.869 64.95 282.19 64.63C282.511 64.31 282.702 63.86 282.702 63.42V55.15C282.702 53.73 282.421 52.34 281.879 51.03V51.05Z" fill="#1C1E22"/>
<path d="M279.742 87.33C279.421 87.65 279.231 88.09 279.231 88.54V96.81C279.231 98.77 278.458 100.61 277.054 102C275.66 103.38 273.794 104.15 271.807 104.15H264.605C264.153 104.15 263.702 104.33 263.381 104.65C263.06 104.97 262.869 105.41 262.869 105.86C262.869 106.31 263.04 106.75 263.381 107.07C263.702 107.39 264.153 107.57 264.605 107.57L271.777 107.54H271.848C273.252 107.54 274.636 107.27 275.95 106.75C277.285 106.21 278.468 105.43 279.492 104.42C280.515 103.41 281.307 102.24 281.859 100.93C282.411 99.62 282.692 98.22 282.692 96.8V88.53C282.692 88.07 282.511 87.64 282.18 87.32C281.528 86.67 280.385 86.67 279.732 87.32L279.742 87.33Z" fill="#1C1E22"/>
<path d="M310.951 187C341.427 187 366.125 162.38 366.125 132C366.125 101.62 341.427 77 310.951 77C280.474 77 255.776 101.62 255.776 132C255.776 162.38 280.474 187 310.951 187Z" fill="#9D70FF"/>
<path d="M293.887 109.57C294.047 109.7 294.208 109.79 294.408 109.86C294.599 109.92 294.8 109.94 295 109.92C295.201 109.9 295.392 109.84 295.572 109.75C300.247 107.04 305.574 105.61 310.991 105.61C316.408 105.61 321.685 107.03 326.359 109.72V109.75L326.41 109.79C326.62 109.91 326.861 109.97 327.102 109.97C327.393 109.97 327.654 109.89 327.894 109.72C328.135 109.56 328.316 109.33 328.426 109.08C328.617 108.71 328.657 108.29 328.536 107.89C328.416 107.49 328.155 107.16 327.794 106.95C322.678 104 316.869 102.44 310.951 102.44C305.032 102.44 299.214 104 294.097 106.95C293.746 107.17 293.496 107.5 293.395 107.89C293.275 108.3 293.325 108.72 293.506 109.1C293.596 109.28 293.716 109.44 293.877 109.57H293.887Z" fill="white"/>
<path d="M336.04 123.39C335.99 123.19 335.91 122.99 335.79 122.82C333.151 118.85 329.54 115.54 325.326 113.24C320.923 110.89 315.957 109.66 310.951 109.66C305.945 109.66 300.98 110.9 296.576 113.25C292.352 115.57 288.741 118.91 286.123 122.92C285.942 123.17 285.852 123.46 285.842 123.76C285.822 124.05 285.882 124.34 286.012 124.61C286.143 124.86 286.333 125.06 286.574 125.21C286.795 125.36 287.056 125.43 287.316 125.43H287.366C287.597 125.43 287.848 125.38 288.049 125.26C288.259 125.14 288.43 124.97 288.55 124.77C290.918 121.18 294.168 118.18 297.96 116.09C301.943 113.98 306.437 112.85 310.961 112.85C315.485 112.85 319.98 113.97 323.962 116.09C327.734 118.15 330.974 121.11 333.332 124.67C333.432 124.84 333.583 124.99 333.753 125.1C333.924 125.21 334.104 125.29 334.305 125.33C334.506 125.37 334.716 125.36 334.907 125.31C335.097 125.26 335.288 125.17 335.448 125.05C335.619 124.93 335.759 124.78 335.86 124.6C335.97 124.42 336.04 124.22 336.06 124.02C336.101 123.82 336.101 123.61 336.06 123.4H336.04V123.39Z" fill="white"/>
<path d="M300.699 151.13C298.943 147.63 298.05 143.73 298.121 139.83C298.071 138.12 298.382 136.46 299.003 134.87C299.635 133.28 300.558 131.86 301.762 130.64C302.966 129.42 304.37 128.46 305.966 127.8C307.551 127.14 309.226 126.8 310.951 126.8C312.677 126.8 314.352 127.13 315.937 127.8C317.522 128.47 318.937 129.42 320.14 130.64C321.344 131.86 322.267 133.28 322.899 134.87C323.531 136.46 323.822 138.13 323.792 139.83C323.772 140.03 323.802 140.24 323.872 140.44C323.932 140.63 324.053 140.81 324.183 140.97C324.324 141.13 324.494 141.24 324.685 141.32C325.066 141.49 325.507 141.49 325.888 141.32C326.079 141.24 326.25 141.12 326.39 140.97C326.531 140.82 326.641 140.65 326.701 140.44C326.761 140.25 326.791 140.04 326.781 139.85C326.831 137.74 326.46 135.69 325.678 133.74C324.895 131.78 323.752 130.03 322.267 128.53C320.782 127.03 319.047 125.85 317.081 125.04C315.114 124.23 313.058 123.81 310.931 123.81C308.804 123.81 306.748 124.23 304.782 125.04C302.826 125.85 301.09 127.03 299.595 128.53C298.111 130.04 296.967 131.79 296.185 133.74C295.402 135.7 295.041 137.76 295.081 139.85C295.001 144.28 296.014 148.72 298.02 152.68C299.455 155.57 301.331 158.19 303.628 160.47C303.759 160.62 303.929 160.75 304.11 160.83C304.29 160.9 304.481 160.95 304.681 160.95C305.103 160.95 305.494 160.78 305.795 160.47C306.076 160.17 306.226 159.76 306.226 159.34C306.226 158.92 306.066 158.53 305.795 158.21C303.718 156.12 301.993 153.74 300.679 151.12L300.699 151.13Z" fill="white"/>
<path d="M329.119 152.75H329.089C328.988 152.57 328.858 152.43 328.697 152.31C328.537 152.19 328.356 152.1 328.156 152.05C327.965 152 327.764 151.99 327.554 152.01C326.611 152.18 325.648 152.29 324.685 152.3H324.323C321.966 152.3 319.629 151.57 317.703 150.22C316.047 149.04 314.683 147.47 313.75 145.67C312.827 143.87 312.336 141.86 312.336 139.84C312.356 139.64 312.336 139.43 312.255 139.23C312.185 139.04 312.075 138.85 311.944 138.7C311.804 138.54 311.633 138.43 311.443 138.35C311.062 138.18 310.62 138.18 310.239 138.35C310.048 138.43 309.878 138.55 309.737 138.7C309.597 138.85 309.487 139.03 309.426 139.23C309.366 139.42 309.336 139.63 309.346 139.83C309.346 142.35 309.938 144.87 311.092 147.12C312.245 149.37 313.921 151.35 315.987 152.84L316.037 152.86C318.465 154.56 321.414 155.48 324.374 155.48H324.695C325.828 155.48 326.962 155.35 328.085 155.13C328.497 155.04 328.848 154.8 329.079 154.46C329.309 154.12 329.39 153.7 329.319 153.3C329.289 153.11 329.239 152.91 329.139 152.74L329.119 152.75Z" fill="white"/>
<path d="M315.867 117.2H315.827C310.66 116.06 305.213 116.76 300.488 119.13C295.763 121.5 291.991 125.46 289.865 130.26C288.551 133.31 287.909 136.53 287.969 139.84C287.969 143.84 288.651 147.77 290.005 151.53C290.065 151.72 290.166 151.9 290.296 152.05C290.426 152.21 290.587 152.33 290.768 152.41C290.958 152.49 291.149 152.55 291.349 152.56C291.54 152.57 291.751 152.53 291.941 152.46C292.322 152.29 292.613 152 292.784 151.62C292.944 151.24 292.954 150.82 292.804 150.44C291.57 147.03 290.958 143.47 290.978 139.84C290.918 137.2 291.39 134.62 292.383 132.16C293.366 129.7 294.81 127.51 296.676 125.61C298.542 123.73 300.739 122.25 303.207 121.22C305.675 120.2 308.273 119.68 310.941 119.68C313.61 119.68 316.208 120.2 318.676 121.22C321.144 122.25 323.331 123.72 325.206 125.61C327.082 127.5 328.527 129.7 329.5 132.16C330.483 134.62 330.955 137.2 330.904 139.84C330.844 141.3 330.232 142.67 329.169 143.67C328.106 144.69 326.711 145.24 325.237 145.24C323.762 145.24 322.367 144.69 321.304 143.67C320.241 142.65 319.629 141.3 319.569 139.84C319.569 138.71 319.348 137.6 318.907 136.55C318.475 135.51 317.833 134.56 317.031 133.76C316.228 132.96 315.275 132.33 314.212 131.9C313.158 131.47 312.035 131.24 310.891 131.24C309.748 131.24 308.634 131.46 307.581 131.9C306.527 132.33 305.574 132.96 304.762 133.76C303.949 134.56 303.317 135.5 302.876 136.55C302.444 137.6 302.214 138.7 302.214 139.84C302.214 142.72 302.755 145.54 303.809 148.22C304.832 150.86 306.347 153.25 308.313 155.31C311.102 158.32 314.683 160.46 318.666 161.51H318.706C318.826 161.55 318.957 161.57 319.097 161.57C319.438 161.55 319.759 161.42 320.01 161.21C320.271 160.99 320.441 160.69 320.502 160.37C320.612 159.97 320.562 159.56 320.371 159.2C320.181 158.84 319.85 158.57 319.448 158.44C315.957 157.53 312.837 155.64 310.41 152.98C307.029 149.4 305.183 144.73 305.223 139.83C305.283 138.37 305.885 137.01 306.959 136C308.022 134.98 309.417 134.43 310.891 134.43C312.366 134.43 313.76 134.98 314.824 136C315.887 137.02 316.499 138.37 316.559 139.82C316.519 140.97 316.72 142.11 317.141 143.19C317.562 144.27 318.184 145.24 319.007 146.06C319.819 146.89 320.772 147.54 321.846 147.99C322.919 148.44 324.063 148.67 325.227 148.67C326.39 148.67 327.534 148.44 328.607 147.99C329.681 147.54 330.644 146.89 331.446 146.06C332.259 145.23 332.891 144.26 333.312 143.19C333.733 142.11 333.934 140.97 333.894 139.83C333.984 134.59 332.229 129.43 328.948 125.32C325.668 121.2 321.013 118.32 315.837 117.21L315.867 117.2Z" fill="white"/>
<path d="M242.284 370H61.3819C60.8904 366.38 57.6602 329.21 57.6602 329.21L116.867 186.44L151.627 186.25C151.627 186.25 156.613 186.45 163.164 187.31C179.044 189.4 193.971 196.37 205.237 207.73C211.436 213.98 217.094 222 219 231.53C224.427 258.58 231.971 300.85 242.294 370H242.284Z" fill="#D0DEFF"/>
<path d="M150.453 197.33C150.453 197.33 167.146 247.77 174.208 291.25C181.271 334.73 183.227 369.99 183.227 369.99H172.363C172.363 369.99 164.347 294.29 159.241 271.46C153.061 243.84 140.361 198.49 140.361 198.49C140.361 198.49 144.715 195 150.453 197.33Z" fill="#8EAEFF"/>
<path d="M303.769 198.86C303.769 198.86 310.259 183.15 320.281 177.2C330.303 171.25 341.488 168.21 338.539 174.52C335.589 180.84 327.694 190.63 327.694 190.63L344.297 189.11C344.297 189.11 355.472 186.07 363.337 185.36C371.202 184.64 372.626 190.56 372.626 190.56C372.626 190.56 380.491 189.84 383.39 192.6C386.28 195.36 383.16 199.68 383.16 199.68C383.16 199.68 393.924 201.72 388.446 209.27C382.969 216.82 359.244 227.05 348.069 230.09C342.03 231.73 335.178 233.11 330.152 234.02C322.919 235.34 315.365 234.19 309.065 230.41C301.09 225.62 294.339 216.38 303.769 198.88V198.86Z" fill="#FFA6A6"/>
<path d="M361.491 212.7C361.22 212.7 360.949 212.61 360.719 212.44L335.649 192.98C335.108 192.56 335.007 191.77 335.429 191.23C335.86 190.69 336.643 190.59 337.184 191.01L362.254 210.47C362.795 210.89 362.896 211.68 362.474 212.22C362.223 212.54 361.852 212.7 361.481 212.7H361.491Z" fill="#C26060"/>
<path d="M308.453 214.95C307.801 214.95 307.249 214.44 307.199 213.78C307.149 213.09 307.671 212.5 308.363 212.45C317.151 211.87 322.879 209.42 325.367 205.19C328.466 199.92 325.457 193.45 325.427 193.38C325.136 192.76 325.397 192.01 326.019 191.71C326.651 191.42 327.393 191.68 327.684 192.3C327.834 192.61 331.295 200.01 327.533 206.43C324.604 211.43 318.204 214.29 308.513 214.94C308.483 214.94 308.453 214.94 308.433 214.94L308.453 214.95Z" fill="#C26060"/>
<path d="M294.619 201.61L341.186 239.74C341.186 239.74 320.581 289.08 258.254 296.05C249.848 296.99 241.331 296.47 233.095 294.55C228.59 293.5 227.387 292.78 224.889 292.12C209.289 287.03 197.753 270.34 197.753 270.34L189.527 195.88C189.527 195.88 249.717 232.29 294.629 201.6L294.619 201.61Z" fill="#D0DEFF"/>
<path d="M217.175 230.1C214.235 230.1 212.891 228.77 212.751 228.61C212.681 228.54 212.63 228.46 212.58 228.38C211.888 227.18 211.808 225.88 212.36 224.61C215.319 217.78 237.68 212.39 240.218 211.8C240.759 211.67 241.311 211.91 241.582 212.39C241.863 212.86 241.793 213.46 241.421 213.87C229.062 227.24 221.448 230.08 217.235 230.1H217.175ZM214.657 226.97C214.918 227.15 215.75 227.65 217.436 227.6C220.214 227.5 226.253 225.7 236.576 215.31C227.618 217.77 216.252 221.94 214.657 225.6C214.446 226.09 214.446 226.51 214.657 226.96V226.97Z" fill="#91B1FF"/>
<path d="M230.818 294.87C230.226 294.87 229.704 294.45 229.584 293.85L223.595 262.11C223.464 261.43 223.916 260.78 224.598 260.65C225.27 260.52 225.932 260.97 226.063 261.65L232.051 293.39C232.182 294.07 231.73 294.72 231.048 294.85C230.968 294.86 230.888 294.87 230.818 294.87Z" fill="#91B1FF"/>
<path d="M116.867 186.43C116.867 186.43 60.3285 188.75 28.5079 239.87C-0.915138 287.14 2.65616 346.65 54.3697 349.62C106.083 352.59 169.754 312.95 169.754 312.95L154.787 252.73L122.064 256.99L116.877 186.43H116.867Z" fill="#D0DEFF"/>
<path d="M209.46 226.77C205.929 222.82 170.848 243.27 154.827 252.92L166.303 299.08C178.171 295.62 185.635 289.34 185.635 289.34C185.635 289.34 190.63 292.58 194.372 285.11C198.124 277.65 189.627 248.57 189.627 248.57C189.627 248.57 214.044 231.9 209.45 226.77H209.46Z" fill="#FFA6A6"/>
<path d="M189.637 249.82H178.783C178.091 249.82 177.529 249.25 177.529 248.56C177.529 247.87 178.091 247.31 178.783 247.31H189.637C190.329 247.31 190.891 247.88 190.891 248.57C190.891 249.26 190.329 249.82 189.637 249.82Z" fill="#C26060"/>
<path d="M174.138 296.86C173.556 296.86 173.045 296.46 172.914 295.87C172.764 295.2 173.195 294.53 173.877 294.38C184.38 292.12 185.915 286.63 185.976 286.39C186.146 285.73 186.828 285.32 187.49 285.48C188.162 285.64 188.574 286.31 188.413 286.97C188.343 287.26 186.577 294.2 174.409 296.82C174.319 296.84 174.228 296.85 174.148 296.85L174.138 296.86Z" fill="#C26060"/>
<path d="M63.8692 269.94C63.3877 269.94 62.9162 269.66 62.7155 269.18C62.4447 268.55 62.7356 267.81 63.3676 267.54C63.6084 267.44 88.1359 257.06 123.117 255.63C123.799 255.59 124.391 256.14 124.421 256.83C124.451 257.52 123.909 258.1 123.217 258.13C88.6977 259.54 64.6015 269.74 64.3607 269.84C64.2002 269.91 64.0297 269.94 63.8692 269.94Z" fill="#91B1FF"/>
<path d="M102.492 259.94C83.8229 259.94 72.0256 258.38 67.4211 255.29C66.3176 254.55 65.7056 253.27 65.826 251.94C65.9464 250.61 66.7489 249.49 67.9728 248.96C77.0615 245.01 102.793 257.05 103.876 257.56C104.408 257.81 104.689 258.39 104.558 258.96C104.428 259.53 103.926 259.94 103.335 259.94C103.044 259.94 102.763 259.94 102.482 259.94H102.492ZM72.7178 250.63C71.2331 250.63 69.9591 250.82 68.976 251.25C68.4443 251.48 68.344 251.96 68.3239 252.16C68.2838 252.58 68.4744 252.98 68.8155 253.21C71.0024 254.67 77.5732 257.04 97.2855 257.39C89.9523 254.36 79.3086 250.63 72.7178 250.63Z" fill="#91B1FF"/>
<path d="M59.9269 351.03C58.041 351.03 56.1651 350.98 54.2992 350.87C53.607 350.83 53.0753 350.24 53.1154 349.55C53.1555 348.86 53.7474 348.35 54.4396 348.37C105.15 351.28 168.46 312.29 169.092 311.89C169.684 311.53 170.456 311.7 170.818 312.29C171.189 312.88 171.008 313.65 170.416 314.01C170.256 314.11 154.155 324.08 131.945 333.55C112.814 341.7 85.3674 351.03 59.9269 351.03Z" fill="#91B1FF"/>
<path d="M152.098 186.21C152.098 186.21 152.098 186.26 152.098 186.35C152.048 187.57 151.306 196.64 139.94 195.06C127.952 193.39 117.238 186.67 116.877 186.44L116.857 186.43C116.857 186.43 114.871 186.6 113.717 186.74C111.149 187.05 125.013 211.84 129.256 210.48C132.376 209.48 137.944 205.14 141.826 201.77C143.22 200.55 144.414 199.46 145.177 198.7C146.33 197.55 148.959 198.64 151.808 200.21C156.061 202.55 160.806 205.96 161.96 204.6C163.876 202.33 152.109 186.22 152.109 186.22L152.098 186.21Z" fill="#8EAEFF"/>
<path d="M152.179 165.02C164.709 166.8 168.28 160.19 168.28 160.19C173.205 151.93 164.087 135.28 157.827 125.55L159.502 123.07C159.502 123.07 171.47 105.72 165.662 97.54C160.937 90.89 153.192 93.7 150.474 94.99C146.491 93.4 142.418 92.06 139.348 91.64C123.749 89.48 116.245 91.12 110.036 95.26C105.451 98.32 103.375 101.5 100.666 105.93C99.6328 107.62 97.9776 111.66 96.854 113.29L92.8113 119.14H92.8012C84.9263 131.21 81.1945 149.17 87.9559 161.87C92.7711 170.89 103.535 175.12 115.914 172.45L152.179 165.02Z" fill="#1C1E22"/>
<path d="M152.099 186.35L151.918 185.44L149.31 172.27L120.308 168.13L115.443 167.43L116.857 186.43C117.218 186.66 127.932 193.38 139.92 195.05C151.286 196.63 152.039 187.57 152.079 186.34L152.099 186.35Z" fill="#FFA6A6"/>
<path d="M120.308 168.14C120.438 168.87 120.779 169.72 121.281 170.68C128.333 183.68 145.056 185.35 151.908 185.45L149.3 172.28L120.298 168.14H120.308Z" fill="#C26060"/>
<path d="M144.354 104.65C148.086 107.15 150.945 110.75 152.811 114.84C157.145 124.38 166.504 147.45 163.244 162.34C159.061 181.51 141.646 179.55 131.133 176.51C120.599 173.47 115.443 167.45 115.443 167.45C115.443 167.45 106.003 171.27 99.0311 162.72C92.0591 154.18 95.4197 143.69 100.787 141.01C106.154 138.34 112.925 141.91 112.925 141.91L107.227 132.46C107.227 132.46 122.736 90.14 144.374 104.65H144.364H144.354Z" fill="#FFA6A6"/>
<path d="M112.353 156.53C112.073 156.53 111.792 156.44 111.551 156.24L101.509 147.94C100.977 147.5 100.897 146.71 101.349 146.18C101.79 145.65 102.583 145.58 103.114 146.02L113.156 154.32C113.688 154.76 113.768 155.55 113.316 156.08C113.066 156.38 112.715 156.53 112.353 156.53Z" fill="#C26060"/>
<path d="M103.104 158.13C102.713 158.13 102.332 157.95 102.081 157.61C101.68 157.05 101.8 156.27 102.362 155.86L108.351 151.56C108.913 151.16 109.695 151.28 110.106 151.84C110.508 152.4 110.387 153.18 109.825 153.59L103.837 157.89C103.616 158.05 103.355 158.13 103.104 158.13Z" fill="#C26060"/>
<path d="M135.607 140.36C136.77 140.21 137.523 138.67 137.302 136.93C137.071 135.19 135.938 133.9 134.774 134.06C133.61 134.21 132.848 135.75 133.079 137.49C133.31 139.23 134.443 140.52 135.607 140.36Z" fill="#1C1E22"/>
<path d="M129.096 130C128.915 130 128.735 129.96 128.554 129.88C127.932 129.58 127.661 128.85 127.952 128.23C128.043 128.04 130.2 123.58 136.299 124.43C136.981 124.53 137.462 125.16 137.362 125.84C137.262 126.52 136.63 126.99 135.948 126.9C131.734 126.3 130.27 129.17 130.21 129.29C129.989 129.73 129.537 129.99 129.076 129.99L129.096 130Z" fill="#1C1E22"/>
<path d="M154.176 137.86C155.339 137.71 156.092 136.17 155.861 134.43C155.63 132.69 154.497 131.4 153.333 131.56C152.169 131.71 151.417 133.25 151.638 134.99C151.868 136.73 153.002 138.02 154.166 137.86H154.176Z" fill="#1C1E22"/>
<path d="M148.026 124.81C147.695 124.81 147.354 124.68 147.113 124.42C146.642 123.92 146.662 123.13 147.173 122.65C147.324 122.51 150.995 119.16 156.342 122.21C156.944 122.55 157.155 123.32 156.804 123.92C156.463 124.52 155.69 124.73 155.088 124.38C151.336 122.24 148.909 124.45 148.879 124.48C148.638 124.71 148.327 124.82 148.016 124.82L148.026 124.81Z" fill="#1C1E22"/>
<path d="M140.663 162.58C139.148 162.58 137.694 161.93 136.69 160.77C135.065 158.89 134.644 156.8 134.624 156.71C134.544 156.3 134.674 155.87 134.975 155.57C135.276 155.27 135.707 155.15 136.119 155.24L144.776 157.15C145.107 157.22 145.398 157.43 145.568 157.72C145.749 158.01 145.799 158.36 145.719 158.68L145.669 158.86C145.137 160.69 143.692 162.03 141.786 162.45C141.405 162.53 141.024 162.57 140.653 162.57L140.663 162.58ZM137.914 158.2C138.095 158.51 138.326 158.82 138.586 159.13C139.248 159.9 140.252 160.23 141.265 160.01C141.817 159.89 142.288 159.62 142.649 159.25L137.914 158.2Z" fill="#1C1E22"/>
<path d="M151.738 153.55C151.677 153.55 151.627 153.55 151.567 153.54C150.885 153.45 150.403 152.82 150.494 152.13C151.617 143.98 147.354 139.55 147.173 139.37C146.692 138.88 146.692 138.09 147.173 137.6C147.665 137.12 148.457 137.12 148.939 137.6C149.159 137.82 154.266 143.03 152.971 152.47C152.881 153.1 152.35 153.55 151.728 153.55H151.738Z" fill="#1C1E22"/>
<path d="M150.624 110.76C150.624 110.76 145.879 101.92 134.242 109.99C118.061 121.2 129.267 147.12 112.905 141.92C96.5332 136.71 102.773 116 102.773 116C102.773 116 139.017 78.77 150.624 110.77V110.76Z" fill="#1C1E22"/>
</g>
</g>
<defs>
<clipPath id="clip0_1321_4057">
<rect width="400" height="400" fill="white"/>
</clipPath>
<clipPath id="clip1_1321_4057">
<rect width="400" height="400" fill="white"/>
</clipPath>
</defs>
</svg>
