<svg width="112" height="112" viewBox="0 0 112 112" fill="none" xmlns="http://www.w3.org/2000/svg">
<g clip-path="url(#clip0_7391_34447)">
<g clip-path="url(#clip1_7391_34447)">
<path d="M112 0H0V112H112V0Z" fill="#FFF2CD"/>
<path d="M75.4134 41.351H62.3141L53.411 31.8119C52.403 30.8057 51.0357 30.2402 49.6096 30.2402H39.7424C33.8764 30.2402 29.1201 34.987 29.1201 40.8433V74.3071C29.1201 78.4231 32.4633 81.7602 36.5868 81.7602H75.4134C79.5369 81.7602 82.8801 78.4231 82.8801 74.3071V48.8042C82.8801 44.6882 79.5369 41.351 75.4134 41.351Z" fill="#FFC200"/>
<path d="M56.0001 71.3872C50.4934 71.3872 46.0134 66.9153 46.0134 61.4186C46.0134 60.6984 46.5986 60.1143 47.3201 60.1143C48.0416 60.1143 48.6268 60.6984 48.6268 61.4186C48.6268 65.4768 51.9345 68.7786 56.0001 68.7786C60.0657 68.7786 63.3734 65.4768 63.3734 61.4186C63.3734 60.6984 63.9586 60.1143 64.6801 60.1143C65.4016 60.1143 65.9868 60.6984 65.9868 61.4186C65.9868 66.9153 61.5068 71.3872 56.0001 71.3872Z" fill="white"/>
<path d="M75.4136 41.3512C77.2317 41.3512 78.8977 42.0006 80.1923 43.0785V38.0103C80.1923 35.0468 77.7852 32.644 74.8163 32.644H54.1877L62.3143 41.3512H75.4136Z" fill="#FFDE8C"/>
</g>
</g>
<defs>
<clipPath id="clip0_7391_34447">
<rect width="112" height="112" fill="white"/>
</clipPath>
<clipPath id="clip1_7391_34447">
<rect width="112" height="112" fill="white"/>
</clipPath>
</defs>
</svg>
