<svg width="400" height="400" viewBox="0 0 400 400" fill="none" xmlns="http://www.w3.org/2000/svg">
<g clip-path="url(#clip0_3789_17529)">
<g clip-path="url(#clip1_3789_17529)">
<path d="M400 0H0V400H400V0Z" fill="#DBE4FF"/>
<path d="M255.213 114H141.913C130.915 114 122 122.935 122 133.956V264.55C122 275.572 130.915 284.506 141.913 284.506H255.213C266.21 284.506 275.126 275.572 275.126 264.55V133.956C275.126 122.935 266.21 114 255.213 114Z" fill="#6286FF"/>
<path d="M155.417 152.501C155.417 156.908 159.281 160.484 164.047 160.484H233.079C237.845 160.484 241.708 156.908 241.708 152.501C241.708 148.094 237.845 144.519 233.079 144.519H164.047C159.281 144.519 155.417 148.094 155.417 152.501Z" fill="white"/>
<path d="M155.417 187.598C155.417 192.004 159.281 195.58 164.047 195.58H233.079C237.845 195.58 241.708 192.004 241.708 187.598C241.708 183.191 237.845 179.615 233.079 179.615H164.047C159.281 179.615 155.417 183.191 155.417 187.598Z" fill="white"/>
<path d="M243.786 293.283C221.589 293.283 203.528 275.187 203.528 252.943C203.528 230.699 221.586 212.599 243.786 212.599C265.986 212.599 284.044 230.695 284.044 252.943C284.044 275.19 265.986 293.283 243.786 293.283ZM243.786 228.563C230.371 228.563 219.459 239.499 219.459 252.943C219.459 266.386 230.371 277.319 243.786 277.319C257.201 277.319 268.113 266.383 268.113 252.943C268.113 239.502 257.201 228.563 243.786 228.563Z" fill="#1C1E22"/>
<path d="M292.035 310C289.997 310 287.96 309.222 286.403 307.662L262.102 283.309C258.993 280.193 258.993 275.137 262.102 272.021C265.212 268.904 270.257 268.904 273.367 272.021L297.667 296.374C300.777 299.49 300.777 304.546 297.667 307.662C296.111 309.222 294.073 310 292.035 310Z" fill="#1C1E22"/>
</g>
</g>
<defs>
<clipPath id="clip0_3789_17529">
<rect width="400" height="400" fill="white"/>
</clipPath>
<clipPath id="clip1_3789_17529">
<rect width="400" height="400" fill="white"/>
</clipPath>
</defs>
</svg>
