<svg width="112" height="112" viewBox="0 0 112 112" fill="none" xmlns="http://www.w3.org/2000/svg">
<g clip-path="url(#clip0_7391_34464)">
<g clip-path="url(#clip1_7391_34464)">
<path d="M112 0H0V112H112V0Z" fill="#FFE4E9"/>
<g style="mix-blend-mode:multiply">
<path d="M106.72 0L0 106.72V112H5.27987L112 5.27987V0H106.72Z" fill="#FFF0F5"/>
</g>
<path d="M75.4134 41.351H62.3141L53.411 31.8119C52.403 30.8057 51.0357 30.2402 49.6096 30.2402H39.7424C33.8764 30.2402 29.1201 34.987 29.1201 40.8433V74.3071C29.1201 78.4231 32.4633 81.7602 36.5868 81.7602H75.4134C79.5369 81.7602 82.8801 78.4231 82.8801 74.3071V48.8042C82.8801 44.6882 79.5369 41.351 75.4134 41.351Z" fill="#F32B5C"/>
<path d="M64.6803 69.5239C63.9589 69.5239 63.3737 68.9397 63.3737 68.2196C63.3737 64.1613 60.0659 60.8596 56.0003 60.8596C51.9347 60.8596 48.627 64.1613 48.627 68.2196C48.627 68.9397 48.0418 69.5239 47.3203 69.5239C46.5989 69.5239 46.0137 68.9397 46.0137 68.2196C46.0137 62.7229 50.4937 58.251 56.0003 58.251C61.507 58.251 65.987 62.7229 65.987 68.2196C65.987 68.9397 65.4018 69.5239 64.6803 69.5239Z" fill="white"/>
<path d="M75.4134 41.3512C77.2315 41.3512 78.8975 42.0006 80.192 43.0785V38.0103C80.192 35.0468 77.785 32.644 74.816 32.644H54.1875L62.314 41.3512H75.4134Z" fill="#FFA4C8"/>
</g>
</g>
<defs>
<clipPath id="clip0_7391_34464">
<rect width="112" height="112" fill="white"/>
</clipPath>
<clipPath id="clip1_7391_34464">
<rect width="112" height="112" fill="white"/>
</clipPath>
</defs>
</svg>
