<svg width="400" height="400" viewBox="0 0 400 400" fill="none" xmlns="http://www.w3.org/2000/svg">
<g clip-path="url(#clip0_5102_24886)">
<g clip-path="url(#clip1_5102_24886)">
<path d="M400 0H0V400H400V0Z" fill="#DBE4FF"/>
<path d="M269.333 147.681H222.55L190.753 113.613C187.153 110.02 182.27 108 177.177 108H141.937C120.987 108 104 124.953 104 145.868V265.382C104 280.082 115.94 292 130.667 292H269.333C284.06 292 296 280.082 296 265.382V174.3C296 159.6 284.06 147.681 269.333 147.681Z" fill="#2C44CC"/>
<path d="M200 254.954C180.333 254.954 164.333 238.983 164.333 219.352C164.333 216.78 166.423 214.693 169 214.693C171.577 214.693 173.667 216.78 173.667 219.352C173.667 233.845 185.48 245.637 200 245.637C214.52 245.637 226.333 233.845 226.333 219.352C226.333 216.78 228.423 214.693 231 214.693C233.577 214.693 235.667 216.78 235.667 219.352C235.667 238.983 219.667 254.954 200 254.954Z" fill="white"/>
<path d="M269.333 147.681C275.827 147.681 281.777 150.001 286.4 153.85V135.75C286.4 125.166 277.803 116.584 267.2 116.584H193.527L222.55 147.681H269.333Z" fill="#AEC0FF"/>
</g>
</g>
<defs>
<clipPath id="clip0_5102_24886">
<rect width="400" height="400" fill="white"/>
</clipPath>
<clipPath id="clip1_5102_24886">
<rect width="400" height="400" fill="white"/>
</clipPath>
</defs>
</svg>
