<svg width="400" height="400" viewBox="0 0 400 400" fill="none" xmlns="http://www.w3.org/2000/svg">
<g clip-path="url(#clip0_5063_26305)">
<g clip-path="url(#clip1_5063_26305)">
<path d="M305.07 369.909L323.21 262.598L257.21 184.289H251.35L237.5 195.926L213 196.207L215.45 186.667L115.26 261.073L141.83 332.631L151.67 347.428V369.909H305.06H305.07Z" fill="#D1DDFF"/>
<path d="M217.21 195.424C217.21 195.424 200.24 246.988 193.05 291.44C185.87 335.891 183.88 369.889 183.88 369.889H194.93C194.93 369.889 203.08 294.56 208.27 271.215C214.55 242.976 227.46 196.628 227.46 196.628C227.46 196.628 223.04 193.057 217.2 195.445L217.21 195.424Z" fill="#8DADFF"/>
<path d="M254.62 184.279C253.43 184.279 251.37 184.279 251.37 184.279C251.37 184.279 240.3 191.372 227.9 193.107C216.43 194.712 215.53 187.83 215.46 186.797C215.46 186.717 215.46 186.667 215.46 186.667C215.46 186.667 203.57 200.531 205.52 202.858C206.42 203.932 209.51 202.096 212.86 200.109C216.76 197.792 221.01 195.254 222.58 196.839C224.04 198.304 226.98 200.942 230.1 203.4C233.25 205.888 236.59 208.185 238.76 208.887C241 209.61 245.86 203.149 249.66 196.719C249.97 196.197 250.27 195.675 250.56 195.164C253.62 189.747 255.78 184.309 254.62 184.309V184.279Z" fill="#8DADFF"/>
<path d="M150.38 296.977C150.38 296.977 172.91 294.64 177.67 294.64C182.43 294.64 188.86 305.856 188.86 305.856L204.51 310.611L186.82 356.025C186.82 356.025 152.84 360.449 138.79 344.087C133.51 337.938 150.38 296.987 150.38 296.987V296.977Z" fill="#FFA5A5"/>
<path d="M215.46 186.667C215.46 186.667 183.3 185.312 140.04 221.166C96.79 257.03 78.05 292.563 86.91 323.682C95.77 354.801 151.29 356.166 151.29 356.166L167.64 291.881L124.9 264.133L215.47 186.657L215.46 186.667Z" fill="#D1DDFF"/>
<path d="M249.05 307.892C249.05 307.892 235.77 300.78 229.29 299.084C229.23 299.064 229.17 299.054 229.11 299.034C223.47 297.589 217.8 301.271 216.57 306.969L216.49 307.34C216.49 307.34 195.23 311.995 180.24 319.489C165.25 327.003 167.98 333.815 167.98 333.815C167.98 333.815 158.44 339.964 162.53 344.047C166.61 348.14 182.29 344.047 182.29 344.047C182.29 344.047 162.53 351.561 170.71 355.985C178.89 360.419 196.89 359.055 196.89 359.055C196.89 359.055 236.1 365.887 249.05 352.223C261.99 338.58 249.05 307.852 249.05 307.852V307.872V307.892Z" fill="#FFA5A5"/>
<path d="M216.49 308.594C215.95 308.594 215.45 308.243 215.29 307.701C215.09 307.039 215.47 306.337 216.13 306.147L228.3 302.515C228.96 302.314 229.66 302.696 229.85 303.358C230.05 304.02 229.67 304.722 229.01 304.913L216.84 308.544C216.72 308.584 216.6 308.594 216.48 308.594H216.49Z" fill="#C26060"/>
<path d="M168.8 334.055C168.26 334.055 167.76 333.704 167.6 333.153C167.41 332.49 167.79 331.788 168.45 331.598L196.8 323.261C197.46 323.06 198.16 323.452 198.35 324.114C198.54 324.776 198.16 325.478 197.5 325.669L169.15 334.005C169.03 334.045 168.91 334.055 168.8 334.055Z" fill="#C26060"/>
<path d="M179.95 345.953C179.41 345.953 178.91 345.602 178.75 345.06C178.55 344.398 178.93 343.696 179.59 343.495L199.24 337.617C199.9 337.416 200.6 337.797 200.8 338.459C201 339.121 200.62 339.824 199.96 340.024L180.31 345.903C180.19 345.943 180.07 345.953 179.95 345.953Z" fill="#C26060"/>
<path d="M305.07 369.909C379.2 365.776 405.39 301.672 368.26 244.29C331.13 186.907 257.23 184.289 257.23 184.289L302.25 255.275L273.05 289.534L239.9 302.736L245.01 359.757C245.01 359.757 283.44 371.123 305.08 369.909H305.07Z" fill="#D1DDFF"/>
<path d="M273.07 293.476C272.5 293.476 271.99 293.085 271.85 292.503C271.69 291.831 272.11 291.159 272.78 290.998C273.13 290.918 307.91 282.822 336.97 283.053C337.66 283.053 338.22 283.625 338.21 284.317C338.21 285.009 337.65 285.561 336.96 285.561C308.18 285.32 273.71 293.356 273.36 293.436C273.26 293.456 273.17 293.466 273.07 293.466V293.476Z" fill="#91B1FF"/>
<path d="M307.11 287.487C306.73 287.487 306.36 287.317 306.12 286.996C305.78 286.554 305.77 285.942 306.1 285.491C306.26 285.28 309.98 280.194 314.84 275.479C321.62 268.888 327.12 266.38 331.19 268.045C332.09 268.346 333.56 269.279 333.63 271.015C333.73 273.583 331.14 278.087 307.57 287.407C307.42 287.467 307.27 287.497 307.11 287.497V287.487ZM328.53 270.042C323.29 270.042 315.71 277.666 311.01 283.294C330.19 275.288 331.14 271.767 331.13 271.105C331.12 270.674 330.38 270.413 330.38 270.413C330.35 270.413 330.31 270.393 330.28 270.373C329.74 270.142 329.15 270.042 328.54 270.042H328.53Z" fill="#91B1FF"/>
<path d="M252.07 173.374C264.65 176.103 275.6 171.779 280.49 162.56C287.37 149.579 283.57 131.21 275.57 118.881H275.56L271.45 112.902C270.31 111.237 268.63 107.104 267.58 105.378C264.83 100.844 262.72 97.5935 258.05 94.4736C251.73 90.2401 244.11 88.5648 228.25 90.7718C225.13 91.2032 220.99 92.5776 216.94 94.2027C214.18 92.8885 206.3 90.0094 201.5 96.811C195.6 105.178 207.77 122.914 207.77 122.914L209.47 125.442C203.1 135.384 193.83 152.408 198.83 160.855C198.83 160.855 202.46 167.606 215.2 165.79L252.08 173.384L252.07 173.374Z" fill="#1C1E22"/>
<path d="M227.89 193.097C240.29 191.362 251.36 184.269 251.36 184.269L252.55 168.248L247.61 168.96L218.13 173.194L215.48 186.657L215.46 186.777C215.53 187.81 216.44 194.692 227.9 193.087L227.89 193.097Z" fill="#FFA5A5"/>
<path d="M247.6 168.97C247.47 169.713 247.12 170.586 246.61 171.569C239.44 184.851 222.43 186.556 215.47 186.667L218.12 173.204L247.6 168.97Z" fill="#C16060"/>
<path d="M223.15 104.074C219.36 106.632 216.44 110.314 214.55 114.487C210.15 124.248 200.63 147.813 203.94 163.042C208.19 182.634 225.9 180.628 236.59 177.518C247.3 174.408 252.54 168.248 252.54 168.248C252.54 168.248 262.14 172.151 269.22 163.413C276.31 154.675 272.89 143.961 267.44 141.222C261.99 138.494 255.1 142.145 255.1 142.145L260.89 132.484C260.89 132.484 245.12 89.227 223.12 104.054H223.13L223.15 104.074Z" fill="#FFA5A5"/>
<path d="M231.43 140.54C230.27 140.39 229.52 138.845 229.74 137.099C229.97 135.354 231.1 134.059 232.26 134.22C233.42 134.37 234.18 135.915 233.95 137.661C233.72 139.406 232.59 140.701 231.43 140.54Z" fill="#1C1E22"/>
<path d="M237.92 130.157C237.45 130.157 237 129.896 236.79 129.445C236.72 129.304 235.27 126.445 231.07 127.047C230.39 127.137 229.75 126.666 229.66 125.984C229.56 125.302 230.04 124.66 230.72 124.569C236.79 123.717 238.95 128.191 239.04 128.381C239.33 129.003 239.06 129.756 238.44 130.047C238.27 130.127 238.09 130.167 237.91 130.167L237.92 130.157Z" fill="#1C1E22"/>
<path d="M212.92 138.032C211.76 137.882 211.01 136.337 211.24 134.591C211.47 132.846 212.6 131.551 213.76 131.712C214.92 131.862 215.67 133.407 215.45 135.153C215.22 136.898 214.09 138.193 212.93 138.032H212.92Z" fill="#1C1E22"/>
<path d="M219.04 124.951C218.74 124.951 218.43 124.84 218.19 124.619C218.07 124.509 215.66 122.412 212 124.519C211.4 124.86 210.64 124.66 210.29 124.058C209.95 123.456 210.16 122.693 210.75 122.342C216.08 119.283 219.74 122.643 219.89 122.784C220.39 123.255 220.42 124.048 219.95 124.559C219.7 124.82 219.37 124.951 219.04 124.951Z" fill="#1C1E22"/>
<path d="M226.39 162.831C226.01 162.831 225.64 162.791 225.26 162.711C223.37 162.299 221.92 160.945 221.39 159.099L221.35 158.959C221.26 158.628 221.31 158.276 221.49 157.975C221.67 157.685 221.96 157.474 222.29 157.404L230.92 155.488C231.33 155.397 231.76 155.518 232.06 155.819C232.36 156.11 232.49 156.541 232.41 156.962C232.39 157.053 231.97 159.149 230.35 161.035C229.35 162.199 227.9 162.851 226.39 162.851V162.831ZM224.41 159.49C224.77 159.872 225.24 160.142 225.79 160.263C226.8 160.483 227.79 160.152 228.46 159.38C228.73 159.069 228.95 158.748 229.13 158.447L224.41 159.49Z" fill="#1C1E22"/>
<path d="M215.35 153.772C214.73 153.772 214.2 153.321 214.11 152.689C212.82 143.219 217.91 137.992 218.13 137.771C218.62 137.28 219.41 137.28 219.9 137.771C220.39 138.263 220.39 139.055 219.9 139.547C219.7 139.748 215.48 144.192 216.59 152.348C216.68 153.03 216.21 153.662 215.52 153.762C215.46 153.762 215.41 153.772 215.35 153.772Z" fill="#1C1E22"/>
<path d="M217.72 109.13C217.72 109.13 221.6 101.285 233.42 109.521C249.87 120.988 238.47 147.472 255.12 142.165C271.76 136.838 265.42 115.661 265.42 115.661C265.42 115.661 229.52 76.4262 217.72 109.13Z" fill="#1C1E22"/>
<path d="M250.59 149.077C248.95 156.862 251.54 163.985 256.38 165.008C261.22 166.031 266.48 160.554 268.11 152.779C269.74 144.994 267.16 137.872 262.32 136.848C257.48 135.825 252.22 141.302 250.59 149.077Z" fill="white"/>
<path d="M267.74 102.71C267.4 102.038 266.59 101.767 265.92 102.108C265.25 102.449 264.98 103.262 265.31 103.934C265.42 104.164 274.62 122.974 268.32 139.396C267.36 138.253 266.17 137.46 264.8 137.179C259.96 136.156 254.7 141.634 253.07 149.408C252 154.474 252.74 159.26 254.71 162.269C251.07 165.871 244.86 169.883 235.76 168.84C234.9 167.195 232.28 165.901 229.12 165.73C225.17 165.519 221.87 167.165 221.75 169.382C221.63 171.609 224.74 173.575 228.7 173.786C231.74 173.946 234.39 173.013 235.5 171.559C236.06 171.619 236.62 171.669 237.16 171.699C246.23 172.171 252.62 168.007 256.5 164.225C257.21 164.767 258 165.158 258.87 165.339C263.71 166.362 268.97 160.885 270.6 153.11C271.45 149.107 271.16 145.275 270.03 142.356C278.33 124.339 267.86 102.971 267.74 102.71Z" fill="#2D6AFF"/>
<path d="M222.72 357.309H68.4001L24.3301 257.432H172.56C176.26 257.432 179.61 259.619 181.11 263.009L222.72 357.329V357.309Z" fill="white"/>
<path d="M209.31 357.309H54.9901L15.6601 268.166C13.4301 263.11 17.1201 257.422 22.6501 257.422H165.25L209.32 357.309H209.31Z" fill="#628CFF"/>
<path d="M274.45 369.919H56.57C53.1 369.919 50.28 367.09 50.28 363.609C50.28 360.128 53.1 357.299 56.57 357.299H274.45C277.92 357.299 280.74 360.128 280.74 363.609C280.74 367.09 277.92 369.919 274.45 369.919Z" fill="#F92B5C"/>
<path d="M112.91 323.552C118.11 321.004 119.75 313.65 116.57 307.13C113.39 300.609 106.59 297.399 101.39 299.947C96.1901 302.495 94.5501 309.848 97.7301 316.359C100.91 322.88 107.71 326.09 112.91 323.542V323.552Z" fill="#1C1E22"/>
<path d="M170.73 111.949C170.04 111.949 169.48 111.387 169.48 110.705C169.48 109.772 169.61 87.5817 191.14 70.2767C191.68 69.8453 192.47 69.9255 192.9 70.4673C193.33 71.009 193.24 71.8015 192.71 72.2329C172.11 88.7855 171.98 110.474 171.98 110.695C171.98 111.387 171.43 111.949 170.74 111.959L170.73 111.949Z" fill="#8396B2"/>
<path d="M180.68 100.784C180.51 100.784 180.33 100.744 180.16 100.673L163.52 92.9989C162.89 92.708 162.62 91.9656 162.91 91.3336C163.2 90.7016 163.94 90.4307 164.57 90.7217L181.21 98.3961C181.84 98.687 182.11 99.4293 181.82 100.061C181.61 100.523 181.16 100.794 180.68 100.794V100.784Z" fill="#8396B2"/>
<path d="M188.82 86.2976C188.58 86.2976 188.33 86.2274 188.11 86.0769L172.91 75.5635C172.34 75.1722 172.2 74.3897 172.59 73.8179C172.98 73.2461 173.76 73.1057 174.33 73.4969L189.53 84.0103C190.1 84.4016 190.24 85.1841 189.85 85.7559C189.61 86.107 189.22 86.2976 188.82 86.2976Z" fill="#8396B2"/>
</g>
</g>
<defs>
<clipPath id="clip0_5063_26305">
<rect width="400" height="400" fill="white"/>
</clipPath>
<clipPath id="clip1_5063_26305">
<rect width="400" height="400" fill="white"/>
</clipPath>
</defs>
</svg>
