<svg width="400" height="400" viewBox="0 0 400 400" fill="none" xmlns="http://www.w3.org/2000/svg">
<g clip-path="url(#clip0_9165_38985)">
<path d="M115.435 370C115.145 367.192 119.405 339.883 119.405 339.883C119.405 339.883 59.4052 345.758 45.9252 324.465C32.4552 303.131 40.9552 277.011 81.7252 227.459C118.705 182.603 162.305 175.378 170.175 174.409C171.025 174.299 171.875 174.169 172.715 174.009C178.735 172.84 205.195 168.593 243.825 175.538C293.495 184.471 354.075 230.176 359.715 288.002C365.315 345.848 286.175 342.111 286.175 342.111C286.175 342.111 288.905 361.297 289.725 370" fill="#D2DEFF"/>
<path fill-rule="evenodd" clip-rule="evenodd" d="M326.484 103.91C326.985 104.894 326.593 106.099 325.609 106.6C317.131 110.917 310.749 118.449 306.851 126.267C306.882 126.286 306.914 126.306 306.945 126.325C310.908 128.811 313.708 132.942 315.309 137.185C316.905 141.411 317.424 146.044 316.497 149.706C316.03 151.553 315.161 153.279 313.738 154.518C312.275 155.791 310.389 156.405 308.216 156.265C305.882 156.115 303.89 155.273 302.327 153.834C300.786 152.415 299.766 150.514 299.164 148.389C297.972 144.178 298.326 138.77 299.881 133.214C300.332 131.605 300.889 129.964 301.551 128.314C299.253 127.749 296.595 127.909 293.556 129.172C286.75 132.001 283.26 137.832 281.884 143.866C281.197 146.883 281.055 149.899 281.289 152.502C281.527 155.143 282.138 157.203 282.823 158.39C283.376 159.347 283.048 160.57 282.092 161.122C281.135 161.674 279.912 161.347 279.359 160.39C278.277 158.516 277.572 155.823 277.306 152.861C277.035 149.862 277.199 146.424 277.984 142.977C279.556 136.083 283.682 128.944 292.021 125.478C296.135 123.768 299.907 123.634 303.204 124.62C307.421 116.101 314.381 107.829 323.794 103.036C324.778 102.534 325.982 102.926 326.484 103.91ZM305.199 129.962C304.622 131.418 304.132 132.867 303.733 134.293C302.289 139.45 302.095 144.054 303.013 147.3C303.467 148.903 304.167 150.092 305.036 150.891C305.883 151.671 306.992 152.178 308.474 152.274C309.694 152.352 310.516 152.019 311.112 151.501C311.747 150.948 312.288 150.038 312.62 148.725C313.291 146.07 312.963 142.295 311.567 138.598C310.236 135.072 308.036 131.889 305.199 129.962Z" fill="#628DFF"/>
<path d="M186.385 369.99C186.675 350.455 187.275 316.76 188.585 276.911C190.725 210.981 194.225 183.272 194.225 183.272C197.145 182.443 203.265 184.441 203.265 184.441H203.275C203.275 184.441 202.215 195.483 201.915 242.847C201.675 276.731 200.985 338.644 200.215 370H186.385V369.99Z" fill="#8EAEFF"/>
<path d="M184.715 172.54C184.715 172.54 188.545 181.963 199.905 182.762C213.435 183.732 222.595 172.57 222.595 172.57C222.595 172.57 230.425 193.005 224.125 196.502C217.835 200.009 199.895 185.81 199.895 185.81C199.895 185.81 184.715 198.896 177.475 191.656C173.795 186 184.715 172.54 184.715 172.54Z" fill="#91B1FF"/>
<path d="M123.749 338.812C123.122 339.077 122.396 338.798 122.119 338.166C121.841 337.535 122.126 336.797 122.758 336.519C122.878 336.468 134.363 331.302 146.454 320.837C146.971 320.391 147.765 320.446 148.22 320.959C148.67 321.484 148.611 322.269 148.097 322.724C135.703 333.448 124.251 338.589 123.776 338.801L123.758 338.808L123.749 338.812Z" fill="#8EAEFF"/>
<path d="M140.092 277.774C139.923 277.756 139.767 277.709 139.616 277.622C107.005 259.178 76.2817 268.58 75.9794 268.678C75.3229 268.888 74.6173 268.53 74.408 267.864C74.1975 267.208 74.5556 266.503 75.222 266.294C75.5343 266.197 107.25 256.451 140.848 275.444C141.445 275.78 141.664 276.548 141.317 277.143C141.068 277.589 140.579 277.827 140.092 277.774Z" fill="#8EAEFF"/>
<path d="M110.103 267.244C109.994 267.232 109.895 267.211 109.789 267.169C101.718 264.052 96.395 260.922 93.9716 257.855C92.7339 256.283 92.4908 254.166 93.345 252.319C94.1729 250.529 95.811 249.431 97.7301 249.357C101.132 249.244 104.494 252.001 107.721 257.588C109.99 261.522 111.366 265.431 111.419 265.587C111.581 266.047 111.455 266.556 111.106 266.9C110.836 267.162 110.461 267.283 110.103 267.244ZM98.332 251.875C98.163 251.857 97.9929 251.848 97.8207 251.86C96.8611 251.896 96.0355 252.46 95.615 253.369C95.2593 254.145 95.152 255.319 95.9299 256.308C97.2562 257.99 100.435 260.586 108.017 263.761C106.025 259.122 102.269 252.302 98.332 251.875Z" fill="#8EAEFF"/>
<path d="M282.786 341.792C282.786 341.792 282.738 341.778 282.709 341.77C266.168 335.96 260.792 327.562 260.57 327.208C260.205 326.626 260.383 325.856 260.977 325.485C261.559 325.121 262.33 325.298 262.695 325.88C262.76 325.982 267.932 333.927 283.537 339.408C284.19 339.636 284.529 340.345 284.301 340.997C284.082 341.621 283.414 341.96 282.779 341.779L282.786 341.792Z" fill="#8EAEFF"/>
<path d="M261.219 280.753C260.926 280.69 260.655 280.52 260.474 280.267C260.071 279.712 260.186 278.929 260.745 278.517C260.986 278.343 284.99 261.122 319.909 258.517C320.594 258.469 321.199 258.986 321.248 259.67C321.296 260.355 320.779 260.96 320.094 261.008C285.882 263.56 262.448 280.361 262.216 280.536C261.913 280.758 261.552 280.824 261.219 280.753Z" fill="#8EAEFF"/>
<path d="M282.86 269.537C282.675 269.497 282.507 269.421 282.35 269.295C281.903 268.945 281.748 268.329 281.981 267.807C282.357 266.957 291.293 246.936 301.242 246.981C301.291 246.991 301.335 246.98 301.383 246.99C301.613 247.019 303.619 247.293 304.324 249.027C304.908 250.459 304.367 252.183 302.651 254.289C301.751 255.395 300.635 256.455 299.323 257.432L283.883 269.295C283.588 269.528 283.215 269.602 282.862 269.527L282.86 269.537ZM301.139 249.482C295.839 249.549 290.109 257.779 286.674 264.015L297.812 255.455C298.968 254.588 299.938 253.681 300.703 252.73C301.884 251.265 302.142 250.34 302.004 249.983C301.889 249.703 301.405 249.529 301.139 249.482Z" fill="#8EAEFF"/>
<path d="M235.145 155.983C248.635 156.922 255.065 142.573 257.095 131.562C259.935 116.043 255.985 100.245 243.905 90.0732H243.925L237.825 85.2169C236.135 83.868 233.115 80.1408 231.485 78.6919C227.235 74.8948 224.045 72.2168 218.315 70.4582C210.535 68.09 202.245 68.7495 186.835 76.004C183.805 77.4229 180.025 80.1408 176.425 83.0786C173.205 82.5989 164.275 82.0993 161.555 90.6028C158.555 100.026 169.335 117.702 171.485 121.09C167.695 127.924 164.765 135.299 165.345 141.064C165.635 143.952 167.065 146.46 169.155 147.989C171.325 149.578 174.905 151.257 180.135 150.947C182.185 150.827 184.235 150.917 186.265 151.207C193.005 152.156 209.155 154.174 235.145 155.983Z" fill="#1C1E22"/>
<path d="M186.545 149.898L184.725 172.56C184.875 172.94 188.765 181.973 199.905 182.763C213.095 183.702 222.125 173.13 222.575 172.59V172.49L223.435 157.602L186.535 149.898H186.545Z" fill="#FFA9A9"/>
<path d="M223.445 157.602C223.445 157.602 213.445 177.557 197.635 174.929C184.885 172.81 186.555 149.888 186.555 149.888L223.455 157.592L223.445 157.602Z" fill="#C26060"/>
<path d="M237.475 117.862C231.055 117.233 230.295 118.382 230.295 118.382L232.385 106.701C232.385 106.701 194.065 62.784 180.185 101.295C180.185 101.295 178.855 107.61 178.145 116.253C172.585 115.464 165.985 116.403 164.985 124.877C163.575 136.878 173.085 140.835 179.105 142.134C180.085 147 181.675 151.556 184.115 155.274C195.715 172.92 211.255 168.064 218.265 162.868C227.735 155.863 229.805 145.961 229.805 145.961C229.805 145.961 242.605 148.719 247.065 138.356C251.745 127.465 243.905 118.482 237.475 117.852V117.862Z" fill="#FFA9A9"/>
<path d="M190.485 122.3C190.625 120.402 189.715 118.793 188.455 118.693C187.195 118.593 186.045 120.052 185.905 121.951C185.765 123.849 186.675 125.458 187.935 125.558C189.195 125.658 190.345 124.199 190.485 122.3Z" fill="#1C1E22"/>
<path d="M184.146 114.148C183.943 114.061 183.756 113.916 183.623 113.718C183.231 113.159 183.347 112.404 183.901 112C184.205 111.771 187.048 109.879 192.454 112.191C193.089 112.463 193.384 113.197 193.113 113.831C192.841 114.465 192.106 114.76 191.472 114.488C187.39 112.742 185.435 113.982 185.357 114.036C184.991 114.281 184.536 114.304 184.159 114.143L184.146 114.148Z" fill="#1C1E22"/>
<path d="M213.833 123.769C213.973 121.871 213.063 120.262 211.803 120.162C210.533 120.062 209.393 121.521 209.253 123.42C209.113 125.318 210.023 126.927 211.283 127.027C212.543 127.127 213.693 125.658 213.833 123.769Z" fill="#1C1E22"/>
<path d="M217.184 116.292C216.84 116.452 216.424 116.459 216.054 116.256C212.145 114.142 210.093 115.208 210.008 115.237C209.417 115.556 208.649 115.352 208.317 114.757C207.985 114.162 208.171 113.425 208.749 113.079C209.076 112.882 212.079 111.252 217.247 114.058C217.851 114.383 218.075 115.149 217.75 115.753C217.622 116 217.42 116.182 217.184 116.292Z" fill="#1C1E22"/>
<path d="M197.555 142.615C197.195 142.615 196.845 142.465 196.595 142.165C191.295 135.84 198.275 123.429 198.575 122.9C198.915 122.3 199.675 122.09 200.275 122.43C200.875 122.77 201.085 123.529 200.745 124.129C198.945 127.296 195.035 136.41 198.515 140.556C198.955 141.086 198.885 141.875 198.355 142.315C198.125 142.515 197.835 142.605 197.555 142.605V142.615Z" fill="#1C1E22"/>
<path d="M232.135 135.359C231.775 135.359 231.415 135.209 231.175 134.909C230.735 134.379 230.815 133.59 231.345 133.15L241.375 124.877C241.905 124.437 242.695 124.517 243.135 125.047C243.575 125.576 243.495 126.366 242.965 126.805L232.935 135.079C232.705 135.269 232.425 135.369 232.145 135.369L232.135 135.359Z" fill="#C26060"/>
<path d="M241.345 136.988C241.095 136.988 240.835 136.908 240.615 136.748L234.655 132.441C234.095 132.041 233.965 131.252 234.375 130.692C234.775 130.133 235.565 130.013 236.125 130.413L242.085 134.719C242.645 135.119 242.775 135.908 242.365 136.468C242.125 136.808 241.735 136.988 241.355 136.988H241.345Z" fill="#C26060"/>
<path d="M176.735 133.92C176.325 133.92 175.925 133.72 175.685 133.35L168.555 122.478C168.175 121.899 168.335 121.129 168.915 120.75C169.495 120.37 170.265 120.53 170.645 121.11L177.775 131.981C178.155 132.561 177.995 133.33 177.415 133.71C177.205 133.85 176.965 133.91 176.735 133.91V133.92Z" fill="#C26060"/>
<path d="M168.605 130.402C167.915 130.402 167.355 129.843 167.355 129.153C167.355 128.464 167.915 127.904 168.605 127.904H174.415V127.894C175.105 127.894 175.665 128.454 175.665 129.143C175.665 129.833 175.105 130.392 174.415 130.392H168.605V130.402Z" fill="#C26060"/>
<path d="M204.63 152.306C204.28 152.306 203.92 152.266 203.57 152.196C201.8 151.806 200.45 150.548 199.95 148.83C199.86 148.52 199.89 148.131 200.05 147.851C200.22 147.571 200.47 147.322 200.79 147.252L208.86 145.464C209.24 145.384 209.65 145.494 209.93 145.764C210.21 146.033 210.34 146.443 210.26 146.822C210.24 146.902 209.84 148.86 208.33 150.608C207.39 151.697 206.04 152.296 204.63 152.296V152.306ZM202.79 149.2C203.13 149.559 203.57 149.799 204.07 149.909C205.01 150.108 205.94 149.809 206.56 149.09C206.81 148.8 207.02 148.51 207.19 148.221L202.78 149.2H202.79Z" fill="#1C1E22"/>
<path d="M180.325 100.675C180.325 100.675 184.855 86.1462 200.075 91.0624C221.225 97.8872 217.725 130.432 233.645 119.021C239.215 115.034 241.175 109.888 241.365 104.902C241.745 94.8795 235.015 85.9163 225.345 82.8587C209.495 77.8425 181.455 72.5965 180.095 100.825V101.544L180.335 100.685L180.325 100.675Z" fill="#1C1E22"/>
<path d="M274.743 269.009C274.743 269.009 278.458 294.875 286.501 279.197C295.463 261.764 287.313 259.847 283.466 259.826C282.421 259.822 281.428 260.306 280.793 261.136L274.733 269.008L274.743 269.009Z" fill="#FFA6A6"/>
<path d="M251.671 298.966C251.671 298.966 245.499 324.018 266.166 324.871C286.843 325.725 290.276 296.494 290.276 296.494L251.65 298.974L251.66 298.975L251.671 298.966Z" fill="#FFA6A6"/>
<path d="M151.154 297.236C151.154 297.236 157.104 322.342 136.43 323.012C115.746 323.682 112.573 294.422 112.573 294.422L151.175 297.244L151.165 297.245L151.154 297.236Z" fill="#FFA6A6"/>
<path d="M128.35 267.086C128.35 267.086 124.405 292.918 116.501 277.17C107.695 259.657 115.862 257.813 119.709 257.826C120.754 257.831 121.742 258.324 122.37 259.16L128.35 267.086Z" fill="#FFA6A6"/>
<circle cx="202.288" cy="276.53" r="78" transform="rotate(-15 202.288 276.53)" fill="#85C23F"/>
<circle cx="202.288" cy="276.53" r="65.8" transform="rotate(-15 202.288 276.53)" stroke="white"/>
<path d="M194.282 260.062L187.125 261.98L194.362 288.99L201.519 287.073L198.562 276.035L202.706 274.925L201.05 268.747L196.907 269.857L194.282 260.062ZM181.252 281.804L180.546 279.167L181.713 278.854C185.179 277.925 187.252 274.059 186.212 270.179C185.173 266.299 181.424 263.911 177.958 264.84L168.729 267.313C165.226 268.252 163.248 272.173 164.288 276.053C165.328 279.933 168.981 282.265 172.484 281.327L173.765 280.983L174.562 283.96L166.3 286.577L167.774 292.077L191.872 284.368L190.398 278.868L181.252 281.804ZM170.654 274.347C170.392 273.368 170.903 272.262 171.807 272.02L177.721 270.435C178.588 270.203 179.621 270.895 179.884 271.874C180.146 272.854 179.577 273.895 178.711 274.127L172.796 275.712C171.892 275.954 170.917 275.327 170.654 274.347ZM170.676 292.511L173.492 303.021L204.383 294.744L202.909 289.244L179.251 295.583L177.909 290.573L170.676 292.511Z" fill="white"/>
<path d="M238.138 270.639L236.694 265.252L212.058 271.853L211.422 269.48L235.682 262.98L232.341 250.511L200.923 258.929L202.316 264.128L226.614 257.617L227.219 259.877L202.922 266.388L206.343 279.158L238.138 270.639ZM242.937 283.727L241.291 277.587L234.737 279.343L233.132 273.353L226.502 275.13L228.107 281.119L220.12 283.259L218.515 277.27L211.848 279.056L213.453 285.046L206.747 286.843L208.392 292.983L242.937 283.727Z" fill="white"/>
<path d="M191.153 235.707C191.163 235.513 191.415 235.446 191.52 235.608L194.192 239.723C194.239 239.796 194.328 239.83 194.412 239.807L199.151 238.537C199.338 238.487 199.48 238.706 199.358 238.856L196.27 242.669C196.216 242.737 196.211 242.831 196.258 242.904L198.93 247.019C199.036 247.181 198.872 247.384 198.691 247.314L194.11 245.556C194.03 245.525 193.938 245.55 193.883 245.617L190.796 249.43C190.674 249.58 190.43 249.487 190.441 249.294L190.697 244.394C190.702 244.308 190.65 244.228 190.569 244.197L185.989 242.439C185.808 242.369 185.822 242.109 186.009 242.059L190.748 240.789C190.832 240.766 190.891 240.693 190.896 240.606L191.153 235.707Z" fill="white"/>
<path d="M210.331 307.282C210.341 307.088 210.593 307.021 210.699 307.183L213.371 311.298C213.418 311.371 213.506 311.405 213.59 311.382L218.329 310.113C218.516 310.062 218.658 310.281 218.536 310.432L215.449 314.244C215.394 314.312 215.389 314.407 215.437 314.479L218.109 318.594C218.214 318.756 218.05 318.959 217.869 318.89L213.289 317.131C213.208 317.1 213.116 317.125 213.062 317.192L209.974 321.005C209.852 321.156 209.609 321.062 209.619 320.869L209.876 315.969C209.88 315.883 209.829 315.803 209.748 315.772L205.167 314.014C204.987 313.944 205 313.684 205.187 313.634L209.926 312.364C210.01 312.342 210.07 312.268 210.074 312.181L210.331 307.282Z" fill="white"/>
<path d="M209.988 230.66C209.998 230.466 210.25 230.399 210.356 230.561L213.028 234.676C213.075 234.749 213.163 234.783 213.247 234.76L217.986 233.491C218.173 233.44 218.315 233.659 218.193 233.81L215.106 237.622C215.051 237.69 215.046 237.785 215.093 237.857L217.766 241.972C217.871 242.134 217.707 242.337 217.526 242.268L212.946 240.509C212.865 240.478 212.773 240.503 212.719 240.57L209.631 244.383C209.509 244.534 209.266 244.44 209.276 244.247L209.533 239.347C209.537 239.261 209.486 239.181 209.405 239.15L204.824 237.392C204.644 237.322 204.657 237.062 204.844 237.012L209.583 235.742C209.667 235.72 209.727 235.646 209.731 235.559L209.988 230.66Z" fill="white"/>
<path d="M229.167 302.235C229.177 302.041 229.428 301.974 229.534 302.136L232.206 306.251C232.253 306.324 232.342 306.358 232.426 306.335L237.165 305.065C237.352 305.015 237.494 305.234 237.372 305.385L234.284 309.197C234.23 309.265 234.225 309.359 234.272 309.432L236.944 313.547C237.05 313.709 236.886 313.912 236.705 313.842L232.124 312.084C232.043 312.053 231.952 312.078 231.897 312.145L228.81 315.958C228.688 316.108 228.444 316.015 228.455 315.822L228.711 310.922C228.716 310.836 228.664 310.756 228.583 310.725L224.003 308.967C223.822 308.897 223.836 308.637 224.023 308.587L228.762 307.317C228.846 307.295 228.905 307.221 228.91 307.134L229.167 302.235Z" fill="white"/>
<path d="M172.317 240.754C172.327 240.56 172.579 240.493 172.684 240.655L175.357 244.77C175.404 244.843 175.492 244.877 175.576 244.854L180.315 243.585C180.502 243.534 180.644 243.753 180.522 243.904L177.435 247.716C177.38 247.784 177.375 247.879 177.422 247.951L180.094 252.066C180.2 252.228 180.036 252.431 179.855 252.362L175.275 250.603C175.194 250.572 175.102 250.597 175.048 250.664L171.96 254.477C171.838 254.628 171.595 254.534 171.605 254.341L171.862 249.441C171.866 249.355 171.815 249.275 171.734 249.244L167.153 247.486C166.972 247.416 166.986 247.156 167.173 247.106L171.912 245.836C171.996 245.814 172.056 245.74 172.06 245.653L172.317 240.754Z" fill="white"/>
<path d="M191.496 312.329C191.506 312.135 191.758 312.068 191.863 312.23L194.535 316.345C194.582 316.418 194.671 316.452 194.755 316.429L199.494 315.159C199.681 315.109 199.823 315.328 199.701 315.479L196.613 319.291C196.559 319.359 196.554 319.453 196.601 319.526L199.273 323.641C199.379 323.803 199.215 324.006 199.034 323.936L194.453 322.178C194.373 322.147 194.281 322.172 194.226 322.239L191.139 326.052C191.017 326.202 190.773 326.109 190.784 325.916L191.04 321.016C191.045 320.93 190.993 320.85 190.912 320.819L186.332 319.061C186.151 318.991 186.165 318.731 186.352 318.681L191.091 317.411C191.175 317.389 191.234 317.315 191.239 317.228L191.496 312.329Z" fill="white"/>
<path d="M118.71 284.089C118.71 284.089 100.58 281.952 106.189 273.659C111.788 265.365 144.611 261.49 148.066 271.262C151.531 281.035 118.71 284.089 118.71 284.089Z" fill="#FFA6A6"/>
<path d="M120.634 299.021C120.634 299.021 102.504 296.883 108.113 288.59C113.712 280.296 146.535 276.421 149.99 286.194C153.455 295.967 120.634 299.021 120.634 299.021Z" fill="#FFA6A6"/>
<path d="M131.767 310.494C127.692 310.905 123.517 310.388 119.809 308.67C116.48 307.126 113.809 304.703 116.471 301.148C121.764 294.036 150.918 291.92 153.595 300.692C155.582 307.236 139.896 309.671 131.787 310.495L131.767 310.494Z" fill="#FFA6A6"/>
<path d="M116.605 285.207C116.036 285.17 115.552 284.749 115.449 284.162C115.342 283.484 115.804 282.843 116.482 282.726L137.21 279.341C137.899 279.225 138.53 279.696 138.647 280.374C138.754 281.052 138.292 281.693 137.613 281.81L116.886 285.194C116.795 285.209 116.695 285.212 116.605 285.207Z" fill="#C26060"/>
<path d="M116.663 299.548C116.084 299.511 115.581 299.069 115.509 298.463C115.423 297.777 115.903 297.157 116.581 297.06L140.33 293.908C141.016 293.822 141.647 294.303 141.734 294.979C141.821 295.665 141.34 296.286 140.663 296.383L116.914 299.534C116.833 299.549 116.753 299.544 116.673 299.539L116.663 299.548Z" fill="#C26060"/>
<path d="M285.035 285.207C285.035 285.207 303.195 283.335 297.708 274.96C292.23 266.585 259.467 262.231 255.87 271.952C252.262 281.673 285.035 285.207 285.035 285.207Z" fill="#FFA6A6"/>
<path d="M282.903 300.108C282.903 300.108 301.063 298.236 295.576 289.861C290.098 281.486 257.335 277.132 253.738 286.853C250.13 296.574 282.903 300.108 282.903 300.108Z" fill="#FFA6A6"/>
<path d="M271.594 311.418C275.662 311.888 279.844 311.433 283.577 309.769C286.928 308.274 289.635 305.89 287.025 302.296C281.836 295.108 252.717 292.566 249.912 301.297C247.828 307.812 263.478 310.476 271.574 311.419L271.594 311.418Z" fill="#FFA6A6"/>
<path d="M287.123 286.355C287.034 286.359 286.933 286.354 286.842 286.338L266.167 282.651C265.49 282.534 265.037 281.876 265.154 281.2C265.271 280.524 265.93 280.072 266.606 280.189L287.282 283.876C287.959 283.993 288.411 284.651 288.294 285.327C288.193 285.912 287.693 286.327 287.123 286.355Z" fill="#C26060"/>
<path d="M286.866 300.694C286.787 300.698 286.707 300.701 286.626 300.685L262.926 297.187C262.24 297.09 261.768 296.453 261.875 295.768C261.971 295.083 262.61 294.621 263.295 294.718L286.995 298.216C287.681 298.313 288.153 298.95 288.046 299.635C287.955 300.23 287.456 300.675 286.877 300.703L286.866 300.694Z" fill="#C26060"/>
<path fill-rule="evenodd" clip-rule="evenodd" d="M90.1595 51.9621C94.7783 53.2753 98.4168 55.7739 100.142 58.2364C103.377 62.8559 103.853 67.7699 102.784 72.2758C105.34 73.496 107.975 75.2361 110.636 77.5883C114.788 81.2585 117.228 85.2265 118.307 89.2145C125.95 90.1902 130.553 94.9022 133.101 100.366C135.783 106.117 136.255 112.775 135.894 117.164C135.804 118.265 134.838 119.084 133.737 118.993C132.636 118.903 131.817 117.937 131.907 116.836C132.23 112.911 131.78 106.998 129.475 102.056C127.52 97.8624 124.283 94.4329 118.954 93.3709C119.151 97.8372 117.765 102.027 115.605 105.509C113.255 109.297 109.925 112.355 106.482 114.124C103.111 115.856 99.1893 116.55 96.026 114.746C93.1713 113.118 91.7437 110.4 91.6066 107.411C91.4728 104.494 92.5551 101.383 94.5152 98.6192C98.1358 93.5135 104.943 89.2866 114.058 89.0314C113.053 86.2486 111.148 83.3797 107.987 80.5851C105.738 78.5967 103.561 77.1297 101.487 76.0886C100.477 78.3663 99.1177 80.4646 97.6016 82.2721C95.0119 85.3597 91.8133 87.8148 88.722 89.0759C85.7358 90.294 82.1675 90.6194 79.7265 88.1717C77.3165 85.755 76.9872 82.4852 77.9966 79.556C78.9932 76.6638 81.3004 73.9811 84.4277 72.1999C88.2971 69.996 93.3747 69.169 99.0102 70.8222C99.6838 67.3875 99.1676 63.8179 96.8655 60.5313C95.8076 59.0211 93.0666 56.9472 89.0655 55.8096C85.1402 54.6935 80.1557 54.5296 74.7176 56.6197C73.6865 57.016 72.5295 56.5014 72.1332 55.4703C71.7369 54.4393 72.2515 53.2822 73.2825 52.886C79.5889 50.4621 85.4648 50.6273 90.1595 51.9621ZM97.7738 74.6248C93.1255 73.2977 89.1898 74.0908 86.4074 75.6756C84.0041 77.0445 82.4157 79.0095 81.7784 80.8591C81.1538 82.6716 81.4523 84.2376 82.5589 85.3472C83.2626 86.0529 84.7326 86.3832 87.2111 85.3722C89.5844 84.4041 92.2768 82.3962 94.5369 79.7015C95.8427 78.1448 96.9549 76.4292 97.7738 74.6248ZM114.925 93.0191C106.615 93.0206 100.73 96.7708 97.778 100.933C96.2036 103.153 95.5187 105.403 95.6024 107.228C95.6829 108.982 96.4576 110.388 98.0075 111.272C99.47 112.106 101.822 112.021 104.654 110.566C107.413 109.148 110.214 106.61 112.206 103.401C114.114 100.325 115.219 96.7311 114.925 93.0191Z" fill="#F82B5C"/>
<path fill-rule="evenodd" clip-rule="evenodd" d="M64.5858 155.86C63.8048 155.079 63.8048 153.813 64.5858 153.032C74.3867 143.231 84.7641 141.084 93.7575 142.548C102.627 143.992 109.996 148.914 114.114 153.032C114.895 153.813 114.895 155.079 114.114 155.86C113.333 156.641 112.067 156.641 111.286 155.86C107.62 152.195 100.979 147.776 93.1148 146.496C85.3741 145.236 76.2933 146.981 67.4143 155.86C66.6332 156.641 65.3669 156.641 64.5858 155.86Z" fill="#63D360"/>
<path d="M168 31C168 35.4211 164.421 39 160 39C155.579 39 152 35.4211 152 31C152 26.5789 155.579 23 160 23C164.421 23 168 26.5789 168 31Z" fill="#F82B5C"/>
<path d="M58 185C58 188.316 55.3158 191 52 191C48.6842 191 46 188.316 46 185C46 181.684 48.6842 179 52 179C55.3158 179 58 181.684 58 185Z" fill="#63D360"/>
<path d="M356.853 96.8685C355.709 101.139 351.325 103.67 347.055 102.525C342.785 101.381 340.254 96.9978 341.398 92.7274C342.542 88.457 346.926 85.9263 351.196 87.0706C355.467 88.2148 357.997 92.5981 356.853 96.8685Z" fill="#628DFF"/>
</g>
<defs>
<clipPath id="clip0_9165_38985">
<rect width="400" height="400" fill="white"/>
</clipPath>
</defs>
</svg>
