<svg width="112" height="112" viewBox="0 0 112 112" fill="none" xmlns="http://www.w3.org/2000/svg">
<g clip-path="url(#clip0_7391_34455)">
<g clip-path="url(#clip1_7391_34455)">
<path d="M112 0H0V112H112V0Z" fill="#DBE4FF"/>
<path d="M75.4134 41.351H62.3141L53.411 31.8119C52.403 30.8057 51.0357 30.2402 49.6096 30.2402H39.7424C33.8764 30.2402 29.1201 34.987 29.1201 40.8433V74.3071C29.1201 78.4231 32.4633 81.7602 36.5868 81.7602H75.4134C79.5369 81.7602 82.8801 78.4231 82.8801 74.3071V48.8042C82.8801 44.6882 79.5369 41.351 75.4134 41.351Z" fill="#2C44CC"/>
<path d="M55.9998 71.3872C50.4932 71.3872 46.0132 66.9153 46.0132 61.4186C46.0132 60.6984 46.5984 60.1143 47.3199 60.1143C48.0413 60.1143 48.6265 60.6984 48.6265 61.4186C48.6265 65.4768 51.9342 68.7786 55.9998 68.7786C60.0654 68.7786 63.3732 65.4768 63.3732 61.4186C63.3732 60.6984 63.9584 60.1143 64.6798 60.1143C65.4013 60.1143 65.9865 60.6984 65.9865 61.4186C65.9865 66.9153 61.5065 71.3872 55.9998 71.3872Z" fill="white"/>
<path d="M75.4134 41.3512C77.2315 41.3512 78.8975 42.0006 80.192 43.0785V38.0103C80.192 35.0468 77.785 32.644 74.816 32.644H54.1875L62.314 41.3512H75.4134Z" fill="#AEC0FF"/>
</g>
</g>
<defs>
<clipPath id="clip0_7391_34455">
<rect width="112" height="112" fill="white"/>
</clipPath>
<clipPath id="clip1_7391_34455">
<rect width="112" height="112" fill="white"/>
</clipPath>
</defs>
</svg>
