<svg width="400" height="400" viewBox="0 0 400 400" fill="none" xmlns="http://www.w3.org/2000/svg">
<g clip-path="url(#clip0_5102_24892)">
<g clip-path="url(#clip1_5102_24892)">
<path d="M400 0H0V400H400V0Z" fill="#FFE4E9"/>
<g style="mix-blend-mode:multiply">
<path d="M381.143 0L0 381.143V400H18.8567L400 18.8567V0H381.143Z" fill="#FFF0F5"/>
</g>
<path d="M269.333 147.681H222.55L190.753 113.613C187.153 110.02 182.27 108 177.177 108H141.937C120.987 108 104 124.953 104 145.868V265.382C104 280.082 115.94 292 130.667 292H269.333C284.06 292 296 280.082 296 265.382V174.3C296 159.6 284.06 147.681 269.333 147.681Z" fill="#F32B5C"/>
<path d="M231 248.299C228.424 248.299 226.333 246.213 226.333 243.641C226.333 229.147 214.52 217.355 200 217.355C185.48 217.355 173.667 229.147 173.667 243.641C173.667 246.213 171.577 248.299 169 248.299C166.423 248.299 164.333 246.213 164.333 243.641C164.333 224.01 180.333 208.039 200 208.039C219.667 208.039 235.667 224.01 235.667 243.641C235.667 246.213 233.577 248.299 231 248.299Z" fill="white"/>
<path d="M269.334 147.681C275.827 147.681 281.777 150.001 286.4 153.85V135.75C286.4 125.166 277.804 116.584 267.2 116.584H193.527L222.55 147.681H269.334Z" fill="#FFA4C8"/>
</g>
</g>
<defs>
<clipPath id="clip0_5102_24892">
<rect width="400" height="400" fill="white"/>
</clipPath>
<clipPath id="clip1_5102_24892">
<rect width="400" height="400" fill="white"/>
</clipPath>
</defs>
</svg>
