<svg width="400" height="400" viewBox="0 0 400 400" fill="none" xmlns="http://www.w3.org/2000/svg">
<g clip-path="url(#clip0_9590_39374)">
<path fill-rule="evenodd" clip-rule="evenodd" d="M51.4181 199.459C51.4181 199.459 51.4182 199.459 50.0002 199.286C48.5821 199.113 48.5822 199.112 48.5822 199.112L48.5827 199.108L48.5837 199.1L48.5872 199.072C48.5902 199.05 48.5945 199.017 48.6002 198.976C48.6116 198.895 48.6286 198.778 48.6519 198.632C48.6985 198.339 48.7704 197.926 48.8736 197.431C49.0788 196.448 49.4126 195.12 49.9266 193.776C50.4348 192.446 51.1524 191.013 52.1664 189.891C53.1998 188.747 54.6116 187.857 56.4287 187.857C58.2459 187.857 59.6576 188.747 60.691 189.891C61.705 191.013 62.4226 192.446 62.9309 193.776C63.4448 195.12 63.7786 196.448 63.9838 197.431C64.087 197.926 64.159 198.339 64.2056 198.632C64.2289 198.778 64.2458 198.895 64.2572 198.976C64.2629 199.017 64.2672 199.05 64.2702 199.072L64.2737 199.1L64.2748 199.108L64.2751 199.111C64.2751 199.111 64.2754 199.113 62.8573 199.286C61.4392 199.459 61.4393 199.459 61.4393 199.459L61.439 199.457L61.437 199.442L61.4274 199.371C61.4184 199.306 61.4041 199.208 61.3839 199.081C61.3434 198.826 61.2795 198.458 61.187 198.015C61.0008 197.123 60.7042 195.952 60.2622 194.796C59.8145 193.625 59.2505 192.558 58.5708 191.806C57.9104 191.075 57.2163 190.714 56.4287 190.714C55.6412 190.714 54.947 191.075 54.2866 191.806C53.6069 192.558 53.043 193.625 52.5953 194.796C52.1532 195.952 51.8567 197.123 51.6705 198.015C51.5779 198.458 51.514 198.826 51.4735 199.081C51.4533 199.208 51.439 199.306 51.43 199.371L51.4204 199.442L51.4184 199.457L51.4181 199.459Z" fill="#D2D2DD"/>
<path d="M33.4528 213.014L45.9559 200.364C46.9537 199.354 48.2622 198.775 49.6303 198.738L63.6255 198.411C64.9967 198.382 66.335 198.888 67.3771 199.857L80.514 211.904C82.9729 214.165 83.1978 218.192 80.9773 220.718L61.7084 242.668C59.5891 245.089 56.0389 245.171 53.8005 242.856L33.4419 221.831C31.1102 219.42 31.1092 215.391 33.4528 213.014Z" fill="#D2D2DD"/>
<path fill-rule="evenodd" clip-rule="evenodd" d="M277.317 40.2815L355.177 102.455L353.394 104.688L276.683 43.4321L60.3906 104.945L59.609 102.197L277.317 40.2815Z" fill="#D2D2DD"/>
<path fill-rule="evenodd" clip-rule="evenodd" d="M59.1382 165.576V114.549H61.9954V165.576H59.1382Z" fill="#D2D2DD"/>
<path fill-rule="evenodd" clip-rule="evenodd" d="M59.0758 179.67V177.443H61.933V179.67C61.933 180.837 62.117 181.992 62.3212 183.274C62.3559 183.492 62.3913 183.714 62.4265 183.94C62.5475 184.72 62.6323 185.648 62.5648 186.562C62.4987 187.458 62.2766 188.483 61.6608 189.332C59.154 192.789 53.6729 192.789 51.1661 189.332C50.5905 188.539 50.3604 187.593 50.2783 186.751C50.1948 185.895 50.2526 185.022 50.3532 184.267C50.4547 183.507 50.6057 182.823 50.7302 182.331C50.7928 182.084 50.8495 181.882 50.8914 181.74C50.9124 181.669 50.9297 181.612 50.9423 181.571L50.9574 181.523L50.9621 181.509L50.9636 181.504L50.9642 181.502C50.9643 181.502 50.9646 181.501 52.3225 181.945C53.6804 182.389 53.6805 182.388 53.6806 182.388L53.6792 182.392L53.6703 182.421C53.662 182.447 53.6491 182.49 53.6326 182.546C53.5995 182.658 53.5525 182.825 53.4999 183.033C53.3938 183.451 53.2682 184.023 53.1853 184.645C53.1015 185.274 53.0671 185.911 53.1219 186.473C53.1781 187.05 53.3168 187.431 53.479 187.655C54.845 189.538 57.9819 189.538 59.348 187.655C59.5235 187.413 59.6683 186.99 59.7154 186.352C59.7611 185.732 59.7055 185.038 59.6031 184.379C59.5718 184.177 59.5387 183.97 59.505 183.76C59.3013 182.49 59.0758 181.084 59.0758 179.67ZM53.6806 182.388C53.6806 182.388 53.6807 182.388 53.6806 182.388V182.388Z" fill="#D2D2DD"/>
<path d="M367.32 106.244C373.218 106.244 378 111.025 378 116.924C378 122.822 373.218 127.604 367.32 127.604L32.6797 127.604C26.7813 127.604 21.9998 122.822 21.9998 116.924C21.9998 111.025 26.7814 106.244 32.6798 106.244L367.32 106.244Z" fill="#EAEAEF"/>
<path d="M282 49.8568L293.294 58.3866C307.594 69.1857 316 86.0673 316 103.987L316 367.857H272L272 49.8568H282Z" fill="#EAEAEF"/>
<path d="M67.0931 165.578L65.0849 177.444L56.0479 177.444L54.0397 165.578H67.0931Z" fill="#D2D2DD"/>
<path d="M85.1126 101.857C88.2685 101.857 90.8269 104.415 90.8269 107.571V126.143C90.8269 129.298 88.2685 131.857 85.1126 131.857L37.2078 131.857C34.0519 131.857 31.4936 129.298 31.4936 126.143L31.4936 107.571C31.4936 104.415 34.0519 101.857 37.2078 101.857H85.1126Z" fill="#D2D2DD"/>
<path d="M363.276 101.857C364.854 101.857 366.134 103.136 366.134 104.714V129C366.134 130.578 364.854 131.857 363.276 131.857L345.257 131.857C343.679 131.857 342.4 130.578 342.4 129V104.714C342.4 103.136 343.679 101.857 345.257 101.857H363.276Z" fill="#D2D2DD"/>
<path d="M319.143 101.857C320.721 101.857 322 103.136 322 104.714V129C322 130.578 320.721 131.857 319.143 131.857H268.857C267.279 131.857 266 130.578 266 129V104.714C266 103.136 267.279 101.857 268.857 101.857H319.143Z" fill="#D2D2DD"/>
<path d="M272 49.8568H282V41.8568C282 39.0954 279.761 36.8568 277 36.8568C274.238 36.8568 272 39.0954 272 41.8568L272 49.8568Z" fill="#D2D2DD"/>
<path d="M119.743 367.852C119.469 365.204 123.489 339.455 123.489 339.455C123.489 339.455 66.88 344.995 54.1619 324.918C41.4532 304.803 49.4728 280.176 87.9384 233.455C122.828 191.162 163.964 184.35 171.389 183.436C172.191 183.332 172.993 183.21 173.785 183.059C179.465 181.957 204.43 177.953 240.876 184.501C287.739 192.923 344.895 236.017 350.216 290.539C355.499 345.08 280.833 341.556 280.833 341.556C280.833 341.556 283.408 359.646 284.182 367.852" fill="#D2DEFF"/>
<path d="M186.683 367.847C186.956 349.428 187.522 317.659 188.758 280.086C190.777 217.923 194.079 191.798 194.079 191.798C196.834 191.016 202.609 192.9 202.609 192.9H202.618C202.618 192.9 201.618 203.311 201.335 247.968C201.108 279.917 200.457 338.292 199.731 367.857H186.683V367.847Z" fill="#8EAEFF"/>
<path d="M185.105 181.679C185.105 181.679 188.718 190.563 199.436 191.317C212.201 192.231 220.843 181.707 220.843 181.707C220.843 181.707 228.231 200.974 222.287 204.272C216.353 207.579 199.427 194.191 199.427 194.191C199.427 194.191 181.746 205.035 178.274 199.702C174.802 194.37 185.105 181.679 185.105 181.679Z" fill="#91B1FF"/>
<path d="M127.587 338.453C126.996 338.702 126.311 338.439 126.049 337.844C125.787 337.249 126.056 336.552 126.652 336.29C126.765 336.243 137.601 331.372 149.008 321.505C149.496 321.084 150.245 321.136 150.675 321.619C151.1 322.115 151.044 322.855 150.559 323.284C138.866 333.395 128.061 338.242 127.613 338.442L127.595 338.449L127.587 338.453Z" fill="#8EAEFF"/>
<path d="M143.007 280.9C142.848 280.883 142.701 280.839 142.558 280.757C111.79 263.367 82.8035 272.231 82.5183 272.324C81.8989 272.522 81.2332 272.184 81.0357 271.556C80.8371 270.938 81.175 270.273 81.8037 270.076C82.0984 269.985 112.022 260.796 143.72 278.703C144.284 279.02 144.49 279.744 144.163 280.305C143.928 280.725 143.467 280.95 143.007 280.9Z" fill="#8EAEFF"/>
<path d="M114.712 270.971C114.609 270.96 114.516 270.94 114.416 270.901C106.801 267.962 101.779 265.01 99.4925 262.118C98.3248 260.636 98.0954 258.64 98.9014 256.899C99.6824 255.211 101.228 254.175 103.039 254.106C106.248 253.999 109.421 256.599 112.464 261.866C114.605 265.576 115.904 269.261 115.954 269.409C116.106 269.842 115.988 270.322 115.658 270.647C115.404 270.894 115.05 271.007 114.712 270.971ZM103.606 256.48C103.447 256.463 103.287 256.455 103.124 256.466C102.219 256.5 101.44 257.032 101.043 257.889C100.707 258.62 100.606 259.728 101.34 260.66C102.591 262.246 105.59 264.694 112.744 267.687C110.865 263.313 107.321 256.883 103.606 256.48Z" fill="#8EAEFF"/>
<path d="M277.634 341.258C277.634 341.258 277.589 341.245 277.562 341.237C261.955 335.759 256.883 327.841 256.674 327.507C256.33 326.959 256.498 326.232 257.058 325.883C257.608 325.539 258.335 325.707 258.679 326.255C258.74 326.351 263.62 333.842 278.343 339.011C278.959 339.225 279.278 339.894 279.064 340.509C278.857 341.097 278.227 341.417 277.628 341.246L277.634 341.258Z" fill="#8EAEFF"/>
<path d="M257.287 283.705C257.01 283.646 256.755 283.486 256.584 283.247C256.203 282.723 256.312 281.985 256.839 281.596C257.067 281.433 279.714 265.196 312.659 262.739C313.305 262.694 313.877 263.182 313.922 263.827C313.968 264.473 313.48 265.043 312.834 265.088C280.555 267.494 258.446 283.335 258.227 283.501C257.942 283.71 257.6 283.772 257.287 283.705Z" fill="#8EAEFF"/>
<path d="M277.706 273.129C277.53 273.092 277.372 273.019 277.224 272.901C276.802 272.571 276.656 271.99 276.877 271.498C277.231 270.697 285.662 251.819 295.049 251.862C295.095 251.872 295.136 251.861 295.182 251.871C295.398 251.898 297.291 252.156 297.956 253.791C298.507 255.141 297.997 256.766 296.378 258.753C295.528 259.795 294.476 260.795 293.238 261.716L278.671 272.901C278.392 273.121 278.04 273.19 277.708 273.12L277.706 273.129ZM294.951 254.22C289.951 254.283 284.544 262.043 281.304 267.923L291.812 259.852C292.903 259.034 293.818 258.179 294.54 257.283C295.654 255.902 295.898 255.029 295.767 254.693C295.659 254.429 295.202 254.264 294.951 254.22Z" fill="#8EAEFF"/>
<path d="M219.395 164.467L219.093 160.741L183.571 165.939L183.6 166.401L183.628 166.816L184.609 183.899V183.89C184.609 183.89 193.381 194.587 206.35 193.663C217.226 192.889 220.942 183.862 220.942 183.862L219.386 164.467H219.395Z" fill="#FFA9A9"/>
<path d="M219.104 160.741L219.405 164.467C219.217 170.552 217.632 182.032 208.511 183.55C194.9 185.805 185.638 169.693 183.591 165.948L219.104 160.751V160.741Z" fill="#C56060"/>
<path d="M195.949 162.386C186.036 170.951 179.207 167.178 179.207 167.178C166.134 160.65 163.832 122.144 163.832 122.144L195.94 162.386H195.949Z" fill="#1C1E22"/>
<path d="M210.71 96.2676C210.71 96.2676 227.547 102.39 229.933 111.86C232.32 121.341 229.933 127.689 229.933 127.689L226.424 127.67C226.424 127.67 218.03 106.889 204.457 104.984C190.884 103.078 210.701 96.2676 210.701 96.2676H210.71Z" fill="#1C1E22"/>
<path d="M157 112.973C157 112.973 160.348 137.291 165.781 135.159C171.214 133.018 186.268 113.407 184.712 109.454C183.156 105.511 157 112.973 157 112.973Z" fill="#FFBC28"/>
<path d="M219.417 128.915C219.417 128.915 237.942 120.661 239.63 135.046C241.583 151.714 221.596 152.195 221.596 152.195L219.417 128.915Z" fill="#FFA9A9"/>
<path d="M228.733 143.782C228.526 143.782 228.309 143.726 228.12 143.613C227.564 143.273 227.384 142.547 227.724 141.99L234.129 131.501C234.468 130.944 235.194 130.774 235.751 131.104C236.307 131.444 236.487 132.17 236.147 132.727L229.743 143.216C229.516 143.584 229.129 143.782 228.733 143.782Z" fill="#C26060"/>
<path d="M236.138 140.557H230.705C230.054 140.557 229.526 140.029 229.526 139.378C229.526 138.727 230.054 138.199 230.705 138.199H236.138C236.788 138.199 237.317 138.727 237.317 139.378C237.317 140.029 236.788 140.557 236.138 140.557Z" fill="#C26060"/>
<path d="M225.065 112.427C225.065 112.427 232.412 147.263 221.301 164.186C210.19 181.109 195.296 176.44 188.58 171.468C179.507 164.752 177.516 155.262 177.516 155.262C177.516 155.262 165.254 157.913 160.982 147.971C156.492 137.528 164.009 128.916 170.169 128.312C176.318 127.708 177.054 128.812 177.054 128.812L175.055 117.615C175.055 117.615 211.774 75.5055 225.065 112.436V112.427Z" fill="#FFA9A9"/>
<path d="M195.269 143.664C196.485 143.57 197.353 142.023 197.212 140.212C197.08 138.391 195.976 136.995 194.769 137.089C193.552 137.184 192.684 138.731 192.826 140.542C192.967 142.362 194.061 143.758 195.269 143.664Z" fill="#1C1E22"/>
<path d="M189.979 132.958C189.648 132.958 189.328 132.826 189.092 132.562C188.658 132.071 188.705 131.326 189.196 130.902C189.318 130.798 192.242 128.27 197.025 128.864C197.666 128.949 198.128 129.534 198.043 130.185C197.958 130.836 197.374 131.288 196.723 131.213C192.997 130.751 190.762 132.656 190.743 132.675C190.516 132.873 190.243 132.967 189.96 132.967L189.979 132.958Z" fill="#1C1E22"/>
<path d="M217.651 142.25C218.867 142.155 219.735 140.608 219.594 138.797C219.452 136.976 218.358 135.58 217.151 135.675C215.934 135.769 215.066 137.316 215.208 139.127C215.34 140.948 216.443 142.344 217.651 142.25Z" fill="#1C1E22"/>
<path d="M212.672 130.375C212.266 130.375 211.87 130.168 211.653 129.79C211.323 129.234 211.512 128.517 212.068 128.187C212.21 128.102 215.558 126.168 220.142 127.63C220.765 127.828 221.104 128.488 220.906 129.111C220.708 129.734 220.048 130.073 219.425 129.875C215.888 128.743 213.379 130.158 213.266 130.215C213.078 130.318 212.879 130.375 212.681 130.375H212.672Z" fill="#1C1E22"/>
<path d="M208.521 154.707C208.341 154.707 208.153 154.66 207.983 154.575C207.408 154.273 207.181 153.565 207.483 152.981C211.096 146.019 205.606 137.341 205.549 137.256C205.2 136.708 205.351 135.982 205.898 135.624C206.446 135.275 207.172 135.426 207.53 135.973C207.785 136.369 213.822 145.877 209.577 154.065C209.37 154.471 208.955 154.697 208.53 154.697L208.521 154.707Z" fill="#1C1E22"/>
<path d="M208.261 161.749C207.093 162.423 205.889 162.714 204.661 162.606C201.993 162.381 200.292 160.323 200.224 160.242C199.813 159.739 199.887 158.999 200.399 158.584C200.902 158.174 201.642 158.248 202.053 158.752C202.072 158.784 203.231 160.131 204.879 160.269C205.949 160.349 207.055 159.907 208.15 158.937C208.645 158.51 209.391 158.559 209.814 159.045C210.241 159.539 210.188 160.277 209.707 160.707C209.237 161.12 208.751 161.466 208.261 161.749Z" fill="#1C1E22"/>
<path d="M175.197 145.683C174.933 145.683 174.669 145.598 174.452 145.41L164.991 137.599C164.491 137.184 164.416 136.439 164.831 135.939C165.246 135.439 165.991 135.364 166.491 135.779L175.952 143.589C176.451 144.004 176.527 144.75 176.112 145.249C175.876 145.532 175.546 145.674 175.206 145.674L175.197 145.683Z" fill="#C26060"/>
<path d="M166.511 147.212C166.143 147.212 165.785 147.043 165.559 146.722C165.181 146.194 165.294 145.458 165.823 145.071L171.444 141.005C171.973 140.619 172.708 140.741 173.095 141.269C173.472 141.798 173.359 142.533 172.831 142.92L167.209 146.986C167.002 147.137 166.756 147.212 166.521 147.212H166.511Z" fill="#C26060"/>
<path d="M179.298 129.952C179.704 130.159 180.185 130.178 180.6 129.999C182.948 129.009 188.061 123.934 187.561 116.368C186.957 107.445 187.542 106.416 187.542 106.416C187.542 106.416 196.106 111.274 206.642 108.058C218.574 104.417 222.724 92.3516 216.141 87.5501C208.802 82.2016 193.437 84.2391 193.437 84.2391C193.437 84.2391 180.402 79.8999 168.498 95.2192C156.595 110.539 164.593 130.886 164.593 130.886C164.593 130.886 170.215 125.528 179.279 129.942L179.298 129.952Z" fill="#1C1E22"/>
<path d="M158.285 125.049C156.041 124.896 154.492 122.612 155.497 120.689C155.572 120.553 155.647 120.427 155.741 120.291L157.233 118.197C157.233 118.197 151.292 81.9023 187.983 75.2303C224.665 68.5583 231.169 105.34 231.169 105.34C231.169 105.34 250.881 108.545 241.194 116.075C231.92 123.289 177.386 126.413 158.303 125.067H158.294L158.285 125.049Z" fill="#FFDB25"/>
<path d="M182.545 77.821C182.545 77.821 187.136 73.8928 194.228 73.6031C197.683 73.4674 200.099 73.7841 201.735 74.2367C203.563 74.7345 205.238 76.047 206.287 77.5314C208.472 80.6179 210.935 87.3972 212.032 94.0771C213.418 102.54 212.331 112.976 212.331 112.976C212.331 112.976 211.821 113.501 206.662 114.162C203.179 114.605 200.59 114.044 200.59 114.044C200.59 114.044 193.526 85.596 182.545 77.812V77.821Z" fill="#FFBC28"/>
<path d="M268.87 280.164C268.87 280.164 272.378 304.586 279.971 289.784C288.433 273.323 280.738 271.514 277.106 271.494C276.119 271.49 275.182 271.947 274.582 272.731L268.86 280.163L268.87 280.164Z" fill="#FFA6A6"/>
<path d="M247.085 308.447C247.085 308.447 241.257 332.101 260.77 332.906C280.293 333.712 283.535 306.113 283.535 306.113L247.066 308.455L247.075 308.456L247.085 308.447Z" fill="#FFA6A6"/>
<path d="M152.18 306.815C152.18 306.815 157.798 330.519 138.279 331.151C118.75 331.784 115.753 304.157 115.753 304.157L152.2 306.823L152.191 306.824L152.18 306.815Z" fill="#FFA6A6"/>
<path d="M130.65 278.346C130.65 278.346 126.925 302.736 119.463 287.867C111.148 271.332 118.859 269.591 122.491 269.603C123.478 269.609 124.411 270.073 125.004 270.863L130.65 278.346Z" fill="#FFA6A6"/>
<path d="M235.713 325.715L168.07 326.181L164.493 226.588H238.946L235.713 325.715Z" fill="#F5F5F5"/>
<path d="M235.713 325.715L238.464 226.587L278.591 215.951L272.145 315.512L235.713 325.715Z" fill="#E9E9E9"/>
<path d="M168.363 326.179L164.978 226.587L118.083 215.951L131.314 315.512L168.363 326.179Z" fill="#E9E9E9"/>
<path fill-rule="evenodd" clip-rule="evenodd" d="M122.079 221.804L165.056 231.19L238.48 231.19L274.346 221.92L268.537 312.706L235.813 322.058L168.268 322.058L133.874 312.722L122.079 221.804ZM123.757 223.633L135.168 311.593L168.458 320.629L235.613 320.629L267.176 311.61L272.795 223.796L238.661 232.618L164.902 232.618L123.757 223.633Z" fill="#FC94AD"/>
<path fill-rule="evenodd" clip-rule="evenodd" d="M125.169 239.852L125.5 238.462L166.029 248.112L238.364 248.112L271.945 238.47L272.339 239.843L238.565 249.54L165.861 249.54L125.169 239.852Z" fill="#FC94AD"/>
<path fill-rule="evenodd" clip-rule="evenodd" d="M273.392 231.365L237.956 240.714L164.814 240.714L124.125 231.384L124.444 229.992L164.976 239.286L237.756 239.286L273 229.992L273.392 231.365Z" fill="#FC94AD"/>
<path fill-rule="evenodd" clip-rule="evenodd" d="M127.097 258.682L127.44 257.295L166.516 266.944L237.396 266.944L270.657 257.303L271.054 258.675L237.598 268.372L166.342 268.372L127.097 258.682Z" fill="#FC94AD"/>
<path fill-rule="evenodd" clip-rule="evenodd" d="M128.393 267.836L128.748 266.452L167.622 276.43L238.134 276.43L271.222 266.46L271.635 267.828L238.345 277.859L167.442 277.859L128.393 267.836Z" fill="#FC94AD"/>
<path fill-rule="evenodd" clip-rule="evenodd" d="M125.887 249.266L125.886 247.88L165.931 257.859L238.57 257.859L272.657 247.887L272.5 249.259L238.775 259.287L165.756 259.287L125.887 249.266Z" fill="#FC94AD"/>
<path fill-rule="evenodd" clip-rule="evenodd" d="M129.505 277.016L129.866 275.634L166.749 285.28L236.177 285.28L269.691 275.638L270.086 277.011L236.379 286.708L166.565 286.708L129.505 277.016Z" fill="#FC94AD"/>
<path fill-rule="evenodd" clip-rule="evenodd" d="M129.505 286.407L129.866 285.024L166.749 294.67L236.177 294.67L269.691 285.029L270.086 286.402L236.379 296.099L166.565 296.099L129.505 286.407Z" fill="#FC94AD"/>
<path fill-rule="evenodd" clip-rule="evenodd" d="M132.397 294.959L132.775 293.581L167.974 303.225L236.425 303.225L268.717 293.586L269.125 294.955L236.634 304.654L167.782 304.654L132.397 294.959Z" fill="#FC94AD"/>
<path fill-rule="evenodd" clip-rule="evenodd" d="M132.397 303.547L132.775 302.17L167.974 311.813L236.425 311.813L268.717 302.174L269.125 303.543L236.634 313.242L167.782 313.242L132.397 303.547Z" fill="#FC94AD"/>
<path fill-rule="evenodd" clip-rule="evenodd" d="M249.837 317.445L253.704 227.521L255.132 227.583L251.264 317.506L249.837 317.445Z" fill="#FC94AD"/>
<path fill-rule="evenodd" clip-rule="evenodd" d="M259.286 315.608L263.153 225.685L264.581 225.746L260.713 315.669L259.286 315.608Z" fill="#FC94AD"/>
<path fill-rule="evenodd" clip-rule="evenodd" d="M240.714 319.892L244.582 229.969L246.009 230.031L242.142 319.954L240.714 319.892Z" fill="#FC94AD"/>
<path fill-rule="evenodd" clip-rule="evenodd" d="M232.142 321.32L235.043 231.396L236.471 231.443L233.57 321.366L232.142 321.32Z" fill="#FC94AD"/>
<path fill-rule="evenodd" clip-rule="evenodd" d="M222.142 321.418L223.615 231.408L225.043 231.431L223.571 321.441L222.142 321.418Z" fill="#FC94AD"/>
<path fill-rule="evenodd" clip-rule="evenodd" d="M212.16 320.852L213.127 231.412L214.556 231.427L213.589 320.867L212.16 320.852Z" fill="#FC94AD"/>
<path fill-rule="evenodd" clip-rule="evenodd" d="M201.714 320.852L202.681 231.412L204.109 231.427L203.142 320.867L201.714 320.852Z" fill="#FC94AD"/>
<path fill-rule="evenodd" clip-rule="evenodd" d="M192.142 321.43V231.43H193.571V321.43H192.142Z" fill="#FC94AD"/>
<path fill-rule="evenodd" clip-rule="evenodd" d="M183.571 320.727L182.143 231.916L183.571 231.893L185 320.704L183.571 320.727Z" fill="#FC94AD"/>
<path fill-rule="evenodd" clip-rule="evenodd" d="M173.428 321.358L171.495 232.402L172.923 232.371L174.857 321.327L173.428 321.358Z" fill="#FC94AD"/>
<path fill-rule="evenodd" clip-rule="evenodd" d="M164.076 319.93L162.142 230.974L163.571 230.943L165.504 319.899L164.076 319.93Z" fill="#FC94AD"/>
<path fill-rule="evenodd" clip-rule="evenodd" d="M157.18 318.662L153.313 229.706L154.74 229.644L158.608 318.6L157.18 318.662Z" fill="#FC94AD"/>
<path fill-rule="evenodd" clip-rule="evenodd" d="M148.867 316.131L145 227.175L146.427 227.113L150.294 316.069L148.867 316.131Z" fill="#FC94AD"/>
<path fill-rule="evenodd" clip-rule="evenodd" d="M143.836 316.03L136.578 226.138L138 226L145.258 315.892L143.836 316.03Z" fill="#FC94AD"/>
<path fill-rule="evenodd" clip-rule="evenodd" d="M137.99 314.279L129.288 224.356L130.71 224.218L139.412 314.141L137.99 314.279Z" fill="#FC94AD"/>
<path d="M121.548 294.403C121.548 294.403 104.43 292.385 109.726 284.555C115.012 276.724 146.003 273.066 149.265 282.293C152.537 291.52 121.548 294.403 121.548 294.403Z" fill="#FFA6A6"/>
<path d="M123.365 308.502C123.365 308.502 106.247 306.485 111.543 298.654C116.829 290.823 147.819 287.165 151.082 296.392C154.353 305.619 123.365 308.502 123.365 308.502Z" fill="#FFA6A6"/>
<path d="M133.876 319.336C130.029 319.724 126.087 319.237 122.586 317.614C119.443 316.157 116.921 313.869 119.434 310.512C124.432 303.797 151.957 301.799 154.485 310.081C156.362 316.261 141.551 318.559 133.895 319.338L133.876 319.336Z" fill="#FFA6A6"/>
<path d="M119.56 295.46C119.023 295.426 118.566 295.028 118.469 294.473C118.368 293.834 118.803 293.228 119.444 293.118L139.014 289.922C139.665 289.812 140.261 290.257 140.371 290.897C140.472 291.537 140.037 292.143 139.396 292.253L119.826 295.449C119.74 295.462 119.645 295.465 119.56 295.46Z" fill="#C26060"/>
<path d="M119.616 308.998C119.069 308.964 118.594 308.546 118.527 307.974C118.445 307.326 118.899 306.74 119.538 306.649L141.961 303.673C142.61 303.592 143.205 304.046 143.287 304.684C143.369 305.332 142.915 305.918 142.276 306.009L119.853 308.985C119.777 308.999 119.701 308.994 119.626 308.99L119.616 308.998Z" fill="#C26060"/>
<path d="M278.587 295.454C278.587 295.454 295.733 293.686 290.552 285.78C285.381 277.872 254.447 273.761 251.05 282.939C247.644 292.118 278.587 295.454 278.587 295.454Z" fill="#FFA6A6"/>
<path d="M276.573 309.524C276.573 309.524 293.72 307.756 288.539 299.849C283.367 291.942 252.434 287.831 249.037 297.009C245.631 306.188 276.573 309.524 276.573 309.524Z" fill="#FFA6A6"/>
<path d="M265.897 320.2C269.738 320.644 273.687 320.214 277.211 318.643C280.375 317.231 282.93 314.981 280.467 311.588C275.568 304.8 248.074 302.4 245.425 310.644C243.459 316.795 258.234 319.31 265.878 320.201L265.897 320.2Z" fill="#FFA6A6"/>
<path d="M280.559 296.538C280.474 296.542 280.38 296.538 280.294 296.523L260.773 293.042C260.134 292.931 259.706 292.31 259.817 291.672C259.927 291.033 260.549 290.606 261.188 290.717L280.709 294.198C281.348 294.308 281.775 294.929 281.665 295.568C281.569 296.12 281.097 296.512 280.559 296.538Z" fill="#C26060"/>
<path d="M280.317 310.078C280.242 310.082 280.166 310.085 280.09 310.07L257.713 306.767C257.066 306.676 256.62 306.074 256.721 305.427C256.812 304.78 257.415 304.344 258.062 304.435L280.439 307.739C281.086 307.83 281.531 308.431 281.431 309.079C281.345 309.64 280.874 310.06 280.327 310.087L280.317 310.078Z" fill="#C26060"/>
</g>
<defs>
<clipPath id="clip0_9590_39374">
<rect width="400" height="400" fill="white"/>
</clipPath>
</defs>
</svg>
