<svg width="400" height="400" viewBox="0 0 400 400" fill="none" xmlns="http://www.w3.org/2000/svg">
<g clip-path="url(#clip0_2127_6836)">
<path d="M287.131 165.356C290.441 163.536 302.861 229.004 302.861 229.004L296.301 238.114C296.301 238.114 283.811 167.176 287.131 165.356Z" fill="#1C1E22"/>
<path d="M250.32 300.172C273.501 327.641 293.402 247.483 293.402 247.483C293.402 247.483 299.552 259.503 310.332 258.853C321.113 258.203 315.352 228.194 293.402 225.464C271.461 222.734 254.61 258.853 254.61 258.853L250.32 300.172Z" fill="#FFA6A6"/>
<path d="M105.354 185.965C103.234 185.885 101.114 185.965 99.0039 186.195C66.2326 189.985 50.012 205.255 47.2219 219.874C42.8217 242.904 40.4016 318.361 38.0815 370H195.128C193.008 352.52 187.617 328.911 187.617 328.911C187.617 328.911 235.659 340.841 264.67 309.552V241.954L246.77 247.263C213.408 257.143 192.588 234.604 185.987 225.864C182.407 221.124 178.667 216.544 174.697 212.194C169.027 205.985 162.366 199.785 154.426 194.915C146.486 190.045 136.995 187.195 127.465 186.835L105.354 185.985V185.965Z" fill="#D0DEFF"/>
<path d="M136.745 195.055C136.745 195.055 152.446 240.294 159.086 281.332C165.726 322.381 167.566 370 167.566 370H156.346C156.346 370 149.816 284.212 145.006 262.663C139.195 236.584 127.255 196.165 127.255 196.165C127.255 196.165 131.345 192.865 136.745 195.075V195.055Z" fill="#8EAEFF"/>
<path d="M187.717 329.321C187.147 329.321 186.637 328.931 186.507 328.361L168.297 251.713C168.137 251.043 168.547 250.363 169.227 250.213C169.897 250.053 170.577 250.473 170.727 251.143L188.937 327.791C189.097 328.461 188.687 329.141 188.007 329.291C187.907 329.311 187.817 329.321 187.717 329.321Z" fill="#91B1FF"/>
<path d="M180.787 269.033C180.787 269.033 165.136 261.923 161.146 260.573C157.156 259.223 141.136 263.663 141.136 263.663L131.575 306.202C131.575 306.202 164.196 316.562 185.187 302.112C206.188 287.652 200.548 269.173 200.548 269.173L180.777 269.023L180.787 269.033Z" fill="#FFA6A6"/>
<path d="M158.267 299.042C158.267 299.042 164.267 310.232 183.258 305.532C202.248 300.832 200.458 285.522 200.458 285.522C200.458 285.522 209.759 282.382 218.779 274.293C227.799 266.203 210.119 260.143 210.119 260.143L158.267 299.032V299.042Z" fill="#FFA6A6"/>
<path d="M255.7 204.685C248.68 197.575 218.659 215.934 188.668 245.643C158.636 275.373 140.016 305.202 147.036 312.302C154.056 319.411 184.077 301.052 214.069 271.343C244.11 241.614 262.7 211.744 255.7 204.685ZM175.597 284.182C170.197 289.532 164.067 292.032 161.857 289.782C159.626 287.532 162.187 281.402 167.577 276.053C172.927 270.733 179.107 268.203 181.317 270.453C183.547 272.703 180.987 278.833 175.597 284.182Z" fill="#9D70FF"/>
<path d="M197.828 244.884C197.828 244.884 193.578 254.174 199.888 252.554C206.198 250.944 208.308 242.354 208.308 242.354C208.308 242.354 216.968 241.634 220.618 234.354C224.258 227.074 209.568 224.314 197.828 244.884Z" fill="white"/>
<path d="M236.889 236.474C236.889 236.474 239.929 226.734 233.869 229.124C227.809 231.524 226.799 240.304 226.799 240.304C226.799 240.304 218.299 242.114 215.599 249.794C212.909 257.474 227.819 258.354 236.869 236.464L236.889 236.474Z" fill="#B9DD39"/>
<path d="M242.039 211.825C242.039 211.825 249.669 210.605 247.219 214.875C244.769 219.165 238.079 218.955 238.079 218.955C238.079 218.955 235.799 225.135 229.749 226.315C223.699 227.505 224.669 216.215 242.039 211.805V211.825Z" fill="#FFDB25"/>
<path d="M175.687 270.983C175.687 270.983 197.248 268.703 196.668 279.133C196.098 289.563 165.336 281.993 165.336 281.993L175.677 270.983H175.687Z" fill="#FFA6A6"/>
<path d="M106.614 187.945C106.614 187.945 69.2229 180.185 30.0214 221.234C-6.23001 259.203 -14.5103 314.872 32.5015 327.621C79.5133 340.381 145.806 316.081 145.806 316.081L143.726 257.553L112.785 255.143L106.624 187.925L106.614 187.945Z" fill="#D0DEFF"/>
<path d="M136.265 187.155C136.265 187.155 147.426 200.775 145.626 202.925C143.816 205.075 132.555 194.645 129.845 197.355C127.135 200.065 118.865 207.195 114.874 208.475C110.884 209.765 97.8438 186.365 100.264 186.065C101.344 185.925 103.214 185.765 103.214 185.765C103.214 185.765 113.454 192.315 124.915 193.915C136.375 195.515 136.265 187.155 136.265 187.155Z" fill="#8EAEFF"/>
<path d="M113.814 256.543C113.754 256.543 113.704 256.543 113.644 256.533C71.9127 250.873 57.5221 255.853 57.3921 255.903C56.7421 256.133 56.0221 255.803 55.7921 255.163C55.5621 254.523 55.8821 253.803 56.5321 253.563C57.1221 253.343 71.4527 248.283 113.994 254.063C114.674 254.153 115.154 254.783 115.064 255.473C114.984 256.103 114.444 256.553 113.824 256.553L113.814 256.543Z" fill="#91B1FF"/>
<path d="M93.9536 254.434C93.8736 254.434 93.7836 254.434 93.7036 254.404C73.6228 250.244 62.7624 245.794 61.4324 241.184C60.8923 239.334 61.9924 238.204 62.1224 238.084C65.1025 235.004 71.4127 236.504 81.3931 242.684C88.3734 247.004 94.6936 252.164 94.7536 252.214C95.2037 252.574 95.3337 253.204 95.0937 253.714C94.8836 254.154 94.4436 254.424 93.9636 254.424L93.9536 254.434ZM66.2525 239.044C65.2325 239.044 64.4225 239.294 63.8825 239.854C63.8424 239.904 63.7024 240.124 63.8524 240.564C64.2725 241.764 67.3426 245.844 88.8634 250.794C80.8531 244.814 71.1427 239.044 66.2525 239.044Z" fill="#91B1FF"/>
<path d="M63.3327 332.542C52.6022 332.542 41.9618 331.492 32.1714 328.832C31.5014 328.652 31.1114 327.962 31.2914 327.302C31.4714 326.632 32.1614 326.242 32.8215 326.422C78.9033 338.932 144.706 315.162 145.366 314.912C146.016 314.672 146.736 315.012 146.966 315.652C147.206 316.302 146.866 317.022 146.226 317.252C145.696 317.442 103.944 332.532 63.3327 332.532V332.542Z" fill="#91B1FF"/>
<path d="M397.136 174.005L334.963 173.915C334.863 173.915 334.773 173.915 334.663 173.935L320.183 173.915C318.983 173.915 317.903 174.655 317.483 175.785L246.26 366.02C245.56 367.9 246.94 369.91 248.95 369.91L311.122 370C311.222 370 311.312 370 311.423 369.98L325.893 370C327.093 370 328.173 369.26 328.593 368.13L399.816 177.895C400.516 176.015 399.136 174.005 397.126 174.005H397.136Z" fill="#C26060"/>
<path d="M124.885 193.926C135.706 195.436 136.206 188.076 136.226 187.246L136.086 186.036L134.646 173.446L107.785 167.346L103.275 166.316H103.295L103.165 185.786H103.175C103.175 185.786 113.415 192.336 124.875 193.936L124.885 193.926Z" fill="#FFA6A6"/>
<path d="M107.844 167.356C107.904 168.046 108.154 168.876 108.564 169.816C114.175 182.576 129.725 185.426 136.136 186.046L134.696 173.456L107.834 167.356H107.844Z" fill="#C26060"/>
<path d="M103.394 171.045C91.5938 172.615 81.8235 167.816 78.0033 158.956C72.6331 146.496 77.5033 129.877 85.8136 119.117V119.147L90.0638 113.947C91.2438 112.497 93.1039 108.827 94.1939 107.317C97.074 103.347 99.2641 100.517 103.794 97.9875C109.935 94.5676 117.085 93.5976 131.545 96.8076C134.385 97.4375 138.096 99.0175 141.706 100.807C144.356 99.8075 151.826 97.7375 155.746 104.367C160.557 112.507 148.016 127.917 148.016 127.917L146.256 130.117C151.386 139.746 158.666 156.126 153.416 163.516C153.416 163.516 149.556 169.456 137.946 166.826L103.384 171.035L103.394 171.045Z" fill="#1C1E22"/>
<path d="M135.246 109.447C138.546 112.087 140.966 115.687 142.396 119.677C145.726 128.987 152.736 151.396 148.536 165.166C143.146 182.875 126.985 179.715 117.345 176.045C107.715 172.385 103.344 166.326 103.344 166.326C103.344 166.326 94.2141 169.196 88.3239 160.616C82.4437 152.036 86.3938 142.426 91.624 140.326C96.8542 138.226 102.924 142.106 102.924 142.106L98.3043 132.777C98.3043 132.777 116.085 94.1476 135.246 109.437V109.447Z" fill="#FFA6A6"/>
<path d="M140.726 115.617C140.726 115.617 136.885 106.997 125.365 113.697C109.334 123.017 117.865 148.256 102.934 142.106C87.9935 135.956 95.4238 116.937 95.4238 116.937C95.4238 116.937 135.075 87.0978 143.496 118.097L140.726 115.617Z" fill="#1C1E22"/>
<path d="M108.554 78.448C102.174 78.998 95.764 81.218 89.6838 84.4979C89.1137 83.9679 88.4637 83.4379 87.7637 82.9379C84.2835 80.478 80.6634 79.608 79.6734 81.008C78.7033 82.3879 80.6634 85.4479 84.0635 87.8978C60.5726 103.577 44.402 133.387 59.2526 137.176C77.7233 141.886 99.8441 124.697 120.305 113.187C124.375 110.897 127.085 109.177 131.875 106.807C145.366 100.127 147.836 99.7475 147.836 99.7475C147.836 99.7475 142.676 75.5181 108.544 78.438L108.554 78.448Z" fill="#FA2B5C"/>
<path d="M102.254 156.656C101.934 156.656 101.604 156.536 101.364 156.286L92.2438 147.006C91.7638 146.516 91.7638 145.726 92.2638 145.236C92.7538 144.756 93.5438 144.756 94.0338 145.256L103.154 154.536C103.634 155.026 103.634 155.816 103.134 156.306C102.894 156.546 102.574 156.666 102.254 156.666V156.656Z" fill="#C26060"/>
<path d="M92.9239 157.306C92.4939 157.306 92.0739 157.086 91.8439 156.676C91.5039 156.076 91.7039 155.316 92.3039 154.966L98.6839 151.296C99.2839 150.956 100.044 151.156 100.394 151.756C100.734 152.356 100.534 153.116 99.9339 153.466L93.5539 157.136C93.3539 157.246 93.1439 157.306 92.9339 157.306H92.9239Z" fill="#C26060"/>
<path d="M129.856 142.366C130.956 142.316 131.786 140.926 131.706 139.266C131.626 137.616 130.666 136.316 129.556 136.366C128.456 136.426 127.626 137.806 127.706 139.466C127.786 141.116 128.746 142.416 129.856 142.366Z" fill="#1C1E22"/>
<path d="M124.765 132.177C124.565 132.177 124.365 132.127 124.175 132.027C123.565 131.697 123.345 130.947 123.665 130.337C124.485 128.807 127.295 126.267 132.025 127.547C132.695 127.727 133.085 128.417 132.905 129.077C132.725 129.747 132.035 130.137 131.375 129.957C127.355 128.867 125.875 131.497 125.865 131.517C125.635 131.937 125.205 132.177 124.765 132.177Z" fill="#1C1E22"/>
<path d="M147.456 141.447C148.556 141.387 149.386 140.007 149.306 138.347C149.226 136.697 148.266 135.397 147.156 135.447C146.056 135.497 145.226 136.887 145.306 138.547C145.386 140.197 146.346 141.497 147.456 141.447Z" fill="#1C1E22"/>
<path d="M148.466 129.437C148.216 129.437 147.976 129.367 147.756 129.217C144.446 126.917 142.266 128.647 142.026 128.847C141.506 129.297 140.716 129.247 140.266 128.737C139.816 128.227 139.856 127.447 140.356 126.987C141.636 125.827 145.136 124.367 149.176 127.157C149.746 127.547 149.886 128.327 149.496 128.897C149.256 129.247 148.866 129.437 148.466 129.437Z" fill="#1C1E22"/>
<path d="M144.026 155.756C143.966 155.756 143.916 155.756 143.856 155.746C143.176 155.656 142.686 155.026 142.786 154.336C143.876 146.176 140.726 142.496 140.696 142.456C140.246 141.946 140.286 141.156 140.796 140.696C141.306 140.236 142.086 140.276 142.546 140.776C142.706 140.956 146.516 145.256 145.256 154.666C145.176 155.296 144.636 155.746 144.016 155.746L144.026 155.756Z" fill="#1C1E22"/>
<path d="M134.305 163.746C132.795 163.746 131.345 163.096 130.345 161.936C128.725 160.056 128.305 157.966 128.285 157.876C128.205 157.466 128.335 157.036 128.635 156.736C128.935 156.446 129.365 156.316 129.775 156.406L138.405 158.316C138.735 158.386 139.025 158.596 139.205 158.886C139.385 159.176 139.435 159.536 139.345 159.866L139.305 159.996C138.775 161.846 137.325 163.196 135.435 163.606C135.055 163.686 134.675 163.726 134.305 163.726V163.746ZM131.565 159.366C131.755 159.676 131.975 159.986 132.235 160.296C132.895 161.066 133.895 161.396 134.905 161.176C135.455 161.056 135.925 160.786 136.285 160.416L131.565 159.366Z" fill="#1C1E22"/>
<path d="M214.268 65.8386C216.378 65.8386 218.079 64.1486 218.079 62.0386C218.079 59.9286 216.368 58.2386 214.268 58.2386C212.168 58.2386 210.458 59.9286 210.458 62.0386C210.458 64.1486 212.168 65.8386 214.268 65.8386Z" fill="#B9DD39"/>
<path d="M230.939 156.516C233.049 156.516 234.749 154.826 234.749 152.716C234.749 150.606 233.039 148.916 230.939 148.916C228.839 148.916 227.129 150.606 227.129 152.716C227.129 154.826 228.839 156.516 230.939 156.516Z" fill="#628DFF"/>
<path d="M325.313 15.6C327.423 15.6 329.123 13.91 329.123 11.8C329.123 9.69 327.413 8 325.313 8C323.213 8 321.503 9.69 321.503 11.8C321.503 13.91 323.213 15.6 325.313 15.6Z" fill="#628DFF"/>
<path d="M254.75 143.206C253.79 143.206 252.88 142.656 252.47 141.726C231.439 94.6276 192.688 99.8475 192.298 99.9075C190.938 100.107 189.657 99.1675 189.457 97.8075C189.257 96.4376 190.198 95.1676 191.558 94.9676C191.998 94.9076 202.528 93.4077 215.919 98.2075C228.189 102.607 245.29 113.387 257.04 139.696C257.6 140.956 257.04 142.436 255.78 142.996C255.45 143.146 255.1 143.216 254.76 143.216L254.75 143.206Z" fill="#628DFF"/>
<path d="M276.511 104.057C275.311 104.057 274.251 103.187 274.051 101.967C267.771 63.9185 291.011 41.8591 292.001 40.9391C293.011 39.9991 294.601 40.0591 295.531 41.0691C296.461 42.0791 296.411 43.659 295.401 44.599C295.181 44.809 273.151 65.8384 278.981 101.147C279.201 102.507 278.281 103.797 276.921 104.017C276.781 104.037 276.641 104.047 276.511 104.047V104.057Z" fill="#B9DD39"/>
<path d="M287.312 123.087C287.031 123.087 286.751 123.037 286.471 122.937C285.171 122.477 284.491 121.047 284.951 119.747C285.691 117.667 303.322 68.6983 328.443 58.5486C332.413 56.9487 336.363 56.3787 340.254 56.8487C341.854 52.8388 344.504 48.9889 348.844 46.5489C355.814 42.619 365.505 43.379 377.645 48.8089C378.905 49.3689 379.475 50.8488 378.905 52.1088C378.345 53.3687 376.865 53.9387 375.605 53.3688C364.995 48.6289 356.814 47.7989 351.304 50.8988C348.384 52.5488 346.464 55.1587 345.204 57.9986C346.224 58.3586 347.244 58.7886 348.264 59.2886C352.514 61.3985 354.594 66.2384 353.114 70.5383C352.154 73.3182 349.994 74.9182 347.034 75.0281C344.564 75.1081 342.164 74.1082 340.464 72.2582C338.694 70.3283 337.873 67.7484 338.193 65.1584C338.333 64.0685 338.523 62.9085 338.784 61.7185C336.003 61.5285 333.203 62.0185 330.323 63.1785C307.282 72.4782 289.842 120.927 289.672 121.417C289.312 122.437 288.342 123.077 287.312 123.077V123.087ZM343.664 62.7685C343.434 63.8085 343.264 64.8284 343.144 65.7884C343.004 66.9184 343.364 68.0483 344.134 68.8883C344.854 69.6683 345.804 70.0883 346.824 70.0483C347.694 70.0183 348.084 69.7283 348.364 68.9283C349.024 67.0284 347.984 64.7684 346.014 63.7885C345.224 63.3985 344.444 63.0585 343.654 62.7785L343.664 62.7685Z" fill="#628DFF"/>
</g>
<defs>
<clipPath id="clip0_2127_6836">
<rect width="400" height="400" fill="white"/>
</clipPath>
</defs>
</svg>
