<svg width="400" height="400" viewBox="0 0 400 400" fill="none" xmlns="http://www.w3.org/2000/svg">
<g clip-path="url(#clip0_6087_30353)">
<g clip-path="url(#clip1_6087_30353)">
<path d="M344.06 126.153C344.06 126.153 368.66 102.421 378.27 83.2245C387.88 64.0376 386.82 55.338 384.16 53.5202C381.51 51.7024 372.81 62.3696 372.81 62.3696C372.81 62.3696 381.34 44.0815 375.47 40.1962C369.6 36.3009 360.32 51.5226 360.32 51.5226C360.32 51.5226 363.72 37.2098 357.51 37.2897C351.31 37.3696 336.64 66.7343 336.64 66.7343C336.64 66.7343 339.05 49.9445 334.25 49.9345C329.45 49.9345 317.11 70.6896 316.52 80.0383C315.93 89.3871 319.24 102.471 319.24 102.471L344.06 126.143H344.07L344.06 126.153Z" fill="#FFA3A3"/>
<path d="M367.24 86.5505C366.96 86.5505 366.67 86.4506 366.44 86.2608L341.55 65.2661C341.02 64.8266 340.96 64.0375 341.4 63.5182C341.84 62.9988 342.63 62.9289 343.15 63.3683L368.04 84.3631C368.57 84.8026 368.63 85.5917 368.19 86.111C367.94 86.4007 367.59 86.5505 367.24 86.5505Z" fill="#BC6060"/>
<path d="M337.41 103.28C337.23 103.28 337.04 103.24 336.87 103.161C336.25 102.861 335.99 102.122 336.29 101.503C345.09 83.3543 335.66 67.5533 335.57 67.4035C335.21 66.8142 335.4 66.0551 335.98 65.6955C336.57 65.336 337.33 65.5157 337.69 66.105C338.11 66.7942 347.94 83.1745 338.53 102.591C338.32 103.031 337.87 103.29 337.41 103.29V103.28Z" fill="#BC6060"/>
<path d="M242.24 283.414C242.24 283.414 262.49 277.241 300.82 234.353C339.15 191.464 358.23 125.184 358.23 125.184L309.35 88.8278C309.35 88.8278 275.31 135.542 254.28 158.954C230.48 185.452 184.45 212.799 184.45 212.799L242.24 283.414Z" fill="#CAD8FF"/>
<path d="M85.52 370H280.23C280.6 367.303 267.7 278.3 261.21 233.834C258.91 218.052 248.1 203.969 234.9 194.98L223.47 187.19L184.2 187.489C184.2 187.489 179.26 187.689 172.77 188.548C157.03 190.625 137.56 195.37 126.39 206.646C120.24 212.849 110.51 223.007 108.61 232.465C103.23 259.333 95.75 301.312 85.52 370Z" fill="#CAD8FF"/>
<path d="M185.35 198.107C185.35 198.107 168.18 250.134 160.91 294.98C153.65 339.826 151.64 370 151.64 370H163.82C163.82 370 171.06 298.126 176.32 274.575C182.68 246.089 195.74 199.315 195.74 199.315C195.74 199.315 191.26 195.709 185.36 198.126L185.35 198.107Z" fill="#8BABFF"/>
<path d="M223.47 187.19C222.29 187.04 220.24 186.87 220.24 186.87C220.24 186.87 220.23 186.87 220.22 186.88C219.84 187.12 208.82 194.051 196.5 195.769C184.58 197.437 184.23 188.588 184.2 187.859C184.2 187.819 184.2 187.799 184.2 187.799C184.2 187.799 171.88 203.26 173.86 205.607C174.77 206.686 177.88 204.848 181.27 202.841C185.22 200.494 189.53 197.927 191.13 199.525C192.61 201.003 195.59 203.67 198.75 206.157C201.94 208.664 205.31 210.971 207.5 211.68C209.76 212.409 214.69 205.877 218.54 199.375C218.84 198.866 219.13 198.366 219.42 197.857C222.53 192.373 224.65 187.329 223.48 187.19H223.47Z" fill="#8BABFF"/>
<path d="M70.3099 86.0411C70.3099 86.0411 46.3799 121.189 57.0799 130.388C67.7799 139.577 81.2299 144.491 81.2299 144.491C81.2299 144.491 118.84 133.244 114.78 120.32C108.42 100.104 70.3099 86.0411 70.3099 86.0411Z" fill="#FFA0A0"/>
<path d="M44.91 57.6952L26.03 103.101L33.22 104.409L40.27 105.698L55.15 108.394L62.2 109.683L76.76 112.34L83.83 113.598L98.62 116.285L105.68 117.573L115.38 119.341L119.54 109.353L111.43 103.74L105.53 99.6648L93.18 91.115L87.29 87.01L75.13 78.6001L69.23 74.525L56.81 65.9153L50.92 61.8402L44.91 57.6952Z" fill="#9770FF"/>
<path d="M87.29 87.0099L76.76 112.34L83.83 113.598L93.18 91.115L87.29 87.0099Z" fill="#FFD525"/>
<path d="M69.2301 74.525L55.1501 108.394L62.2001 109.683L75.1301 78.6001L69.2301 74.525Z" fill="#FFD525"/>
<path d="M112.252 120.989L116.945 122.932C117.256 123.061 117.613 122.914 117.742 122.603L123.51 108.708C123.639 108.397 123.491 108.041 123.18 107.912L118.487 105.968C118.176 105.839 117.819 105.987 117.69 106.298L111.922 120.193C111.793 120.504 111.941 120.86 112.252 120.989Z" fill="#9770FF"/>
<path d="M52.41 62.869L35 104.739L42.07 106.027L58.21 66.8841L52.41 62.869Z" fill="#FFD525"/>
<path d="M100.03 86.5705C100.03 86.5705 111.48 72.0379 115.72 81.2768C119.96 90.5157 105.94 120.929 95.6201 118.742C85.3001 116.554 100.03 86.5705 100.03 86.5705Z" fill="#FFA0A0"/>
<path d="M86.0401 80.308C86.0401 80.308 97.4901 65.7755 101.73 75.0144C105.97 84.2533 91.9501 114.667 81.6301 112.479C71.3101 110.292 86.0401 80.308 86.0401 80.308Z" fill="#FFA0A0"/>
<path d="M69.7 82.3855C70.57 78.7498 72.24 75.324 74.71 72.5273C77.38 69.501 80.93 67.1138 83.69 71.139C88.78 78.5601 81.15 107.186 71.82 106.836C64.77 106.566 67.79 90.3259 69.69 82.3955L69.7 82.3855Z" fill="#FFA0A0"/>
<path d="M79.21 100.004C79.07 100.004 78.92 99.9843 78.78 99.9244C78.13 99.6847 77.81 98.9656 78.05 98.3263L85.24 78.9596C85.48 78.3204 86.2 77.9908 86.84 78.2205C87.49 78.4602 87.81 79.1793 87.57 79.8186L80.38 99.1853C80.19 99.6847 79.72 99.9943 79.21 99.9943V100.004Z" fill="#BC6060"/>
<path d="M93.1101 106.367C92.9401 106.367 92.7701 106.337 92.6101 106.267C91.9801 105.987 91.6901 105.258 91.9701 104.629L101.66 82.5054C101.94 81.8761 102.67 81.5865 103.3 81.8661C103.93 82.1458 104.22 82.8749 103.94 83.5042L94.2501 105.628C94.0501 106.097 93.5901 106.377 93.1101 106.377V106.367Z" fill="#BC6060"/>
<path d="M113.83 128.9C110.16 132.545 104.06 131.896 101.27 127.541C95.9701 119.271 89.8301 107.685 96.7901 107.445C103.19 107.226 109.75 112.929 114.07 117.653C117.01 120.879 116.93 125.823 113.83 128.9Z" fill="#FFA0A0"/>
<path d="M73.31 121.039C72.94 121.039 72.57 120.869 72.32 120.55C71.9 120.01 72 119.221 72.55 118.802C72.92 118.512 81.78 111.86 94.89 115.416C95.55 115.596 95.95 116.275 95.77 116.944C95.59 117.603 94.9 117.993 94.24 117.823C82.3 114.587 74.15 120.719 74.07 120.779C73.84 120.949 73.58 121.039 73.31 121.039Z" fill="#BC6060"/>
<path d="M153.13 192.493C153.13 192.493 104.51 206.636 96.6001 188.338C88.6801 170.04 101.58 147.018 101.58 147.018L44.5601 117.883C44.5601 117.883 -7.55992 208.983 29.0201 249.115C72.4901 296.788 141.06 278.09 141.06 278.09L153.13 192.493Z" fill="#CAD8FF"/>
<path d="M79.2601 213.538C78.3101 213.538 77.4301 213.188 76.6801 212.519C76.6101 212.459 76.5501 212.389 76.5001 212.319C76.3901 212.16 75.4201 210.651 76.0201 207.955C76.8601 204.129 80.9401 197.747 95.5801 189.117C96.0201 188.858 96.5801 188.918 96.9601 189.257C97.3401 189.597 97.4501 190.156 97.2301 190.616C96.1901 192.813 86.9101 212.1 80.0901 213.458C79.8101 213.518 79.5301 213.538 79.2601 213.538ZM78.3901 210.901C78.7601 211.181 79.1501 211.261 79.6301 211.161C83.2901 210.432 89.3201 200.903 93.3101 193.232C81.8001 200.604 78.9701 205.737 78.3401 208.244C77.9701 209.723 78.2501 210.592 78.3801 210.891L78.3901 210.901Z" fill="#8BABFF"/>
<path d="M220.94 175.863C233.67 178.61 244.74 174.255 249.69 164.946C256.65 151.842 252.81 133.324 244.71 120.879L240.55 114.847C239.4 113.169 237.7 108.994 236.63 107.256C233.85 102.681 231.71 99.4051 226.99 96.2489C220.6 91.984 212.89 90.286 196.84 92.5134C193.68 92.9528 189.5 94.3312 185.4 95.9692C182.61 94.6408 174.64 91.7443 169.78 98.5961C163.81 107.036 176.12 124.934 176.12 124.934L177.84 127.481C171.39 137.509 162.02 154.689 167.08 163.218C167.08 163.218 170.75 170.03 183.64 168.192L220.95 175.853L220.94 175.863Z" fill="#1C1E22"/>
<path d="M196.5 195.769C208.82 194.051 219.84 187.12 220.22 186.88L221.42 170.709L216.42 171.429L186.59 175.693L183.91 189.277V189.317C183.94 190.046 184.58 197.427 196.49 195.759L196.5 195.769Z" fill="#FFA3A3"/>
<path d="M216.42 171.419C216.29 172.168 215.93 173.047 215.42 174.035C208.17 187.439 190.96 189.157 183.91 189.267L186.59 175.684L216.42 171.419Z" fill="#BF6060"/>
<path d="M191.68 105.947C187.84 108.524 184.9 112.24 182.98 116.455C178.52 126.303 168.9 150.084 172.25 165.446C176.55 185.212 194.46 183.194 205.29 180.058C216.12 176.922 221.43 170.709 221.43 170.709C221.43 170.709 231.14 174.645 238.31 165.835C245.48 157.026 242.03 146.209 236.51 143.442C230.99 140.696 224.03 144.371 224.03 144.371L229.89 134.633C229.89 134.633 213.93 90.9852 191.68 105.947Z" fill="#FFA3A3"/>
<path d="M184.19 137.23C184.43 135.432 183.65 133.854 182.45 133.694C181.25 133.534 180.09 134.863 179.85 136.66C179.61 138.458 180.39 140.036 181.59 140.196C182.79 140.356 183.95 139.028 184.19 137.23Z" fill="#1C1E22"/>
<path d="M187.95 127.152C187.58 127.152 187.21 126.982 186.96 126.662C186.22 125.704 185.4 125.184 184.44 125.074C182.47 124.865 180.56 126.433 180.54 126.453C180.01 126.892 179.23 126.822 178.79 126.303C178.35 125.783 178.41 124.994 178.93 124.555C179.04 124.465 181.65 122.268 184.69 122.597C186.34 122.777 187.77 123.636 188.93 125.144C189.35 125.694 189.24 126.473 188.7 126.892C188.47 127.062 188.21 127.152 187.94 127.152H187.95Z" fill="#1C1E22"/>
<path d="M203.29 139.807C203.53 138.009 202.75 136.431 201.55 136.271C200.35 136.111 199.19 137.439 198.95 139.237C198.71 141.035 199.49 142.613 200.69 142.773C201.89 142.933 203.05 141.604 203.29 139.807Z" fill="#1C1E22"/>
<path d="M207.45 132.345C207 132.345 206.56 132.096 206.34 131.676C206.34 131.676 205.16 129.459 203.26 128.9C202.34 128.63 201.38 128.79 200.33 129.399C199.73 129.739 198.97 129.539 198.63 128.94C198.29 128.35 198.49 127.581 199.09 127.242C200.74 126.293 202.38 126.043 203.98 126.513C206.91 127.371 208.49 130.398 208.56 130.528C208.87 131.137 208.63 131.886 208.02 132.206C207.84 132.296 207.64 132.345 207.45 132.345Z" fill="#1C1E22"/>
<path d="M184.21 156.147C183.61 156.147 183.09 155.717 182.98 155.118C181.3 145.37 186.84 140.076 187.08 139.856C187.58 139.387 188.37 139.417 188.84 139.916C189.31 140.416 189.28 141.205 188.78 141.674C188.58 141.864 183.99 146.329 185.43 154.699C185.55 155.378 185.09 156.017 184.41 156.137C184.34 156.147 184.27 156.157 184.2 156.157L184.21 156.147Z" fill="#1C1E22"/>
<path d="M224.63 159.463C224.27 159.463 223.92 159.313 223.67 159.013C223.23 158.484 223.31 157.705 223.84 157.266L233.82 149.016C234.35 148.576 235.13 148.646 235.57 149.185C236.01 149.715 235.93 150.494 235.4 150.933L225.42 159.183C225.19 159.373 224.91 159.473 224.63 159.473V159.463Z" fill="#BC6060"/>
<path d="M233.79 161.081C233.54 161.081 233.28 161.001 233.06 160.841L227.14 156.546C226.58 156.147 226.46 155.368 226.86 154.809C227.26 154.249 228.04 154.129 228.6 154.529L234.52 158.824C235.08 159.223 235.2 160.002 234.8 160.562C234.56 160.901 234.18 161.071 233.79 161.071V161.081Z" fill="#BC6060"/>
<path d="M190.63 165.306C190.28 165.306 189.92 165.266 189.57 165.196C187.8 164.807 186.45 163.548 185.95 161.83C185.86 161.521 185.89 161.131 186.05 160.851C186.22 160.572 186.47 160.322 186.79 160.252L194.86 158.464C195.24 158.384 195.65 158.494 195.93 158.764C196.21 159.033 196.34 159.443 196.26 159.823C196.24 159.902 195.84 161.86 194.33 163.608C193.39 164.697 192.04 165.296 190.63 165.296V165.306ZM188.79 162.2C189.13 162.559 189.57 162.799 190.07 162.909C191.01 163.109 191.94 162.809 192.56 162.09C192.81 161.8 193.02 161.511 193.19 161.221L188.78 162.2H188.79Z" fill="#1C1E22"/>
<path d="M184.45 113.508C184.45 113.508 190.12 103.131 202.08 111.441C218.73 123.007 207.19 149.735 224.03 144.371C240.87 138.998 234.45 117.633 234.45 117.633C234.45 117.633 196.38 80.5078 184.45 113.508Z" fill="#1C1E22"/>
<path d="M184.21 72.9768C183.44 72.9768 182.8 72.3576 182.79 71.5785C182.63 60.6616 180.18 53.7 175.5 50.8834C173.67 49.7847 171.62 49.3951 169.55 49.4551C169.56 49.6448 169.57 49.8346 169.58 50.0244C169.58 50.0843 169.58 50.1442 169.58 50.2042C169.56 50.4039 169.16 55.0783 167.19 59.9125C164.46 66.5845 160.05 70.2701 154.43 70.5597C150.96 70.7295 147.92 68.1127 147.64 64.6968C147.4 61.7803 148.49 58.7439 150.89 55.6976C152.77 53.3005 155.2 51.3328 158.13 49.8546C160.21 48.7959 163.2 47.5274 166.46 46.9481C165.75 42.1339 163.94 38.708 161.06 36.7204C160.94 36.6305 160.81 36.5506 160.68 36.4707C156.67 42.044 149.7 45.38 149.34 45.5498C143.31 48.7859 139.03 49.7248 136.32 48.4063C134.85 47.6972 133.91 46.3488 133.59 44.511C133.11 41.7643 134.27 38.8878 136.61 37C138.43 35.5318 140.52 34.4032 142.83 33.6341C147.65 32.036 154.12 30.7775 159.58 32.8051C159.8 32.3456 160 31.8762 160.16 31.3968C160.99 28.8698 160.72 26.4128 159.34 23.8758C159.12 23.5362 152.52 13.6681 132.47 17.883C131.7 18.0428 130.95 17.5534 130.79 16.7843C130.63 16.0153 131.12 15.2662 131.89 15.1063C154 10.4519 161.49 21.9581 161.8 22.4475C163.59 25.7436 163.93 29.0296 162.86 32.2857C162.66 32.895 162.42 33.4743 162.14 34.0536C162.32 34.1635 162.49 34.2733 162.66 34.3932C166.24 36.8502 168.46 40.9653 169.27 46.6385C171.89 46.5386 174.55 47.008 176.96 48.4663C182.53 51.8222 185.44 59.5929 185.62 71.5485C185.63 72.3276 185.01 72.9768 184.22 72.9868H184.2L184.21 72.9768ZM166.74 49.7647C163.91 50.3041 161.26 51.4427 159.42 52.3816C156.86 53.68 154.74 55.378 153.13 57.4455C151.19 59.9125 150.3 62.2797 150.48 64.467C150.63 66.3348 152.37 67.823 154.3 67.7331C164.85 67.1838 166.64 51.3528 166.77 50.0643C166.77 49.9645 166.77 49.8746 166.76 49.7747L166.74 49.7647ZM153.26 34.6129C149.68 34.6129 146.13 35.5318 143.74 36.3209C141.75 36.9801 139.96 37.9489 138.41 39.1974C136.87 40.4459 136.1 42.2937 136.4 44.0216C136.64 45.4 137.34 45.7395 137.57 45.8494C138.59 46.3388 141.31 46.6385 148.07 43.0128C148.2 42.9529 154.4 39.9765 158.04 35.2621C156.51 34.7827 154.88 34.5929 153.26 34.5929V34.6129Z" fill="#F82B5C"/>
<path d="M313.74 309.493C313.36 309.493 312.99 309.333 312.72 309.033C304.58 299.814 303.44 291.195 309.23 282.705C312.34 278.14 316.78 275.504 321.72 275.274C322.81 275.224 323.89 275.294 324.96 275.484C325.65 272.487 326.68 269.411 328.06 266.265C331.46 258.514 335.69 253.17 335.87 252.951C336.34 252.361 337.19 252.271 337.78 252.741C338.37 253.21 338.46 254.059 338 254.649C337.89 254.788 330.31 264.437 327.6 276.203C330.37 277.221 332.93 279.049 335.01 281.556C337.9 285.042 339.03 289.197 338.38 293.901C338 296.638 335.95 298.616 333.16 298.935C329.97 299.285 326.93 297.427 325.78 294.401C323.93 289.537 323.49 284.033 324.45 278.15C323.6 278.001 322.73 277.951 321.86 277.991C317.79 278.18 314.1 280.398 311.48 284.243C306.41 291.664 307.45 298.975 314.76 307.255C315.26 307.815 315.2 308.674 314.64 309.163C314.38 309.393 314.06 309.503 313.74 309.503V309.493ZM327.08 278.899C326.33 283.654 326.49 288.648 328.31 293.432C329.14 295.619 331.24 296.428 332.85 296.239C333.44 296.169 335.38 295.779 335.69 293.522C336.24 289.597 335.3 286.151 332.92 283.274C331.25 281.267 329.25 279.778 327.08 278.889V278.899Z" fill="#628DFF"/>
<path d="M243.68 60.5518C243.68 64.537 240.45 67.7631 236.46 67.7631C232.47 67.7631 229.24 64.537 229.24 60.5518C229.24 56.5666 232.47 53.3405 236.46 53.3405C240.45 53.3405 243.68 56.5666 243.68 60.5518Z" fill="#F82B5C"/>
<path d="M58.5401 302.531C58.5401 306.516 55.3101 309.743 51.3201 309.743C47.3301 309.743 44.1001 306.516 44.1001 302.531C44.1001 298.546 47.3301 295.32 51.3201 295.32C55.3101 295.32 58.5401 298.546 58.5401 302.531Z" fill="#63D360"/>
<path d="M358.35 238.118C358.35 242.104 355.12 245.33 351.13 245.33C347.14 245.33 343.91 242.104 343.91 238.118C343.91 234.133 347.14 230.907 351.13 230.907C355.12 230.907 358.35 234.133 358.35 238.118Z" fill="#628DFF"/>
</g>
</g>
<defs>
<clipPath id="clip0_6087_30353">
<rect width="400" height="400" fill="white"/>
</clipPath>
<clipPath id="clip1_6087_30353">
<rect width="400" height="400" fill="white"/>
</clipPath>
</defs>
</svg>
