<svg width="72" height="72" viewBox="0 0 72 72" fill="none" xmlns="http://www.w3.org/2000/svg">
<g clip-path="url(#clip0_5951_31386)">
<path d="M36 66C52.5685 66 66 52.5685 66 36C66 19.4315 52.5685 6 36 6C19.4315 6 6 19.4315 6 36C6 52.5685 19.4315 66 36 66Z" fill="#4BCB0E"/>
<path d="M31.2601 48.5501C30.6101 48.5501 29.9601 48.3001 29.4701 47.8001L19.1401 37.2201C18.1801 36.2301 18.1901 34.6501 19.1801 33.6801C20.1701 32.7201 21.7501 32.7301 22.7201 33.7201L31.3001 42.5101L49.3301 24.9001C50.3201 23.9401 51.9001 23.9601 52.8701 24.9401C53.8301 25.9301 53.8201 27.5101 52.8301 28.4801L33.0101 47.8301C32.5201 48.3001 31.8901 48.5401 31.2601 48.5401V48.5501Z" fill="white"/>
</g>
<defs>
<clipPath id="clip0_5951_31386">
<rect width="60" height="60" fill="white" transform="translate(6 6)"/>
</clipPath>
</defs>
</svg>
