<svg width="400" height="400" viewBox="0 0 400 400" fill="none" xmlns="http://www.w3.org/2000/svg">
<g clip-path="url(#clip0_2169_10279)">
<path d="M200 368C282.843 368 350 300.843 350 218C350 135.157 282.843 68 200 68C117.157 68 50 135.157 50 218C50 300.843 117.157 368 200 368Z" fill="#D7EBFF"/>
<path d="M350 218C350 172.75 329.96 132.17 298.27 104.67C291.79 104.67 286.58 106.67 284.38 112.06C275.94 132.68 305.94 146.75 284.38 161.75C262.82 176.75 217.82 177.69 224.38 210.5C230.94 243.31 282.5 225.5 296.57 244.25C310.64 263 261.88 288.31 287.19 297.69C307.17 305.09 327.49 282.71 338.49 275.71C345.9 257.94 350 238.45 350 218Z" fill="#87D181"/>
<path d="M50 218C50 257.15 65 292.79 89.57 319.5C105.57 314.79 115.36 336.54 130.63 334.25C149.37 331.44 119.64 289.58 151.25 290.19C200 291.13 202.81 263.94 175.63 244.25C148.45 224.56 144.38 209.56 151.25 190.81C158.12 172.06 213.13 152.37 193.44 137.37C173.58 122.24 151.46 142.94 133.44 142.06C115.42 141.18 141 123.63 130.63 108.31C126.16 101.71 113.36 102.71 100.24 105.99C69.42 133.47 50 173.46 50 218Z" fill="#87D181"/>
<path opacity="0.4" d="M200 369C144.31 369 99 301.26 99 218C99 134.74 144.31 67 200 67C255.69 67 301 134.74 301 218C301 301.26 255.69 369 200 369ZM200 69C145.41 69 101 135.84 101 218C101 300.16 145.41 367 200 367C254.59 367 299 300.16 299 218C299 135.84 254.59 69 200 69Z" fill="white"/>
<path opacity="0.4" d="M200 369C183.18 369 170 302.67 170 218C170 133.33 183.18 67 200 67C216.82 67 230 133.33 230 218C230 302.67 216.82 369 200 369ZM200 69C192.89 69 185.77 84.72 180.48 112.12C175.01 140.39 172 177.99 172 218C172 258.01 175.01 295.61 180.48 323.88C185.78 351.29 192.9 367 200 367C207.1 367 214.23 351.28 219.52 323.88C224.99 295.61 228 258.01 228 218C228 177.99 224.99 140.39 219.52 112.12C214.22 84.71 207.1 69 200 69Z" fill="white"/>
<path opacity="0.4" d="M200 319C116.74 319 49 273.69 49 218C49 162.31 116.74 117 200 117C283.26 117 351 162.31 351 218C351 273.69 283.26 319 200 319ZM200 119C117.84 119 51 163.41 51 218C51 272.59 117.84 317 200 317C282.16 317 349 272.59 349 218C349 163.41 282.16 119 200 119Z" fill="white"/>
<path opacity="0.4" d="M200 248C115.33 248 49 234.82 49 218C49 201.18 115.33 188 200 188C284.67 188 351 201.18 351 218C351 234.82 284.67 248 200 248ZM200 190C160 190 122.39 193.01 94.12 198.48C66.71 203.78 51 210.9 51 218C51 225.1 66.72 232.23 94.12 237.52C122.39 242.99 159.99 246 200 246C240.01 246 277.61 242.99 305.88 237.52C333.29 232.22 349 225.1 349 218C349 210.9 333.28 203.77 305.88 198.48C277.61 193.01 240.01 190 200 190Z" fill="white"/>
<path d="M137.54 57.18L148.15 67.79C161.71 54.32 180.38 46 201 46C221.62 46 240.29 54.32 253.85 67.79L264.46 57.18C248.18 41 225.76 31 201 31C176.24 31 153.82 41 137.54 57.18Z" fill="#FA2B5C"/>
<path d="M155.22 74.86L165.83 85.47C174.86 76.53 187.29 71 201 71C214.71 71 227.14 76.53 236.17 85.47L246.78 74.86C235.03 63.2 218.86 56 201 56C183.14 56 166.97 63.21 155.22 74.86Z" fill="#FA2B5C"/>
<path d="M201 81C190.05 81 180.12 85.41 172.9 92.54L183.51 103.15C188.02 98.73 194.19 96 201 96C207.81 96 213.98 98.73 218.49 103.15L229.1 92.54C221.88 85.41 211.95 81 201 81Z" fill="#FA2B5C"/>
<path d="M201 121C205.418 121 209 117.418 209 113C209 108.582 205.418 105 201 105C196.582 105 193 108.582 193 113C193 117.418 196.582 121 201 121Z" fill="#FA2B5C"/>
</g>
<defs>
<clipPath id="clip0_2169_10279">
<rect width="302" height="338" fill="white" transform="translate(49 31)"/>
</clipPath>
</defs>
</svg>
