<svg width="400" height="400" viewBox="0 0 400 400" fill="none" xmlns="http://www.w3.org/2000/svg">
<g clip-path="url(#clip0_2324_11972)">
<g clip-path="url(#clip1_2324_11972)">
<path d="M116.256 369.99C115.966 367.186 120.225 339.916 120.225 339.916C120.225 339.916 60.2469 345.783 46.7719 324.519C33.3069 303.216 41.8038 277.133 82.5587 227.651C119.525 182.859 163.109 175.635 170.976 174.677C171.826 174.567 172.675 174.437 173.515 174.278C179.533 173.11 205.983 168.87 244.599 175.804C294.25 184.725 354.808 230.365 360.446 288.109C366.044 345.873 286.933 342.151 286.933 342.151C286.933 342.151 289.662 361.309 290.482 370" fill="#D5E1FF"/>
<path d="M183.811 172.801C183.811 172.801 187.64 182.21 198.996 183.009C212.521 183.976 221.677 172.831 221.677 172.831C221.677 172.831 229.504 193.236 223.207 196.729C216.919 200.231 198.986 186.052 198.986 186.052C198.986 186.052 180.252 197.537 176.574 191.889C172.895 186.242 183.811 172.801 183.811 172.801Z" fill="#91B1FF"/>
<path d="M187.18 369.99C187.47 350.483 188.07 316.836 189.379 277.033C191.518 211.197 195.017 183.527 195.017 183.527C197.936 182.699 204.054 184.695 204.054 184.695H204.064C204.064 184.695 203.004 195.721 202.704 243.017C202.464 276.854 201.775 338.678 201.005 369.99H187.18Z" fill="#91B1FF"/>
<path d="M121.484 341.013C120.804 341.013 120.245 340.475 120.235 339.786C120.225 339.098 120.774 338.529 121.464 338.519C121.594 338.519 134.179 338.229 149.384 333.3C150.043 333.091 150.743 333.45 150.963 334.098C151.173 334.757 150.813 335.455 150.163 335.675C134.579 340.724 122.034 341.003 121.514 341.013H121.494H121.484Z" fill="#8EAEFF"/>
<path d="M285.933 343.328C285.933 343.328 285.883 343.328 285.853 343.328C268.359 342.271 260.892 335.675 260.582 335.396C260.072 334.937 260.033 334.148 260.502 333.629C260.962 333.121 261.752 333.081 262.262 333.54C262.352 333.62 269.499 339.836 286.003 340.834C286.693 340.874 287.212 341.462 287.172 342.151C287.132 342.809 286.583 343.318 285.923 343.318L285.933 343.328Z" fill="#8EAEFF"/>
<path d="M253.835 276.105C253.535 276.105 253.236 275.995 253.006 275.786C252.496 275.327 252.446 274.539 252.906 274.02C253.106 273.8 272.988 251.988 306.586 242.179C307.245 241.99 307.945 242.369 308.135 243.027C308.325 243.686 307.945 244.384 307.285 244.574C274.368 254.183 254.955 275.467 254.765 275.686C254.515 275.965 254.175 276.105 253.835 276.105Z" fill="#8EAEFF"/>
<path d="M272.658 260.649C272.468 260.649 272.288 260.609 272.108 260.519C271.598 260.27 271.318 259.701 271.438 259.142C271.628 258.234 276.196 236.821 285.933 234.795C285.983 234.795 286.023 234.775 286.073 234.775C286.303 234.756 288.322 234.606 289.372 236.152C290.241 237.43 290.071 239.226 288.832 241.64C288.182 242.908 287.312 244.175 286.233 245.402L273.607 260.2C273.368 260.489 273.018 260.639 272.658 260.639V260.649ZM286.353 237.26C281.195 238.428 277.306 247.647 275.237 254.462L284.343 243.786C285.293 242.698 286.053 241.611 286.603 240.523C287.452 238.847 287.512 237.879 287.302 237.569C287.132 237.32 286.633 237.25 286.353 237.26Z" fill="#8EAEFF"/>
<path d="M142.387 270.258C142.217 270.258 142.057 270.228 141.897 270.158C107.5 255.361 77.9805 268.003 77.6906 268.133C77.0608 268.412 76.3211 268.133 76.0412 267.494C75.7613 266.865 76.0412 266.127 76.6809 265.848C76.9808 265.718 107.45 252.626 142.886 267.863C143.516 268.133 143.816 268.871 143.536 269.5C143.336 269.969 142.876 270.258 142.387 270.258Z" fill="#8EAEFF"/>
<path d="M111.448 263.034C111.338 263.034 111.238 263.024 111.128 262.994C102.771 260.769 97.1434 258.234 94.4044 255.45C93.0049 254.023 92.5351 251.948 93.1849 250.022C93.8146 248.156 95.3241 246.889 97.2234 246.61C100.592 246.121 104.231 248.506 108.039 253.704C110.718 257.366 112.508 261.098 112.578 261.248C112.788 261.687 112.718 262.206 112.408 262.585C112.168 262.874 111.808 263.034 111.448 263.034ZM98.093 249.044C97.9231 249.044 97.7532 249.054 97.5832 249.084C96.6336 249.224 95.8739 249.873 95.554 250.82C95.2841 251.629 95.3041 252.806 96.1837 253.704C97.6832 255.231 101.122 257.466 108.999 259.801C106.52 255.41 102.052 249.044 98.093 249.044Z" fill="#8EAEFF"/>
<path d="M255.125 286.922C255.125 286.922 239.361 256.887 236.861 254.423C234.362 251.968 204.893 241.391 200.845 241.521C196.816 241.65 202.974 250.711 206.113 253.295C209.242 255.879 213.29 258.683 213.29 258.683C213.29 258.683 191.088 258.284 188.969 261.976C186.84 265.678 192.718 269.23 192.718 269.23C192.718 269.23 184.761 269.759 187.53 274.888C190.279 280.017 211.961 286.093 211.961 286.093C211.961 286.093 215.719 307.736 230.294 313.114C244.858 318.493 251.736 317.165 251.736 317.165L255.115 286.941V286.922H255.125Z" fill="#FFA9A9"/>
<path d="M239.291 274.948C239.291 274.948 246.208 251.16 249.727 258.773C253.256 266.396 250.906 292.06 250.906 292.06L240.67 288.538L239.291 274.938V274.948Z" fill="#FFA9A9"/>
<path d="M228.444 261.337C228.444 261.337 228.364 261.337 228.324 261.337L213.18 259.921C212.49 259.861 211.991 259.252 212.051 258.563C212.111 257.875 212.72 257.376 213.41 257.436L228.554 258.853C229.244 258.913 229.744 259.521 229.684 260.21C229.624 260.859 229.074 261.337 228.444 261.337Z" fill="#C26060"/>
<path d="M248.747 276.155C248.337 276.155 247.927 275.956 247.697 275.576L241.579 266.027C241.21 265.448 241.38 264.68 241.959 264.301C242.539 263.932 243.309 264.101 243.689 264.68L249.806 274.229C250.176 274.808 250.006 275.576 249.427 275.956C249.217 276.085 248.987 276.155 248.757 276.155H248.747Z" fill="#C26060"/>
<path d="M225.366 272.693C225.366 272.693 225.306 272.693 225.276 272.693L192.628 270.468C191.938 270.418 191.418 269.829 191.468 269.14C191.518 268.452 192.128 267.933 192.798 267.983L225.446 270.208C226.135 270.258 226.655 270.847 226.605 271.535C226.565 272.194 226.015 272.703 225.356 272.703L225.366 272.693Z" fill="#C26060"/>
<path d="M151.303 247.378C151.303 247.378 135.499 242.938 144.626 266.037C151.093 282.421 157.331 257.077 157.331 257.077L151.293 247.358H151.303V247.378Z" fill="#FFA9A9"/>
<path d="M177.314 289.127C177.314 289.127 180.972 314.631 160.33 313.434C139.678 312.236 139.158 282.85 139.158 282.85L177.324 289.137H177.314V289.127Z" fill="#FFA9A9"/>
<path d="M163.269 305.232L197.016 298.965C197.636 298.845 198.036 298.267 197.916 297.648L184.151 224.149C184.031 223.53 183.451 223.141 182.831 223.251L149.084 229.517C148.464 229.637 148.064 230.215 148.184 230.834L161.949 304.334C162.069 304.952 162.649 305.341 163.269 305.232Z" fill="white"/>
<path d="M159.32 305.96L193.068 299.694C193.687 299.574 194.087 298.995 193.967 298.377L180.202 224.877C180.082 224.258 179.503 223.869 178.883 223.979L145.135 230.245C144.516 230.365 144.116 230.944 144.236 231.563L158.001 305.062C158.12 305.681 158.7 306.07 159.32 305.96Z" fill="#1C1E22"/>
<path d="M144.755 274.429C144.755 274.429 126.532 273.451 131.6 264.83C136.668 256.209 169.156 250.262 173.225 259.781C177.313 269.3 144.755 274.429 144.755 274.429Z" fill="#FFA9A9"/>
<path d="M147.615 289.177C147.615 289.177 129.391 288.199 134.459 279.578C139.518 270.956 172.015 265.009 176.084 274.529C180.162 284.048 147.615 289.177 147.615 289.177Z" fill="#FFA9A9"/>
<path d="M159.45 299.893C155.411 300.562 151.213 300.312 147.404 298.836C143.986 297.508 141.177 295.263 143.596 291.551C148.424 284.128 177.373 280.166 180.612 288.738C183.011 295.134 167.517 298.556 159.48 299.893H159.46H159.45Z" fill="#FFA9A9"/>
<path d="M141.936 275.357C141.357 275.357 140.837 274.948 140.717 274.359C140.577 273.68 141.017 273.022 141.687 272.892L162.479 268.661C163.159 268.522 163.818 268.961 163.948 269.629C164.088 270.308 163.648 270.966 162.979 271.096L142.186 275.327C142.106 275.347 142.016 275.357 141.936 275.357Z" fill="#C26060"/>
<path d="M143.746 289.885C143.166 289.885 142.636 289.476 142.526 288.877C142.396 288.199 142.836 287.55 143.506 287.41L167.367 282.681C168.037 282.551 168.697 282.99 168.837 283.659C168.967 284.337 168.527 284.986 167.857 285.125L143.996 289.855C143.916 289.875 143.836 289.875 143.746 289.875V289.885Z" fill="#C26060"/>
<path d="M234.222 156.267C247.707 157.205 254.135 142.876 256.164 131.88C259.003 116.384 255.055 100.609 242.979 90.4509H242.999L236.901 85.6015C235.212 84.2544 232.193 80.5325 230.564 79.0857C226.315 75.294 223.127 72.6198 217.399 70.8637C209.622 68.4988 201.335 69.1574 185.93 76.4016C182.901 77.8185 179.123 80.5325 175.524 83.4661C172.305 82.9872 163.379 82.4883 160.66 90.9797C157.661 100.389 168.437 118.041 170.586 121.423C166.797 128.248 163.869 135.612 164.448 141.37C164.738 144.253 166.168 146.758 168.257 148.284C170.426 149.871 174.005 151.547 179.233 151.238C181.282 151.118 183.331 151.208 185.361 151.497C192.098 152.445 208.242 154.461 234.222 156.267Z" fill="#1C1E22"/>
<path d="M185.65 150.19L183.831 172.821C183.981 173.2 187.87 182.22 199.005 183.009C212.191 183.947 221.217 173.39 221.667 172.851V172.751L222.527 157.884L185.64 150.19H185.65Z" fill="#FFA9A9"/>
<path d="M222.527 157.884C222.527 157.884 212.53 177.81 196.726 175.186C183.981 173.07 185.65 150.18 185.65 150.18L222.537 157.874L222.527 157.884Z" fill="#C26060"/>
<path d="M236.562 118.2C230.144 117.572 229.384 118.719 229.384 118.719L231.473 107.055C231.473 107.055 193.168 63.2004 179.293 101.656C179.293 101.656 177.963 107.963 177.254 116.594C171.696 115.805 165.098 116.743 164.098 125.205C162.689 137.189 172.195 141.14 178.213 142.437C179.193 147.297 180.782 151.847 183.221 155.559C194.817 173.18 210.351 168.331 217.359 163.142C226.825 156.147 228.894 146.259 228.894 146.259C228.894 146.259 241.69 149.013 246.148 138.666C250.826 127.789 242.989 118.819 236.562 118.19V118.2Z" fill="#FFA9A9"/>
<path d="M201.065 151.527C203.494 151.527 205.453 149.931 205.453 147.965C205.453 145.999 203.484 144.403 201.065 144.403C198.646 144.403 196.676 145.999 196.676 147.965C196.676 149.931 198.646 151.527 201.065 151.527Z" fill="#1C1E22"/>
<path d="M189.589 120.645C189.729 118.749 188.819 117.143 187.56 117.043C186.3 116.943 185.151 118.4 185.011 120.296C184.871 122.192 185.781 123.798 187.04 123.898C188.3 123.998 189.449 122.541 189.589 120.645Z" fill="#1C1E22"/>
<path d="M185.261 113.55C185.041 113.55 184.811 113.491 184.611 113.361C184.031 113.002 183.841 112.263 184.191 111.675C184.381 111.345 186.25 108.491 192.128 108.491C192.818 108.491 193.378 109.05 193.378 109.739C193.378 110.427 192.818 110.986 192.128 110.986C187.69 110.986 186.38 112.892 186.33 112.972C186.09 113.341 185.681 113.54 185.271 113.54L185.261 113.55Z" fill="#1C1E22"/>
<path d="M212.92 122.102C213.06 120.206 212.151 118.599 210.891 118.5C209.622 118.4 208.482 119.857 208.342 121.752C208.202 123.648 209.112 125.255 210.371 125.355C211.631 125.454 212.78 123.988 212.92 122.102Z" fill="#1C1E22"/>
<path d="M215.199 116.235C214.82 116.235 214.44 116.065 214.19 115.726C211.551 112.163 209.232 112.253 209.142 112.253C208.462 112.293 207.862 111.784 207.812 111.106C207.762 110.427 208.242 109.839 208.912 109.769C209.292 109.729 212.71 109.529 216.199 114.239C216.609 114.788 216.489 115.576 215.939 115.985C215.719 116.155 215.459 116.235 215.199 116.235Z" fill="#1C1E22"/>
<path d="M196.646 140.921C196.286 140.921 195.937 140.771 195.687 140.472C190.389 134.155 197.366 121.762 197.666 121.234C198.006 120.635 198.766 120.425 199.365 120.765C199.965 121.104 200.175 121.862 199.835 122.461C198.036 125.624 194.127 134.724 197.606 138.865C198.046 139.394 197.976 140.182 197.446 140.621C197.216 140.821 196.926 140.911 196.646 140.911V140.921Z" fill="#1C1E22"/>
<path d="M231.214 135.682C230.854 135.682 230.494 135.532 230.254 135.233C229.814 134.704 229.894 133.916 230.424 133.477L240.45 125.215C240.98 124.776 241.77 124.856 242.209 125.385C242.649 125.913 242.569 126.702 242.04 127.141L232.013 135.403C231.783 135.592 231.503 135.692 231.224 135.692L231.214 135.682Z" fill="#C26060"/>
<path d="M240.42 137.298C240.17 137.298 239.91 137.219 239.69 137.059L233.733 132.758C233.173 132.359 233.043 131.571 233.453 131.012C233.853 130.453 234.642 130.334 235.202 130.733L241.16 135.033C241.72 135.433 241.85 136.221 241.44 136.78C241.2 137.119 240.81 137.298 240.43 137.298H240.42Z" fill="#C26060"/>
<path d="M175.834 134.235C175.424 134.235 175.024 134.036 174.785 133.666L167.657 122.81C167.277 122.231 167.437 121.463 168.017 121.084C168.597 120.705 169.367 120.864 169.746 121.443L176.874 132.299C177.254 132.878 177.094 133.646 176.514 134.026C176.304 134.165 176.064 134.225 175.834 134.225V134.235Z" fill="#C26060"/>
<path d="M167.717 130.723C167.027 130.723 166.468 130.164 166.468 129.476C166.468 128.787 167.027 128.228 167.717 128.228H173.525V128.218C174.215 128.218 174.774 128.777 174.774 129.466C174.774 130.154 174.215 130.713 173.525 130.713H167.717V130.723Z" fill="#C26060"/>
<path d="M179.423 101.038C179.423 101.038 183.951 86.5294 199.165 91.4387C220.308 98.2538 216.809 130.753 232.723 119.358C238.291 115.376 240.25 110.238 240.44 105.259C240.82 95.2504 234.093 86.2999 224.426 83.2466C208.582 78.2375 180.552 72.999 179.193 101.187V101.906L179.433 101.048L179.423 101.038Z" fill="#1C1E22"/>
<path d="M26.3695 112.602H26.2495C25.5598 112.602 25 112.044 25 111.355C25 110.667 25.5598 110.108 26.2495 110.108H26.3695C28.9285 110.108 31.5576 110.018 34.1666 109.848C34.8364 109.789 35.4461 110.327 35.4961 111.016C35.5361 111.704 35.0163 112.293 34.3265 112.343C31.6675 112.513 28.9885 112.602 26.3695 112.602ZM42.1936 111.565C41.5739 111.565 41.0341 111.106 40.9541 110.477C40.8641 109.789 41.3539 109.17 42.0337 109.08C44.5827 108.751 47.2218 108.342 49.8508 107.853C50.5305 107.733 51.1803 108.172 51.3102 108.851C51.4402 109.529 50.9904 110.178 50.3106 110.307C47.6316 110.806 44.9526 111.225 42.3536 111.555C42.3036 111.555 42.2436 111.565 42.1936 111.565ZM57.8878 108.671C57.318 108.671 56.8082 108.282 56.6783 107.713C56.5183 107.045 56.9282 106.366 57.6079 106.206C60.107 105.608 62.686 104.939 65.2851 104.201C65.9548 104.011 66.6446 104.4 66.8245 105.059C67.0144 105.718 66.6246 106.416 65.9648 106.596C63.3258 107.344 60.7068 108.032 58.1777 108.631C58.0777 108.651 57.9778 108.661 57.8878 108.661V108.671ZM73.2621 104.311C72.7323 104.311 72.2425 103.971 72.0726 103.452C71.8626 102.794 72.2125 102.095 72.8723 101.876C75.2914 101.088 77.8204 100.22 80.3995 99.2915C81.0492 99.0521 81.769 99.3913 81.9989 100.04C82.2288 100.688 81.8989 101.407 81.2492 101.636C78.6501 102.574 76.0911 103.452 73.652 104.241C73.522 104.281 73.3921 104.301 73.2621 104.301V104.311ZM88.3165 98.9124C87.8167 98.9124 87.3469 98.613 87.147 98.1141C86.8971 97.4755 87.2169 96.7471 87.8567 96.4977C90.2358 95.5797 92.6549 94.6018 95.254 93.5341C95.8937 93.2747 96.6235 93.574 96.8834 94.2127C97.1433 94.8513 96.8434 95.5797 96.2036 95.8391C93.5846 96.9167 91.1455 97.8846 88.7564 98.8126C88.6064 98.8725 88.4565 98.9024 88.3065 98.9024L88.3165 98.9124ZM103.111 92.8456C102.621 92.8456 102.161 92.5662 101.961 92.0873C101.692 91.4587 101.981 90.7203 102.621 90.4509C105.06 89.4131 107.499 88.3554 109.949 87.2778C110.578 86.9984 111.318 87.2778 111.598 87.9164C111.878 88.545 111.588 89.2834 110.958 89.5628C108.499 90.6405 106.05 91.6981 103.611 92.7459C103.451 92.8157 103.281 92.8456 103.121 92.8456H103.111ZM117.766 86.4496C117.286 86.4496 116.826 86.1702 116.626 85.7112C116.346 85.0826 116.626 84.3442 117.266 84.0648L124.573 80.8219C125.203 80.5425 125.943 80.8219 126.222 81.4605C126.502 82.0891 126.222 82.8275 125.583 83.1069L118.275 86.3399C118.105 86.4097 117.936 86.4496 117.766 86.4496ZM132.4 79.9937C131.92 79.9937 131.461 79.7143 131.251 79.2454C130.971 78.6167 131.261 77.8783 131.89 77.599C134.329 76.5313 136.769 75.4836 139.228 74.4359C139.857 74.1665 140.597 74.4558 140.867 75.0944C141.137 75.7231 140.847 76.4614 140.207 76.7308C137.758 77.7786 135.319 78.8263 132.89 79.8939C132.73 79.9638 132.56 80.0037 132.39 80.0037L132.4 79.9937ZM147.085 73.7474C146.595 73.7474 146.125 73.458 145.925 72.979C145.665 72.3404 145.965 71.612 146.605 71.3526C149.164 70.3049 151.663 69.2971 154.032 68.3691C154.672 68.1197 155.402 68.429 155.652 69.0776C155.901 69.7162 155.592 70.4446 154.942 70.694C152.583 71.612 150.104 72.6099 147.555 73.6576C147.395 73.7174 147.235 73.7474 147.075 73.7474H147.085ZM161.949 67.9401C161.439 67.9401 160.96 67.6307 160.78 67.1218C160.54 66.4733 160.87 65.7548 161.519 65.5253C164.088 64.5774 166.627 63.6794 169.067 62.8512C169.716 62.6317 170.426 62.9809 170.656 63.6295C170.876 64.2781 170.526 64.9865 169.876 65.216C167.447 66.0442 164.928 66.9323 162.389 67.8702C162.249 67.9201 162.099 67.95 161.959 67.95L161.949 67.9401ZM177.054 62.8113C176.524 62.8113 176.024 62.472 175.864 61.9332C175.664 61.2746 176.024 60.5761 176.684 60.3766C179.273 59.5783 181.872 58.82 184.391 58.1215C185.061 57.9319 185.74 58.3311 185.93 58.9896C186.11 59.6582 185.72 60.3367 185.061 60.5263C182.562 61.2148 179.993 61.9631 177.423 62.7614C177.304 62.8013 177.174 62.8212 177.054 62.8212V62.8113ZM192.468 58.5805C191.898 58.5805 191.388 58.1914 191.258 57.6226C191.098 56.9541 191.508 56.2755 192.188 56.1159C194.807 55.4972 197.456 54.9185 200.045 54.3996C200.725 54.2699 201.375 54.709 201.515 55.3775C201.645 56.056 201.205 56.7046 200.535 56.8443C197.976 57.3532 195.367 57.9219 192.768 58.5406C192.668 58.5606 192.578 58.5705 192.478 58.5705L192.468 58.5805ZM263.861 55.5571C263.791 55.5571 263.732 55.5571 263.662 55.5372C261.053 55.1081 258.403 54.7389 255.804 54.4396C255.115 54.3597 254.625 53.7411 254.705 53.0526C254.785 52.3641 255.405 51.8752 256.094 51.955C258.733 52.2643 261.422 52.6335 264.071 53.0725C264.751 53.1823 265.211 53.8209 265.101 54.5094C265.001 55.1181 264.471 55.5571 263.871 55.5571H263.861ZM208.142 55.4873C207.542 55.4873 207.003 55.0482 206.913 54.4296C206.803 53.7511 207.272 53.1125 207.952 53.0027C210.611 52.5836 213.29 52.2244 215.919 51.9251C216.609 51.8452 217.229 52.3441 217.299 53.0227C217.379 53.7112 216.879 54.3298 216.199 54.3996C213.6 54.689 210.961 55.0482 208.332 55.4573C208.262 55.4673 208.202 55.4773 208.142 55.4773V55.4873ZM247.987 53.7112C247.987 53.7112 247.927 53.7112 247.897 53.7112C245.278 53.5315 242.609 53.4018 239.97 53.342C239.281 53.322 238.731 52.7532 238.751 52.0648C238.771 51.3763 239.301 50.7975 240.03 50.8474C242.709 50.9073 245.408 51.037 248.077 51.2266C248.767 51.2765 249.287 51.8752 249.237 52.5537C249.187 53.2122 248.637 53.7112 247.987 53.7112ZM224.016 53.7012C223.366 53.7012 222.817 53.2023 222.767 52.5437C222.717 51.8552 223.237 51.2565 223.926 51.2166C226.605 51.037 229.304 50.9073 231.963 50.8474C232.633 50.8175 233.223 51.3763 233.243 52.0648C233.263 52.7532 232.713 53.322 232.023 53.342C229.404 53.4018 226.735 53.5216 224.096 53.7012C224.066 53.7012 224.036 53.7012 224.006 53.7012H224.016Z" fill="#8396B2"/>
<path d="M374.98 98.2638L305.066 17.9992C303.176 15.8339 299.598 17.4604 300.048 20.2742L304.346 46.926L374.97 98.2538L374.98 98.2638Z" fill="#DCE4EE"/>
<path d="M303.676 61.4343L292.85 84.7733C290.901 88.9841 293.87 93.8135 298.568 94.073L375 98.2538L303.696 61.4443H303.686L303.676 61.4343Z" fill="#DCE4EE"/>
<path d="M304.346 46.936L278.925 57.3432L303.676 61.4443L374.98 98.2638L304.356 46.936H304.346Z" fill="#C0C9D8"/>
<path d="M300.947 67.3114L278.925 57.3332L303.676 61.4343L300.947 67.3114Z" fill="#97A4B9"/>
</g>
</g>
<defs>
<clipPath id="clip0_2324_11972">
<rect width="400" height="400" fill="white"/>
</clipPath>
<clipPath id="clip1_2324_11972">
<rect width="400" height="400" fill="white"/>
</clipPath>
</defs>
</svg>
