<svg width="400" height="400" viewBox="0 0 400 400" fill="none" xmlns="http://www.w3.org/2000/svg">
<g clip-path="url(#clip0_1200_3726)">
<g clip-path="url(#clip1_1200_3726)">
<path d="M119.697 188.813C119.697 188.813 145.886 120.118 151.226 123.106C156.566 126.105 148.396 156.239 148.396 156.239C148.396 156.239 163.255 167.294 164.855 173.531C166.455 179.767 161.705 182.066 161.705 182.066C161.705 182.066 160.405 187.154 157.175 187.603C153.946 188.053 151.926 186.664 151.926 186.664C151.926 186.664 157.805 210.961 136.426 210.961C122.967 210.961 117.567 194.24 119.687 188.793L119.697 188.813Z" fill="#FFA6A6"/>
<path d="M133.196 162.027C132.946 162.027 132.696 161.957 132.476 161.797C131.916 161.397 131.776 160.627 132.166 160.058C132.226 159.968 138.606 151.082 148.836 155.07C149.476 155.32 149.796 156.05 149.546 156.689C149.296 157.329 148.576 157.649 147.926 157.399C139.536 154.131 134.416 161.187 134.206 161.497C133.966 161.837 133.576 162.027 133.186 162.027H133.196Z" fill="#C26060"/>
<path d="M159.047 179.108C158.727 179.108 158.407 178.988 158.157 178.738L157.947 178.518C150.457 170.922 144.627 166.234 141.947 165.665C137.987 164.825 133.127 168.903 131.727 170.172L131.607 170.272C131.087 170.722 130.297 170.662 129.847 170.132C129.397 169.613 129.457 168.823 129.987 168.373C132.117 166.434 137.497 162.146 142.477 163.216C146.557 164.085 154.117 171.062 159.727 176.759L159.937 176.969C160.427 177.459 160.417 178.248 159.937 178.738C159.697 178.978 159.377 179.098 159.057 179.098L159.047 179.108Z" fill="#C26060"/>
<path d="M119.697 188.813C119.697 188.813 112.667 185.415 110.507 186.674C108.347 187.923 42.2793 302.175 83.518 337.447C126.087 373.848 187.065 322.674 187.065 322.674L150.996 210.072L119.687 188.823L119.697 188.813Z" fill="#D2DEFF"/>
<path d="M280.482 369.99C280.482 369.99 249.313 183.695 238.273 177.698C229.093 172.711 210.344 171.372 176.045 184.665C176.045 184.665 154.006 200.557 146.106 214.989C138.206 229.432 139.246 369.98 139.246 369.98H280.482V369.99Z" fill="#D2DEFF"/>
<path d="M247.912 369.97C236.573 330.98 226.103 290.181 226.103 290.181L224.323 174.21C224.323 174.21 274.292 174.8 296.731 222.036C306.851 243.335 321.54 317.617 330 369.98H247.902H247.912V369.97Z" fill="#D2DEFF"/>
<path d="M139.456 347.751C139.456 347.751 139.406 347.751 139.376 347.751C138.686 347.711 138.166 347.112 138.206 346.422L143.196 267.173C143.236 266.483 143.836 265.963 144.526 266.003C145.216 266.043 145.736 266.643 145.696 267.333L140.706 346.582C140.666 347.242 140.116 347.751 139.456 347.751Z" fill="#8EAEFF"/>
<path d="M247.233 369.95C246.753 369.95 246.283 369.67 246.083 369.19C245.333 367.441 227.693 326.222 229.143 312.619C229.313 311.03 230.103 309.631 231.373 308.671C232.723 307.652 234.503 307.242 236.253 307.542C237.473 307.752 238.493 308.452 239.263 309.621C242.803 314.938 240.503 329.491 237.903 340.895C242.623 354.758 248.273 367.961 248.373 368.191C248.643 368.821 248.353 369.56 247.713 369.83C247.553 369.9 247.383 369.93 247.223 369.93L247.233 369.95ZM235.113 309.951C234.293 309.951 233.503 310.201 232.873 310.67C232.373 311.05 231.743 311.74 231.623 312.889C231.103 317.797 233.353 326.852 236.353 336.237C240.073 318.087 238.213 312.579 237.173 311.02C236.783 310.441 236.343 310.111 235.813 310.021C235.573 309.981 235.343 309.961 235.103 309.961L235.113 309.951Z" fill="#8EAEFF"/>
<path d="M180.485 276.228C181.895 245.884 186.895 195.599 186.895 195.599C186.895 195.599 181.655 192.711 176.045 196.229C176.045 196.229 167.765 252.63 168.355 299.916C168.765 333.179 170.405 358.126 171.345 370H183.485C182.285 348.531 179.545 295.988 180.475 276.238L180.485 276.228Z" fill="#8EAEFF"/>
<path d="M213.384 174.62C212.754 174.69 212.404 174.73 212.114 174.76C211.784 174.8 211.454 174.84 211.124 174.89C210.954 174.91 210.764 174.94 210.524 174.98C210.524 174.98 210.524 174.99 210.514 175C210.224 175.34 199.454 187.854 187.095 191.831C174.565 195.879 174.055 186.174 174.055 186.174H174.035V186.194C173.965 186.304 162.035 203.605 165.635 205.974C168.305 207.733 178.665 194.14 182.245 196.649C185.815 199.168 196.404 203.765 201.164 204.075C208.874 204.585 216.144 174.33 213.394 174.64L213.384 174.62Z" fill="#8EAEFF"/>
<path d="M228.643 106.825C225.724 100.848 222.664 96.64 217.604 92.3122C217.604 92.3122 217.544 92.2723 217.524 92.2423C210.854 87.0449 208.794 87.1749 205.114 85.8555C203.274 85.1959 202.494 84.2164 201.684 83.3568C197.814 79.2389 194.915 76.3304 189.395 74.1216C181.935 71.1331 173.715 71.0931 157.906 76.9501C154.796 78.1095 150.856 80.4683 147.066 83.067C143.926 82.3174 135.176 81.088 131.777 89.2538C129.827 93.9614 132.197 100.608 135.276 106.335C138.496 112.342 142.726 117.749 147.636 122.467L149.666 124.426C151.886 125.485 153.316 125.995 154.646 127.594C163.916 138.828 191.085 156.439 201.244 157.739C218.934 159.978 227.253 152.571 232.083 142.566C236.793 132.811 233.853 117.489 228.643 106.805V106.825Z" fill="#1C1E22"/>
<path d="M210.514 174.97L205.954 150.752H205.944L201.164 152.791L172.625 164.945L173.565 179.178L174.035 186.174H174.055C174.055 186.174 174.565 195.859 187.095 191.821C199.454 187.843 210.224 175.33 210.514 174.99V174.97Z" fill="#FFA6A6"/>
<path d="M200.865 155.66C201.115 154.53 201.245 153.561 201.165 152.781L172.625 164.935L173.565 179.168C180.535 177.199 197.205 170.912 200.855 155.66H200.865Z" fill="#C26060"/>
<path d="M154.236 101.907C154.236 101.907 146.106 140.008 155.626 158.548C165.155 177.079 182.435 170.322 192.375 164.325C202.314 158.338 205.944 150.752 205.944 150.752C205.944 150.752 216.644 152.102 221.444 141.427C226.233 130.753 219.924 120.908 213.714 119.628C207.504 118.339 201.544 123.866 201.544 123.866L204.784 112.612C204.784 112.612 171.805 65.526 154.226 101.927H154.236V101.907Z" fill="#FFA6A6"/>
<path d="M204.254 140.038C203.944 140.038 203.634 139.928 203.394 139.698C202.894 139.228 202.874 138.439 203.344 137.929L214.224 126.415C214.694 125.915 215.494 125.895 215.994 126.365C216.494 126.835 216.514 127.624 216.044 128.134L205.164 139.648C204.914 139.908 204.584 140.038 204.254 140.038Z" fill="#C26060"/>
<path d="M215.994 137.599C215.994 137.599 215.944 137.599 215.924 137.599L206.984 137.089C206.294 137.049 205.764 136.46 205.804 135.77C205.844 135.08 206.424 134.551 207.124 134.591L216.064 135.1C216.754 135.14 217.284 135.73 217.244 136.42C217.204 137.079 216.654 137.599 215.994 137.599Z" fill="#C26060"/>
<path d="M172.625 128.014C173.885 128.014 174.905 126.485 174.905 124.606C174.905 122.727 173.885 121.197 172.625 121.197C171.365 121.197 170.355 122.727 170.355 124.606C170.355 126.485 171.375 128.014 172.625 128.014Z" fill="#1C1E22"/>
<path d="M176.066 117.329C175.866 117.329 175.656 117.279 175.466 117.179L167.726 112.922C167.126 112.592 166.896 111.832 167.236 111.223C167.566 110.613 168.326 110.393 168.936 110.733L176.676 114.991C177.276 115.32 177.506 116.08 177.166 116.69C176.936 117.1 176.506 117.339 176.066 117.339V117.329Z" fill="#1C1E22"/>
<path d="M156.006 129.483C157.266 129.483 158.276 127.954 158.276 126.075C158.276 124.196 157.256 122.667 156.006 122.667C154.756 122.667 153.736 124.196 153.736 126.075C153.736 127.954 154.756 129.483 156.006 129.483Z" fill="#1C1E22"/>
<path d="M151.596 121.177C151.356 121.177 151.106 121.108 150.896 120.958C150.326 120.568 150.176 119.798 150.566 119.218L155.046 112.622C155.436 112.052 156.216 111.902 156.786 112.292C157.356 112.682 157.506 113.451 157.116 114.031L152.636 120.628C152.396 120.988 151.996 121.177 151.596 121.177Z" fill="#1C1E22"/>
<path d="M170.265 151.472C169.915 151.472 169.565 151.322 169.315 151.042C168.865 150.522 168.925 149.733 169.445 149.283L175.295 144.236C175.815 143.786 176.605 143.836 177.055 144.366C177.505 144.885 177.445 145.675 176.925 146.125L171.075 151.172C170.835 151.372 170.545 151.472 170.255 151.472H170.265Z" fill="#1C1E22"/>
<path d="M165.646 146.425C165.226 146.425 164.826 146.215 164.586 145.835C158.166 135.59 163.336 125.755 163.566 125.335C163.896 124.726 164.656 124.496 165.256 124.826C165.866 125.155 166.086 125.905 165.766 126.515C165.566 126.895 161.086 135.52 166.706 144.496C167.076 145.075 166.896 145.855 166.306 146.215C166.096 146.345 165.866 146.405 165.646 146.405V146.425Z" fill="#1C1E22"/>
<path d="M154.056 102.727C154.056 102.727 159.736 89.2038 173.445 94.9509C192.525 102.947 186.765 132.692 202.394 123.446C218.024 114.201 207.034 93.9414 207.034 93.9414C207.034 93.9414 158.856 66.5155 154.046 102.717L154.056 102.727Z" fill="#1C1E22"/>
<path d="M239.243 59.559C243.183 56.7105 247.933 56.5106 249.863 59.1192C251.793 61.7279 250.143 66.1656 246.203 69.0142" fill="#DDE6FF"/>
<path d="M246.203 70.2635C245.813 70.2635 245.433 70.0836 245.193 69.7438C244.783 69.1841 244.913 68.4045 245.473 67.9947C247.603 66.4555 249.063 64.3565 249.363 62.3976C249.473 61.6979 249.473 60.6884 248.853 59.8489C247.363 57.8299 243.293 58.1597 239.973 60.5585C239.413 60.9583 238.633 60.8384 238.223 60.2786C237.813 59.7189 237.943 58.9393 238.503 58.5295C243.063 55.2212 248.493 55.1513 250.863 58.3596C251.753 59.569 252.093 61.0982 251.833 62.7674C251.423 65.376 249.603 68.0746 246.943 70.0037C246.723 70.1636 246.463 70.2435 246.213 70.2435L246.203 70.2635Z" fill="#8EAEFF"/>
<path d="M250.632 75.4509C254.572 72.6023 259.322 72.4024 261.252 75.0111C263.182 77.6197 261.532 82.0575 257.592 84.906" fill="#DDE6FF"/>
<path d="M257.602 86.1554C257.212 86.1554 256.832 85.9755 256.592 85.6357C256.182 85.0759 256.312 84.2963 256.872 83.8865C259.002 82.3473 260.462 80.2484 260.762 78.2894C260.872 77.5898 260.872 76.5803 260.252 75.7407C258.762 73.7218 254.692 74.0516 251.372 76.4504C250.812 76.8502 250.032 76.7302 249.622 76.1705C249.212 75.6108 249.342 74.8312 249.902 74.4214C254.462 71.1131 259.892 71.0431 262.262 74.2515C263.152 75.4609 263.492 76.9901 263.232 78.6692C262.822 81.2779 261.002 83.9765 258.342 85.9055C258.122 86.0654 257.862 86.1454 257.612 86.1454L257.602 86.1554Z" fill="#8EAEFF"/>
<path d="M217.923 60.7484C221.863 57.8999 226.613 57.7 228.543 60.3086C230.473 62.9173 228.823 67.355 224.883 70.2036" fill="#DDE6FF"/>
<path d="M224.893 71.4529C224.503 71.4529 224.123 71.273 223.883 70.9332C223.473 70.3735 223.603 69.5939 224.163 69.1841C226.293 67.6449 227.753 65.5459 228.053 63.5869C228.163 62.8873 228.163 61.8778 227.543 61.0382C226.053 59.0193 221.983 59.3491 218.663 61.7479C218.103 62.1477 217.323 62.0277 216.913 61.468C216.503 60.9083 216.633 60.1287 217.193 59.7189C221.753 56.4106 227.183 56.3407 229.553 59.549C230.443 60.7584 230.783 62.2876 230.523 63.9568C230.113 66.5654 228.293 69.264 225.633 71.193C225.413 71.353 225.153 71.4329 224.903 71.4329L224.893 71.4529Z" fill="#8EAEFF"/>
<path d="M230.113 77.2699C234.053 74.4214 238.803 74.2215 240.733 76.8302C242.663 79.4388 241.013 83.8765 237.073 86.7251" fill="#DDE6FF"/>
<path d="M237.083 87.9745C236.693 87.9745 236.313 87.7946 236.073 87.4547C235.663 86.895 235.793 86.1154 236.353 85.7056C238.483 84.1664 239.943 82.0675 240.243 80.1085C240.353 79.4088 240.353 78.3994 239.733 77.5598C238.243 75.5408 234.173 75.8707 230.853 78.2694C230.293 78.6692 229.513 78.5493 229.103 77.9896C228.693 77.4299 228.823 76.6503 229.383 76.2405C233.943 72.9322 239.373 72.8622 241.743 76.0706C242.633 77.2799 242.973 78.8092 242.713 80.4783C242.303 83.087 240.483 85.7956 237.823 87.7146C237.603 87.8745 237.343 87.9545 237.093 87.9545L237.083 87.9745Z" fill="#8EAEFF"/>
<path d="M242.302 93.8514C246.242 91.0029 250.992 90.803 252.922 93.4117C254.852 96.0203 253.202 100.458 249.262 103.307" fill="#DDE6FF"/>
<path d="M249.263 104.556C248.873 104.556 248.493 104.376 248.253 104.036C247.843 103.477 247.973 102.697 248.533 102.287C250.663 100.748 252.123 98.649 252.423 96.69C252.533 95.9903 252.533 94.9809 251.913 94.1413C250.423 92.1223 246.353 92.4422 243.033 94.8509C242.473 95.2507 241.693 95.1308 241.283 94.5711C240.873 94.0114 241.003 93.2318 241.563 92.822C246.123 89.5137 251.553 89.4437 253.923 92.6521C254.813 93.8614 255.153 95.3907 254.893 97.0598C254.483 99.6685 252.663 102.377 250.003 104.296C249.783 104.456 249.523 104.536 249.273 104.536L249.263 104.556Z" fill="#8EAEFF"/>
</g>
</g>
<defs>
<clipPath id="clip0_1200_3726">
<rect width="400" height="400" fill="white"/>
</clipPath>
<clipPath id="clip1_1200_3726">
<rect width="400" height="400" fill="white"/>
</clipPath>
</defs>
</svg>
