<svg width="400" height="400" viewBox="0 0 400 400" fill="none" xmlns="http://www.w3.org/2000/svg">
<g clip-path="url(#clip0_1200_3876)">
<g clip-path="url(#clip1_1200_3876)">
<path d="M161.142 166.934C130.72 166.504 109.496 172.337 97.8787 177.699C97.8787 177.699 97.5288 177.839 96.879 178.17C91.2905 180.851 87.5515 183.552 85.2021 185.603C71.7256 195.748 50.6412 216.868 38.0145 255.696C20.999 308.041 24.2482 370 24.2482 370H82.9227L233.693 369.99L233.663 369.68L233.683 369.71L230.334 302.448C229.314 281.948 227.495 261.489 224.875 241.129L161.142 166.944V166.934Z" fill="#D5E1FF"/>
<path d="M332.936 198.909C335.186 194.407 337.135 190.215 338.745 186.564C347.003 181.861 378.214 163.183 375.875 150.967C373.176 136.9 352.281 123.224 352.281 123.224C352.281 123.224 349.952 113.939 344.673 112.939C339.385 111.938 323.409 126.085 323.409 126.085C323.409 126.085 313.311 132.348 311.672 137.51C310.672 140.652 310.752 149.566 310.962 156.069C308.583 158.28 305.763 160.841 302.654 163.603L332.936 198.899V198.909Z" fill="#FFA9A9"/>
<path d="M339.735 143.063L346.723 137.39L324.659 110.168L317.67 115.84L339.735 143.063Z" fill="#1C1E22"/>
<path d="M322.349 172.177C322.449 172.177 322.559 172.167 322.649 172.147C328.018 170.756 330.947 167.615 332.287 161.071C333.327 156.039 332.807 150.847 332.497 148.596C338.635 147.655 345.533 144.144 345.163 137.27H345.193C345.103 135.73 344.414 134.429 343.134 133.428C336.886 128.556 317.751 132.928 315.551 133.358" fill="#FFA9A9"/>
<path d="M373.336 159.681C373.336 159.681 359.949 179.86 351.031 174.068C342.114 168.265 327.218 150.827 327.218 150.827L347.153 129.116L373.326 159.681H373.336Z" fill="#FFA9A9"/>
<path d="M343.123 134.679C342.823 134.679 342.513 134.569 342.273 134.349C341.764 133.879 341.734 133.088 342.203 132.578L350.761 123.354C351.231 122.843 352.021 122.823 352.531 123.284C353.041 123.754 353.071 124.544 352.601 125.055L344.043 134.279C343.793 134.549 343.463 134.679 343.123 134.679Z" fill="#C26060"/>
<path d="M341.884 157.73C339.904 157.73 338.265 157.17 336.985 156.059C333.776 153.278 334.226 148.125 334.246 147.905C334.316 147.215 334.925 146.725 335.605 146.775C336.295 146.845 336.795 147.445 336.735 148.135C336.735 148.215 336.405 152.247 338.624 154.168C339.904 155.269 341.874 155.509 344.483 154.879C345.163 154.718 345.833 155.129 345.993 155.799C346.153 156.469 345.743 157.15 345.073 157.31C343.933 157.59 342.863 157.72 341.884 157.72V157.73Z" fill="#C26060"/>
<path d="M353.481 164.893C353.421 164.893 353.361 164.893 353.311 164.883H353.221C347.882 164.773 344.373 162.682 343.354 158.991C342.844 157.13 343.584 151.057 361.459 134.699C361.969 134.229 362.759 134.269 363.228 134.779C363.698 135.289 363.658 136.08 363.148 136.55C352.151 146.605 345.003 155.569 345.763 158.33C346.663 161.572 350.342 162.332 353.271 162.392C353.471 162.392 353.601 162.402 353.651 162.412C354.331 162.512 354.811 163.142 354.721 163.823C354.631 164.443 354.101 164.903 353.481 164.903V164.893Z" fill="#C26060"/>
<path d="M359.699 173.367C359.549 173.367 359.409 173.337 359.259 173.287C351.881 170.506 351.271 166.694 352.051 163.973C353.011 160.641 356.73 156.93 363.088 152.948C363.168 152.898 371.796 147.725 372.936 147.945L372.686 149.166L373.166 150.316C370.036 151.667 354.161 159.791 354.3 165.804C354.35 167.765 356.31 169.495 360.149 170.946C360.799 171.186 361.119 171.907 360.879 172.557C360.689 173.057 360.209 173.367 359.709 173.367H359.699Z" fill="#C26060"/>
<path d="M322.349 173.427C321.659 173.427 321.099 172.867 321.099 172.177C321.099 171.486 321.659 170.926 322.349 170.926H322.379C327.398 169.616 329.847 166.784 331.067 160.821C332.076 155.919 331.537 150.767 331.257 148.776C331.167 148.095 331.627 147.465 332.306 147.365C337.865 146.515 344.243 143.383 343.913 137.34C343.913 137.25 343.913 137.17 343.923 137.09C343.803 136.02 343.293 135.139 342.354 134.419C340.334 132.838 334.266 130.747 316.361 134.479L315.791 134.599C315.121 134.729 314.461 134.289 314.321 133.619C314.191 132.938 314.631 132.288 315.311 132.148L315.861 132.038C325.768 129.977 338.665 128.376 343.903 132.458C345.463 133.679 346.343 135.319 346.443 137.21C346.443 137.31 346.443 137.41 346.423 137.51C346.633 144.564 340.074 148.376 333.886 149.636C334.206 152.467 334.426 156.93 333.516 161.342C332.106 168.225 328.957 171.817 322.969 173.367C322.749 173.417 322.549 173.437 322.349 173.437V173.427Z" fill="#C26060"/>
<path d="M275.922 92.049C291.627 111.428 309.923 122.723 316.681 117.251C323.439 111.778 316.221 91.6087 300.465 72.1696C284.709 52.7304 266.464 41.4951 259.706 46.9677C252.958 52.4403 260.166 72.6098 275.922 92.049Z" fill="#1C1E22"/>
<path d="M317.641 115.95C308.473 115.95 293.477 105.465 280.021 88.8575C272.303 79.343 266.344 69.3183 263.225 60.6442C259.936 51.4898 260.216 44.7467 264.025 41.6652C271.563 35.5623 290.388 46.7276 306.894 67.0872C314.611 76.6017 320.57 86.6264 323.689 95.3005C326.978 104.455 326.698 111.198 322.889 114.279C321.5 115.41 319.72 115.95 317.641 115.95ZM282.35 86.9766C295.377 103.044 314.452 117.261 321 111.958C323.699 109.777 323.649 104.075 320.86 96.331C317.861 87.967 312.062 78.2525 304.554 68.9981C291.528 52.9305 272.443 38.7138 265.904 44.0163C263.205 46.1974 263.255 51.9 266.044 59.6437C269.054 68.0076 274.842 77.7222 282.35 86.9766Z" fill="#2D6AFF"/>
<path d="M308.293 105.055C308.093 105.055 307.883 105.015 307.684 104.925C299.396 101.223 293.317 92.5592 293.067 92.189C292.598 91.5087 292.767 90.5783 293.447 90.098C294.127 89.6278 295.067 89.7979 295.537 90.4782C295.597 90.5583 301.405 98.8322 308.913 102.184C309.673 102.524 310.013 103.404 309.673 104.165C309.423 104.725 308.873 105.055 308.303 105.055H308.293Z" fill="white"/>
<path d="M200.972 276.576C200.972 276.576 270.663 277.006 301.715 249.203C326.918 226.642 340.495 194.907 340.495 194.907L304.734 154.358H304.724C265.705 183.752 232.183 177.379 218.387 173.547C213.428 172.327 208.78 171.386 204.511 170.656C192.184 168.475 177.768 167.014 161.162 166.944L200.992 276.576H200.972Z" fill="#D5E1FF"/>
<path d="M173.259 369.01C172.969 349.14 172.349 313.203 171.02 272.694C168.85 205.653 165.291 177.479 165.291 177.479C162.332 176.639 156.104 178.67 156.104 178.67C156.104 178.67 157.183 189.895 157.483 238.058C157.733 272.514 158.413 337.125 159.203 369.01H173.269H173.259Z" fill="#91B1FF"/>
<path d="M176.708 168.215C176.708 168.215 172.779 177.789 161.242 178.61C147.496 179.59 138.198 168.245 138.198 168.245C138.198 168.245 138.198 168.245 138.198 168.255C138.118 168.465 130.28 189.035 136.649 192.576C143.037 196.138 161.252 181.701 161.252 181.701C161.252 181.701 180.277 193.397 184.016 187.644C187.755 181.891 176.738 168.235 176.708 168.215Z" fill="#91B1FF"/>
<path d="M84.6724 369.24C84.5124 369.24 84.3425 369.21 84.1825 369.14C83.5527 368.869 83.2528 368.129 83.5227 367.499C83.6227 367.259 89.2712 354.053 93.9899 340.176C91.3906 328.761 89.0912 314.194 92.6303 308.871C93.4101 307.701 94.4198 307 95.6395 306.79C97.389 306.49 99.1586 306.9 100.518 307.921C101.788 308.881 102.578 310.282 102.748 311.873C104.197 325.489 86.5619 366.748 85.8121 368.499C85.6121 368.97 85.1523 369.26 84.6624 369.26L84.6724 369.24ZM96.7892 309.181C96.5592 309.181 96.3193 309.201 96.0794 309.241C95.5495 309.331 95.1096 309.662 94.7197 310.242C93.68 311.803 91.8205 317.325 95.5395 335.484C98.5387 326.089 100.788 317.025 100.268 312.113C100.148 310.962 99.5185 310.272 99.0186 309.892C98.3988 309.421 97.609 309.171 96.7792 309.171L96.7892 309.181Z" fill="#8EAEFF"/>
<path d="M228.394 275.025C227.754 275.025 227.215 274.545 227.155 273.895L223.436 234.756C223.366 234.066 223.876 233.456 224.565 233.396C225.235 233.336 225.865 233.836 225.925 234.526L229.644 273.665C229.714 274.355 229.204 274.965 228.514 275.025C228.474 275.025 228.434 275.025 228.394 275.025Z" fill="#8EAEFF"/>
<path d="M328.908 78.1324C328.368 78.1324 327.868 77.7722 327.708 77.232C320.38 51.86 300.475 43.436 300.275 43.356C299.635 43.0959 299.335 42.3655 299.595 41.7252C299.855 41.0849 300.585 40.7848 301.225 41.0449C302.085 41.3951 322.459 50.0191 330.107 76.5416C330.297 77.2019 329.917 77.9023 329.258 78.0924C329.138 78.1224 329.028 78.1424 328.908 78.1424V78.1324Z" fill="#8396B2"/>
<path d="M307.204 56.9124C306.864 56.9124 306.534 56.7723 306.284 56.5122C305.814 56.002 305.844 55.2116 306.354 54.7414L319.8 42.3055C320.31 41.8353 321.1 41.8653 321.57 42.3755C322.04 42.8858 322.01 43.6762 321.5 44.1464L308.054 56.5822C307.814 56.8023 307.514 56.9124 307.204 56.9124Z" fill="#8396B2"/>
<path d="M317.401 69.9786C316.991 69.9786 316.591 69.7785 316.351 69.4083C315.981 68.828 316.141 68.0577 316.721 67.6775L332.227 57.6628C332.807 57.2926 333.576 57.4527 333.956 58.0329C334.336 58.6132 334.166 59.3836 333.586 59.7638L318.081 69.7785C317.871 69.9185 317.641 69.9786 317.401 69.9786Z" fill="#8396B2"/>
<path d="M175.058 147.635L174.738 143.683L137.088 149.196L137.118 149.686L137.148 150.126L138.188 168.245V168.235C138.188 168.235 147.486 179.58 161.232 178.6C172.759 177.779 176.698 168.205 176.698 168.205L175.048 147.635H175.058Z" fill="#FFA9A9"/>
<path d="M174.748 143.683L175.068 147.635C174.868 154.088 173.189 166.264 163.521 167.875C149.095 170.266 139.278 153.178 137.108 149.206L174.748 143.693V143.683Z" fill="#C56060"/>
<path d="M150.205 145.424C139.697 154.508 132.459 150.507 132.459 150.507C118.603 143.583 116.164 102.744 116.164 102.744L150.195 145.424H150.205Z" fill="#1C1E22"/>
<path d="M165.851 75.3011C165.851 75.3011 183.696 81.7941 186.225 91.8389C188.754 101.894 186.225 108.627 186.225 108.627L182.506 108.607C182.506 108.607 173.608 86.5664 159.222 84.5454C144.836 82.5245 165.841 75.3011 165.841 75.3011H165.851Z" fill="#1C1E22"/>
<path d="M108.926 93.0194C108.926 93.0194 112.475 118.812 118.233 116.551C123.992 114.279 139.948 93.4797 138.298 89.2877C136.648 85.1057 108.926 93.0194 108.926 93.0194Z" fill="#FFBC28"/>
<path d="M181.067 92.4392C181.067 92.4392 188.855 129.387 177.078 147.335C165.301 165.284 149.515 160.331 142.397 155.059C132.78 147.935 130.67 137.871 130.67 137.871C130.67 137.871 117.674 140.682 113.145 130.137C108.386 119.062 116.354 109.927 122.882 109.287C129.401 108.647 130.18 109.817 130.18 109.817L128.061 97.9418C128.061 97.9418 166.981 53.2807 181.067 92.4492V92.4392Z" fill="#FFA9A9"/>
<path d="M149.485 116.571C150.775 116.47 151.695 114.83 151.545 112.909C151.405 110.978 150.235 109.497 148.955 109.597C147.666 109.697 146.746 111.338 146.896 113.259C147.046 115.19 148.206 116.671 149.485 116.571Z" fill="#1C1E22"/>
<path d="M143.877 106.216C143.527 106.216 143.187 106.076 142.937 105.795C142.477 105.275 142.527 104.485 143.047 104.035C143.177 103.925 146.276 101.243 151.345 101.874C152.025 101.964 152.514 102.584 152.424 103.274C152.334 103.965 151.715 104.445 151.025 104.365C147.076 103.875 144.706 105.896 144.686 105.916C144.447 106.126 144.157 106.226 143.857 106.226L143.877 106.216Z" fill="#1C1E22"/>
<path d="M173.209 115.07C174.499 114.97 175.418 113.329 175.268 111.408C175.118 109.477 173.959 107.997 172.679 108.097C171.389 108.197 170.47 109.837 170.62 111.758C170.759 113.689 171.929 115.17 173.209 115.07Z" fill="#1C1E22"/>
<path d="M167.93 103.474C167.5 103.474 167.08 103.254 166.85 102.854C166.5 102.264 166.7 101.503 167.29 101.153C167.44 101.063 170.989 99.0123 175.848 100.563C176.508 100.773 176.868 101.473 176.658 102.134C176.448 102.794 175.748 103.154 175.088 102.944C171.339 101.744 168.68 103.244 168.56 103.304C168.36 103.414 168.15 103.474 167.94 103.474H167.93Z" fill="#1C1E22"/>
<path d="M163.531 132.278C163.341 132.278 163.141 132.228 162.961 132.138C162.351 131.818 162.111 131.067 162.431 130.447C166.26 123.064 160.442 113.859 160.382 113.769C160.012 113.189 160.172 112.419 160.752 112.038C161.331 111.668 162.101 111.828 162.481 112.409C162.751 112.829 169.149 122.914 164.651 131.598C164.431 132.028 163.991 132.268 163.541 132.268L163.531 132.278Z" fill="#1C1E22"/>
<path d="M160.202 141.292C158.773 141.292 157.513 140.922 156.443 140.172C154.114 138.551 153.644 135.76 153.624 135.65C153.514 134.969 153.974 134.329 154.664 134.219C155.344 134.109 155.984 134.569 156.093 135.249C156.093 135.289 156.443 137.14 157.883 138.141C158.823 138.781 160.072 138.961 161.592 138.651C162.272 138.521 162.932 138.961 163.062 139.631C163.192 140.312 162.752 140.962 162.082 141.102C161.432 141.232 160.802 141.292 160.202 141.292Z" fill="#1C1E22"/>
<path d="M175.078 109.927C175.078 109.927 194.713 101.173 196.502 116.43C198.572 134.109 177.388 134.619 177.388 134.619L175.078 109.927Z" fill="#FFA9A9"/>
<path d="M184.956 125.695C184.736 125.695 184.506 125.635 184.306 125.515C183.716 125.155 183.526 124.384 183.886 123.794L190.674 112.669C191.034 112.078 191.804 111.898 192.394 112.248C192.984 112.609 193.173 113.379 192.814 113.969L186.025 125.095C185.785 125.485 185.376 125.695 184.956 125.695Z" fill="#C26060"/>
<path d="M192.804 122.273H187.045C186.355 122.273 185.795 121.713 185.795 121.023C185.795 120.332 186.355 119.772 187.045 119.772H192.804C193.493 119.772 194.053 120.332 194.053 121.023C194.053 121.713 193.493 122.273 192.804 122.273Z" fill="#C26060"/>
<path d="M128.211 127.716C127.931 127.716 127.651 127.626 127.421 127.426L117.394 119.142C116.864 118.702 116.784 117.911 117.224 117.381C117.664 116.851 118.453 116.771 118.983 117.211L129.011 125.495C129.54 125.935 129.62 126.725 129.181 127.256C128.931 127.556 128.581 127.706 128.221 127.706L128.211 127.716Z" fill="#C26060"/>
<path d="M119.004 129.337C118.614 129.337 118.234 129.156 117.994 128.816C117.594 128.256 117.714 127.476 118.274 127.065L124.232 122.753C124.792 122.343 125.572 122.473 125.982 123.034C126.382 123.594 126.262 124.374 125.702 124.784L119.743 129.096C119.523 129.257 119.263 129.337 119.014 129.337H119.004Z" fill="#C26060"/>
<path d="M132.559 111.028C132.989 111.248 133.499 111.268 133.939 111.078C136.428 110.027 141.847 104.645 141.317 96.6211C140.677 87.1567 141.297 86.0662 141.297 86.0662C141.297 86.0662 150.375 91.2186 161.542 87.807C174.188 83.9452 178.587 71.1491 171.609 66.0567C163.831 60.384 147.545 62.5451 147.545 62.5451C147.545 62.5451 133.729 57.9429 121.112 74.1906C108.496 90.4382 116.974 112.018 116.974 112.018C116.974 112.018 122.932 106.336 132.539 111.018L132.559 111.028Z" fill="#1C1E22"/>
<path d="M110.325 99.3224C107.936 99.1523 106.286 96.6211 107.356 94.4901C107.436 94.3401 107.516 94.2 107.616 94.0499L109.206 91.7288C109.206 91.7288 102.877 51.5099 141.957 44.1164C181.027 36.7229 187.955 77.4821 187.955 77.4821C187.955 77.4821 208.949 81.0338 198.632 89.3777C188.755 97.3715 130.67 100.833 110.345 99.3424H110.335L110.325 99.3224Z" fill="#FFDB25"/>
<path d="M136.138 46.8677C136.138 46.8677 140.907 42.5256 148.275 42.2055C151.864 42.0554 154.373 42.4056 156.073 42.9058C157.972 43.4561 159.712 44.9068 160.802 46.5475C163.071 49.9591 165.63 57.4527 166.77 64.8361C168.21 74.1906 167.08 85.726 167.08 85.726C167.08 85.726 166.55 86.3063 161.192 87.0366C157.573 87.5268 154.883 86.9065 154.883 86.9065C154.883 86.9065 147.545 55.4617 136.138 46.8577V46.8677Z" fill="#FFBC28"/>
</g>
</g>
<defs>
<clipPath id="clip0_1200_3876">
<rect width="400" height="400" fill="white"/>
</clipPath>
<clipPath id="clip1_1200_3876">
<rect width="400" height="400" fill="white"/>
</clipPath>
</defs>
</svg>
