<svg width="400" height="400" viewBox="0 0 400 400" fill="none" xmlns="http://www.w3.org/2000/svg">
<g clip-path="url(#clip0_1942_6792)">
<g clip-path="url(#clip1_1942_6792)">
<path d="M328.741 355.34C328.011 362.22 327.341 368.47 327.132 370H139.516C138.837 359.66 146.801 290.3 146.801 290.3L128.793 209.61C132.561 209.61 159.323 202.18 177.691 196.68C196.419 191.07 224.59 187.55 230.116 187.25C231.985 187.15 234.343 186.97 235.532 186.89L264.143 186.53C269.67 186.18 275.196 186.53 280.643 187.53L328.741 355.33V355.34Z" fill="#D2E0FF"/>
<path d="M234.983 197.36C234.983 197.36 217.764 249.61 210.479 294.65C203.204 339.69 201.185 369.99 201.185 369.99H212.388C212.388 369.99 220.652 297.81 225.919 274.15C232.295 245.54 245.386 198.56 245.386 198.56C245.386 198.56 240.899 194.94 234.983 197.36Z" fill="#90B0FF"/>
<path d="M269.969 186.07C269.969 186.07 327.381 188.72 360.789 241.76C391.329 291.11 387.621 353.26 333.957 356.37C280.283 359.47 214.956 318.56 214.956 318.56L230.905 253.26L264.123 257.23L269.979 186.07H269.969Z" fill="#D2E0FF"/>
<path d="M312.861 267.32C312.741 267.32 312.621 267.3 312.511 267.27C291.225 260.97 251.791 257.19 251.392 257.16C250.702 257.09 250.202 256.49 250.262 255.8C250.322 255.11 250.942 254.62 251.622 254.67C252.021 254.71 291.695 258.51 313.211 264.87C313.87 265.07 314.25 265.76 314.05 266.42C313.89 266.96 313.39 267.32 312.851 267.32H312.861Z" fill="#90B0FF"/>
<path d="M271.748 259.44C271.209 259.44 270.729 259.1 270.559 258.58C270.379 258.04 270.589 257.45 271.069 257.14C274.316 255.06 302.907 237.16 309.683 246.66C310.143 247.23 310.692 248.5 310.073 249.98C308.084 254.77 295.213 257.96 271.818 259.44C271.788 259.44 271.768 259.44 271.738 259.44H271.748ZM303.117 246.4C296.632 246.4 285.519 251.51 276.805 256.58C303.197 254.46 307.175 250.34 307.764 249.07C307.984 248.59 307.804 248.29 307.744 248.2C306.855 246.93 305.236 246.39 303.117 246.39V246.4Z" fill="#90B0FF"/>
<path d="M328.111 357.79C275.856 357.79 214.916 320.02 214.287 319.62C213.707 319.25 213.527 318.48 213.887 317.9C214.257 317.32 215.026 317.14 215.606 317.5C216.255 317.91 281.232 358.17 333.877 355.12C334.577 355.09 335.156 355.61 335.196 356.29C335.236 356.98 334.707 357.57 334.027 357.61C332.068 357.72 330.1 357.78 328.111 357.78V357.79Z" fill="#90B0FF"/>
<path d="M273.207 186.36C272.018 186.21 269.98 186.07 269.98 186.07C269.98 186.07 269.97 186.07 269.96 186.08C269.58 186.32 258.527 193.28 246.175 195.01C234.233 196.68 233.874 187.8 233.844 187.07C233.844 187.03 233.844 187.01 233.844 187.01C233.844 187.01 221.492 202.54 223.471 204.89C224.38 205.98 227.508 204.13 230.896 202.11C234.853 199.76 239.18 197.18 240.779 198.78C242.258 200.26 245.256 202.94 248.424 205.44C251.622 207.95 255 210.28 257.198 210.99C259.467 211.72 264.403 205.16 268.271 198.63C268.571 198.12 268.87 197.61 269.15 197.11C272.268 191.61 274.387 186.5 273.217 186.36H273.207Z" fill="#90B0FF"/>
<path d="M65.4155 130.56C65.4155 130.56 79.746 178.54 93.357 177.1C106.958 175.65 115.112 167.07 115.112 167.07C115.112 167.07 135.089 133.18 119.4 127.05C100.232 119.57 65.4255 130.56 65.4255 130.56H65.4155Z" fill="#FFA8A8"/>
<path d="M83.6435 152.04C117.251 152.04 144.493 124.72 144.493 91.02C144.493 57.32 117.251 30 83.6435 30C50.0358 30 22.7939 57.32 22.7939 91.02C22.7939 124.72 50.0358 152.04 83.6435 152.04Z" fill="#6A7C81"/>
<path d="M83.6435 129.85C62.2477 129.85 44.9192 112.47 44.9192 91.02C44.9192 69.57 62.2577 52.19 83.6435 52.19C94.3264 52.19 104.01 56.53 111.025 63.56L126.675 47.87C115.662 36.84 100.452 30 83.6435 30C50.0358 30 22.7939 57.32 22.7939 91.02C22.7939 124.72 50.0358 152.04 83.6435 152.04C100.452 152.04 115.662 145.21 126.685 134.18L111.035 118.49C104.02 125.51 94.3464 129.86 83.6435 129.86V129.85Z" fill="#C7D1D5"/>
<path d="M122.368 91.02H103.001C103.001 80.3 94.3264 71.6 83.6335 71.6C72.9406 71.6 64.2764 80.3 64.2764 91.02C64.2764 96.24 66.335 100.98 69.6828 104.47H69.6728L93.6468 128.52C110.186 124.09 122.358 108.99 122.358 91.01L122.368 91.02Z" fill="#525A60"/>
<path d="M144.493 91.02H122.368C122.368 108.99 110.186 124.11 93.6567 128.53L110.745 145.67C130.762 135.67 144.493 114.96 144.493 91.02Z" fill="#80959A"/>
<path d="M133.43 85.47H83.6435C80.5855 85.47 78.1172 87.95 78.1172 91.01C78.1172 94.07 80.5855 96.55 83.6435 96.55H133.43C136.488 96.55 138.957 94.07 138.957 91.01C138.957 87.95 136.488 85.47 133.43 85.47Z" fill="#C7D1D5"/>
<path d="M33.8465 95.18C36.1349 95.18 37.9937 93.32 37.9937 91.02C37.9937 88.72 36.1349 86.86 33.8465 86.86C31.558 86.86 29.6992 88.72 29.6992 91.02C29.6992 93.32 31.558 95.18 33.8465 95.18Z" fill="#E5EFEF"/>
<path d="M83.6433 45.25C85.9318 45.25 87.7906 43.39 87.7906 41.09C87.7906 38.79 85.9318 36.93 83.6433 36.93C81.3549 36.93 79.4961 38.79 79.4961 41.09C79.4961 43.39 81.3549 45.25 83.6433 45.25Z" fill="#E5EFEF"/>
<path d="M83.6433 145.11C85.9318 145.11 87.7906 143.25 87.7906 140.95C87.7906 138.65 85.9318 136.79 83.6433 136.79C81.3549 136.79 79.4961 138.65 79.4961 140.95C79.4961 143.25 81.3549 145.11 83.6433 145.11Z" fill="#E5EFEF"/>
<path d="M48.3667 59.88C50.6552 59.88 52.514 58.02 52.514 55.72C52.514 53.42 50.6552 51.56 48.3667 51.56C46.0782 51.56 44.2195 53.42 44.2195 55.72C44.2195 58.02 46.0782 59.88 48.3667 59.88Z" fill="#E5EFEF"/>
<path d="M48.3667 130.55C50.6552 130.55 52.514 128.69 52.514 126.39C52.514 124.09 50.6552 122.23 48.3667 122.23C46.0782 122.23 44.2195 124.09 44.2195 126.39C44.2195 128.69 46.0782 130.55 48.3667 130.55Z" fill="#E5EFEF"/>
<path d="M118.9 130.55C121.188 130.55 123.047 128.69 123.047 126.39C123.047 124.09 121.188 122.23 118.9 122.23C116.611 122.23 114.753 124.09 114.753 126.39C114.753 128.69 116.611 130.55 118.9 130.55Z" fill="#B1BDBD"/>
<path d="M123.127 149.38C123.127 149.38 126.665 137.31 124.706 132.67C122.757 128.02 111.855 119.07 107.887 121.19C103.92 123.31 110.935 133.75 110.935 133.75C110.935 133.75 102.111 141.9 100.412 152.08C98.7134 162.28 110.955 166.16 110.955 166.16L123.117 149.39L123.127 149.38Z" fill="#FFA8A8"/>
<path d="M98.5034 162.67C97.9837 162.67 97.514 162.33 97.3741 161.81C95.9451 156.58 102.091 143.71 102.801 142.26C103.08 141.68 103.79 141.43 104.369 141.72C104.949 142 105.199 142.71 104.909 143.29C103.1 147.01 98.6233 157.49 99.6326 161.2C99.8025 161.83 99.4328 162.47 98.8132 162.64C98.7132 162.67 98.6033 162.68 98.5034 162.68V162.67Z" fill="#C16060"/>
<path d="M168.817 295.43L142.194 306.89C123.477 314.27 94.706 313.99 84.203 290.57C66.2949 250.68 74.4495 172.24 74.4495 172.24L130.622 154.34C130.622 154.34 160.642 225.38 168.817 295.44V295.43Z" fill="#D2E0FF"/>
<path d="M160.962 236.15C160.223 236.15 159.094 235.96 157.794 235.1C154.337 232.82 149.74 225.79 147.441 205.22C147.381 204.66 147.701 204.13 148.221 203.92C148.74 203.71 149.34 203.88 149.68 204.33C152.658 208.26 167.358 228.16 164.64 234.15C164.28 234.95 163.471 235.93 161.692 236.09C161.532 236.12 161.282 236.16 160.962 236.16V236.15ZM150.529 209.71C152.908 226.19 156.775 231.31 158.994 232.89C160.293 233.82 161.152 233.64 161.192 233.63C161.252 233.62 161.362 233.6 161.422 233.59C162.171 233.54 162.311 233.24 162.371 233.1C163.71 230.14 156.945 218.73 150.539 209.71H150.529Z" fill="#90B0FF"/>
<path d="M217.804 266.8C217.804 266.8 198.877 248.48 194.729 247.71C190.582 246.93 175.782 253.67 175.782 253.67V266.79H217.814L217.804 266.8Z" fill="#FFA8A8"/>
<path d="M171.515 290.13L201.235 275.46C202.384 274.9 202.854 273.51 202.284 272.36L174.833 216.42C174.273 215.27 172.884 214.8 171.745 215.36L142.015 230.03C140.875 230.59 140.396 231.98 140.965 233.13L168.417 289.07C168.977 290.22 170.366 290.69 171.505 290.13H171.515Z" fill="white"/>
<path d="M167.807 291.97L197.538 277.3C198.677 276.74 199.157 275.35 198.587 274.2L171.135 218.26C170.576 217.11 169.187 216.64 168.047 217.2L138.327 231.87C137.178 232.43 136.708 233.82 137.278 234.97L164.73 290.91C165.289 292.06 166.678 292.53 167.817 291.96L167.807 291.97Z" fill="#1C1E22"/>
<path d="M188.733 257.3C182.018 259.02 155.675 279.82 157.134 285.02C158.594 290.23 164.59 288.91 164.59 288.91C164.59 288.91 158.913 292.51 160.962 296.09C163.011 299.67 169.796 298.46 169.796 298.46C169.796 298.46 165.029 301.21 171.055 303.7C177.071 306.21 193.54 300.51 193.54 300.51C193.54 300.51 202.364 308.18 217.414 308.45L227.837 265.78C213.687 261.71 193.051 256.19 188.723 257.29L188.733 257.3Z" fill="#FFA8A8"/>
<path d="M162.561 290.72C162.161 290.72 161.771 290.53 161.531 290.18C161.142 289.61 161.282 288.83 161.851 288.44L187.144 270.94C187.714 270.55 188.483 270.69 188.883 271.26C189.273 271.83 189.133 272.61 188.563 273L163.27 290.5C163.05 290.65 162.811 290.72 162.561 290.72Z" fill="#C16060"/>
<path d="M168.317 300.59C167.887 300.59 167.468 300.37 167.238 299.97C166.888 299.37 167.088 298.61 167.687 298.26L195.109 282.29C195.709 281.95 196.468 282.15 196.818 282.74C197.168 283.34 196.968 284.1 196.368 284.45L168.947 300.42C168.747 300.53 168.537 300.59 168.317 300.59Z" fill="#C16060"/>
<path d="M270.679 175.02C283.441 177.78 294.543 173.4 299.51 164.06C306.485 150.9 302.638 132.3 294.513 119.8L290.336 113.74C289.177 112.05 287.478 107.87 286.409 106.12C283.621 101.53 281.472 98.24 276.745 95.07C270.339 90.78 262.604 89.09 246.515 91.32C243.347 91.76 239.16 93.15 235.043 94.8C232.245 93.47 224.25 90.55 219.383 97.44C213.397 105.91 225.739 123.89 225.739 123.89L227.468 126.45C221.002 136.52 211.598 153.78 216.675 162.34C216.675 162.34 220.363 169.18 233.284 167.34L270.689 175.03L270.679 175.02Z" fill="#1C1E22"/>
<path d="M246.175 195.01C258.527 193.28 269.58 186.32 269.96 186.08L271.169 169.84L266.152 170.56L236.252 174.85L233.564 188.5V188.54C233.594 189.28 234.233 196.68 246.175 195.01Z" fill="#FFA8A8"/>
<path d="M266.142 170.56C266.012 171.31 265.652 172.2 265.133 173.19C257.868 186.65 240.609 188.38 233.544 188.49L236.232 174.84L266.132 170.55L266.142 170.56Z" fill="#C46060"/>
<path d="M241.339 104.79C237.491 107.38 234.533 111.11 232.624 115.35C228.157 125.24 218.504 149.12 221.862 164.55C226.179 184.41 244.137 182.37 254.979 179.22C265.842 176.07 271.159 169.83 271.159 169.83C271.159 169.83 280.892 173.78 288.077 164.93C295.263 156.08 291.805 145.22 286.269 142.44C280.732 139.68 273.757 143.38 273.757 143.38L279.633 133.59C279.633 133.59 263.634 89.76 241.329 104.78L241.339 104.79Z" fill="#FFA8A8"/>
<path d="M233.834 136.22C234.073 134.42 233.294 132.83 232.095 132.67C230.896 132.51 229.726 133.84 229.486 135.65C229.247 137.45 230.026 139.04 231.235 139.2C232.434 139.36 233.604 138.03 233.834 136.22Z" fill="#1C1E22"/>
<path d="M237.591 126.1C237.211 126.1 236.842 125.93 236.602 125.61C235.862 124.64 235.033 124.12 234.063 124.01C232.105 123.79 230.196 125.38 230.176 125.39C229.646 125.84 228.867 125.77 228.417 125.25C227.967 124.72 228.037 123.94 228.557 123.49C228.667 123.4 231.295 121.2 234.333 121.53C235.992 121.71 237.421 122.57 238.59 124.09C239.01 124.64 238.91 125.42 238.361 125.84C238.131 126.01 237.871 126.1 237.601 126.1H237.591Z" fill="#1C1E22"/>
<path d="M252.981 138.8C253.22 137 252.441 135.41 251.242 135.25C250.043 135.09 248.873 136.42 248.633 138.23C248.394 140.03 249.173 141.62 250.372 141.78C251.571 141.94 252.741 140.61 252.981 138.8Z" fill="#1C1E22"/>
<path d="M257.138 131.31C256.688 131.31 256.248 131.06 256.029 130.63C256.029 130.63 254.849 128.4 252.941 127.85C252.011 127.58 251.052 127.74 250.003 128.35C249.403 128.69 248.644 128.49 248.294 127.89C247.954 127.29 248.154 126.53 248.753 126.18C250.412 125.22 252.061 124.98 253.65 125.45C256.588 126.32 258.177 129.36 258.237 129.49C258.547 130.1 258.307 130.86 257.698 131.17C257.518 131.26 257.318 131.31 257.128 131.31H257.138Z" fill="#1C1E22"/>
<path d="M233.853 155.22C233.254 155.22 232.734 154.79 232.624 154.18C230.945 144.39 236.492 139.07 236.731 138.85C237.231 138.38 238.021 138.41 238.5 138.91C238.97 139.41 238.94 140.2 238.44 140.67C238.24 140.86 233.643 145.35 235.082 153.75C235.202 154.43 234.743 155.08 234.063 155.19C233.993 155.2 233.923 155.21 233.853 155.21V155.22Z" fill="#1C1E22"/>
<path d="M239.759 164.57C238.91 164.57 238.38 164.43 238.32 164.41C237.661 164.22 237.271 163.53 237.461 162.87C237.651 162.21 238.33 161.82 238.99 162.01C239.15 162.05 242.128 162.73 245.566 159.13C246.045 158.63 246.835 158.61 247.334 159.09C247.834 159.57 247.854 160.36 247.374 160.86C244.356 164.03 241.438 164.58 239.759 164.58V164.57Z" fill="#1C1E22"/>
<path d="M274.367 158.54C274.007 158.54 273.647 158.39 273.407 158.09C272.967 157.56 273.037 156.77 273.577 156.33L283.58 148.04C284.11 147.6 284.9 147.67 285.339 148.21C285.779 148.74 285.709 149.53 285.169 149.97L275.166 158.26C274.936 158.45 274.646 158.55 274.367 158.55V158.54Z" fill="#C16060"/>
<path d="M283.55 160.17C283.301 160.17 283.041 160.09 282.821 159.93L276.885 155.61C276.325 155.2 276.205 154.42 276.605 153.86C277.015 153.3 277.794 153.18 278.344 153.58L284.28 157.9C284.84 158.31 284.959 159.09 284.56 159.65C284.32 159.99 283.93 160.16 283.55 160.16V160.17Z" fill="#C16060"/>
<path d="M234.083 112.39C234.083 112.39 239.769 101.97 251.761 110.32C268.45 121.93 256.888 148.78 273.767 143.39C290.646 137.99 284.21 116.53 284.21 116.53C284.21 116.53 246.045 79.24 234.073 112.38L234.083 112.39Z" fill="#1C1E22"/>
<path d="M158.803 70.89C158.194 70.89 157.654 70.44 157.564 69.82C153.877 43.71 135.389 32.51 135.199 32.4C134.609 32.05 134.41 31.28 134.759 30.69C135.109 30.1 135.879 29.9 136.468 30.25C137.268 30.72 156.175 42.12 160.033 69.47C160.133 70.15 159.653 70.79 158.973 70.88C158.913 70.88 158.853 70.89 158.793 70.89H158.803Z" fill="#8295B1"/>
<path d="M140.336 46.82C139.936 46.82 139.556 46.63 139.306 46.28C138.917 45.71 139.057 44.94 139.616 44.54L154.626 34.11C155.196 33.72 155.975 33.86 156.365 34.42C156.755 34.99 156.615 35.76 156.055 36.16L141.045 46.59C140.825 46.74 140.576 46.81 140.336 46.81V46.82Z" fill="#8295B1"/>
<path d="M148.58 61.2C148.111 61.2 147.661 60.93 147.451 60.48C147.161 59.85 147.431 59.11 148.061 58.82L164.769 51.07C165.389 50.78 166.139 51.05 166.428 51.68C166.718 52.31 166.448 53.05 165.819 53.34L149.11 61.09C148.94 61.17 148.76 61.21 148.59 61.21L148.58 61.2Z" fill="#8295B1"/>
<path d="M53.6333 165.92C53.5434 165.92 53.4635 165.92 53.3735 165.89C29.4394 160.8 19.526 139.86 19.1163 138.97C18.8265 138.34 19.0963 137.6 19.7259 137.31C20.3555 137.02 21.095 137.29 21.3848 137.92C21.4847 138.13 31.2182 158.62 53.9032 163.45C54.5727 163.59 55.0124 164.26 54.8625 164.93C54.7426 165.52 54.223 165.92 53.6433 165.92H53.6333Z" fill="#8295B1"/>
</g>
</g>
<defs>
<clipPath id="clip0_1942_6792">
<rect width="400" height="400" fill="white"/>
</clipPath>
<clipPath id="clip1_1942_6792">
<rect width="400" height="400" fill="white"/>
</clipPath>
</defs>
</svg>
