<svg width="400" height="400" viewBox="0 0 400 400" fill="none" xmlns="http://www.w3.org/2000/svg">
<g clip-path="url(#clip0_1325_5202)">
<g clip-path="url(#clip1_1325_5202)">
<path d="M298.905 132.877H295.105C294.445 132.877 293.915 132.347 293.915 131.687C293.915 131.027 294.445 130.497 295.105 130.497H297.715V127.897C297.715 127.237 298.245 126.707 298.905 126.707C299.565 126.707 300.095 127.237 300.095 127.897V131.687C300.095 132.347 299.565 132.877 298.905 132.877Z" fill="#A6B2C4"/>
<path d="M287.164 132.877H279.224C278.564 132.877 278.034 132.347 278.034 131.687C278.034 131.027 278.564 130.497 279.224 130.497H287.164C287.824 130.497 288.354 131.027 288.354 131.687C288.354 132.347 287.824 132.877 287.164 132.877ZM271.284 132.877H263.344C262.684 132.877 262.154 132.347 262.154 131.687C262.154 131.027 262.684 130.497 263.344 130.497H271.284C271.944 130.497 272.474 131.027 272.474 131.687C272.474 132.347 271.944 132.877 271.284 132.877ZM255.403 132.877H247.463C246.803 132.877 246.273 132.347 246.273 131.687C246.273 131.027 246.803 130.497 247.463 130.497H255.403C256.064 130.497 256.594 131.027 256.594 131.687C256.594 132.347 256.064 132.877 255.403 132.877ZM239.523 132.877H231.583C230.923 132.877 230.393 132.347 230.393 131.687C230.393 131.027 230.923 130.497 231.583 130.497H239.523C240.183 130.497 240.713 131.027 240.713 131.687C240.713 132.347 240.183 132.877 239.523 132.877ZM223.643 132.877H215.703C215.043 132.877 214.513 132.347 214.513 131.687C214.513 131.027 215.043 130.497 215.703 130.497H223.643C224.303 130.497 224.833 131.027 224.833 131.687C224.833 132.347 224.303 132.877 223.643 132.877ZM207.763 132.877H199.823C199.163 132.877 198.633 132.347 198.633 131.687C198.633 131.027 199.163 130.497 199.823 130.497H207.763C208.423 130.497 208.953 131.027 208.953 131.687C208.953 132.347 208.423 132.877 207.763 132.877ZM191.882 132.877H183.942C183.282 132.877 182.752 132.347 182.752 131.687C182.752 131.027 183.282 130.497 183.942 130.497H191.882C192.542 130.497 193.072 131.027 193.072 131.687C193.072 132.347 192.542 132.877 191.882 132.877ZM176.002 132.877H168.062C167.402 132.877 166.872 132.347 166.872 131.687C166.872 131.027 167.402 130.497 168.062 130.497H176.002C176.662 130.497 177.192 131.027 177.192 131.687C177.192 132.347 176.662 132.877 176.002 132.877ZM160.122 132.877H152.182C151.522 132.877 150.992 132.347 150.992 131.687C150.992 131.027 151.522 130.497 152.182 130.497H160.122C160.782 130.497 161.312 131.027 161.312 131.687C161.312 132.347 160.782 132.877 160.122 132.877Z" fill="#A6B2C4"/>
<path d="M144.201 132.877H140.401C139.741 132.877 139.211 132.347 139.211 131.687V127.897C139.211 127.237 139.741 126.707 140.401 126.707C141.061 126.707 141.591 127.237 141.591 127.897V130.497H144.201C144.861 130.497 145.391 131.027 145.391 131.687C145.391 132.347 144.861 132.877 144.201 132.877Z" fill="#A6B2C4"/>
<path d="M140.401 121.327C139.741 121.327 139.211 120.797 139.211 120.137V112.377C139.211 111.717 139.741 111.187 140.401 111.187C141.061 111.187 141.591 111.717 141.591 112.377V120.137C141.591 120.797 141.061 121.327 140.401 121.327ZM140.401 105.797C139.741 105.797 139.211 105.268 139.211 104.608V96.8478C139.211 96.1878 139.741 95.6578 140.401 95.6578C141.061 95.6578 141.591 96.1878 141.591 96.8478V104.608C141.591 105.268 141.061 105.797 140.401 105.797ZM140.401 90.2679C139.741 90.2679 139.211 89.738 139.211 89.078V81.3182C139.211 80.6582 139.741 80.1282 140.401 80.1282C141.061 80.1282 141.591 80.6582 141.591 81.3182V89.078C141.591 89.738 141.061 90.2679 140.401 90.2679ZM140.401 74.7384C139.741 74.7384 139.211 74.2084 139.211 73.5484V65.7886C139.211 65.1287 139.741 64.5987 140.401 64.5987C141.061 64.5987 141.591 65.1287 141.591 65.7886V73.5484C141.591 74.2084 141.061 74.7384 140.401 74.7384ZM140.401 59.2088C139.741 59.2088 139.211 58.6788 139.211 58.0189V50.2591C139.211 49.5991 139.741 49.0691 140.401 49.0691C141.061 49.0691 141.591 49.5991 141.591 50.2591V58.0189C141.591 58.6788 141.061 59.2088 140.401 59.2088ZM140.401 43.6793C139.741 43.6793 139.211 43.1493 139.211 42.4893V34.7295C139.211 34.0695 139.741 33.5396 140.401 33.5396C141.061 33.5396 141.591 34.0695 141.591 34.7295V42.4893C141.591 43.1493 141.061 43.6793 140.401 43.6793Z" fill="#A6B2C4"/>
<path d="M140.401 28.18C139.741 28.18 139.211 27.65 139.211 26.99V23.2C139.211 22.54 139.741 22.01 140.401 22.01H144.201C144.861 22.01 145.391 22.54 145.391 23.2C145.391 23.86 144.861 24.39 144.201 24.39H141.591V26.99C141.591 27.65 141.061 28.18 140.401 28.18Z" fill="#A6B2C4"/>
<path d="M287.164 24.39H279.223C278.563 24.39 278.033 23.86 278.033 23.2C278.033 22.54 278.563 22.01 279.223 22.01H287.164C287.824 22.01 288.354 22.54 288.354 23.2C288.354 23.86 287.824 24.39 287.164 24.39ZM271.283 24.39H263.343C262.683 24.39 262.153 23.86 262.153 23.2C262.153 22.54 262.683 22.01 263.343 22.01H271.283C271.943 22.01 272.473 22.54 272.473 23.2C272.473 23.86 271.943 24.39 271.283 24.39ZM255.403 24.39H247.463C246.803 24.39 246.273 23.86 246.273 23.2C246.273 22.54 246.803 22.01 247.463 22.01H255.403C256.063 22.01 256.593 22.54 256.593 23.2C256.593 23.86 256.063 24.39 255.403 24.39ZM239.523 24.39H231.583C230.923 24.39 230.393 23.86 230.393 23.2C230.393 22.54 230.923 22.01 231.583 22.01H239.523C240.183 22.01 240.713 22.54 240.713 23.2C240.713 23.86 240.183 24.39 239.523 24.39ZM223.642 24.39H215.702C215.042 24.39 214.512 23.86 214.512 23.2C214.512 22.54 215.042 22.01 215.702 22.01H223.642C224.302 22.01 224.832 22.54 224.832 23.2C224.832 23.86 224.302 24.39 223.642 24.39ZM207.762 24.39H199.822C199.162 24.39 198.632 23.86 198.632 23.2C198.632 22.54 199.162 22.01 199.822 22.01H207.762C208.422 22.01 208.952 22.54 208.952 23.2C208.952 23.86 208.422 24.39 207.762 24.39ZM191.882 24.39H183.942C183.282 24.39 182.752 23.86 182.752 23.2C182.752 22.54 183.282 22.01 183.942 22.01H191.882C192.542 22.01 193.072 22.54 193.072 23.2C193.072 23.86 192.542 24.39 191.882 24.39ZM176.002 24.39H168.061C167.401 24.39 166.871 23.86 166.871 23.2C166.871 22.54 167.401 22.01 168.061 22.01H176.002C176.662 22.01 177.192 22.54 177.192 23.2C177.192 23.86 176.662 24.39 176.002 24.39ZM160.121 24.39H152.181C151.521 24.39 150.991 23.86 150.991 23.2C150.991 22.54 151.521 22.01 152.181 22.01H160.121C160.781 22.01 161.311 22.54 161.311 23.2C161.311 23.86 160.781 24.39 160.121 24.39Z" fill="#A6B2C4"/>
<path d="M298.905 28.18C298.245 28.18 297.715 27.65 297.715 26.99V24.39H295.105C294.445 24.39 293.915 23.86 293.915 23.2C293.915 22.54 294.445 22.01 295.105 22.01H298.905C299.565 22.01 300.095 22.54 300.095 23.2V26.99C300.095 27.65 299.565 28.18 298.905 28.18Z" fill="#A6B2C4"/>
<path d="M298.904 121.327C298.244 121.327 297.714 120.797 297.714 120.137V112.377C297.714 111.717 298.244 111.187 298.904 111.187C299.564 111.187 300.094 111.717 300.094 112.377V120.137C300.094 120.797 299.564 121.327 298.904 121.327ZM298.904 105.797C298.244 105.797 297.714 105.268 297.714 104.608V96.8478C297.714 96.1878 298.244 95.6578 298.904 95.6578C299.564 95.6578 300.094 96.1878 300.094 96.8478V104.608C300.094 105.268 299.564 105.797 298.904 105.797ZM298.904 90.2679C298.244 90.2679 297.714 89.738 297.714 89.078V81.3182C297.714 80.6582 298.244 80.1282 298.904 80.1282C299.564 80.1282 300.094 80.6582 300.094 81.3182V89.078C300.094 89.738 299.564 90.2679 298.904 90.2679ZM298.904 74.7384C298.244 74.7384 297.714 74.2084 297.714 73.5484V65.7886C297.714 65.1287 298.244 64.5987 298.904 64.5987C299.564 64.5987 300.094 65.1287 300.094 65.7886V73.5484C300.094 74.2084 299.564 74.7384 298.904 74.7384ZM298.904 59.2088C298.244 59.2088 297.714 58.6788 297.714 58.0189V50.2591C297.714 49.5991 298.244 49.0691 298.904 49.0691C299.564 49.0691 300.094 49.5991 300.094 50.2591V58.0189C300.094 58.6788 299.564 59.2088 298.904 59.2088ZM298.904 43.6793C298.244 43.6793 297.714 43.1493 297.714 42.4893V34.7295C297.714 34.0695 298.244 33.5396 298.904 33.5396C299.564 33.5396 300.094 34.0695 300.094 34.7295V42.4893C300.094 43.1493 299.564 43.6793 298.904 43.6793Z" fill="#A6B2C4"/>
<path d="M302.344 18H293.514C292.41 18 291.514 18.8954 291.514 20V28.84C291.514 29.9446 292.41 30.84 293.514 30.84H302.344C303.449 30.84 304.344 29.9446 304.344 28.84V20C304.344 18.8954 303.449 18 302.344 18Z" fill="#D2D2DD"/>
<path d="M146.191 18H137.361C136.257 18 135.361 18.8954 135.361 20V28.84C135.361 29.9446 136.257 30.84 137.361 30.84H146.191C147.296 30.84 148.191 29.9446 148.191 28.84V20C148.191 18.8954 147.296 18 146.191 18Z" fill="#D2D2DD"/>
<path d="M302.344 124.767H293.514C292.41 124.767 291.514 125.662 291.514 126.767V135.607C291.514 136.712 292.41 137.607 293.514 137.607H302.344C303.449 137.607 304.344 136.712 304.344 135.607V126.767C304.344 125.662 303.449 124.767 302.344 124.767Z" fill="#D2D2DD"/>
<path d="M260.233 63.3987V152.526C260.233 157.876 255.373 162.206 249.403 162.206H93.3106C87.3205 162.206 82.4604 157.876 82.4604 152.526V63.3987C82.4604 58.0489 87.3205 53.719 93.3106 53.719H249.403C255.373 53.719 260.233 58.0489 260.233 63.3987Z" fill="#EAEAEF"/>
<path d="M117.502 115.227L151.672 98.6378C152.012 98.4778 152.332 98.2778 152.632 98.0478L181.533 76.1184C183.483 74.6385 186.163 74.5685 188.193 75.9384L225.584 101.198C227.154 102.258 228.094 104.028 228.094 105.918V137.027C228.094 140.177 225.534 142.727 222.384 142.727H119.932C116.732 142.727 114.162 140.117 114.222 136.927C114.322 131.407 114.432 125.167 114.292 120.527C114.222 118.287 115.482 116.217 117.502 115.237V115.227Z" fill="white"/>
<path d="M222.503 101.628C222.503 104.738 225.023 107.258 228.123 107.258C231.223 107.258 233.743 104.738 233.743 101.628C233.743 98.5178 231.223 95.9978 228.123 95.9978C225.023 95.9978 222.503 98.5178 222.503 101.628Z" fill="#9770FF"/>
<path d="M145.422 98.5979C145.422 101.708 147.942 104.228 151.042 104.228C154.142 104.228 156.662 101.708 156.662 98.5979C156.662 95.4879 154.142 92.9679 151.042 92.9679C147.942 92.9679 145.422 95.4879 145.422 98.5979Z" fill="#9770FF"/>
<path d="M179.272 74.8385C179.272 77.9485 181.792 80.4685 184.892 80.4685C187.992 80.4685 190.512 77.9485 190.512 74.8385C190.512 71.7285 187.992 69.2085 184.892 69.2085C181.792 69.2085 179.272 71.7285 179.272 74.8385Z" fill="#9770FF"/>
<path d="M108.931 116.387C108.931 119.497 111.451 122.017 114.551 122.017C117.651 122.017 120.171 119.497 120.171 116.387C120.171 113.277 117.651 110.757 114.551 110.757C111.451 110.757 108.931 113.277 108.931 116.387Z" fill="#9770FF"/>
<path d="M312.044 57.759V87.6282H341.864C340.504 101.408 328.884 112.177 314.774 112.177C299.734 112.177 287.544 99.9678 287.544 84.8983C287.544 70.7587 298.294 59.129 312.054 57.759H312.044Z" fill="#628DFF"/>
<path d="M317.485 53.649C332.605 54.949 344.655 67.029 345.955 82.169H317.485V53.649Z" fill="#6CD4EE"/>
<path d="M145.752 369.99H306.365C306.805 366.76 309.665 333.611 309.665 333.611L257.094 206.295L226.234 206.125C226.234 206.125 221.813 206.305 215.993 207.075C201.893 208.935 188.643 215.154 178.643 225.284C173.143 230.854 168.123 238.014 166.423 246.513C161.602 270.633 154.912 308.332 145.742 370L145.752 369.99Z" fill="#CAD8FF"/>
<path d="M227.273 216.014C227.273 216.014 212.453 260.993 206.183 299.772C199.913 338.551 198.183 369.99 198.183 369.99H207.833C207.833 369.99 214.943 302.492 219.483 282.123C224.973 257.493 236.243 217.054 236.243 217.054C236.243 217.054 232.383 213.944 227.283 216.024L227.273 216.014Z" fill="#88A8FF"/>
<path d="M106.481 207.065L61.9805 236.824C61.9805 236.824 75.8407 282.413 130.292 294.052C137.632 295.622 145.202 295.902 152.652 294.922C156.722 294.382 157.852 293.852 160.112 293.482C174.342 290.332 186.003 276.523 186.003 276.523L199.823 211.175C199.823 211.175 143.442 238.224 106.471 207.055L106.481 207.065Z" fill="#CAD8FF"/>
<path d="M173.192 239.164C172.932 239.164 172.652 239.154 172.352 239.124C168.632 238.734 162.152 235.554 152.412 222.604C152.122 222.214 152.112 221.674 152.402 221.284C152.692 220.894 153.202 220.724 153.662 220.884C155.852 221.634 175.122 228.364 177.142 234.684C177.522 235.864 177.342 237.014 176.612 238.014C176.562 238.084 176.502 238.144 176.442 238.204C176.312 238.314 175.262 239.174 173.192 239.174V239.164ZM156.562 224.304C164.772 234.434 169.942 236.554 172.392 236.884C173.832 237.074 174.632 236.724 174.902 236.564C175.132 236.184 175.162 235.804 175.022 235.354C173.932 231.964 164.262 227.264 156.572 224.304H156.562Z" fill="#8BABFF"/>
<path d="M115.821 146.936H62.7604C50.7402 146.936 41 156.666 41 168.656V221.624C41 233.624 50.7402 243.344 62.7604 243.344H115.821C127.841 243.344 137.582 233.614 137.582 221.624V168.656C137.582 156.656 127.841 146.936 115.821 146.936Z" fill="#2D6AFF"/>
<path d="M60.8305 186.825L60.7605 187.185C60.6105 188.295 60.5405 189.145 60.5405 189.825V200.295C60.5405 201.625 60.6905 202.585 60.6905 202.585C61.2305 206.905 64.3905 209.475 69.2805 209.475H72.3405C72.5905 209.475 72.8105 209.255 72.8105 209.015V205.975C72.8105 205.725 72.5905 205.515 72.3405 205.515H70.7905H69.8905C66.4105 205.515 64.5305 203.555 64.5305 200.405V189.795C64.5305 186.825 66.5405 184.795 69.8905 184.795H108.621C112.541 184.795 114.021 186.865 114.021 189.825V200.435C114.021 203.185 112.151 205.515 108.621 205.515H83.9205V192.085C83.9205 191.835 83.7005 191.625 83.4505 191.625H80.3505C80.1005 191.625 79.8805 191.845 79.8805 192.085V209.045C79.8805 209.295 80.1005 209.505 80.3505 209.505H109.261C114.151 209.505 117.351 206.935 117.891 202.585C117.891 202.555 118.041 201.625 118.041 200.345V189.845C118.041 188.885 117.971 188.055 117.821 187.235L117.751 186.875C116.951 183.125 113.721 180.805 109.261 180.805H69.2505C64.7905 180.805 61.5905 183.095 60.8005 186.845H60.8405L60.8305 186.825Z" fill="white"/>
<path d="M88.201 142.017C88.201 142.017 91.641 126.397 98.411 132.007C105.181 137.617 105.721 166.576 96.871 168.746C88.021 170.916 88.201 142.027 88.201 142.027V142.017Z" fill="#FFA0A0"/>
<path d="M74.9705 142.387C74.9705 142.387 78.4105 126.767 85.1805 132.377C91.9505 137.987 92.4905 166.946 83.6405 169.116C74.7905 171.286 74.9705 142.397 74.9705 142.397V142.387Z" fill="#FFA0A0"/>
<path d="M63.1406 150.507C62.3506 146.967 62.3506 143.257 63.4806 139.807C64.4806 136.757 66.3306 134.187 69.7106 136.127C76.4606 139.997 81.3006 165.167 73.9106 168.397C68.4306 170.797 64.7006 157.517 63.1406 150.517V150.507Z" fill="#FFA0A0"/>
<path d="M96.0412 169.956C95.2312 169.956 94.4512 169.726 93.7112 169.266C90.9412 167.546 89.3912 162.836 88.5812 159.186C88.4512 158.586 88.8312 157.996 89.4312 157.856C90.0412 157.726 90.6312 158.106 90.7612 158.706C91.7612 163.206 93.2612 166.366 94.8912 167.376C95.4412 167.716 95.9812 167.806 96.6012 167.656C100.391 166.726 102.851 158.336 102.311 148.146C102.281 147.536 102.751 147.006 103.371 146.976C104.001 146.946 104.511 147.416 104.541 148.026C105.051 157.836 102.971 168.376 97.1312 169.806C96.7612 169.896 96.3912 169.946 96.0312 169.946L96.0412 169.956Z" fill="#BC6060"/>
<path d="M82.7307 170.337C81.7307 170.337 80.7807 170.017 79.9407 169.387C75.6807 166.207 74.3407 155.297 73.9707 146.707C73.8707 144.517 74.0607 142.347 74.5307 140.277C74.6707 139.677 75.2607 139.297 75.8607 139.437C76.4607 139.567 76.8407 140.167 76.7007 140.767C76.2807 142.647 76.1107 144.607 76.1907 146.607C76.6807 157.907 78.5307 165.557 81.2707 167.607C81.9207 168.087 82.5807 168.227 83.3807 168.037C84.5107 167.757 85.5207 166.867 86.3907 165.387C89.7907 159.597 89.8307 147.117 87.7307 139.537C87.5707 138.947 87.9107 138.327 88.5107 138.167C89.1007 138.007 89.7207 138.347 89.8807 138.947C92.1407 147.127 92.0507 160.157 88.3207 166.517C87.1407 168.537 85.6607 169.777 83.9207 170.197C83.5207 170.297 83.1307 170.347 82.7407 170.347L82.7307 170.337Z" fill="#BC6060"/>
<path d="M72.7505 169.786C72.0905 169.786 71.4305 169.626 70.8005 169.306C66.6205 167.186 63.8105 158.046 62.1905 150.746C62.0605 150.146 62.4405 149.556 63.0405 149.416C63.6405 149.286 64.2405 149.666 64.3705 150.266C66.4505 159.636 69.2405 166.016 71.8105 167.326C72.4105 167.626 72.9805 167.646 73.6005 167.376C75.1605 166.696 75.8905 164.626 76.2305 163.016C76.3605 162.416 76.9505 162.026 77.5505 162.156C78.1505 162.286 78.5405 162.876 78.4105 163.476C77.7505 166.566 76.4405 168.556 74.4905 169.416C73.9205 169.666 73.3305 169.796 72.7505 169.796V169.786Z" fill="#BC6060"/>
<path d="M155.932 302.993C155.862 302.993 155.792 302.993 155.722 302.973C155.122 302.863 154.722 302.283 154.832 301.673L160.142 273.373C160.252 272.773 160.832 272.373 161.442 272.483C162.042 272.593 162.442 273.173 162.332 273.783L157.022 302.083C156.922 302.623 156.452 302.993 155.922 302.993H155.932Z" fill="#8BABFF"/>
<path d="M257.094 206.295C257.094 206.295 307.284 208.365 335.535 253.953C361.665 296.102 358.495 349.171 312.575 351.821C266.664 354.47 210.133 319.121 210.133 319.121L223.423 265.423L252.474 269.223L257.084 206.305L257.094 206.295Z" fill="#CAD8FF"/>
<path d="M174.892 242.264C178.032 238.744 209.172 256.973 223.392 265.583L213.202 306.742C202.662 303.652 196.032 298.052 196.032 298.052C196.032 298.052 191.602 300.942 188.272 294.282C184.942 287.622 192.482 261.703 192.482 261.703C192.482 261.703 170.802 246.844 174.882 242.264H174.892Z" fill="#FFA0A0"/>
<path d="M192.492 262.813C191.872 262.813 191.382 262.313 191.382 261.703C191.382 261.093 191.882 260.593 192.492 260.593H202.122C202.742 260.593 203.232 261.093 203.232 261.703C203.232 262.313 202.732 262.813 202.122 262.813H192.492Z" fill="#BC6060"/>
<path d="M206.252 304.772C206.172 304.772 206.092 304.772 206.012 304.742C195.202 302.402 193.642 296.222 193.582 295.962C193.442 295.362 193.812 294.762 194.412 294.622C195.002 294.482 195.602 294.852 195.752 295.442C195.812 295.672 197.182 300.552 206.492 302.562C207.092 302.692 207.472 303.282 207.342 303.882C207.232 304.402 206.762 304.762 206.252 304.762V304.772Z" fill="#BC6060"/>
<path d="M304.143 280.763C303.993 280.763 303.843 280.733 303.703 280.673C303.493 280.583 282.063 271.493 251.453 270.233C250.833 270.203 250.363 269.693 250.383 269.073C250.413 268.463 250.913 267.983 251.543 268.003C282.593 269.283 304.373 278.533 304.583 278.623C305.153 278.863 305.413 279.523 305.163 280.083C304.983 280.503 304.573 280.753 304.143 280.753V280.763Z" fill="#8BABFF"/>
<path d="M269.854 271.843C269.604 271.843 269.354 271.843 269.094 271.843C268.574 271.843 268.124 271.483 268.004 270.973C267.894 270.463 268.144 269.943 268.614 269.723C269.584 269.263 292.414 258.533 300.494 262.053C301.574 262.523 302.294 263.513 302.394 264.703C302.504 265.883 301.964 267.033 300.984 267.693C296.894 270.443 286.414 271.843 269.844 271.843H269.854ZM296.294 263.543C290.444 263.543 280.994 266.873 274.474 269.583C291.974 269.263 297.814 267.163 299.754 265.853C300.064 265.643 300.224 265.293 300.194 264.913C300.174 264.733 300.094 264.303 299.614 264.103C298.734 263.723 297.604 263.553 296.294 263.553V263.543Z" fill="#8BABFF"/>
<path d="M307.644 353.072C262.874 353.072 210.103 320.402 209.553 320.062C209.033 319.732 208.873 319.052 209.203 318.532C209.533 318.012 210.223 317.852 210.743 318.182C211.303 318.532 267.514 353.322 312.525 350.712C313.155 350.672 313.665 351.142 313.705 351.762C313.745 352.372 313.275 352.902 312.655 352.942C311.005 353.042 309.325 353.082 307.644 353.082V353.072Z" fill="#8BABFF"/>
<path d="M225.813 206.095C225.813 206.095 225.813 206.135 225.813 206.215C225.853 207.305 226.513 215.395 236.613 213.975C247.253 212.485 256.763 206.495 257.093 206.285H257.113C257.113 206.285 258.883 206.435 259.903 206.565C262.183 206.845 249.873 228.955 246.103 227.735C243.333 226.845 238.393 222.975 234.943 219.965C233.703 218.885 232.653 217.905 231.973 217.225C230.943 216.195 228.613 217.165 226.083 218.565C222.313 220.655 218.093 223.695 217.073 222.475C215.373 220.455 225.823 206.085 225.823 206.085L225.813 206.095Z" fill="#88A8FF"/>
<path d="M225.023 189.325C213.543 190.955 210.273 184.885 210.273 184.885C205.763 177.285 214.113 161.956 219.853 153.006L218.313 150.726C218.313 150.726 207.343 134.757 212.663 127.227C216.993 121.107 224.093 123.697 226.583 124.877C230.233 123.417 233.963 122.177 236.773 121.787C251.064 119.797 257.944 121.307 263.634 125.117C267.834 127.937 269.734 130.857 272.224 134.937C273.174 136.487 274.684 140.207 275.714 141.707L279.424 147.086C286.634 158.186 290.054 174.716 283.864 186.415C279.454 194.725 269.584 198.615 258.254 196.155L225.033 189.325H225.023Z" fill="#1C1E22"/>
<path d="M225.823 206.225L225.983 205.415L228.303 193.665L254.043 189.975L258.363 189.355L257.103 206.305C256.783 206.515 247.273 212.505 236.623 213.995C226.533 215.405 225.873 207.325 225.823 206.235V206.225Z" fill="#FFA0A0"/>
<path d="M254.033 189.985C253.923 190.635 253.613 191.395 253.163 192.255C246.903 203.845 232.053 205.335 225.973 205.425L228.293 193.675L254.033 189.985Z" fill="#BC6060"/>
<path d="M232.193 133.767C228.773 136.067 226.153 139.387 224.443 143.146C220.473 151.926 211.903 173.156 214.883 186.855C218.713 204.495 234.673 202.695 244.313 199.895C253.963 197.095 258.693 191.555 258.693 191.555C258.693 191.555 267.344 195.065 273.724 187.205C280.104 179.345 277.034 169.696 272.114 167.226C267.204 164.766 260.993 168.056 260.993 168.056L266.214 159.366C266.214 159.366 252.003 120.417 232.173 133.777L232.193 133.767Z" fill="#FFA0A0"/>
<path d="M261.524 181.516C261.194 181.516 260.864 181.376 260.634 181.106C260.224 180.616 260.294 179.896 260.784 179.486L269.984 171.846C270.474 171.436 271.194 171.506 271.604 171.996C272.014 172.486 271.944 173.206 271.454 173.616L262.254 181.256C262.034 181.436 261.774 181.526 261.514 181.526L261.524 181.516Z" fill="#BC6060"/>
<path d="M269.994 182.985C269.764 182.985 269.524 182.915 269.324 182.765L263.834 178.815C263.314 178.445 263.204 177.725 263.574 177.215C263.944 176.705 264.664 176.585 265.184 176.955L270.674 180.905C271.194 181.275 271.304 181.995 270.934 182.505C270.704 182.815 270.354 182.985 270.004 182.985H269.994Z" fill="#BC6060"/>
<path d="M240.223 166.636C239.153 166.496 238.463 165.086 238.673 163.476C238.883 161.876 239.923 160.686 240.983 160.836C242.053 160.976 242.743 162.386 242.533 163.986C242.323 165.586 241.283 166.776 240.223 166.636Z" fill="#1C1E22"/>
<path d="M246.183 157.106C245.753 157.106 245.343 156.866 245.143 156.446C245.083 156.316 243.743 153.706 239.893 154.246C239.253 154.336 238.683 153.896 238.593 153.266C238.503 152.636 238.943 152.056 239.573 151.966C244.053 151.346 246.533 153.986 247.223 155.466C247.493 156.046 247.243 156.726 246.663 156.996C246.503 157.066 246.343 157.106 246.183 157.106Z" fill="#1C1E22"/>
<path d="M223.203 164.336C222.133 164.196 221.443 162.786 221.653 161.176C221.863 159.576 222.903 158.386 223.963 158.536C225.033 158.676 225.723 160.086 225.513 161.686C225.303 163.286 224.263 164.476 223.203 164.336Z" fill="#1C1E22"/>
<path d="M228.833 152.326C228.553 152.326 228.273 152.226 228.053 152.016C227.943 151.926 225.733 149.996 222.363 151.926C221.813 152.246 221.113 152.056 220.793 151.506C220.473 150.956 220.663 150.256 221.223 149.936C225.143 147.696 228.433 149.226 229.633 150.346C230.093 150.786 230.113 151.506 229.683 151.966C229.453 152.206 229.153 152.326 228.843 152.326H228.833Z" fill="#1C1E22"/>
<path d="M235.583 187.075C235.243 187.075 234.893 187.035 234.543 186.965C232.803 186.585 231.463 185.345 230.983 183.645L230.943 183.515C230.863 183.215 230.903 182.885 231.063 182.615C231.223 182.345 231.493 182.155 231.803 182.085L239.743 180.325C240.123 180.245 240.523 180.355 240.793 180.625C241.073 180.895 241.193 181.285 241.123 181.665C241.103 181.745 240.713 183.665 239.233 185.395C238.313 186.465 236.973 187.065 235.583 187.065V187.075ZM233.763 184.015C234.093 184.365 234.533 184.615 235.033 184.725C235.953 184.925 236.873 184.625 237.473 183.915C237.713 183.625 237.923 183.335 238.093 183.055L233.753 184.015H233.763Z" fill="#1C1E22"/>
<path d="M225.433 178.766C224.863 178.766 224.373 178.346 224.293 177.776C223.103 169.096 227.783 164.296 227.983 164.096C228.433 163.646 229.163 163.646 229.613 164.096C230.063 164.546 230.063 165.266 229.613 165.716C229.443 165.896 225.543 169.966 226.563 177.466C226.653 178.096 226.203 178.676 225.583 178.756C225.533 178.756 225.473 178.766 225.423 178.766H225.433Z" fill="#1C1E22"/>
<path d="M226.453 139.387C226.453 139.387 230.803 131.257 241.463 138.677C256.293 148.997 246.013 172.846 261.013 168.066C276.013 163.276 270.293 144.207 270.293 144.207C270.293 144.207 237.083 109.948 226.453 139.397V139.387Z" fill="#1C1E22"/>
<path d="M313.134 240.294C312.634 240.294 312.144 240.024 311.884 239.564C300.864 219.714 309.714 209.105 310.094 208.665C312.734 205.965 315.784 204.665 319.254 204.725C319.894 204.735 320.534 204.795 321.164 204.895C321.214 204.695 321.274 204.495 321.344 204.285C322.654 200.115 325.954 196.775 331.174 194.305C330.304 191.825 329.964 189.125 330.654 186.365C332.244 180.025 338.854 174.926 350.314 171.206C351.064 170.966 351.874 171.376 352.114 172.126C352.354 172.876 351.944 173.676 351.194 173.916C340.734 177.305 334.754 181.725 333.424 187.055C332.904 189.135 333.144 191.225 333.804 193.195C333.984 193.125 334.164 193.065 334.344 192.995C334.404 192.975 334.454 192.955 334.514 192.945C335.304 192.775 353.964 188.815 358.604 201.465C359.804 204.735 358.174 208.445 354.974 209.725C352.234 210.815 348.994 210.665 345.344 209.275C342.484 208.185 339.864 206.425 337.574 204.045C335.944 202.355 333.834 199.865 332.314 196.905C327.894 199.015 325.124 201.765 324.074 205.125C324.024 205.275 323.984 205.415 323.944 205.565C330.494 207.765 335.774 213.464 336.044 213.764C340.944 218.594 343.114 222.434 342.654 225.424C342.404 227.044 341.384 228.344 339.714 229.194C337.214 230.464 334.094 230.204 331.584 228.514C329.634 227.204 327.924 225.524 326.494 223.534C323.524 219.374 320.404 213.534 320.734 207.685C320.224 207.605 319.714 207.555 319.214 207.555C316.544 207.515 314.254 208.495 312.214 210.565C311.954 210.875 304.404 220.154 314.404 238.154C314.784 238.844 314.534 239.714 313.844 240.094C313.624 240.214 313.384 240.274 313.154 240.274L313.134 240.294ZM323.564 208.475C323.554 213.644 326.674 218.914 328.804 221.904C330.024 223.624 331.494 225.054 333.154 226.174C334.804 227.284 336.814 227.474 338.394 226.674C339.644 226.034 339.774 225.254 339.814 225.004C339.994 223.884 339.464 221.184 333.974 215.754C333.874 215.644 329.174 210.585 323.564 208.475ZM334.934 195.815C336.294 198.375 338.174 200.585 339.624 202.075C341.634 204.145 343.894 205.675 346.364 206.615C349.314 207.745 351.854 207.905 353.904 207.075C355.654 206.375 356.584 204.255 355.914 202.435C352.264 192.485 336.494 195.445 335.204 195.695C335.114 195.725 335.024 195.765 334.934 195.795V195.815Z" fill="#F82B5C"/>
</g>
</g>
<defs>
<clipPath id="clip0_1325_5202">
<rect width="400" height="400" fill="white"/>
</clipPath>
<clipPath id="clip1_1325_5202">
<rect width="400" height="400" fill="white"/>
</clipPath>
</defs>
</svg>
