<svg width="400" height="400" viewBox="0 0 400 400" fill="none" xmlns="http://www.w3.org/2000/svg">
<g clip-path="url(#clip0_1325_5201)">
<g clip-path="url(#clip1_1325_5201)">
<path d="M196.032 254.862C254.394 254.862 301.705 207.597 301.705 149.292C301.705 90.9873 254.394 43.722 196.032 43.722C137.67 43.722 90.3589 90.9873 90.3589 149.292C90.3589 207.597 137.67 254.862 196.032 254.862Z" fill="#EAEAEF"/>
<mask id="mask0_1325_5201" style="mask-type:luminance" maskUnits="userSpaceOnUse" x="89" y="43" width="212" height="212">
<path d="M195.122 254.862C253.484 254.862 300.795 207.597 300.795 149.292C300.795 90.9873 253.484 43.722 195.122 43.722C136.76 43.722 89.4487 90.9873 89.4487 149.292C89.4487 207.597 136.76 254.862 195.122 254.862Z" fill="white"/>
</mask>
<g mask="url(#mask0_1325_5201)">
<path d="M262.853 258.772C255 258.772 248.008 257.352 241.876 254.502C222.82 245.652 219.319 226.462 218.789 222.402C217.759 218.472 217.519 213.782 218.059 208.362L131.141 237.012C130.981 237.062 130.821 237.112 130.661 237.152C110.305 242.292 93.8297 240.692 83.0263 232.542C77.3546 228.262 70.4924 219.932 70.0022 204.562C69.0019 173.012 95.1601 134.682 147.727 90.622C186.009 58.532 225.121 34.832 225.511 34.602C228.812 32.612 233.103 33.672 235.084 36.982C237.075 40.282 236.014 44.572 232.713 46.572C232.333 46.802 194.021 70.022 156.559 101.442C108.214 141.992 83.1064 177.502 83.9466 204.132C84.1967 212.042 86.7075 217.852 91.419 221.402C98.5912 226.812 111.225 227.622 127 223.682L221.23 192.612C221.54 191.522 221.87 190.422 222.23 189.292C226.141 176.832 232.393 162.832 240.306 148.822C246.948 137.052 270.575 97.862 295.733 87.672C309.447 82.112 321.361 86.552 328.433 99.852C334.085 110.482 334.825 121.582 330.624 132.832C316.16 171.582 245.397 199.182 242.396 200.342C242.286 200.382 242.186 200.422 242.076 200.452L232.923 203.472C231.553 210.052 231.303 215.472 232.363 219.142C232.483 219.572 232.573 220.022 232.613 220.462C232.673 221.042 234.294 235.692 247.908 241.912C262.903 248.762 294.783 247.032 361.464 199.912C364.615 197.692 368.966 198.442 371.187 201.592C373.408 204.742 372.657 209.102 369.506 211.322C324.822 242.892 289.081 258.772 262.853 258.772ZM306.777 99.282C305.056 99.282 303.145 99.732 300.985 100.612C287.26 106.172 268.214 127.792 252.48 155.692C246.328 166.602 241.296 177.442 237.735 187.172C240.246 186.182 256.351 179.672 273.576 169.572C297.404 155.602 312.618 141.202 317.56 127.942C320.331 120.502 319.861 113.462 316.119 106.412C313.549 101.582 310.658 99.292 306.777 99.292V99.282Z" fill="white"/>
</g>
<path d="M310.358 63.272L268.455 28.892C267.074 27.752 267.725 25.522 269.495 25.302L320.651 20.012C322.042 19.862 323.152 21.142 322.832 22.492L313.599 62.252C313.199 63.662 311.488 64.202 310.358 63.272Z" fill="#EAEAEF"/>
<path d="M279.098 56.072L280.089 38.442L319.561 22.202L279.088 56.072H279.098Z" fill="#D2D2DD"/>
<path d="M83.9069 110.262C81.6562 110.262 79.9957 109.632 78.9653 108.382C78.2351 107.502 77.865 106.372 77.855 105.002C77.855 104.352 78.3751 103.812 79.0354 103.812C79.6856 103.812 80.2157 104.332 80.2157 104.992C80.2157 105.792 80.4158 106.422 80.7759 106.872C81.3361 107.552 82.3864 107.892 83.8969 107.892H84.177C84.8572 107.892 85.3773 108.382 85.3973 109.042C85.4174 109.692 84.8972 110.242 84.247 110.262H83.8969H83.9069ZM91.5693 108.632C91.0791 108.632 90.619 108.322 90.4489 107.842C90.2289 107.222 90.559 106.552 91.1792 106.332C93.2398 105.612 95.5405 104.642 98.0213 103.452C98.6115 103.172 99.3217 103.422 99.6018 104.012C99.8819 104.602 99.6318 105.312 99.0516 105.592C96.4908 106.822 94.1101 107.822 91.9694 108.572C91.8394 108.622 91.7093 108.642 91.5793 108.642L91.5693 108.632ZM105.234 102.192C104.823 102.192 104.413 101.972 104.203 101.592C103.883 101.022 104.083 100.302 104.653 99.982C106.724 98.822 108.895 97.532 111.105 96.152C111.666 95.802 112.386 95.972 112.736 96.532C113.086 97.092 112.916 97.822 112.356 98.162C110.115 99.562 107.914 100.872 105.804 102.052C105.624 102.152 105.424 102.202 105.224 102.202L105.234 102.192ZM81.2861 99.042C81.106 99.042 80.9159 99.002 80.7459 98.912C80.1657 98.612 79.9356 97.892 80.2457 97.312C81.2761 95.332 82.6465 93.122 84.307 90.752C84.6871 90.212 85.4274 90.092 85.9575 90.462C86.4877 90.842 86.6177 91.582 86.2476 92.112C84.6371 94.392 83.3267 96.512 82.3464 98.402C82.1363 98.812 81.7262 99.042 81.2961 99.042H81.2861ZM118.068 94.212C117.687 94.212 117.317 94.032 117.087 93.692C116.717 93.152 116.867 92.412 117.407 92.052C119.438 90.682 121.519 89.232 123.579 87.742C124.109 87.362 124.85 87.482 125.23 88.012C125.61 88.542 125.49 89.282 124.96 89.662C122.879 91.162 120.778 92.622 118.728 94.012C118.528 94.152 118.298 94.212 118.068 94.212ZM89.8487 86.602C89.5887 86.602 89.3186 86.512 89.0985 86.332C88.5884 85.922 88.5183 85.172 88.9285 84.662C90.4489 82.802 92.1195 80.862 93.9 78.882C94.3402 78.402 95.0904 78.362 95.5705 78.792C96.0507 79.232 96.0907 79.982 95.6606 80.462C93.9 82.412 92.2595 84.322 90.769 86.152C90.539 86.442 90.1989 86.592 89.8487 86.592V86.602ZM130.331 85.372C129.971 85.372 129.621 85.212 129.391 84.902C128.991 84.382 129.091 83.642 129.611 83.242C131.582 81.732 133.582 80.172 135.533 78.592C136.043 78.182 136.783 78.262 137.194 78.772C137.604 79.282 137.524 80.032 137.014 80.442C135.043 82.032 133.032 83.602 131.042 85.132C130.832 85.292 130.572 85.372 130.321 85.372H130.331ZM142.105 75.892C141.765 75.892 141.435 75.752 141.205 75.472C140.785 74.972 140.845 74.222 141.345 73.802C143.266 72.172 145.176 70.512 147.027 68.862C147.517 68.422 148.267 68.472 148.697 68.962C149.127 69.452 149.087 70.202 148.597 70.632C146.727 72.302 144.806 73.972 142.865 75.612C142.645 75.802 142.375 75.892 142.105 75.892ZM99.9519 75.352C99.6518 75.352 99.3517 75.242 99.1217 75.012C98.6515 74.552 98.6415 73.802 99.1017 73.342C100.822 71.572 102.633 69.772 104.493 67.982C104.963 67.532 105.714 67.542 106.164 68.012C106.614 68.482 106.604 69.232 106.134 69.682C104.293 71.452 102.503 73.242 100.802 74.982C100.572 75.222 100.262 75.342 99.9519 75.342V75.352ZM153.389 65.822C153.079 65.822 152.758 65.702 152.528 65.452C152.078 64.972 152.098 64.222 152.578 63.782C154.439 62.032 156.26 60.262 157.98 58.542C158.44 58.082 159.191 58.082 159.651 58.542C160.111 59.002 160.111 59.752 159.651 60.212C157.91 61.952 156.08 63.732 154.199 65.502C153.969 65.722 153.679 65.822 153.389 65.822ZM110.835 64.852C110.515 64.852 110.195 64.722 109.955 64.462C109.515 63.982 109.555 63.232 110.035 62.792C111.886 61.112 113.796 59.412 115.717 57.752C116.207 57.322 116.957 57.382 117.387 57.872C117.818 58.372 117.758 59.112 117.267 59.542C115.357 61.192 113.466 62.872 111.636 64.532C111.406 64.742 111.125 64.842 110.835 64.842V64.852ZM164.062 55.112C163.772 55.112 163.482 55.012 163.252 54.792C162.772 54.342 162.752 53.592 163.192 53.122C164.962 51.222 166.643 49.332 168.193 47.512C168.613 47.012 169.364 46.952 169.864 47.382C170.364 47.802 170.424 48.552 169.994 49.052C168.423 50.892 166.723 52.802 164.922 54.732C164.692 54.982 164.372 55.112 164.052 55.112H164.062ZM122.279 54.972C121.939 54.972 121.599 54.822 121.359 54.542C120.949 54.032 121.019 53.292 121.519 52.872C123.479 51.262 125.47 49.672 127.451 48.132C127.971 47.732 128.711 47.822 129.111 48.342C129.511 48.862 129.421 49.602 128.901 50.002C126.94 51.532 124.96 53.112 123.019 54.702C122.799 54.882 122.529 54.972 122.269 54.972H122.279ZM134.213 45.682C133.853 45.682 133.492 45.512 133.262 45.202C132.872 44.672 132.992 43.932 133.512 43.542C135.573 42.022 137.654 40.532 139.694 39.122C140.235 38.752 140.965 38.882 141.345 39.422C141.715 39.962 141.585 40.702 141.045 41.072C139.024 42.472 136.964 43.942 134.923 45.452C134.713 45.612 134.463 45.682 134.223 45.682H134.213ZM173.825 43.572C173.575 43.572 173.325 43.492 173.115 43.332C172.595 42.942 172.485 42.192 172.875 41.672C174.515 39.482 175.926 37.412 177.066 35.522C177.406 34.962 178.126 34.782 178.687 35.122C179.247 35.462 179.427 36.192 179.087 36.752C177.906 38.712 176.456 40.842 174.765 43.102C174.535 43.412 174.175 43.572 173.815 43.572H173.825ZM146.647 37.092C146.256 37.092 145.876 36.902 145.646 36.552C145.296 36.002 145.456 35.272 146.006 34.912C148.217 33.492 150.398 32.152 152.488 30.922C153.049 30.592 153.779 30.782 154.109 31.342C154.439 31.902 154.249 32.632 153.689 32.962C151.628 34.172 149.477 35.492 147.297 36.902C147.097 37.032 146.877 37.092 146.657 37.092H146.647ZM181.287 30.502C181.177 30.502 181.067 30.492 180.957 30.452C180.327 30.272 179.967 29.612 180.147 28.982C180.407 28.082 180.537 27.272 180.537 26.592C180.537 25.772 180.347 25.132 179.977 24.672C179.107 23.622 176.996 23.372 173.985 23.972C173.335 24.102 172.725 23.682 172.595 23.042C172.465 22.402 172.885 21.772 173.525 21.652C177.526 20.852 180.307 21.372 181.798 23.162C182.538 24.052 182.908 25.202 182.908 26.592C182.908 27.502 182.748 28.522 182.428 29.642C182.278 30.162 181.808 30.502 181.287 30.502ZM159.701 29.482C159.271 29.482 158.86 29.252 158.65 28.842C158.35 28.262 158.58 27.542 159.16 27.242C161.631 25.972 163.962 24.882 166.113 24.012C166.723 23.762 167.413 24.052 167.653 24.662C167.903 25.272 167.613 25.962 167.003 26.202C164.922 27.052 162.652 28.112 160.241 29.342C160.071 29.432 159.881 29.472 159.701 29.472V29.482Z" fill="#A6B2C4"/>
<path d="M23.968 250.382C22.4775 250.382 21.027 250.092 19.6566 249.532C19.0564 249.282 18.7663 248.592 19.0064 247.982C19.2565 247.382 19.9467 247.092 20.5469 247.332C21.9473 247.902 23.4278 248.122 24.9683 247.952C25.7085 247.872 26.4888 247.752 27.299 247.592C27.9392 247.472 28.5594 247.882 28.6894 248.532C28.8195 249.172 28.3994 249.792 27.7592 249.922C26.8889 250.092 26.0386 250.222 25.2384 250.312C24.8182 250.362 24.3981 250.382 23.978 250.382H23.968ZM34.7814 247.872C34.2912 247.872 33.8411 247.572 33.671 247.092C33.4509 246.472 33.771 245.802 34.3812 245.572C36.5119 244.802 38.8426 243.852 41.2934 242.732C41.8836 242.462 42.5938 242.732 42.8639 243.322C43.134 243.922 42.8639 244.622 42.2737 244.892C39.7629 246.032 37.3822 247.012 35.1815 247.802C35.0514 247.852 34.9114 247.872 34.7814 247.872ZM14.6951 244.572C14.2549 244.572 13.8348 244.332 13.6347 243.912C12.8545 242.342 12.4644 240.662 12.4644 238.922C12.4644 238.352 12.5044 237.772 12.5944 237.202C12.6644 236.742 12.7444 236.272 12.8445 235.782C12.9745 235.142 13.5947 234.732 14.2449 234.862C14.8851 234.992 15.2952 235.622 15.1652 236.262C15.0752 236.712 14.9952 237.152 14.9351 237.572C14.8651 238.022 14.8351 238.482 14.8351 238.932C14.8351 240.302 15.1452 241.632 15.7554 242.872C16.0455 243.462 15.8054 244.172 15.2152 244.462C15.0452 244.542 14.8651 244.582 14.6951 244.582V244.572ZM48.5857 241.672C48.1556 241.672 47.7454 241.442 47.5354 241.032C47.2353 240.452 47.4553 239.732 48.0355 239.432C50.1362 238.342 52.3669 237.132 54.6476 235.832C55.2178 235.512 55.938 235.712 56.2581 236.282C56.5782 236.852 56.3781 237.572 55.808 237.892C53.4972 239.202 51.2465 240.432 49.1159 241.532C48.9458 241.622 48.7557 241.662 48.5757 241.662L48.5857 241.672ZM61.7698 234.222C61.3697 234.222 60.9796 234.022 60.7595 233.652C60.4194 233.092 60.5995 232.362 61.1596 232.022C63.2203 230.772 65.381 229.432 67.5817 228.042C68.1318 227.692 68.8621 227.852 69.2122 228.412C69.5623 228.962 69.4022 229.692 68.8421 230.042C66.6314 231.442 64.4607 232.792 62.38 234.042C62.19 234.162 61.9799 234.212 61.7698 234.212V234.222ZM16.2756 230.012C16.1255 230.012 15.9755 229.982 15.8254 229.922C15.2252 229.672 14.9351 228.982 15.1852 228.372C16.0855 226.182 17.2158 223.852 18.5463 221.462C18.8664 220.892 19.5866 220.682 20.1568 221.002C20.7269 221.322 20.937 222.042 20.6169 222.612C19.3365 224.932 18.2462 227.172 17.3759 229.282C17.1858 229.742 16.7457 230.012 16.2856 230.012H16.2756ZM74.5638 226.122C74.1837 226.122 73.8036 225.932 73.5735 225.592C73.2134 225.042 73.3635 224.312 73.9136 223.952C75.9743 222.592 78.0649 221.192 80.1956 219.742C80.7358 219.372 81.476 219.512 81.8361 220.052C82.2062 220.592 82.0662 221.332 81.526 221.702C79.3954 223.152 77.2947 224.562 75.2241 225.922C75.024 226.052 74.7939 226.122 74.5739 226.122H74.5638ZM87.0878 217.612C86.7177 217.612 86.3475 217.432 86.1175 217.102C85.7474 216.562 85.8774 215.832 86.4076 215.452C88.4482 214.032 90.4988 212.572 92.5795 211.092C93.1097 210.712 93.8499 210.832 94.23 211.372C94.6101 211.902 94.4901 212.642 93.9499 213.022C91.8693 214.512 89.7986 215.972 87.758 217.402C87.5479 217.542 87.3178 217.612 87.0778 217.612H87.0878ZM23.4978 216.772C23.2777 216.772 23.0477 216.712 22.8476 216.572C22.2974 216.212 22.1474 215.482 22.5075 214.932C23.8379 212.922 25.3084 210.822 26.8889 208.692C27.279 208.172 28.0192 208.052 28.5494 208.452C29.0696 208.842 29.1796 209.582 28.7895 210.112C27.239 212.202 25.7885 214.262 24.4881 216.242C24.2581 216.592 23.8879 216.772 23.4978 216.772ZM99.4116 208.812C99.0415 208.812 98.6814 208.642 98.4513 208.322C98.0712 207.792 98.1813 207.052 98.7114 206.672C100.722 205.202 102.763 203.712 104.803 202.192C105.334 201.802 106.074 201.912 106.464 202.442C106.854 202.972 106.744 203.712 106.214 204.102C104.163 205.622 102.132 207.122 100.102 208.592C99.8918 208.742 99.6517 208.822 99.4016 208.822L99.4116 208.812ZM32.4806 204.622C32.2206 204.622 31.9505 204.532 31.7304 204.352C31.2202 203.942 31.1502 203.192 31.5604 202.682C33.0908 200.792 34.7413 198.842 36.4519 196.872C36.882 196.382 37.6323 196.332 38.1224 196.762C38.6126 197.192 38.6626 197.942 38.2324 198.432C36.5319 200.382 34.9114 202.312 33.3909 204.182C33.1609 204.472 32.8107 204.622 32.4706 204.622H32.4806ZM111.575 199.792C111.215 199.792 110.865 199.632 110.625 199.322C110.235 198.802 110.335 198.052 110.855 197.662C112.856 196.152 114.866 194.632 116.877 193.092C117.397 192.692 118.138 192.792 118.538 193.312C118.938 193.832 118.838 194.572 118.318 194.972C116.297 196.512 114.286 198.042 112.276 199.552C112.066 199.712 111.816 199.792 111.565 199.792H111.575ZM42.4038 193.222C42.1137 193.222 41.8236 193.122 41.6035 192.912C41.1234 192.472 41.0933 191.722 41.5335 191.242C43.194 189.452 44.9445 187.592 46.7451 185.732C47.2053 185.262 47.9455 185.252 48.4156 185.702C48.8858 186.162 48.8958 186.912 48.4457 187.372C46.6551 189.222 44.9145 191.062 43.274 192.842C43.044 193.092 42.7239 193.222 42.4038 193.222ZM123.609 190.602C123.259 190.602 122.909 190.442 122.669 190.142C122.269 189.622 122.369 188.882 122.879 188.482C124.86 186.942 126.85 185.392 128.851 183.832C129.371 183.432 130.111 183.522 130.511 184.032C130.912 184.552 130.822 185.292 130.311 185.692C128.311 187.252 126.32 188.812 124.329 190.352C124.109 190.522 123.859 190.602 123.609 190.602ZM52.9171 182.362C52.617 182.362 52.3069 182.242 52.0768 182.012C51.6166 181.552 51.6166 180.802 52.0768 180.332C53.0671 179.352 54.0774 178.362 55.1177 177.352C55.5879 176.902 56.3381 176.912 56.7883 177.382C57.2384 177.852 57.2284 178.602 56.7583 179.052C55.7279 180.052 54.7176 181.032 53.7373 182.012C53.5072 182.242 53.2071 182.352 52.9071 182.352L52.9171 182.362ZM135.533 181.272C135.183 181.272 134.833 181.122 134.603 180.822C134.193 180.312 134.283 179.562 134.793 179.162C136.763 177.602 138.744 176.032 140.715 174.452C141.225 174.042 141.975 174.132 142.375 174.642C142.785 175.152 142.695 175.902 142.185 176.312C140.204 177.892 138.234 179.462 136.253 181.032C136.033 181.202 135.773 181.292 135.523 181.292L135.533 181.272ZM147.357 171.822C147.007 171.822 146.666 171.672 146.436 171.382C146.026 170.872 146.106 170.132 146.616 169.712C148.587 168.122 150.558 166.532 152.518 164.932C153.028 164.522 153.769 164.592 154.179 165.102C154.589 165.612 154.519 166.352 154.009 166.772C152.038 168.372 150.078 169.972 148.097 171.562C147.877 171.742 147.617 171.822 147.357 171.822ZM159.13 162.242C158.79 162.242 158.45 162.092 158.21 161.812C157.8 161.302 157.87 160.562 158.38 160.142C160.331 158.542 162.271 156.942 164.212 155.342C164.712 154.922 165.462 155.002 165.883 155.502C166.303 156.002 166.223 156.752 165.722 157.172C163.782 158.772 161.841 160.372 159.881 161.972C159.661 162.152 159.39 162.242 159.13 162.242ZM170.794 152.612C170.454 152.612 170.114 152.462 169.884 152.182C169.464 151.682 169.534 150.932 170.034 150.512C171.984 148.892 173.915 147.272 175.846 145.662C176.346 145.242 177.096 145.312 177.516 145.812C177.936 146.312 177.866 147.062 177.366 147.482C175.436 149.092 173.495 150.712 171.554 152.332C171.334 152.512 171.064 152.602 170.794 152.602V152.612ZM182.408 142.892C182.068 142.892 181.737 142.752 181.497 142.472C181.077 141.972 181.137 141.222 181.637 140.802C183.578 139.162 185.509 137.532 187.419 135.912C187.919 135.492 188.66 135.552 189.09 136.052C189.52 136.552 189.45 137.302 188.95 137.722C187.039 139.342 185.109 140.972 183.168 142.612C182.948 142.802 182.678 142.892 182.408 142.892ZM193.961 133.102C193.631 133.102 193.291 132.962 193.061 132.682C192.641 132.182 192.701 131.432 193.191 131.012C195.132 129.362 197.042 127.722 198.943 126.092C199.443 125.662 200.183 125.722 200.613 126.222C201.044 126.722 200.984 127.462 200.483 127.892C198.583 129.522 196.672 131.162 194.732 132.822C194.511 133.012 194.231 133.102 193.961 133.102ZM205.455 123.242C205.125 123.242 204.795 123.102 204.555 122.832C204.125 122.332 204.185 121.592 204.675 121.162C206.615 119.492 208.526 117.842 210.396 116.212C210.887 115.782 211.637 115.842 212.067 116.332C212.497 116.822 212.437 117.572 211.947 118.002C210.066 119.632 208.156 121.282 206.215 122.962C205.995 123.152 205.715 123.252 205.445 123.252L205.455 123.242ZM216.899 113.322C216.568 113.322 216.238 113.182 216.008 112.912C215.578 112.422 215.628 111.672 216.128 111.242C218.069 109.552 219.969 107.892 221.83 106.262C222.32 105.832 223.07 105.882 223.501 106.372C223.931 106.862 223.881 107.612 223.391 108.042C221.53 109.672 219.619 111.332 217.689 113.032C217.469 113.232 217.189 113.322 216.909 113.322H216.899ZM228.292 103.342C227.962 103.342 227.642 103.202 227.402 102.942C226.972 102.452 227.022 101.702 227.512 101.272C229.462 99.562 231.353 97.882 233.194 96.262C233.684 95.832 234.434 95.872 234.864 96.362C235.294 96.852 235.254 97.602 234.764 98.032C232.924 99.662 231.033 101.332 229.082 103.052C228.862 103.252 228.582 103.342 228.302 103.342H228.292ZM239.646 93.302C239.316 93.302 238.995 93.172 238.765 92.902C238.335 92.412 238.375 91.662 238.865 91.232C240.836 89.482 242.727 87.792 244.527 86.192C245.017 85.762 245.758 85.802 246.198 86.282C246.638 86.772 246.588 87.522 246.108 87.952C244.307 89.562 242.417 91.242 240.446 93.002C240.216 93.202 239.936 93.302 239.656 93.302H239.646ZM250.959 83.192C250.639 83.192 250.309 83.062 250.079 82.802C249.639 82.312 249.679 81.562 250.169 81.132C252.21 79.292 254.1 77.592 255.811 76.052C256.291 75.612 257.041 75.652 257.481 76.142C257.921 76.632 257.881 77.372 257.401 77.812C255.691 79.362 253.8 81.062 251.759 82.892C251.529 83.092 251.249 83.192 250.969 83.192H250.959ZM262.243 73.002C261.923 73.002 261.603 72.872 261.362 72.612C260.922 72.132 260.962 71.382 261.443 70.942C265.094 67.622 267.094 65.782 267.094 65.782C267.574 65.342 268.325 65.372 268.765 65.852C269.205 66.332 269.175 67.082 268.695 67.522C268.695 67.522 266.694 69.372 263.033 72.692C262.803 72.902 262.523 73.002 262.233 73.002H262.243Z" fill="#A6B2C4"/>
<path d="M46.0151 126.342C46.0151 126.342 63.4906 167.132 75.3343 164.492C87.1681 161.842 93.48 153.462 93.48 153.462C93.48 153.462 107.644 121.602 93.1999 117.792C75.5644 113.142 46.0251 126.342 46.0251 126.342H46.0151Z" fill="#FFA3A3"/>
<path d="M72.3866 142.456C100.877 138.366 120.661 111.974 116.574 83.5083C112.487 55.0425 86.0778 35.2823 57.5871 39.3727C29.0963 43.463 9.31298 69.855 13.3997 98.3208C17.4865 126.787 43.8958 146.547 72.3866 142.456Z" fill="#46464C"/>
<path d="M61.7603 56.9719C82.1967 54.6219 100.732 68.6719 104.204 88.6619C104.164 87.9219 104.104 87.1719 104.014 86.4219C101.583 65.2519 82.4267 50.0719 61.2401 52.5019C40.0534 54.9319 24.8487 74.0719 27.2894 95.2419C27.3795 95.9919 27.4895 96.7319 27.6195 97.4619C26.4592 77.2019 41.3238 59.3119 61.7603 56.9619V56.9719Z" fill="#1C1E22"/>
<path d="M66.1814 101.302L79.1755 92.1219L62.6703 70.7319L51.4468 95.3119L66.1814 101.302Z" fill="white"/>
<path d="M67.9217 116.462L79.5453 95.3519L66.6113 105.122L51.8066 98.5419L67.9117 116.462H67.9217Z" fill="white"/>
<path d="M98.7416 137.072C98.7416 137.072 100.632 126.092 98.4415 122.202C96.2508 118.312 85.7475 111.522 82.4665 113.792C79.1854 116.062 86.4277 124.542 86.4277 124.542C86.4277 124.542 79.4755 132.612 79.0154 141.752C78.5452 150.902 89.7288 153.082 89.7288 153.082L98.7416 137.082V137.072Z" fill="#FFA3A3"/>
<path d="M78.3053 152.042C77.8652 152.042 77.455 151.782 77.275 151.352C75.3744 146.612 79.7557 133.902 80.2559 132.462C80.456 131.882 81.0862 131.582 81.6663 131.782C82.2465 131.982 82.5466 132.622 82.3466 133.192C81.0461 136.872 77.9852 147.152 79.3256 150.512C79.5557 151.082 79.2756 151.722 78.7154 151.952C78.5754 152.002 78.4353 152.032 78.3053 152.032V152.042Z" fill="#BC6060"/>
<path d="M121.029 265.142C121.029 265.142 99.402 259.852 77.375 236.752C51.0268 209.112 49.7964 154.512 49.7964 154.512L104.724 147.082C104.724 147.082 110.195 161.192 114.527 169.272C118.858 177.352 133.833 192.062 162.322 199.612C189.95 206.942 190.661 205.752 190.661 205.752L121.019 265.142H121.029Z" fill="#CAD8FF"/>
<path d="M357.943 170.222C357.943 170.222 342.238 211.722 330.294 209.592C318.361 207.452 311.688 199.352 311.688 199.352C311.688 199.352 296.174 168.132 310.428 163.702C327.854 158.302 357.933 170.222 357.933 170.222H357.943Z" fill="#FFA3A3"/>
<path d="M389.359 140.28C391.921 111.637 370.757 86.3384 342.088 83.7748C313.419 81.2111 288.102 102.353 285.541 130.996C282.98 159.639 304.144 184.938 332.812 187.501C361.481 190.065 386.798 168.923 389.359 140.28Z" fill="#FF2F00"/>
<path d="M339.897 101.642C360.414 103.112 376.029 120.342 375.749 140.632C375.849 139.892 375.929 139.152 375.979 138.392C377.499 117.142 361.494 98.672 340.217 97.152C318.941 95.632 300.465 111.622 298.945 132.872C298.895 133.622 298.864 134.372 298.854 135.122C301.465 114.992 319.381 100.162 339.897 101.632V101.642Z" fill="#1C1E22"/>
<path d="M351.991 123.392C348.49 120.022 344.079 118.062 339.507 117.572L326.653 145.322L351.991 123.392Z" fill="white"/>
<path d="M354.492 126.282L339.938 138.872L352.541 153.412C359.664 146.042 360.484 134.592 354.482 126.282H354.492Z" fill="white"/>
<path d="M333.955 120.452L316.18 135.842C315.48 141.012 316.68 146.402 319.851 150.902L333.955 120.452Z" fill="white"/>
<path d="M337.046 141.382L322.492 153.972C329.864 161.082 341.338 161.902 349.65 155.912L337.046 141.372V141.382Z" fill="white"/>
<path d="M305.727 183.202C305.727 183.202 303.366 172.312 305.386 168.332C307.407 164.342 317.61 157.122 320.981 159.242C324.352 161.372 317.49 170.152 317.49 170.152C317.49 170.152 324.783 177.912 325.633 187.022C326.493 196.142 315.42 198.802 315.42 198.802L305.727 183.202Z" fill="#FFA3A3"/>
<path d="M326.743 197.282C326.623 197.282 326.493 197.262 326.373 197.222C325.793 197.022 325.493 196.382 325.693 195.812C326.893 192.392 323.382 182.252 321.932 178.632C321.702 178.062 321.982 177.422 322.542 177.192C323.112 176.962 323.752 177.242 323.982 177.802C324.553 179.212 329.474 191.732 327.774 196.542C327.614 197.002 327.183 197.282 326.733 197.282H326.743Z" fill="#BC6060"/>
<path d="M202.674 205.412C202.674 205.412 199.863 203.802 228.052 208.542C256.231 213.282 276.637 203.602 283.609 197.652C290.581 191.702 300.815 180.542 300.815 180.542L349.28 207.432C349.28 207.432 328.283 257.862 293.682 274.022C264.763 287.532 242.696 284.602 242.696 284.602L202.674 205.412Z" fill="#CAD8FF"/>
<path d="M99.272 370.002H272.326C272.766 366.772 252 225.232 252 225.232L210.947 205.982L179.997 205.812C179.997 205.812 175.556 205.992 169.724 206.762C155.59 208.632 142.295 214.862 132.262 225.002C126.741 230.582 121.709 237.752 120.008 246.272C115.177 270.442 108.465 308.212 99.272 370.002Z" fill="#CAD8FF"/>
<path d="M180.468 215.432C180.468 215.432 167.064 260.952 162.022 299.992C156.99 339.032 156.28 370.002 156.28 370.002H165.933C165.933 370.002 170.885 302.432 174.776 281.892C179.488 257.042 189.481 216.182 189.481 216.182C189.481 216.182 185.509 213.182 180.468 215.432Z" fill="#88A8FF"/>
<path d="M179.567 205.772C179.567 205.772 179.567 205.822 179.567 205.892C179.607 206.982 180.278 215.082 190.401 213.672C201.074 212.182 210.607 206.172 210.937 205.972H210.957C210.957 205.972 212.728 206.122 213.748 206.252C216.039 206.532 203.685 228.682 199.914 227.462C197.133 226.562 192.181 222.692 188.72 219.682C187.47 218.592 186.42 217.622 185.739 216.942C184.709 215.912 182.378 216.882 179.837 218.292C176.056 220.382 171.825 223.432 170.795 222.212C169.084 220.192 179.567 205.792 179.567 205.792V205.772Z" fill="#88A8FF"/>
<path d="M179.497 186.842C168.343 188.432 165.162 182.532 165.162 182.532C160.781 175.152 168.894 160.272 174.475 151.582L172.985 149.362C172.985 149.362 162.331 133.852 167.503 126.542C171.714 120.602 178.607 123.112 181.027 124.262C184.578 122.842 188.2 121.642 190.93 121.262C204.825 119.332 211.497 120.802 217.029 124.492C221.11 127.222 222.961 130.062 225.371 134.032C226.292 135.542 227.762 139.152 228.762 140.602L232.363 145.822C239.376 156.602 242.697 172.652 236.675 184.002C232.393 192.062 222.8 195.842 211.787 193.462L179.507 186.822L179.497 186.842Z" fill="#1C1E22"/>
<path d="M179.577 205.902L179.737 205.092L182.057 193.322L207.876 189.622L212.207 189.002L210.947 205.982C210.626 206.192 201.083 212.192 190.41 213.682C180.287 215.092 179.627 206.992 179.577 205.902Z" fill="#FFA0A0"/>
<path d="M207.876 189.632C207.766 190.282 207.456 191.042 207.005 191.902C200.733 203.512 185.829 205.002 179.737 205.102L182.058 193.332L207.876 189.632Z" fill="#BC6060"/>
<path d="M186.459 132.902C183.138 135.132 180.587 138.352 178.926 142.012C175.075 150.542 166.733 171.152 169.633 184.452C173.355 201.582 188.859 199.822 198.232 197.112C207.605 194.392 212.197 189.012 212.197 189.012C212.197 189.012 220.599 192.422 226.801 184.792C233.003 177.162 230.022 167.792 225.241 165.392C220.469 163.012 214.438 166.202 214.438 166.202L219.509 157.762C219.509 157.762 205.695 119.952 186.439 132.912L186.459 132.902Z" fill="#FFA0A0"/>
<path d="M214.958 179.252C214.637 179.252 214.327 179.112 214.107 178.852C213.717 178.382 213.787 177.682 214.257 177.292L223.2 169.872C223.67 169.482 224.371 169.552 224.761 170.022C225.151 170.492 225.081 171.192 224.611 171.582L215.668 179.002C215.458 179.172 215.208 179.252 214.958 179.252Z" fill="#BC6060"/>
<path d="M223.19 180.682C222.97 180.682 222.74 180.612 222.539 180.472L217.208 176.632C216.708 176.272 216.598 175.582 216.958 175.082C217.318 174.582 218.008 174.472 218.508 174.832L223.84 178.672C224.34 179.032 224.45 179.722 224.09 180.222C223.87 180.522 223.53 180.682 223.19 180.682Z" fill="#BC6060"/>
<path d="M194.261 164.802C193.221 164.662 192.551 163.292 192.751 161.742C192.961 160.192 193.961 159.042 195.001 159.172C196.042 159.312 196.712 160.682 196.512 162.232C196.302 163.782 195.301 164.932 194.261 164.802Z" fill="#1C1E22"/>
<path d="M200.053 155.552C199.643 155.552 199.242 155.322 199.052 154.922C198.992 154.792 197.682 152.252 193.941 152.782C193.321 152.862 192.77 152.442 192.69 151.842C192.61 151.232 193.031 150.672 193.631 150.592C199.062 149.832 200.973 153.812 201.053 153.982C201.313 154.532 201.073 155.192 200.523 155.452C200.373 155.522 200.213 155.552 200.053 155.552Z" fill="#1C1E22"/>
<path d="M177.726 162.572C176.686 162.432 176.015 161.062 176.226 159.512C176.426 157.962 177.436 156.812 178.476 156.942C179.517 157.082 180.187 158.452 179.987 160.002C179.777 161.552 178.776 162.702 177.736 162.572H177.726Z" fill="#1C1E22"/>
<path d="M183.198 150.912C182.928 150.912 182.658 150.812 182.448 150.622C182.348 150.532 180.187 148.652 176.906 150.532C176.376 150.832 175.695 150.652 175.395 150.122C175.095 149.592 175.275 148.912 175.806 148.612C180.557 145.892 183.818 148.882 183.958 149.012C184.398 149.432 184.428 150.132 184.008 150.582C183.788 150.812 183.498 150.932 183.198 150.932V150.912Z" fill="#1C1E22"/>
<path d="M179.886 176.582C179.336 176.582 178.866 176.182 178.786 175.622C177.636 167.192 182.177 162.542 182.377 162.342C182.807 161.912 183.508 161.912 183.938 162.342C184.368 162.772 184.368 163.472 183.938 163.902C183.768 164.072 179.986 168.032 180.977 175.312C181.057 175.922 180.637 176.482 180.026 176.562C179.976 176.562 179.926 176.572 179.876 176.572L179.886 176.582Z" fill="#1C1E22"/>
<path d="M187.299 183.262C186.548 183.262 186.078 183.132 186.028 183.122C185.438 182.952 185.098 182.342 185.268 181.752C185.438 181.162 186.038 180.822 186.618 180.982C186.758 181.012 189.409 181.622 192.45 178.432C192.87 177.992 193.571 177.972 194.021 178.392C194.461 178.812 194.481 179.512 194.061 179.962C191.38 182.772 188.789 183.262 187.309 183.262H187.299Z" fill="#1C1E22"/>
<path d="M180.877 138.362C180.877 138.362 185.099 130.472 195.462 137.672C209.867 147.692 199.883 170.852 214.458 166.202C229.033 161.552 223.481 143.032 223.481 143.032C223.481 143.032 191.211 109.762 180.877 138.362Z" fill="#1C1E22"/>
<path d="M71.6127 337.412C63.7603 337.412 59.599 333.922 59.3289 333.692C56.648 331.052 55.3576 328.002 55.4176 324.562C55.4277 323.922 55.4877 323.292 55.5877 322.662C55.3876 322.612 55.1876 322.552 54.9875 322.492C50.8362 321.182 47.5052 317.892 45.0544 312.692C42.5836 313.552 39.8928 313.892 37.1519 313.202C30.8299 311.612 25.7583 305.022 22.0672 293.602C21.8271 292.852 22.2372 292.052 22.9775 291.812C23.7177 291.572 24.528 291.982 24.768 292.732C28.1291 303.152 32.5305 309.112 37.8421 310.442C39.9128 310.962 41.9934 310.722 43.9541 310.072C43.884 309.892 43.824 309.712 43.754 309.532C43.734 309.472 43.714 309.422 43.704 309.362C43.5339 308.572 39.6127 289.992 52.2266 285.382C55.4877 284.192 59.1788 285.812 60.4492 289.012C61.5396 291.742 61.3795 294.972 59.9891 298.592C58.8987 301.442 57.1382 304.042 54.7774 306.332C53.0969 307.952 50.6061 310.052 47.6552 311.562C49.7459 315.972 52.4967 318.732 55.8378 319.782C55.9778 319.832 56.1279 319.872 56.2679 319.912C58.4686 313.382 64.1504 308.142 64.4505 307.872C69.272 303.002 73.1032 300.832 76.0741 301.302C77.6846 301.552 78.985 302.572 79.8253 304.242C81.0857 306.732 80.8256 309.832 79.1451 312.342C77.8347 314.282 76.1642 315.982 74.1735 317.402C70.0322 320.352 64.2104 323.452 58.3786 323.122C58.2985 323.622 58.2485 324.132 58.2385 324.642C58.1885 327.302 59.1688 329.592 61.2295 331.622C61.5396 331.882 70.7725 339.412 88.7181 329.482C89.4083 329.102 90.2686 329.352 90.6487 330.042C91.0288 330.732 90.7787 331.592 90.0885 331.972C82.5762 336.132 76.3842 337.442 71.5827 337.442L71.6127 337.412ZM59.1588 320.272H59.2088C64.3404 320.272 69.5721 317.182 72.543 315.062C74.2536 313.842 75.684 312.392 76.8044 310.732C77.9147 309.082 78.1048 307.082 77.3145 305.512C76.6843 304.262 75.9041 304.142 75.654 304.102C74.5336 303.922 71.8428 304.442 66.4311 309.912C66.3311 310.012 61.2695 314.682 59.1688 320.272H59.1588ZM46.4648 308.662C46.4949 308.752 46.5349 308.842 46.5649 308.932C49.1157 307.582 51.3164 305.712 52.8068 304.272C54.8775 302.282 56.398 300.022 57.3382 297.562C58.4686 294.622 58.6287 292.092 57.8084 290.052C57.1082 288.302 54.9975 287.382 53.197 288.042C43.2838 291.662 46.2048 307.372 46.4648 308.652V308.662Z" fill="#63D360"/>
</g>
</g>
<defs>
<clipPath id="clip0_1325_5201">
<rect width="400" height="400" fill="white"/>
</clipPath>
<clipPath id="clip1_1325_5201">
<rect width="400" height="400" fill="white"/>
</clipPath>
</defs>
</svg>
