<svg width="400" height="400" viewBox="0 0 400 400" fill="none" xmlns="http://www.w3.org/2000/svg">
<g clip-path="url(#clip0_1325_5199)">
<g clip-path="url(#clip1_1325_5199)">
<path d="M255.823 307.84H248.263C247.614 307.84 247.075 307.31 247.075 306.65C247.075 305.99 247.604 305.46 248.263 305.46H255.823C256.473 305.46 257.012 305.99 257.012 306.65C257.012 307.31 256.483 307.84 255.823 307.84ZM240.703 307.84H233.142C232.493 307.84 231.954 307.31 231.954 306.65C231.954 305.99 232.483 305.46 233.142 305.46H240.703C241.352 305.46 241.891 305.99 241.891 306.65C241.891 307.31 241.362 307.84 240.703 307.84ZM225.582 307.84H218.022C217.372 307.84 216.833 307.31 216.833 306.65C216.833 305.99 217.362 305.46 218.022 305.46H225.582C226.231 305.46 226.77 305.99 226.77 306.65C226.77 307.31 226.241 307.84 225.582 307.84ZM210.461 307.84H202.901C202.252 307.84 201.712 307.31 201.712 306.65C201.712 305.99 202.242 305.46 202.901 305.46H210.461C211.11 305.46 211.65 305.99 211.65 306.65C211.65 307.31 211.12 307.84 210.461 307.84ZM195.34 307.84H187.78C187.131 307.84 186.592 307.31 186.592 306.65C186.592 305.99 187.121 305.46 187.78 305.46H195.34C195.99 305.46 196.529 305.99 196.529 306.65C196.529 307.31 196 307.84 195.34 307.84ZM180.22 307.84H172.659C172.01 307.84 171.471 307.31 171.471 306.65C171.471 305.99 172 305.46 172.659 305.46H180.22C180.869 305.46 181.408 305.99 181.408 306.65C181.408 307.31 180.879 307.84 180.22 307.84ZM165.099 307.84H157.539C156.889 307.84 156.35 307.31 156.35 306.65C156.35 305.99 156.879 305.46 157.539 305.46H165.099C165.748 305.46 166.287 305.99 166.287 306.65C166.287 307.31 165.758 307.84 165.099 307.84ZM149.978 307.84H142.418C141.769 307.84 141.229 307.31 141.229 306.65C141.229 305.99 141.759 305.46 142.418 305.46H149.978C150.627 305.46 151.167 305.99 151.167 306.65C151.167 307.31 150.637 307.84 149.978 307.84ZM134.858 307.84H127.297C126.648 307.84 126.109 307.31 126.109 306.65C126.109 305.99 126.638 305.46 127.297 305.46H134.858C135.507 305.46 136.046 305.99 136.046 306.65C136.046 307.31 135.517 307.84 134.858 307.84ZM119.737 307.84H112.176C111.527 307.84 110.988 307.31 110.988 306.65C110.988 305.99 111.517 305.46 112.176 305.46H119.737C120.386 305.46 120.925 305.99 120.925 306.65C120.925 307.31 120.396 307.84 119.737 307.84ZM104.616 307.84H97.0557C96.4065 307.84 95.8672 307.31 95.8672 306.65C95.8672 305.99 96.3965 305.46 97.0557 305.46H104.616C105.265 305.46 105.805 305.99 105.805 306.65C105.805 307.31 105.275 307.84 104.616 307.84ZM89.4953 307.84H81.9349C81.2858 307.84 80.7464 307.31 80.7464 306.65C80.7464 305.99 81.2758 305.46 81.9349 305.46H89.4953C90.1445 305.46 90.6838 305.99 90.6838 306.65C90.6838 307.31 90.1545 307.84 89.4953 307.84ZM74.3746 307.84H66.8142C66.165 307.84 65.6257 307.31 65.6257 306.65C65.6257 305.99 66.155 305.46 66.8142 305.46H74.3746C75.0237 305.46 75.563 305.99 75.563 306.65C75.563 307.31 75.0337 307.84 74.3746 307.84ZM61.9204 305.18C61.2712 305.18 60.7319 304.65 60.7319 303.99V296.42C60.7319 295.77 61.2613 295.23 61.9204 295.23C62.5796 295.23 63.1089 295.76 63.1089 296.42V303.99C63.1089 304.64 62.5796 305.18 61.9204 305.18ZM61.9204 290.04C61.2712 290.04 60.7319 289.51 60.7319 288.85V281.28C60.7319 280.63 61.2613 280.09 61.9204 280.09C62.5796 280.09 63.1089 280.62 63.1089 281.28V288.85C63.1089 289.5 62.5796 290.04 61.9204 290.04ZM61.9204 274.9C61.2712 274.9 60.7319 274.37 60.7319 273.71V266.14C60.7319 265.49 61.2613 264.95 61.9204 264.95C62.5796 264.95 63.1089 265.48 63.1089 266.14V273.71C63.1089 274.36 62.5796 274.9 61.9204 274.9ZM61.9204 259.76C61.2712 259.76 60.7319 259.23 60.7319 258.57V251C60.7319 250.35 61.2613 249.81 61.9204 249.81C62.5796 249.81 63.1089 250.34 63.1089 251V258.57C63.1089 259.22 62.5796 259.76 61.9204 259.76ZM61.9204 244.62C61.2712 244.62 60.7319 244.09 60.7319 243.43V235.86C60.7319 235.21 61.2613 234.67 61.9204 234.67C62.5796 234.67 63.1089 235.2 63.1089 235.86V243.43C63.1089 244.08 62.5796 244.62 61.9204 244.62ZM61.9204 229.48C61.2712 229.48 60.7319 228.95 60.7319 228.29V220.72C60.7319 220.07 61.2613 219.53 61.9204 219.53C62.5796 219.53 63.1089 220.06 63.1089 220.72V228.29C63.1089 228.94 62.5796 229.48 61.9204 229.48ZM61.9204 214.34C61.2712 214.34 60.7319 213.81 60.7319 213.15V205.58C60.7319 204.93 61.2613 204.39 61.9204 204.39C62.5796 204.39 63.1089 204.92 63.1089 205.58V213.15C63.1089 213.8 62.5796 214.34 61.9204 214.34ZM61.9204 199.2C61.2712 199.2 60.7319 198.67 60.7319 198.01V190.44C60.7319 189.79 61.2613 189.25 61.9204 189.25C62.5796 189.25 63.1089 189.78 63.1089 190.44V198.01C63.1089 198.66 62.5796 199.2 61.9204 199.2ZM61.9204 184.06C61.2712 184.06 60.7319 183.53 60.7319 182.87V175.3C60.7319 174.65 61.2613 174.11 61.9204 174.11C62.5796 174.11 63.1089 174.64 63.1089 175.3V182.87C63.1089 183.52 62.5796 184.06 61.9204 184.06ZM61.9204 168.92C61.2712 168.92 60.7319 168.39 60.7319 167.73V160.16C60.7319 159.51 61.2613 158.97 61.9204 158.97C62.5796 158.97 63.1089 159.5 63.1089 160.16V167.73C63.1089 168.38 62.5796 168.92 61.9204 168.92ZM61.9204 153.78C61.2712 153.78 60.7319 153.25 60.7319 152.59V145.02C60.7319 144.37 61.2613 143.83 61.9204 143.83C62.5796 143.83 63.1089 144.36 63.1089 145.02V152.59C63.1089 153.24 62.5796 153.78 61.9204 153.78ZM255.734 143.51H248.173C247.524 143.51 246.985 142.98 246.985 142.32C246.985 141.66 247.514 141.13 248.173 141.13H255.734C256.383 141.13 256.922 141.66 256.922 142.32C256.922 142.98 256.393 143.51 255.734 143.51ZM240.613 143.51H233.052C232.403 143.51 231.864 142.98 231.864 142.32C231.864 141.66 232.393 141.13 233.052 141.13H240.613C241.262 141.13 241.801 141.66 241.801 142.32C241.801 142.98 241.272 143.51 240.613 143.51ZM225.492 143.51H217.932C217.283 143.51 216.743 142.98 216.743 142.32C216.743 141.66 217.273 141.13 217.932 141.13H225.492C226.141 141.13 226.681 141.66 226.681 142.32C226.681 142.98 226.151 143.51 225.492 143.51ZM210.371 143.51H202.811C202.162 143.51 201.622 142.98 201.622 142.32C201.622 141.66 202.152 141.13 202.811 141.13H210.371C211.02 141.13 211.56 141.66 211.56 142.32C211.56 142.98 211.03 143.51 210.371 143.51ZM195.251 143.51H187.69C187.041 143.51 186.502 142.98 186.502 142.32C186.502 141.66 187.031 141.13 187.69 141.13H195.251C195.9 141.13 196.439 141.66 196.439 142.32C196.439 142.98 195.91 143.51 195.251 143.51ZM180.13 143.51H172.569C171.92 143.51 171.381 142.98 171.381 142.32C171.381 141.66 171.91 141.13 172.569 141.13H180.13C180.779 141.13 181.318 141.66 181.318 142.32C181.318 142.98 180.789 143.51 180.13 143.51ZM165.009 143.51H157.449C156.8 143.51 156.26 142.98 156.26 142.32C156.26 141.66 156.79 141.13 157.449 141.13H165.009C165.658 141.13 166.198 141.66 166.198 142.32C166.198 142.98 165.668 143.51 165.009 143.51ZM149.888 143.51H142.328C141.679 143.51 141.139 142.98 141.139 142.32C141.139 141.66 141.669 141.13 142.328 141.13H149.888C150.538 141.13 151.077 141.66 151.077 142.32C151.077 142.98 150.548 143.51 149.888 143.51ZM134.768 143.51H127.207C126.558 143.51 126.019 142.98 126.019 142.32C126.019 141.66 126.548 141.13 127.207 141.13H134.768C135.417 141.13 135.956 141.66 135.956 142.32C135.956 142.98 135.427 143.51 134.768 143.51ZM119.647 143.51H112.087C111.437 143.51 110.898 142.98 110.898 142.32C110.898 141.66 111.427 141.13 112.087 141.13H119.647C120.296 141.13 120.835 141.66 120.835 142.32C120.835 142.98 120.306 143.51 119.647 143.51ZM104.526 143.51H96.9658C96.3166 143.51 95.7773 142.98 95.7773 142.32C95.7773 141.66 96.3066 141.13 96.9658 141.13H104.526C105.175 141.13 105.715 141.66 105.715 142.32C105.715 142.98 105.185 143.51 104.526 143.51ZM89.4054 143.51H81.845C81.1959 143.51 80.6566 142.98 80.6566 142.32C80.6566 141.66 81.1859 141.13 81.845 141.13H89.4054C90.0546 141.13 90.5939 141.66 90.5939 142.32C90.5939 142.98 90.0646 143.51 89.4054 143.51ZM74.2847 143.51H66.7243C66.0751 143.51 65.5358 142.98 65.5358 142.32C65.5358 141.66 66.0651 141.13 66.7243 141.13H74.2847C74.9338 141.13 75.4732 141.66 75.4732 142.32C75.4732 142.98 74.9438 143.51 74.2847 143.51ZM258.36 138.63C257.711 138.63 257.172 138.1 257.172 137.44V129.87C257.172 129.22 257.701 128.68 258.36 128.68C259.019 128.68 259.549 129.21 259.549 129.87V137.44C259.549 138.09 259.019 138.63 258.36 138.63ZM258.36 123.49C257.711 123.49 257.172 122.96 257.172 122.3V114.73C257.172 114.08 257.701 113.54 258.36 113.54C259.019 113.54 259.549 114.07 259.549 114.73V122.3C259.549 122.95 259.019 123.49 258.36 123.49ZM258.36 108.35C257.711 108.35 257.172 107.82 257.172 107.16V99.59C257.172 98.94 257.701 98.4 258.36 98.4C259.019 98.4 259.549 98.93 259.549 99.59V107.16C259.549 107.81 259.019 108.35 258.36 108.35ZM258.36 93.21C257.711 93.21 257.172 92.68 257.172 92.02V84.45C257.172 83.8 257.701 83.26 258.36 83.26C259.019 83.26 259.549 83.79 259.549 84.45V92.02C259.549 92.67 259.019 93.21 258.36 93.21ZM258.36 78.07C257.711 78.07 257.172 77.54 257.172 76.88V69.31C257.172 68.66 257.701 68.12 258.36 68.12C259.019 68.12 259.549 68.65 259.549 69.31V76.88C259.549 77.53 259.019 78.07 258.36 78.07Z" fill="#A6B2C4"/>
<path d="M199.985 64.2V153.1C199.985 158.43 195.151 162.76 189.208 162.76H33.8062C27.8338 162.76 23 158.44 23 153.1V64.2C23 58.87 27.8338 54.54 33.8062 54.54H189.208C195.151 54.54 199.985 58.86 199.985 64.2Z" fill="#EAEAEF"/>
<path d="M117.739 79.53H54.9292C52.7229 79.53 50.9343 81.3209 50.9343 83.53V119.88C50.9343 122.089 52.7229 123.88 54.9292 123.88H117.739C119.946 123.88 121.734 122.089 121.734 119.88V83.53C121.734 81.3209 119.946 79.53 117.739 79.53Z" fill="white"/>
<path d="M168.065 93.41H105.255C103.049 93.41 101.26 95.2009 101.26 97.41V133.76C101.26 135.969 103.049 137.76 105.255 137.76H168.065C170.271 137.76 172.06 135.969 172.06 133.76V97.41C172.06 95.2009 170.271 93.41 168.065 93.41Z" fill="#D2D2DD"/>
<path d="M122.703 130.6C121.045 130.6 119.707 129.26 119.707 127.6V103.57C119.707 101.91 121.045 100.57 122.703 100.57C124.361 100.57 125.699 101.91 125.699 103.57V127.6C125.699 129.26 124.361 130.6 122.703 130.6Z" fill="white"/>
<path d="M136.655 130.6C134.997 130.6 133.659 129.26 133.659 127.6V111.65C133.659 109.99 134.997 108.65 136.655 108.65C138.313 108.65 139.652 109.99 139.652 111.65V127.6C139.652 129.26 138.313 130.6 136.655 130.6Z" fill="white"/>
<path d="M150.608 130.6C148.95 130.6 147.611 129.26 147.611 127.6V118.4C147.611 116.74 148.95 115.4 150.608 115.4C152.265 115.4 153.604 116.74 153.604 118.4V127.6C153.604 129.26 152.265 130.6 150.608 130.6Z" fill="white"/>
<path d="M310.204 199.94L329.849 191.55C331.417 190.88 333.135 190.83 334.673 191.41L350.383 197.4C351.921 197.99 353.179 199.16 353.899 200.71L363.037 220.07C364.745 223.7 363.167 228.28 359.551 230.08L328.161 245.74C324.706 247.47 320.721 245.95 319.283 242.36L306.189 209.74C304.691 206 306.519 201.52 310.204 199.94Z" fill="#6CD4EE"/>
<path d="M79.3683 333.47L54.0606 322.49C53.1617 322.1 52.5425 321.24 52.4626 320.26L50.2354 292.71C50.0756 290.7 52.1031 289.25 53.9407 290.05L79.2485 301.03C80.1473 301.42 80.7665 302.28 80.8464 303.26L83.0736 330.81C83.2334 332.82 81.206 334.27 79.3683 333.47Z" fill="#F82B5C"/>
<path d="M251.289 30C239.984 45.59 243.429 67.41 258.989 78.74C274.54 90.07 296.312 86.61 307.617 71.02L293.935 61.06C288.122 69.08 276.927 70.85 268.937 65.03C260.937 59.21 259.169 47.99 264.982 39.97L251.299 30.01L251.289 30Z" fill="#63D360"/>
<path d="M253.077 187.22C242.041 189.73 238.376 184.07 238.376 184.07C233.382 177.02 240.303 161.39 245.187 152.2L243.519 150.1C243.519 150.1 231.594 135.4 236.168 127.64C239.894 121.32 246.995 123.29 249.511 124.25C252.937 122.54 256.473 121.03 259.169 120.43C272.912 117.36 279.713 118.29 285.546 121.55C289.85 123.96 291.937 126.66 294.664 130.45C295.703 131.89 297.47 135.4 298.589 136.77L302.614 141.73V141.7C310.524 151.96 315.148 167.81 310.044 179.7C306.419 188.15 297.131 192.73 285.915 191.24L253.067 187.22H253.077Z" fill="#1C1E22"/>
<path d="M285.985 186.73L286.155 211.03C286.155 211.03 281.84 218.04 267.688 219.3C257.152 220.24 253.427 217.86 253.427 217.86L254.815 205.54L256.183 193.53L281.71 187.71L285.995 186.73H285.975H285.985Z" fill="#FFA0A0"/>
<path d="M281.7 187.71C281.65 188.37 281.401 189.16 281.011 190.06C275.678 202.23 260.887 204.95 254.805 205.54L256.173 193.53L281.7 187.71Z" fill="#BC6060"/>
<path d="M255.654 132.48C252.518 135 250.221 138.43 248.862 142.24C245.696 151.12 239.035 172.49 243.02 185.63C248.143 202.53 263.514 199.51 272.672 196.01C281.83 192.52 285.985 186.73 285.985 186.73C285.985 186.73 294.664 189.47 300.267 181.29C305.85 173.11 302.094 163.94 297.121 161.94C292.147 159.94 286.374 163.64 286.374 163.64L290.769 154.75C290.769 154.75 273.87 117.9 255.654 132.49V132.48Z" fill="#FFA0A0"/>
<path d="M287.593 177.02C287.303 177.02 287.014 176.91 286.794 176.68C286.355 176.24 286.365 175.52 286.804 175.09L295.293 166.75C295.733 166.32 296.452 166.32 296.881 166.76C297.321 167.2 297.311 167.92 296.871 168.35L288.382 176.69C288.162 176.9 287.883 177.01 287.593 177.01V177.02Z" fill="#BC6060"/>
<path d="M296.092 177.78C295.893 177.78 295.693 177.73 295.513 177.62L289.76 174.14C289.231 173.82 289.061 173.13 289.381 172.6C289.7 172.07 290.39 171.9 290.919 172.22L296.672 175.7C297.201 176.02 297.371 176.71 297.051 177.24C296.841 177.59 296.472 177.78 296.092 177.78Z" fill="#BC6060"/>
<path d="M262.824 161.13C262.904 159.55 262.115 158.23 261.067 158.18C260.018 158.13 259.109 159.37 259.029 160.94C258.949 162.52 259.738 163.84 260.787 163.89C261.836 163.94 262.745 162.7 262.824 161.13Z" fill="#1C1E22"/>
<path d="M265.721 154.49C265.331 154.49 264.962 154.28 264.762 153.92C262.815 150.33 259.729 151.79 259.599 151.85C259.059 152.12 258.41 151.89 258.141 151.35C257.871 150.81 258.101 150.16 258.64 149.89C260.398 149.03 264.333 148.54 266.68 152.88C266.969 153.41 266.77 154.07 266.24 154.36C266.08 154.45 265.901 154.49 265.721 154.49Z" fill="#1C1E22"/>
<path d="M246.106 160.25C246.186 158.67 245.397 157.35 244.348 157.3C243.299 157.25 242.391 158.49 242.311 160.06C242.231 161.64 243.02 162.96 244.069 163.01C245.117 163.06 246.026 161.83 246.106 160.25Z" fill="#1C1E22"/>
<path d="M243.339 151.22C243.1 151.22 242.86 151.14 242.66 150.98C242.191 150.61 242.111 149.93 242.481 149.46C243.509 148.14 246.396 146.36 249.921 149.07C250.4 149.44 250.49 150.12 250.121 150.6C249.751 151.08 249.072 151.17 248.593 150.8C246.026 148.82 244.478 150.46 244.198 150.81C243.979 151.08 243.669 151.22 243.349 151.22H243.339Z" fill="#1C1E22"/>
<path d="M247.364 176.72C246.855 176.72 246.406 176.36 246.296 175.84C244.618 167.49 248.463 162.62 248.623 162.42C249.002 161.95 249.691 161.88 250.151 162.26C250.62 162.64 250.69 163.32 250.311 163.79C250.161 163.97 246.965 168.12 248.423 175.41C248.543 176 248.163 176.58 247.574 176.69C247.504 176.7 247.434 176.71 247.354 176.71L247.364 176.72Z" fill="#1C1E22"/>
<path d="M256.493 184.01C256.153 184.01 255.814 183.97 255.474 183.9C253.766 183.53 252.458 182.3 251.979 180.63L251.939 180.49C251.869 180.2 251.909 179.9 252.068 179.65C252.218 179.4 252.468 179.22 252.758 179.15L260.637 177.4C260.997 177.32 261.377 177.43 261.636 177.68C261.896 177.94 262.016 178.31 261.946 178.67C261.926 178.75 261.546 180.65 260.078 182.37C259.169 183.43 257.861 184.01 256.503 184.01H256.493ZM254.585 180.98C254.925 181.37 255.394 181.65 255.943 181.77C256.882 181.98 257.801 181.67 258.42 180.95C258.7 180.63 258.92 180.29 259.109 179.97L254.585 180.98Z" fill="#1C1E22"/>
<path d="M249.581 139.6C249.581 139.6 254.106 130.14 265.052 136.53C280.292 145.42 272.183 169.5 286.375 163.63C300.576 157.76 293.506 139.62 293.506 139.62C293.506 139.62 255.814 111.16 247.814 140.72L249.571 139.59L249.581 139.6Z" fill="#1C1E22"/>
<path d="M158.837 214.84C156.819 211.06 155.062 207.54 153.604 204.46C146.463 200.65 119.447 185.48 121.155 175.01C123.122 162.96 140.59 150.81 140.59 150.81C140.59 150.81 142.358 142.85 146.832 141.87C151.306 140.89 165.239 152.57 165.239 152.57C165.239 152.57 173.988 157.67 175.496 162.03C176.414 164.68 176.564 172.28 176.534 177.83C178.612 179.65 181.069 181.78 183.785 184.05L158.837 214.84Z" fill="#FFA3A3"/>
<path d="M151.736 167.43L145.654 162.77L163.791 139.06L169.873 143.72L151.736 167.43Z" fill="#1C1E22"/>
<path d="M167.226 191.82C167.146 191.82 167.046 191.82 166.966 191.8C162.362 190.74 159.796 188.14 158.497 182.6C157.498 178.34 157.818 173.9 158.028 171.98C152.784 171.32 146.822 168.5 146.982 162.63H146.952C146.992 161.31 147.551 160.19 148.62 159.31C153.823 155.01 170.222 158.29 172.1 158.6" fill="#FFA3A3"/>
<path d="M123.522 182.38C123.522 182.38 135.397 199.25 142.847 194.1C150.298 188.95 162.572 173.74 162.572 173.74L145.094 155.71L123.542 182.37L123.522 182.38Z" fill="#FFA3A3"/>
<path d="M148.63 160.37C148.35 160.37 148.081 160.26 147.871 160.05L140.361 152.4C139.951 151.98 139.951 151.31 140.371 150.89C140.79 150.48 141.459 150.48 141.879 150.9L149.389 158.55C149.799 158.97 149.799 159.64 149.379 160.06C149.169 160.26 148.9 160.37 148.63 160.37Z" fill="#BC6060"/>
<path d="M149.998 179.98C149.229 179.98 148.41 179.89 147.531 179.7C146.952 179.58 146.593 179.01 146.712 178.44C146.832 177.86 147.402 177.5 147.971 177.62C150.208 178.09 151.876 177.84 152.935 176.88C154.792 175.18 154.403 171.73 154.403 171.69C154.333 171.11 154.752 170.58 155.331 170.51C155.911 170.44 156.44 170.85 156.52 171.44C156.54 171.63 157.049 176 154.383 178.45C153.264 179.48 151.796 179.99 149.998 179.99V179.98Z" fill="#BC6060"/>
<path d="M140.55 186.34C140.021 186.34 139.542 185.94 139.482 185.41C139.412 184.84 139.781 184.32 140.341 184.23C140.391 184.23 140.501 184.21 140.67 184.2C143.167 184.08 146.283 183.35 146.972 180.56C147.562 178.19 141.26 170.73 131.662 162.42C131.212 162.04 131.172 161.36 131.552 160.92C131.931 160.47 132.611 160.43 133.05 160.81C138.253 165.31 150.218 176.29 149.04 181.07C148.261 184.23 145.324 186.1 140.78 186.32H140.65C140.65 186.32 140.59 186.33 140.56 186.33L140.55 186.34Z" fill="#BC6060"/>
<path d="M135.427 193.72C135.007 193.72 134.608 193.47 134.438 193.06C134.218 192.52 134.478 191.89 135.017 191.67C138.243 190.35 139.881 188.83 139.871 187.15C139.851 182.02 126.139 175.48 123.442 174.4L123.832 173.42L123.592 172.37C124.75 172.12 139.741 179.2 141.749 185.55C142.478 187.84 142.038 191.1 135.826 193.64C135.697 193.69 135.557 193.72 135.427 193.72Z" fill="#BC6060"/>
<path d="M167.196 192.88C167.047 192.88 166.907 192.87 166.767 192.84C161.604 191.65 158.837 188.66 157.469 182.84C156.59 179.11 156.68 175.3 156.88 172.88C151.576 171.95 145.904 168.86 145.924 162.84C145.904 162.76 145.894 162.68 145.904 162.59C145.954 160.98 146.663 159.56 147.961 158.48C152.315 154.88 163.341 155.94 171.821 157.46L172.29 157.54C172.869 157.64 173.259 158.19 173.159 158.77C173.059 159.35 172.51 159.74 171.93 159.64L171.441 159.55C156.111 156.8 150.997 158.72 149.309 160.12C148.53 160.76 148.121 161.52 148.041 162.44C148.051 162.51 148.061 162.58 148.061 162.65C147.921 167.8 153.424 170.32 158.178 170.91C158.757 170.98 159.167 171.51 159.107 172.09C158.917 173.79 158.577 178.2 159.556 182.35C160.735 187.4 162.882 189.76 167.226 190.76C167.806 190.72 168.295 191.2 168.315 191.79C168.335 192.38 167.866 192.87 167.276 192.88C167.256 192.88 167.236 192.88 167.206 192.88H167.196Z" fill="#BC6060"/>
<path d="M204.858 122.46C191.945 139.34 176.634 149.4 170.762 144.89C164.879 140.39 170.552 123.03 183.505 106.1C196.459 89.17 211.729 79.16 217.602 83.67C223.485 88.17 217.812 105.53 204.858 122.46Z" fill="#1C1E22"/>
<path d="M169.633 143.81C167.985 143.81 166.557 143.39 165.409 142.51C162.103 139.97 161.693 134.24 164.28 126.36C166.727 118.9 171.571 110.22 177.913 101.93C191.486 84.1899 207.245 74.2299 213.807 79.2599C217.113 81.7999 217.512 87.5299 214.936 95.4099C212.489 102.87 207.645 111.55 201.303 119.84C190.107 134.47 177.413 143.81 169.643 143.81H169.633ZM209.363 80.4099C202.282 80.4099 189.178 91.4099 179.94 103.49C173.768 111.56 169.064 119.97 166.707 127.16C164.52 133.83 164.61 138.68 166.957 140.48C172.65 144.84 188.559 132.28 199.266 118.29C205.438 110.22 210.142 101.81 212.499 94.6199C214.686 87.9499 214.596 83.0999 212.249 81.2999C211.47 80.6999 210.491 80.4199 209.363 80.4199V80.4099Z" fill="#2D6AFF"/>
<path d="M177.573 134.31C177.094 134.31 176.644 134.04 176.425 133.58C176.115 132.94 176.385 132.18 177.024 131.87C183.356 128.83 188.09 121.65 188.14 121.58C188.529 120.99 189.318 120.82 189.907 121.21C190.497 121.6 190.666 122.39 190.277 122.98C190.067 123.3 185.104 130.83 178.132 134.18C177.953 134.27 177.763 134.31 177.583 134.31H177.573Z" fill="white"/>
<path d="M183.156 177.64L261.786 237.95L209.093 292.09L150.118 208.96L183.156 177.64Z" fill="#CAD8FF"/>
<path d="M217.782 234.33C231.015 221.21 247.214 207.65 270.155 206.5C321.43 203.92 332.516 235.3 341.145 251.5C351.362 270.7 358.353 323.1 358.702 370H203.54C203.6 364.9 207.036 337.78 207.036 337.78L217.802 234.33H217.782Z" fill="#CAD8FF"/>
<path d="M49.6062 186.75C49.6062 182.43 47.6487 177.84 44.283 175.14C45.811 170.49 48.2779 166.21 51.5337 162.56C55.5486 164.14 60.0529 163.79 63.7781 161.63C67.5034 159.48 70.0601 155.74 70.6993 151.47C75.4832 150.46 80.4169 150.46 85.2008 151.46C85.85 155.73 88.3968 159.47 92.132 161.63C95.8573 163.79 100.372 164.13 104.386 162.56C107.642 166.21 110.109 170.5 111.627 175.15C108.261 177.85 106.304 181.93 106.314 186.25C106.314 190.74 108.391 194.74 111.637 197.35C110.109 202 107.642 206.28 104.386 209.93C100.372 208.35 95.8672 208.7 92.142 210.86C88.4167 213.01 85.86 216.75 85.2208 221.02C80.4369 222.03 75.5032 222.03 70.7193 221.03C70.0801 216.76 67.5233 213.01 63.7881 210.85L49.6162 186.75H49.6062ZM77.9501 196.9C83.8226 196.9 88.5765 192.13 88.5765 186.24C88.5765 180.35 83.8126 175.58 77.9501 175.58C72.0875 175.58 67.3236 180.35 67.3236 186.24C67.3236 192.13 72.0875 196.9 77.9501 196.9Z" fill="#628DFF"/>
<path d="M82.5442 254.45C82.5442 254.45 60.4923 243.35 53.4812 233.2C46.4701 223.04 50.3552 218.9 50.3552 218.9C50.3552 218.9 46.0007 214.87 46.3503 209.55C47.0294 198.93 49.2266 204.9 49.2266 204.9C49.2266 204.9 47.7984 202.1 47.3091 197.03C46.8197 191.96 49.5862 186.56 49.5862 186.56C49.5862 186.56 56.7271 201.06 68.4921 206.13C80.2571 211.2 88.187 213.17 89.5752 210.34C90.9635 207.51 83.7826 199.94 86.5091 195.2C89.2257 190.46 100.042 197.74 105.924 206.62C111.807 215.48 111.517 235.71 111.517 235.71L82.5442 254.46V254.45Z" fill="#FFA0A0"/>
<path d="M67.7132 219.31C67.6133 219.31 67.5035 219.29 67.3936 219.26C55.7484 215.73 47.8984 204.91 47.5689 204.45C47.2193 203.96 47.3292 203.28 47.8185 202.93C48.3079 202.58 48.987 202.69 49.3366 203.18C49.4165 203.29 57.0967 213.86 68.0228 217.17C68.6021 217.34 68.9216 217.95 68.7519 218.53C68.612 219 68.1726 219.3 67.7132 219.3V219.31Z" fill="#BC6060"/>
<path d="M65.3362 229.71C65.2762 229.71 65.2263 229.71 65.1664 229.7C54.8895 228.07 49.6561 220.95 49.4364 220.64C49.0869 220.15 49.1967 219.47 49.6761 219.12C50.1655 218.77 50.8446 218.88 51.1942 219.36C51.2441 219.43 56.1578 226.05 65.5059 227.54C66.0952 227.63 66.5047 228.19 66.4148 228.79C66.3249 229.33 65.8655 229.71 65.3362 229.71Z" fill="#BC6060"/>
<path d="M174.977 342.06C174.797 342.06 174.707 342.07 174.707 342.07C174.707 342.07 111.278 350.07 75.8528 256.39L113.615 231.64C113.615 231.64 138.643 261.06 168.475 262.73C177.184 263.22 182.018 262.57 192.245 257.21C209.562 248.14 227.4 214.66 260.787 207.68C273.201 205.08 286.155 209.98 293.156 220.61C293.386 220.97 293.625 221.33 293.845 221.7C300.956 233.38 300.606 248.16 293.486 259.83C283.209 276.66 266.1 301.53 234.561 322.48C216.823 334.26 196.209 340.98 174.977 342.06Z" fill="#CAD8FF"/>
<path d="M207.815 336.85C207.305 336.85 206.856 336.49 206.746 335.97C206.626 335.38 207.006 334.8 207.595 334.69C207.655 334.68 213.318 333.49 222.985 328.3C231.914 323.51 246.166 314.23 263.384 297.25C263.813 296.83 264.502 296.83 264.922 297.26C265.341 297.69 265.341 298.38 264.912 298.8C231.445 331.82 208.963 336.64 208.024 336.83C207.954 336.84 207.885 336.85 207.805 336.85H207.815Z" fill="#8BABFF"/>
<path d="M172.869 263.9C171.571 263.9 170.193 263.85 168.724 263.77C168.125 263.74 167.666 263.22 167.696 262.62C167.726 262.02 168.245 261.57 168.844 261.59C177.583 262.08 182.167 261.37 192.045 256.2C198.137 253.01 204.289 246.73 211.41 239.46C223.794 226.82 239.195 211.1 260.867 206.56C261.456 206.44 262.036 206.81 262.155 207.4C262.275 207.99 261.906 208.57 261.316 208.69C240.293 213.09 225.772 227.91 212.968 240.98C205.717 248.38 199.455 254.78 193.053 258.13C184.474 262.62 179.541 263.9 172.869 263.9Z" fill="#8BABFF"/>
<path d="M199.605 277.48C195.77 277.48 189.478 274.64 179.95 262.67C179.66 262.3 179.63 261.79 179.89 261.4C180.14 261.01 180.619 260.82 181.079 260.94C181.788 261.12 198.406 265.43 203.091 271.08C203.999 272.17 204.239 273.61 203.74 274.94C203.24 276.26 202.112 277.18 200.724 277.4C200.374 277.45 200.004 277.48 199.605 277.48ZM183.865 263.99C192.864 274.53 198.027 275.6 200.374 275.24C200.983 275.14 201.473 274.74 201.692 274.16C201.912 273.58 201.812 272.94 201.413 272.46C198.357 268.78 188.949 265.53 183.865 263.99Z" fill="#8BABFF"/>
<path d="M332.755 335.47C332.156 335.47 331.597 335.09 331.407 334.48C331.167 333.73 331.577 332.93 332.326 332.69C342.753 329.32 348.705 324.92 350.033 319.6C350.553 317.53 350.313 315.44 349.664 313.48C349.484 313.55 349.304 313.61 349.125 313.68C349.065 313.7 349.015 313.72 348.955 313.73C348.166 313.9 329.589 317.83 324.985 305.2C323.797 301.93 325.415 298.24 328.611 296.96C331.337 295.87 334.563 296.02 338.188 297.42C341.035 298.51 343.641 300.27 345.919 302.64C347.537 304.32 349.634 306.82 351.152 309.77C355.556 307.67 358.323 304.93 359.371 301.58C359.411 301.44 359.461 301.29 359.501 301.15C352.98 298.95 347.736 293.25 347.467 292.96C342.593 288.13 340.436 284.31 340.905 281.32C341.155 279.7 342.173 278.4 343.841 277.56C346.328 276.3 349.434 276.56 351.931 278.25C353.868 279.56 355.576 281.23 356.985 283.22C359.931 287.37 363.037 293.2 362.697 299.03C363.197 299.11 363.706 299.16 364.215 299.17C366.882 299.21 369.159 298.24 371.196 296.17C371.456 295.86 378.986 286.62 369.049 268.65C368.67 267.96 368.919 267.1 369.608 266.72C370.298 266.34 371.156 266.59 371.536 267.28C382.482 287.1 373.663 297.67 373.284 298.11C370.647 300.8 367.601 302.07 364.155 302.02C363.516 302.01 362.887 301.95 362.258 301.85C362.208 302.05 362.148 302.25 362.088 302.45C360.78 306.61 357.494 309.95 352.29 312.4C353.149 314.88 353.489 317.57 352.8 320.31C351.212 326.64 344.62 331.72 333.205 335.41C333.055 335.46 332.915 335.48 332.765 335.48L332.755 335.47ZM332.466 299.1C331.447 299.1 330.508 299.27 329.649 299.61C327.902 300.31 326.983 302.42 327.642 304.23C331.257 314.16 346.967 311.23 348.246 310.97C348.336 310.94 348.425 310.9 348.515 310.87C347.167 308.31 345.299 306.11 343.861 304.62C341.864 302.55 339.607 301.02 337.15 300.08C335.442 299.42 333.874 299.1 332.456 299.1H332.466ZM347.197 279.61C346.468 279.61 345.749 279.77 345.11 280.1C343.861 280.73 343.741 281.51 343.701 281.77C343.522 282.89 344.041 285.58 349.504 291C349.604 291.1 354.278 296.17 359.861 298.27C359.881 293.11 356.775 287.85 354.657 284.87C353.439 283.16 351.981 281.72 350.333 280.61C349.354 279.95 348.266 279.62 347.197 279.62V279.61Z" fill="#9B70FF"/>
</g>
</g>
<defs>
<clipPath id="clip0_1325_5199">
<rect width="400" height="400" fill="white"/>
</clipPath>
<clipPath id="clip1_1325_5199">
<rect width="400" height="400" fill="white"/>
</clipPath>
</defs>
</svg>
