<svg width="400" height="400" viewBox="0 0 400 400" fill="none" xmlns="http://www.w3.org/2000/svg">
<g clip-path="url(#clip0_1942_6798)">
<g clip-path="url(#clip1_1942_6798)">
<path d="M261.377 165.82C249.286 168.546 245.276 162.385 245.276 162.385C239.806 154.705 247.386 137.689 252.737 127.693L250.906 125.406C250.906 125.406 237.846 109.398 242.856 100.949C246.946 94.0686 254.717 96.2157 257.477 97.2543C261.237 95.3968 265.097 93.7491 268.057 93.1C283.107 89.7646 290.558 90.7732 296.948 94.3183C301.658 96.9447 303.948 99.8807 306.938 104.005C308.078 105.573 310.008 109.388 311.238 110.896L315.648 116.288V116.258C324.309 127.433 329.379 144.689 323.789 157.631C319.818 166.839 309.638 171.822 297.348 170.194L261.357 165.82H261.377Z" fill="#1C1E22"/>
<path d="M297.417 165.291L297.597 191.745C297.597 191.745 292.867 199.384 277.367 200.742C265.817 201.761 261.747 199.174 261.747 199.174L263.267 185.753L264.767 172.671L292.737 166.329L297.427 165.261H297.407L297.417 165.291Z" fill="#FFA6A6"/>
<path d="M292.727 166.359C292.667 167.078 292.397 167.937 291.977 168.916C286.137 182.168 269.937 185.134 263.267 185.773L264.767 172.691L292.737 166.349L292.727 166.359Z" fill="#C26060"/>
<path d="M264.197 106.222C260.757 108.968 258.237 112.703 256.757 116.847C253.287 126.514 245.986 149.792 250.357 164.093C255.967 182.487 272.807 179.202 282.837 175.397C292.868 171.602 297.418 165.301 297.418 165.301C297.418 165.301 306.928 168.287 313.058 159.379C319.178 150.471 315.058 140.485 309.618 138.308C304.178 136.121 297.848 140.155 297.848 140.155L302.658 130.469C302.658 130.469 284.137 90.3437 264.187 106.232L264.197 106.222Z" fill="#FFA6A6"/>
<path d="M299.188 154.735C298.868 154.735 298.538 154.606 298.298 154.356C297.818 153.867 297.828 153.068 298.318 152.588L307.618 143.501C308.108 143.021 308.898 143.031 309.388 143.521C309.868 144.01 309.858 144.809 309.368 145.288L300.068 154.376C299.828 154.616 299.508 154.735 299.198 154.735H299.188Z" fill="#C26060"/>
<path d="M308.498 155.574C308.278 155.574 308.058 155.514 307.858 155.394L301.558 151.61C300.968 151.25 300.778 150.491 301.128 149.892C301.478 149.293 302.248 149.113 302.848 149.463L309.148 153.247C309.738 153.607 309.928 154.366 309.578 154.965C309.348 155.355 308.928 155.574 308.508 155.574H308.498Z" fill="#C26060"/>
<path d="M272.047 137.419C272.137 135.701 271.277 134.263 270.127 134.204C268.977 134.144 267.977 135.492 267.897 137.209C267.807 138.927 268.667 140.365 269.817 140.425C270.967 140.485 271.967 139.137 272.047 137.419Z" fill="#1C1E22"/>
<path d="M275.227 130.249C274.787 130.249 274.357 130.009 274.127 129.6C272.017 125.735 268.677 127.303 268.537 127.373C267.917 127.673 267.167 127.423 266.867 126.804C266.567 126.185 266.817 125.436 267.447 125.136C269.387 124.187 273.737 123.658 276.327 128.411C276.657 129.021 276.437 129.78 275.827 130.109C275.637 130.209 275.437 130.259 275.227 130.259V130.249Z" fill="#1C1E22"/>
<path d="M253.726 136.451C253.816 134.733 252.956 133.295 251.806 133.235C250.656 133.175 249.656 134.523 249.566 136.241C249.476 137.958 250.346 139.396 251.486 139.456C252.636 139.516 253.636 138.168 253.726 136.451Z" fill="#1C1E22"/>
<path d="M250.706 126.684C250.436 126.684 250.156 126.594 249.926 126.414C249.396 125.985 249.296 125.216 249.716 124.677C250.856 123.219 254.046 121.261 257.936 124.237C258.486 124.657 258.586 125.446 258.166 125.985C257.746 126.524 256.956 126.634 256.416 126.215C253.646 124.087 251.976 125.845 251.676 126.215C251.426 126.514 251.066 126.674 250.696 126.674L250.706 126.684Z" fill="#1C1E22"/>
<path d="M255.117 154.456C254.537 154.456 254.017 154.046 253.897 153.457C252.057 144.33 256.277 139.017 256.457 138.787C256.897 138.258 257.677 138.168 258.217 138.608C258.747 139.037 258.837 139.826 258.407 140.355C258.247 140.555 254.757 145.059 256.357 152.958C256.497 153.637 256.057 154.296 255.377 154.426C255.297 154.446 255.207 154.446 255.127 154.446L255.117 154.456Z" fill="#1C1E22"/>
<path d="M265.107 162.395C264.727 162.395 264.357 162.355 263.977 162.275C262.087 161.866 260.637 160.517 260.107 158.68C260.107 158.68 260.077 158.59 260.077 158.58C259.987 158.251 260.027 157.871 260.207 157.581C260.387 157.292 260.667 157.062 260.997 156.982L269.627 155.075C270.037 154.985 270.467 155.105 270.767 155.404C271.067 155.694 271.197 156.123 271.117 156.543C271.097 156.633 270.667 158.72 269.057 160.597C268.057 161.756 266.607 162.405 265.097 162.405L265.107 162.395ZM263.137 159.069C263.497 159.449 263.967 159.719 264.507 159.838C265.517 160.058 266.507 159.729 267.177 158.96C267.447 158.65 267.667 158.33 267.847 158.031L263.137 159.069Z" fill="#1C1E22"/>
<path d="M257.537 113.981C257.537 113.981 262.487 103.685 274.487 110.636C291.178 120.313 282.297 146.527 297.848 140.145C313.408 133.754 305.668 114.001 305.668 114.001C305.668 114.001 264.377 83.0138 255.607 115.2L257.537 113.971V113.981Z" fill="#1C1E22"/>
<path d="M196.545 165.93C196.545 165.93 190.015 177.095 179.545 183.556C169.064 190.017 158.534 190.197 153.054 185.313C147.564 180.43 144.774 171.083 144.774 171.083C144.774 171.083 146.264 181.449 140.363 181.449C134.463 181.449 122.833 163.344 122.833 163.344C122.833 163.344 119.943 159.349 121.263 155.454C122.583 151.55 128.193 151.35 128.193 151.35C128.193 151.35 125.993 148.524 126.853 144.829C127.703 141.124 132.153 139.836 132.153 139.836C132.153 139.836 104.622 123.648 108.773 119.034C112.563 114.81 151.544 126.634 164.614 132.476C166.414 133.285 168.014 134.453 169.334 135.911L196.545 165.92V165.93Z" fill="#FFA6A6"/>
<path d="M184.375 181.399C184.325 181.399 184.265 181.399 184.215 181.399C171.464 180.87 165.404 167.608 163.864 163.593C158.014 165.081 150.974 166.05 148.354 163.104C147.654 162.325 146.644 160.607 147.794 157.871C150.314 151.859 159.164 147.086 166.144 144.14C166.344 144.06 166.484 144 166.544 143.97C167.164 143.681 167.904 143.93 168.214 144.539C168.524 145.149 168.284 145.888 167.674 146.197C167.604 146.227 167.414 146.317 167.114 146.447C157.854 150.351 151.814 154.755 150.094 158.84C149.624 159.958 149.664 160.837 150.214 161.446C151.644 163.054 157.184 162.834 164.324 160.897C164.974 160.717 165.634 161.087 165.844 161.716C166.064 162.395 171.364 178.443 184.425 178.912C185.095 178.932 185.635 179.491 185.635 180.161C185.635 180.83 185.075 181.409 184.385 181.409L184.375 181.399Z" fill="#C26060"/>
<path d="M149.183 158.88C148.983 158.88 148.783 158.83 148.593 158.73C137.353 152.688 131.863 141.204 131.633 140.725C131.343 140.105 131.613 139.357 132.233 139.067C132.863 138.777 133.603 139.037 133.893 139.666C133.943 139.776 139.273 150.891 149.773 156.533C150.383 156.862 150.603 157.611 150.283 158.221C150.053 158.64 149.623 158.88 149.183 158.88Z" fill="#C26060"/>
<path d="M147.693 173.08C142.453 173.08 135.693 166.22 127.543 152.688C127.363 152.399 127.233 152.169 127.133 152.019C126.773 151.43 126.953 150.661 127.533 150.301C128.123 149.932 128.893 150.112 129.253 150.701C129.353 150.861 129.493 151.09 129.673 151.4C139.953 168.467 145.493 170.743 147.853 170.584C147.903 170.574 147.973 170.564 148.053 170.564C150.033 170.314 151.473 169.525 152.323 168.237C152.943 167.298 153.543 165.86 152.913 164.352C152.893 164.302 152.843 164.172 152.833 164.113C152.653 163.443 153.053 162.764 153.713 162.585C154.343 162.415 155.003 162.764 155.213 163.374C156.043 165.361 155.753 167.568 154.413 169.605C153.123 171.552 151.073 172.711 148.303 173.05C148.263 173.05 148.233 173.05 148.193 173.05C148.153 173.05 148.083 173.07 148.073 173.07C147.943 173.07 147.803 173.08 147.673 173.08H147.693Z" fill="#C26060"/>
<path d="M198.445 162.325L274.817 243.793L205.985 293.934L155.784 190.866L198.455 162.335L198.445 162.325Z" fill="#D0DEFF"/>
<path d="M220.775 217.629C235.736 202.899 254.026 187.67 279.957 186.372C337.899 183.476 350.429 218.718 360.169 236.913C371.72 258.473 379.62 317.322 380 370H204.655C204.725 364.268 208.605 333.81 208.605 333.81L220.765 217.629H220.775Z" fill="#D0DEFF"/>
<path d="M50.0207 204.517L78.8815 192.544C79.9915 192.084 80.5215 190.806 80.0615 189.697L57.5509 135.652C57.0909 134.543 55.8109 134.014 54.7008 134.473L25.84 146.447C24.73 146.906 24.2 148.184 24.66 149.293L47.1706 203.339C47.6306 204.447 48.9107 204.976 50.0207 204.507V204.517Z" fill="#BCC5D4"/>
<path d="M53.6311 203.029L82.4919 191.056C83.6019 190.596 84.1319 189.318 83.6719 188.209L61.1613 134.164C60.7013 133.055 59.4212 132.526 58.3112 132.985L29.4504 144.959C28.3404 145.418 27.8103 146.696 28.2704 147.805L50.781 201.851C51.241 202.959 52.521 203.488 53.6311 203.029Z" fill="#1C1E22"/>
<path d="M67.9515 240.228C67.9515 240.228 43.0308 227.765 35.1106 216.361C27.1903 204.956 31.5805 200.303 31.5805 200.303C31.5805 200.303 26.6603 195.779 27.0503 189.797C27.8204 177.874 30.3004 184.574 30.3004 184.574C30.3004 184.574 28.6804 181.429 28.1304 175.737C27.5804 170.044 30.7004 163.973 30.7004 163.973C30.7004 163.973 38.7707 180.26 52.071 185.953C65.3614 191.645 74.3217 193.862 75.8917 190.686C77.4617 187.51 69.3515 179.012 72.4216 173.679C75.4817 168.347 87.722 176.535 94.3722 186.502C101.022 196.458 100.692 219.177 100.692 219.177L67.9515 240.238V240.228Z" fill="#FFA6A6"/>
<path d="M51.1903 200.782C51.0703 200.782 50.9503 200.762 50.8303 200.732C37.6603 196.768 28.7903 184.604 28.4203 184.085C28.0203 183.526 28.1503 182.747 28.7103 182.347C29.2703 181.948 30.0503 182.068 30.4503 182.627C30.5403 182.747 39.2103 194.621 51.5503 198.336C52.2103 198.535 52.5903 199.234 52.3903 199.893C52.2303 200.433 51.7303 200.782 51.1903 200.782Z" fill="#C26060"/>
<path d="M48.5004 212.456C48.4404 212.456 48.3704 212.456 48.3004 212.436C36.6804 210.599 30.7604 202.6 30.5104 202.26C30.1004 201.701 30.2304 200.922 30.7904 200.513C31.3504 200.113 32.1304 200.233 32.5304 200.792C32.5804 200.872 38.1304 208.302 48.6904 209.97C49.3704 210.079 49.8404 210.719 49.7304 211.398C49.6304 212.017 49.1004 212.446 48.5004 212.446V212.456Z" fill="#C26060"/>
<path d="M172.404 338.613C172.204 338.623 172.104 338.623 172.104 338.623C172.104 338.623 100.422 347.601 60.4011 242.395L103.072 214.603C103.072 214.603 131.353 247.648 165.064 249.515C174.904 250.065 180.364 249.336 191.925 243.324C211.495 233.138 231.656 195.539 269.377 187.69C283.407 184.774 298.048 190.277 305.958 202.21C306.218 202.61 306.488 203.019 306.738 203.439C314.778 216.551 314.388 233.158 306.328 246.26C294.708 265.164 275.377 293.096 239.746 316.623C219.696 329.855 196.415 337.405 172.414 338.613H172.404Z" fill="#D0DEFF"/>
<path d="M209.515 332.791C208.935 332.791 208.415 332.382 208.295 331.792C208.155 331.113 208.595 330.464 209.275 330.324C209.335 330.314 215.745 328.976 226.666 323.144C236.756 317.762 252.856 307.346 272.307 288.272C272.797 287.793 273.587 287.793 274.077 288.292C274.557 288.781 274.557 289.57 274.057 290.06C236.236 327.149 210.825 332.561 209.765 332.771C209.685 332.791 209.595 332.791 209.515 332.791Z" fill="#91B1FF"/>
<path d="M170.024 250.854C168.554 250.854 167.004 250.804 165.334 250.704C164.644 250.664 164.114 250.075 164.154 249.386C164.194 248.696 164.774 248.177 165.474 248.207C175.354 248.756 180.524 247.957 191.685 242.155C198.565 238.57 205.515 231.52 213.565 223.361C227.556 209.171 244.966 191.505 269.467 186.412C270.147 186.272 270.807 186.702 270.947 187.381C271.087 188.06 270.657 188.719 269.977 188.859C246.226 193.802 229.826 210.439 215.355 225.119C207.155 233.437 200.075 240.618 192.845 244.382C183.145 249.425 177.574 250.863 170.024 250.863V250.854Z" fill="#91B1FF"/>
<path d="M200.234 266.103C195.904 266.103 188.784 262.907 178.014 249.455C177.674 249.036 177.645 248.447 177.945 247.997C178.235 247.548 178.785 247.328 179.305 247.468C180.105 247.668 198.885 252.521 204.195 258.863C205.225 260.091 205.494 261.719 204.934 263.217C204.374 264.715 203.085 265.753 201.505 266.003C201.115 266.063 200.695 266.103 200.245 266.103H200.234ZM182.514 250.973C192.644 262.747 198.455 263.956 201.105 263.536C201.785 263.426 202.335 262.987 202.575 262.338C202.815 261.689 202.705 260.99 202.255 260.46C198.815 256.346 188.265 252.711 182.505 250.973H182.514Z" fill="#91B1FF"/>
<path d="M165.264 55.7712H46.0007C31.6403 55.7712 20 67.3852 20 81.7156C20 96.0559 31.6403 107.67 46.0007 107.67H64.4912V121.94C64.4912 123.588 67.0113 124.407 68.4713 123.259L88.1019 107.67H165.254C179.614 107.67 191.255 96.0559 191.255 81.7256C191.255 67.3852 179.614 55.7712 165.254 55.7712H165.264Z" fill="#628DFF"/>
<path d="M57.2306 75.8436C56.8906 75.7538 56.5406 75.8137 56.2406 75.9934L50.6906 79.3688V73.387C50.6906 72.668 50.1006 72.0688 49.3706 72.0688C48.6406 72.0688 48.0506 72.658 48.0506 73.387V79.3688L42.9306 76.2531C42.3006 75.8736 41.4906 76.0733 41.1206 76.6825C40.7506 77.2916 40.9406 78.1105 41.5506 78.49L46.8306 81.7156L41.1206 85.2008C40.8206 85.3805 40.6106 85.6701 40.5206 86.0197C40.4306 86.3692 40.4906 86.7087 40.6706 87.0183C40.9106 87.4078 41.3406 87.6574 41.8006 87.6574C42.0406 87.6574 42.2706 87.5875 42.4806 87.4677L48.0306 84.0923V90.0741C48.0306 90.7931 48.6206 91.3923 49.3506 91.3923C50.0806 91.3923 50.6706 90.8031 50.6706 90.0741V84.0923L55.7906 87.208C56.0006 87.3379 56.2306 87.3978 56.4706 87.3978C56.9306 87.3978 57.3606 87.1581 57.6006 86.7587C57.7806 86.4591 57.8406 86.1095 57.7506 85.77C57.6606 85.4205 57.4606 85.1309 57.1506 84.9511L51.8706 81.7256L57.5806 78.2403C57.8806 78.0606 58.0906 77.771 58.1806 77.4215C58.2706 77.0719 58.2106 76.7324 58.0306 76.4328C57.8506 76.1332 57.5606 75.9235 57.2106 75.8336L57.2306 75.8436Z" fill="white"/>
<path d="M78.7413 75.9934L73.1913 79.3688V73.387C73.1913 72.668 72.6013 72.0688 71.8713 72.0688C71.1413 72.0688 70.5513 72.658 70.5513 73.387V79.3688L65.4313 76.2531C64.8013 75.8736 63.9913 76.0733 63.6213 76.6825C63.2513 77.2916 63.4413 78.1105 64.0513 78.49L69.3313 81.7156L63.6213 85.2008C63.3213 85.3805 63.1113 85.6701 63.0213 86.0197C62.9313 86.3692 62.9913 86.7087 63.1713 87.0183C63.4113 87.4078 63.8413 87.6574 64.3013 87.6574C64.5413 87.6574 64.7713 87.5875 64.9813 87.4677L70.5313 84.0923V90.0741C70.5313 90.7931 71.1213 91.3923 71.8513 91.3923C72.5813 91.3923 73.1713 90.8031 73.1713 90.0741V84.0923L78.2913 87.208C78.5013 87.3379 78.7313 87.3978 78.9713 87.3978C79.4313 87.3978 79.8613 87.1581 80.1013 86.7587C80.2813 86.4591 80.3413 86.1095 80.2513 85.77C80.1613 85.4205 79.9613 85.1309 79.6513 84.9511L74.3713 81.7256L80.0813 78.2403C80.3813 78.0606 80.5913 77.771 80.6813 77.4215C80.7713 77.0719 80.7113 76.7324 80.5313 76.4328C80.1513 75.8137 79.3313 75.6139 78.7213 76.0034L78.7413 75.9934Z" fill="white"/>
<path d="M102.252 75.8436C101.912 75.7538 101.562 75.8137 101.262 75.9934L95.7116 79.3688V73.387C95.7116 72.668 95.1216 72.0688 94.3916 72.0688C93.6616 72.0688 93.0716 72.658 93.0716 73.387V79.3688L87.9516 76.2531C87.3216 75.8736 86.5116 76.0733 86.1416 76.6825C85.7716 77.2916 85.9616 78.1105 86.5716 78.49L91.8516 81.7156L86.1416 85.2008C85.8416 85.3805 85.6316 85.6701 85.5416 86.0197C85.4516 86.3692 85.5116 86.7087 85.6916 87.0183C85.9316 87.4078 86.3616 87.6574 86.8216 87.6574C87.0616 87.6574 87.2916 87.5875 87.5016 87.4677L93.0516 84.0923V90.0741C93.0516 90.7931 93.6416 91.3923 94.3716 91.3923C95.1016 91.3923 95.6916 90.8031 95.6916 90.0741V84.0923L100.812 87.208C101.022 87.3379 101.252 87.3978 101.502 87.3978C101.962 87.3978 102.392 87.1581 102.632 86.7587C102.812 86.4591 102.872 86.1095 102.782 85.77C102.692 85.4205 102.492 85.1309 102.182 84.9511L96.9016 81.7256L102.612 78.2403C102.912 78.0606 103.122 77.771 103.212 77.4215C103.302 77.0719 103.242 76.7324 103.062 76.4328C102.882 76.1332 102.592 75.9235 102.242 75.8336H102.252V75.8436Z" fill="white"/>
<path d="M123.753 75.9934L118.203 79.3688V73.387C118.203 72.668 117.613 72.0688 116.883 72.0688C116.153 72.0688 115.563 72.658 115.563 73.387V79.3688L110.443 76.2531C109.813 75.8636 109.003 76.0733 108.633 76.6825C108.253 77.3016 108.453 78.1105 109.063 78.49L114.343 81.7156L108.633 85.2008C108.333 85.3805 108.123 85.6701 108.033 86.0197C107.943 86.3692 108.003 86.7087 108.183 87.0183C108.423 87.4078 108.853 87.6574 109.313 87.6574C109.553 87.6574 109.783 87.5875 110.003 87.4677L115.553 84.0923V90.0741C115.553 90.7931 116.143 91.3923 116.873 91.3923C117.603 91.3923 118.193 90.8031 118.193 90.0741V84.0923L123.313 87.208C123.523 87.3379 123.753 87.3978 123.993 87.3978C124.453 87.3978 124.883 87.1581 125.123 86.7587C125.303 86.4591 125.363 86.1095 125.273 85.77C125.183 85.4205 124.973 85.1309 124.673 84.9511L119.393 81.7256L125.103 78.2403C125.403 78.0606 125.613 77.771 125.703 77.4215C125.793 77.0719 125.733 76.7324 125.553 76.4328C125.173 75.8137 124.363 75.6139 123.743 76.0034L123.753 75.9934Z" fill="white"/>
<path d="M146.263 75.9934L140.713 79.3688V73.387C140.713 72.668 140.123 72.0688 139.393 72.0688C138.663 72.0688 138.073 72.658 138.073 73.387V79.3688L132.953 76.2531C132.323 75.8636 131.513 76.0733 131.143 76.6825C130.763 77.3016 130.963 78.1105 131.573 78.49L136.853 81.7156L131.143 85.2008C130.843 85.3805 130.633 85.6701 130.543 86.0197C130.453 86.3692 130.513 86.7087 130.693 87.0183C130.933 87.4078 131.353 87.6574 131.823 87.6574C132.063 87.6574 132.293 87.5875 132.503 87.4677L138.053 84.0923V90.0741C138.053 90.7931 138.643 91.3923 139.373 91.3923C140.103 91.3923 140.693 90.8031 140.693 90.0741V84.0923L145.813 87.208C146.023 87.3379 146.253 87.3978 146.493 87.3978C146.953 87.3978 147.383 87.1581 147.623 86.7587C147.803 86.4591 147.863 86.1095 147.773 85.77C147.683 85.4205 147.473 85.1309 147.173 84.9511L141.893 81.7256L147.603 78.2403C147.903 78.0606 148.113 77.771 148.203 77.4215C148.293 77.0719 148.233 76.7324 148.053 76.4328C147.673 75.8137 146.853 75.6139 146.243 76.0034H146.253L146.263 75.9934Z" fill="white"/>
<path d="M170.574 76.4328C170.194 75.8137 169.384 75.6139 168.764 76.0034L163.214 79.3788V73.397C163.214 72.678 162.624 72.0788 161.894 72.0788C161.164 72.0788 160.574 72.668 160.574 73.397V79.3788L155.454 76.2631C154.824 75.8736 154.014 76.0833 153.644 76.6925C153.264 77.3116 153.464 78.1205 154.074 78.5L159.354 81.7256L153.644 85.2108C153.344 85.3905 153.134 85.6801 153.044 86.0297C152.954 86.3792 153.014 86.7187 153.194 87.0283C153.434 87.4177 153.864 87.6674 154.324 87.6674C154.564 87.6674 154.794 87.5975 155.004 87.4777L160.554 84.1023V90.0841C160.554 90.8031 161.144 91.4023 161.874 91.4023C162.604 91.4023 163.194 90.8131 163.194 90.0841V84.1023L168.314 87.218C168.524 87.3478 168.754 87.4078 168.994 87.4078C169.454 87.4078 169.884 87.1681 170.124 86.7686C170.304 86.469 170.364 86.1195 170.274 85.78C170.184 85.4305 169.974 85.1409 169.674 84.9611L164.394 81.7355L170.104 78.2503C170.404 78.0706 170.614 77.781 170.704 77.4315C170.794 77.0819 170.734 76.7424 170.554 76.4428L170.574 76.4328Z" fill="white"/>
<path d="M210.495 77.9408C209.935 77.9408 209.435 77.5613 209.285 77.0021C202.715 51.4671 183.065 42.4794 182.865 42.3895C182.235 42.1099 181.955 41.3709 182.235 40.7418C182.515 40.1127 183.255 39.8231 183.885 40.1127C184.735 40.4921 204.845 49.6995 211.705 76.3929C211.875 77.062 211.475 77.741 210.805 77.9108C210.705 77.9408 210.595 77.9508 210.495 77.9508V77.9408Z" fill="#8396B2"/>
<path d="M189.425 56.1207C189.075 56.1207 188.725 55.9709 188.485 55.6913C188.035 55.172 188.085 54.3831 188.605 53.9337L202.425 41.9302C202.945 41.4808 203.735 41.5307 204.185 42.05C204.635 42.5693 204.585 43.3582 204.065 43.8076L190.245 55.8111C190.005 56.0208 189.715 56.1207 189.425 56.1207Z" fill="#8396B2"/>
<path d="M199.235 69.4624C198.815 69.4624 198.395 69.2527 198.165 68.8632C197.805 68.274 197.995 67.5051 198.585 67.1456L214.385 57.6186C214.975 57.2591 215.745 57.4489 216.105 58.0381C216.465 58.6273 216.275 59.3962 215.685 59.7557L199.885 69.2826C199.685 69.4025 199.465 69.4624 199.235 69.4624Z" fill="#8396B2"/>
</g>
</g>
<defs>
<clipPath id="clip0_1942_6798">
<rect width="400" height="400" fill="white"/>
</clipPath>
<clipPath id="clip1_1942_6798">
<rect width="400" height="400" fill="white"/>
</clipPath>
</defs>
</svg>
