<svg width="400" height="400" viewBox="0 0 400 400" fill="none" xmlns="http://www.w3.org/2000/svg">
<g clip-path="url(#clip0_1325_5200)">
<g clip-path="url(#clip1_1325_5200)">
<path d="M309.71 54.291H89.26C83.7372 54.291 79.26 58.7683 79.26 64.2913V106.202C79.26 111.725 83.7372 116.203 89.26 116.203H309.71C315.233 116.203 319.71 111.725 319.71 106.202V64.2913C319.71 58.7683 315.233 54.291 309.71 54.291Z" fill="#EAEAEF"/>
<path d="M231.01 78.7015H148.95C147.29 78.7015 145.94 77.3615 145.94 75.7015C145.94 74.0415 147.29 72.7015 148.95 72.7015H231.01C232.67 72.7015 234.02 74.0415 234.02 75.7015C234.02 77.3615 232.67 78.7015 231.01 78.7015Z" fill="#D2D2DD"/>
<path d="M292.98 97.792H148.95C147.29 97.792 145.94 96.452 145.94 94.792C145.94 93.132 147.29 91.792 148.95 91.792H292.98C294.64 91.792 295.99 93.132 295.99 94.792C295.99 96.452 294.64 97.792 292.98 97.792Z" fill="#D2D2DD"/>
<path d="M119.04 101.231C127.893 101.231 135.07 94.0769 135.07 85.2514C135.07 76.4259 127.893 69.2714 119.04 69.2714C110.187 69.2714 103.01 76.4259 103.01 85.2514C103.01 94.0769 110.187 101.231 119.04 101.231Z" fill="#D2D2DD"/>
<path d="M309.71 129.703H89.26C83.7372 129.703 79.26 134.18 79.26 139.703V181.615C79.26 187.138 83.7372 191.615 89.26 191.615H309.71C315.233 191.615 319.71 187.138 319.71 181.615V139.703C319.71 134.18 315.233 129.703 309.71 129.703Z" fill="#EAEAEF"/>
<path d="M231.01 154.114H148.95C147.29 154.114 145.94 152.774 145.94 151.114C145.94 149.454 147.29 148.114 148.95 148.114H231.01C232.67 148.114 234.02 149.454 234.02 151.114C234.02 152.774 232.67 154.114 231.01 154.114Z" fill="#D2D2DD"/>
<path d="M292.98 173.204H148.95C147.29 173.204 145.94 171.864 145.94 170.204C145.94 168.544 147.29 167.204 148.95 167.204H292.98C294.64 167.204 295.99 168.544 295.99 170.204C295.99 171.864 294.64 173.204 292.98 173.204Z" fill="#D2D2DD"/>
<path d="M119.04 176.643C127.893 176.643 135.07 169.489 135.07 160.663C135.07 151.838 127.893 144.683 119.04 144.683C110.187 144.683 103.01 151.838 103.01 160.663C103.01 169.489 110.187 176.643 119.04 176.643Z" fill="#D2D2DD"/>
<path d="M256.69 369.54H90.72C90.28 366.29 94.7 326.079 94.7 326.079L150.06 204.685L181.49 204.235C181.49 204.235 186.1 204.285 191.25 204.615C205.58 205.515 219.16 213.605 229.26 223.806C234.82 229.416 239.88 236.626 241.6 245.176C246.47 269.467 247.44 307.428 256.69 369.53V369.54Z" fill="#CAD8FF"/>
<path d="M182.99 214.206C182.99 214.206 197.95 259.497 204.29 298.548C210.62 337.599 212.37 369.26 212.37 369.26H202.63C202.63 369.26 195.45 301.288 190.87 280.777C185.33 255.977 173.95 215.246 173.95 215.246C173.95 215.246 177.85 212.105 182.99 214.206Z" fill="#88A8FF"/>
<path d="M184.54 185.185C195.77 186.775 198.97 180.855 198.97 180.855C203.38 173.434 195.22 158.484 189.6 149.754L191.1 147.524C191.1 147.524 201.83 131.943 196.62 124.593C192.39 118.623 185.44 121.153 183.01 122.303C179.44 120.873 175.79 119.673 173.04 119.293C159.06 117.353 152.34 118.823 146.77 122.543C142.66 125.293 140.8 128.143 138.37 132.123C137.44 133.633 135.96 137.263 134.96 138.733L131.33 143.983C124.27 154.814 120.93 170.944 126.99 182.355C131.3 190.455 140.95 194.255 152.04 191.855L184.54 185.185Z" fill="#1C1E22"/>
<path d="M184.46 204.335L184.3 203.515L181.96 191.685L155.97 187.965L151.61 187.345L152.88 204.405C153.21 204.615 162.81 210.645 173.55 212.145C183.74 213.565 184.41 205.425 184.45 204.325L184.46 204.335Z" fill="#FFA0A0"/>
<path d="M155.98 187.985C156.1 188.635 156.4 189.405 156.85 190.265C163.17 201.935 178.16 203.435 184.3 203.535L181.96 191.705L155.97 187.985H155.98Z" fill="#BC6060"/>
<path d="M177.53 130.973C180.87 133.223 183.44 136.453 185.11 140.124C188.99 148.694 197.38 169.404 194.46 182.775C190.71 199.985 175.11 198.225 165.67 195.495C156.23 192.765 151.61 187.355 151.61 187.355C151.61 187.355 143.15 190.785 136.9 183.105C130.65 175.434 133.66 166.014 138.47 163.614C143.28 161.214 149.35 164.424 149.35 164.424L144.24 155.944C144.24 155.944 158.14 117.943 177.53 130.973Z" fill="#FFA0A0"/>
<path d="M148.84 177.564C148.59 177.564 148.33 177.484 148.12 177.304L139.12 169.854C138.64 169.454 138.58 168.754 138.97 168.274C139.37 167.794 140.08 167.734 140.55 168.124L149.55 175.574C150.03 175.974 150.09 176.674 149.7 177.154C149.48 177.424 149.16 177.564 148.83 177.564H148.84Z" fill="#BC6060"/>
<path d="M140.56 179.004C140.21 179.004 139.87 178.844 139.65 178.534C139.29 178.034 139.4 177.334 139.9 176.964L145.27 173.104C145.77 172.744 146.48 172.854 146.84 173.354C147.2 173.854 147.09 174.554 146.59 174.924L141.22 178.784C141.02 178.924 140.79 178.994 140.56 178.994V179.004Z" fill="#BC6060"/>
<path d="M169.68 163.044C170.72 162.904 171.4 161.524 171.2 159.964C170.99 158.404 169.98 157.244 168.94 157.384C167.9 157.524 167.22 158.894 167.42 160.464C167.63 162.024 168.64 163.184 169.68 163.044Z" fill="#1C1E22"/>
<path d="M163.85 153.744C163.69 153.744 163.52 153.714 163.37 153.634C162.81 153.374 162.57 152.714 162.83 152.154C162.91 151.984 164.85 147.974 170.32 148.734C170.94 148.824 171.36 149.384 171.28 150.004C171.19 150.614 170.63 151.044 170.01 150.954C166.24 150.424 164.93 152.994 164.87 153.104C164.67 153.504 164.27 153.734 163.85 153.734V153.744Z" fill="#1C1E22"/>
<path d="M186.33 160.794C187.37 160.654 188.05 159.274 187.85 157.714C187.64 156.154 186.63 154.994 185.59 155.134C184.55 155.274 183.87 156.644 184.07 158.214C184.28 159.774 185.29 160.934 186.33 160.794Z" fill="#1C1E22"/>
<path d="M180.82 149.084C180.52 149.084 180.22 148.964 180 148.734C179.57 148.284 179.6 147.574 180.05 147.154C180.19 147.024 183.48 144.014 188.27 146.754C188.81 147.064 189 147.744 188.69 148.284C188.38 148.824 187.69 149.004 187.15 148.704C183.79 146.784 181.61 148.774 181.59 148.794C181.37 148.994 181.1 149.094 180.82 149.094V149.084Z" fill="#1C1E22"/>
<path d="M174.21 182.995C172.85 182.995 171.55 182.415 170.65 181.365C169.2 179.675 168.81 177.805 168.8 177.725C168.73 177.355 168.85 176.975 169.12 176.705C169.39 176.445 169.78 176.325 170.15 176.415L177.91 178.135C178.21 178.205 178.47 178.385 178.63 178.655C178.79 178.915 178.83 179.235 178.75 179.535L177.67 179.235L178.74 179.565C178.24 181.305 176.93 182.515 175.23 182.885C174.89 182.955 174.55 182.995 174.21 182.995ZM171.75 179.065C171.92 179.345 172.12 179.625 172.36 179.905C172.95 180.595 173.85 180.885 174.75 180.695C175.24 180.585 175.67 180.345 176 180.005L171.76 179.065H171.75Z" fill="#1C1E22"/>
<path d="M184.14 174.884C184.09 174.884 184.04 174.884 183.99 174.874C183.37 174.794 182.94 174.224 183.03 173.614C184.03 166.294 180.21 162.314 180.05 162.154C179.62 161.714 179.62 161.004 180.05 160.574C180.49 160.144 181.2 160.144 181.64 160.574C181.84 160.774 186.41 165.454 185.25 173.924C185.17 174.484 184.69 174.894 184.14 174.894V174.884Z" fill="#1C1E22"/>
<path d="M183.15 136.463C183.15 136.463 178.9 128.533 168.47 135.773C153.97 145.843 164.01 169.114 149.34 164.444C134.67 159.764 140.26 141.163 140.26 141.163C140.26 141.163 172.74 107.732 183.14 136.463H183.15Z" fill="#1C1E22"/>
<mask id="mask0_1325_5200" style="mask-type:luminance" maskUnits="userSpaceOnUse" x="248" y="149" width="101" height="99">
<path d="M291.37 149.154L348.86 196.085L306.33 247.836L248.84 200.905L291.37 149.154Z" fill="white"/>
</mask>
<g mask="url(#mask0_1325_5200)">
<path d="M280.64 166.524L306.57 164.454C308.64 164.294 310.64 164.894 312.19 166.154L328.02 179.074C329.57 180.335 330.57 182.175 330.8 184.235L333.87 209.985C334.45 214.806 330.85 219.456 325.98 220.136L283.68 226.026C279.02 226.686 275 223.406 274.73 218.726L272.22 176.234C271.93 171.364 275.78 166.924 280.65 166.524H280.64Z" fill="#6CD9F3"/>
<path d="M332.05 216.515L274.58 169.604C272.99 171.384 272.07 173.744 272.22 176.234L273.01 189.395L274.76 218.725C275.03 223.406 279.05 226.686 283.71 226.026L312.91 221.956L326.01 220.126C328.48 219.776 330.62 218.405 332.06 216.515H332.05Z" fill="#2BB1D5"/>
<path d="M286.43 179.325L320.16 206.865L330.28 182.165C329.79 180.965 329.03 179.915 328.02 179.084L312.2 166.174C311.2 165.354 310 164.814 308.73 164.574L286.42 179.314V179.335L286.43 179.325Z" fill="#8AE3FB"/>
<path d="M286.43 179.324L276.25 222.946C277.02 224.006 278.05 224.846 279.25 225.386L320.16 206.855L286.43 179.314V179.324Z" fill="#4AC3E4"/>
</g>
<mask id="mask1_1325_5200" style="mask-type:luminance" maskUnits="userSpaceOnUse" x="211" y="174" width="74" height="74">
<path d="M284.09 174.704H211.34V247.216H284.09V174.704Z" fill="white"/>
</mask>
<g mask="url(#mask1_1325_5200)">
<path d="M247.71 244.796C266.46 244.796 281.66 229.646 281.66 210.955C281.66 192.265 266.46 177.114 247.71 177.114C228.96 177.114 213.76 192.265 213.76 210.955C213.76 229.646 228.96 244.796 247.71 244.796Z" fill="#FFDC33"/>
<path d="M247.71 247.206C267.8 247.206 284.09 230.976 284.09 210.955C284.09 190.935 267.8 174.704 247.71 174.704C227.62 174.704 211.33 190.935 211.33 210.955C211.33 230.976 227.62 247.206 247.71 247.206Z" fill="#A77EFF"/>
<path d="M247.71 243.586C265.79 243.586 280.45 228.976 280.45 210.955C280.45 192.935 265.79 178.324 247.71 178.324C229.63 178.324 214.97 192.935 214.97 210.955C214.97 228.976 229.63 243.586 247.71 243.586Z" fill="#C4A9FF"/>
<path d="M247.71 236.336C261.77 236.336 273.17 224.976 273.17 210.955C273.17 196.935 261.77 185.575 247.71 185.575C233.65 185.575 222.25 196.935 222.25 210.955C222.25 224.976 233.65 236.336 247.71 236.336Z" fill="#A77EFF"/>
<path d="M247.71 195.245L252.58 204.795L263.47 206.325L255.59 213.755L257.45 224.245L247.71 219.295L237.97 224.245L239.83 213.755L231.95 206.325L242.84 204.795L247.71 195.245Z" fill="#F6F1FF"/>
</g>
<path d="M184.57 260.757V343.299C184.57 348.739 189.03 353.179 194.48 353.179H319.39C324.84 353.179 329.3 348.739 329.3 343.299V260.757C329.3 255.317 324.84 250.917 319.39 250.917H194.48C189.03 250.917 184.57 255.317 184.57 260.757Z" fill="#FFD525"/>
<path d="M247.04 260.757V343.299C247.04 348.739 249.84 353.179 253.27 353.179H331.8C335.23 353.179 338.03 348.739 338.03 343.299V260.757C338.03 255.317 335.23 250.917 331.8 250.917H253.27C249.84 250.917 247.04 255.317 247.04 260.757Z" fill="#FFB628"/>
<path d="M263.55 227.706H178.92C176.86 227.706 175.41 229.726 176.08 231.676L184.57 256.376H247.05L263.55 227.706Z" fill="#FFD525"/>
<path d="M337.35 256.376L359.65 223.776C360.56 222.446 359.6 220.656 357.99 220.656H266.11C264.55 220.656 263.12 221.566 262.47 222.976L247.04 256.366H337.35V256.376Z" fill="#FFB628"/>
<path d="M247.04 258.366H184.56C183.45 258.366 182.56 257.476 182.56 256.366C182.56 255.256 183.46 254.366 184.56 254.366H247.04C248.15 254.366 249.04 255.256 249.04 256.366C249.04 257.476 248.14 258.366 247.04 258.366Z" fill="white"/>
<path d="M338.27 320.578C342.53 320.928 346.83 320.308 350.74 318.608C354.89 316.798 358.59 313.848 355.26 309.528C349.05 301.458 315.52 299.568 312.61 309.698C310.41 317.368 329.06 319.828 338.27 320.578Z" fill="#FFA0A0"/>
<path d="M337.26 335.848C341.52 336.198 345.82 335.578 349.73 333.878C353.88 332.068 357.58 329.118 354.25 324.798C348.04 316.728 314.51 314.848 311.6 324.968C309.4 332.638 328.05 335.098 337.26 335.848Z" fill="#FFA0A0"/>
<path d="M332.74 349.599C336.4 350.539 340.24 350.649 343.91 349.749C347.8 348.799 351.47 346.779 349.23 342.509C345.04 334.539 316.08 327.859 312.01 336.249C308.93 342.599 324.82 347.559 332.74 349.589V349.599Z" fill="#FFA0A0"/>
<path d="M340.22 321.758C331.62 321.758 322.89 319.338 319 318.108C317.14 317.518 315.49 316.688 314.09 315.638C311.84 313.958 310.74 312.088 310.9 310.238C311.08 308.148 312.85 306.228 316.16 304.538C318.47 303.358 321.11 302.538 324 302.108C327.75 301.548 333.27 301.088 338.31 302.008C338.91 302.118 339.31 302.698 339.2 303.298C339.09 303.898 338.51 304.298 337.91 304.188C333.17 303.318 327.91 303.768 324.33 304.298C321.68 304.688 319.28 305.428 317.18 306.508C314.63 307.808 313.23 309.168 313.12 310.428C313.01 311.758 314.32 313.028 315.44 313.868C316.64 314.768 318.07 315.488 319.69 315.998C324.37 317.478 336.31 320.748 346.09 319.088C346.69 318.988 347.27 319.388 347.37 319.998C347.47 320.598 347.07 321.168 346.46 321.278C344.44 321.618 342.34 321.768 340.23 321.768L340.22 321.758Z" fill="#BC6060"/>
<path d="M338.58 337.108C331.12 337.108 324.4 335.468 320.93 334.438C318.54 333.728 316.39 332.728 314.53 331.448C311.63 329.458 310.19 326.998 310.58 324.688C311.12 321.498 314.81 319.008 321.87 317.078C322.46 316.918 323.07 317.258 323.24 317.848C323.4 318.438 323.05 319.048 322.46 319.208C314.53 321.378 312.99 323.798 312.77 325.058C312.42 327.128 314.99 329.078 315.79 329.628C317.45 330.768 319.4 331.678 321.56 332.318C325.13 333.378 332.29 335.118 340.05 334.878C340.64 334.848 341.18 335.338 341.19 335.948C341.21 336.558 340.73 337.068 340.11 337.088C339.59 337.108 339.08 337.108 338.57 337.108H338.58Z" fill="#BC6060"/>
<path d="M336.03 351.169C335.96 351.169 335.9 351.169 335.83 351.149C334.98 350.999 314.98 347.349 311.21 340.389C310.4 338.899 310.33 337.359 310.98 335.809C311.04 335.679 314.06 329.989 322.13 332.529C322.72 332.709 323.04 333.339 322.86 333.919C322.68 334.499 322.05 334.829 321.47 334.639C315.25 332.679 313.09 336.589 313 336.749C312.64 337.589 312.69 338.439 313.17 339.329C315.88 344.329 330.74 347.979 336.23 348.959C336.83 349.069 337.24 349.639 337.13 350.249C337.03 350.789 336.57 351.159 336.04 351.159L336.03 351.169Z" fill="#BC6060"/>
<path d="M201.95 333.119C201.95 333.119 229.45 323.679 232.07 327.099C234.7 330.519 223.49 345.129 223.49 345.129L232.44 353.179H261.28L258.72 358.409C258.72 358.409 265.95 358.219 265.06 362.8C264.18 367.38 242.51 377.19 224.14 379.81C205.76 382.43 179.72 357.069 179.72 357.069L201.94 333.129L201.95 333.119Z" fill="#FFA0A0"/>
<path d="M259.72 359.509H236.27C235.91 359.509 235.58 359.339 235.37 359.049L231 353.009C230.64 352.509 230.75 351.819 231.25 351.459C231.75 351.099 232.44 351.209 232.8 351.709L236.84 357.289H259.72C260.33 357.289 260.83 357.789 260.83 358.399C260.83 359.009 260.33 359.509 259.72 359.509Z" fill="#BC6060"/>
<path d="M158.19 292.198L150.06 204.685C150.06 204.685 86.7299 206.455 79.7399 255.937C77.5499 271.427 79.3499 286.267 82.3799 298.668C88.0199 321.698 103.08 341.269 123.83 352.839C139.79 361.74 161.39 369.86 185.94 368.69L204.44 330.389C204.44 330.389 163.42 314.298 158.19 292.198Z" fill="#CAD8FF"/>
<path d="M204.44 331.479C204.29 331.479 204.13 331.449 203.98 331.379C157.74 310.208 145.62 286.137 145.13 285.127C144.87 284.587 145.09 283.937 145.64 283.677C146.18 283.417 146.84 283.637 147.1 284.177C147.22 284.417 159.45 308.588 204.9 329.399C205.45 329.649 205.69 330.299 205.44 330.839C205.26 331.239 204.86 331.469 204.45 331.469L204.44 331.479Z" fill="#8BABFF"/>
<path d="M185.25 369.78C128.68 369.78 95.2 328.009 94.87 327.589C94.5 327.119 94.5799 326.429 95.0599 326.059C95.5299 325.689 96.2199 325.769 96.5899 326.239C96.9199 326.659 129.78 367.6 185.26 367.6C185.49 367.6 185.71 367.6 185.94 367.6C186.54 367.6 187.03 368.08 187.03 368.68C187.03 369.28 186.55 369.77 185.94 369.78C185.71 369.78 185.48 369.78 185.25 369.78Z" fill="#8BABFF"/>
<path d="M184.47 204.215C184.47 204.215 184.47 204.265 184.47 204.335C184.43 205.435 183.76 213.575 173.57 212.155C162.83 210.655 153.22 204.615 152.9 204.415H152.88C152.88 204.415 151.1 204.565 150.07 204.695C147.77 204.975 160.2 227.235 164 226.015C166.79 225.115 171.79 221.225 175.26 218.195C176.51 217.105 177.58 216.125 178.26 215.435C179.3 214.395 181.65 215.375 184.2 216.785C188.01 218.885 192.27 221.955 193.3 220.725C195.02 218.695 184.47 204.215 184.47 204.215Z" fill="#88A8FF"/>
<path d="M48.1699 258.597C47.7899 258.597 47.4199 258.437 47.1499 258.137C38.9699 248.876 37.8199 240.236 43.6499 231.716C46.7799 227.136 51.2399 224.486 56.2099 224.256C57.2999 224.206 58.3899 224.276 59.4599 224.466C60.1499 221.466 61.1899 218.376 62.5699 215.215C65.9899 207.435 70.2399 202.075 70.4199 201.855C70.8899 201.265 71.7499 201.175 72.3299 201.635C72.9199 202.105 73.0199 202.955 72.5499 203.545C72.4399 203.685 64.8199 213.365 62.0999 225.176C64.8799 226.196 67.4499 228.036 69.5399 230.556C72.4399 234.056 73.5799 238.226 72.9299 242.946C72.5499 245.696 70.4899 247.676 67.6799 247.996C64.4799 248.356 61.4199 246.486 60.2599 243.446C58.3999 238.566 57.9599 233.046 58.9199 227.136C58.0599 226.986 57.1899 226.936 56.3199 226.976C52.2299 227.166 48.5299 229.396 45.8899 233.246C40.7999 240.696 41.8399 248.036 49.1899 256.337C49.6899 256.897 49.6299 257.757 49.0699 258.257C48.8099 258.487 48.4899 258.597 48.1699 258.597ZM61.5699 227.896C60.8199 232.666 60.9799 237.676 62.8099 242.486C63.6499 244.676 65.7599 245.486 67.3699 245.296C67.9599 245.226 69.9099 244.836 70.2299 242.576C70.7799 238.636 69.8399 235.176 67.4399 232.296C65.7699 230.286 63.7499 228.786 61.5699 227.896Z" fill="#628DFF"/>
<path d="M352.84 93.1621C352.06 93.1621 351.43 92.542 351.41 91.762C351.25 80.8017 348.79 73.8115 344.09 70.9914C342.26 69.8914 340.19 69.5114 338.12 69.5614C338.13 69.7514 338.14 69.9414 338.15 70.1414C338.15 70.2014 338.15 70.2614 338.15 70.3214C338.13 70.5214 337.73 75.2116 335.74 80.0617C333 86.7519 328.56 90.452 322.92 90.752C319.44 90.942 316.37 88.2919 316.09 84.8718C315.85 81.9417 316.95 78.9017 319.35 75.8416C321.24 73.4415 323.69 71.4615 326.63 69.9714C328.72 68.9114 331.73 67.6413 335 67.0513C334.29 62.2212 332.47 58.7711 329.57 56.791C329.45 56.711 329.32 56.621 329.19 56.541C325.16 62.1312 318.16 65.4813 317.8 65.6513C311.74 68.8914 307.44 69.8414 304.71 68.5214C303.24 67.8014 302.29 66.4513 301.97 64.6113C301.49 61.8612 302.66 58.9711 305.01 57.0711C306.84 55.601 308.94 54.461 311.27 53.691C316.12 52.0909 322.62 50.8309 328.11 52.8609C328.34 52.4009 328.53 51.9309 328.69 51.4509C329.52 48.9208 329.25 46.4508 327.87 43.9007C327.65 43.5607 321.01 33.6604 300.87 37.8905C300.1 38.0505 299.34 37.5605 299.18 36.7905C299.02 36.0205 299.51 35.2704 300.28 35.1104C322.49 30.4403 330.02 41.9806 330.33 42.4706C332.13 45.7807 332.47 49.0708 331.39 52.3409C331.19 52.9509 330.95 53.541 330.67 54.111C330.84 54.221 331.02 54.331 331.19 54.451C334.79 56.921 337.02 61.0412 337.84 66.7413C340.47 66.6413 343.14 67.1113 345.57 68.5714C351.17 71.9415 354.1 79.7317 354.27 91.742C354.28 92.522 353.65 93.1721 352.86 93.1821H352.84V93.1621ZM335.28 69.8714C332.43 70.4214 329.78 71.5515 327.92 72.4915C325.35 73.7915 323.22 75.5016 321.59 77.5716C319.64 80.0517 318.75 82.4218 318.93 84.6218C319.08 86.5019 320.84 88.0019 322.76 87.8919C333.34 87.3419 335.16 71.4515 335.29 70.1514C335.29 70.0514 335.29 69.9614 335.27 69.8614L335.28 69.8714ZM321.73 54.661C318.13 54.661 314.56 55.591 312.16 56.381C310.16 57.0411 308.36 58.0111 306.8 59.2711C305.25 60.5212 304.48 62.3812 304.78 64.1212C305.02 65.5013 305.73 65.8513 305.96 65.9613C306.98 66.4613 309.71 66.7513 316.51 63.1112C316.64 63.0512 322.87 60.0611 326.53 55.331C324.99 54.851 323.36 54.661 321.73 54.661Z" fill="#F82B5C"/>
</g>
</g>
<defs>
<clipPath id="clip0_1325_5200">
<rect width="400" height="400" fill="white"/>
</clipPath>
<clipPath id="clip1_1325_5200">
<rect width="400" height="400" fill="white"/>
</clipPath>
</defs>
</svg>
