<svg width="400" height="400" viewBox="0 0 400 400" fill="none" xmlns="http://www.w3.org/2000/svg">
<g clip-path="url(#clip0_1321_4054)">
<g clip-path="url(#clip1_1321_4054)">
<path d="M261.98 161.894C249.59 162.664 246.61 155.903 246.61 155.903C242.44 147.413 252.65 131.773 259.54 122.722L258.1 120.162C258.1 120.162 247.75 102.212 254.06 94.6216C259.21 88.4614 266.56 91.8315 269.11 93.3016C273.13 92.0515 277.21 91.0515 280.25 90.8815C295.67 89.9715 302.88 92.1615 308.63 96.7117C312.88 100.062 314.66 103.342 316.96 107.902C317.83 109.642 319.13 113.732 320.11 115.412L323.62 121.462C330.39 133.923 332.64 151.833 325.03 163.774C319.63 172.254 308.77 175.574 296.87 171.994L261.98 161.884V161.894Z" fill="#1C1E22"/>
<path d="M297.73 167.124L293.66 193.384C293.66 193.384 287.76 200.204 272.2 199.074C260.61 198.234 256.99 195.024 256.99 195.024L260.64 181.974L264.22 169.244L292.9 167.434L297.71 167.124H297.72H297.73Z" fill="#FFA6A6"/>
<path d="M292.92 167.434C292.75 168.144 292.34 168.944 291.76 169.844C283.85 182.054 267.36 182.394 260.66 181.964L264.24 169.234L292.92 167.424V167.434Z" fill="#C26060"/>
<path d="M274.34 103.262C270.5 105.432 267.42 108.742 265.28 112.602C260.3 121.632 249.35 143.543 251.37 158.414C253.97 177.544 271.15 176.974 281.68 174.814C292.22 172.654 297.73 167.134 297.73 167.134C297.73 167.134 306.66 171.614 314.15 163.774C321.63 155.923 319.16 145.373 314.13 142.333C309.1 139.293 302.19 142.273 302.19 142.273L308.51 133.433C308.51 133.433 296.63 90.6915 274.35 103.252H274.33L274.34 103.262Z" fill="#FFA6A6"/>
<path d="M301.64 156.933C301.26 156.933 300.88 156.763 300.63 156.423C300.22 155.873 300.34 155.083 300.89 154.673L311.35 146.933C311.91 146.523 312.69 146.643 313.1 147.193C313.51 147.743 313.39 148.533 312.84 148.943L302.38 156.683C302.16 156.853 301.9 156.933 301.64 156.933Z" fill="#C26060"/>
<path d="M310.76 159.043C310.48 159.043 310.21 158.953 309.98 158.763L304.26 154.143C303.72 153.713 303.64 152.923 304.07 152.383C304.5 151.843 305.29 151.763 305.83 152.193L311.55 156.813C312.09 157.243 312.17 158.033 311.74 158.573C311.49 158.883 311.13 159.033 310.77 159.033L310.76 159.043Z" fill="#C26060"/>
<path d="M277.1 135.433C277.46 133.743 276.84 132.173 275.71 131.933C274.58 131.693 273.38 132.863 273.02 134.553C272.66 136.243 273.28 137.803 274.41 138.053C275.54 138.293 276.74 137.113 277.1 135.433Z" fill="#1C1E22"/>
<path d="M281.57 128.292C281.13 128.292 280.7 128.062 280.48 127.652C278.73 124.492 275.34 124.832 275.2 124.852C274.51 124.922 273.9 124.442 273.81 123.762C273.72 123.082 274.21 122.462 274.89 122.372C275.1 122.342 280.08 121.772 282.67 126.442C283 127.042 282.79 127.812 282.18 128.142C281.99 128.252 281.78 128.302 281.58 128.302L281.57 128.292Z" fill="#1C1E22"/>
<path d="M259.14 131.553C259.5 129.863 258.88 128.293 257.75 128.063C256.62 127.823 255.42 128.993 255.06 130.683C254.7 132.373 255.32 133.943 256.45 134.183C257.58 134.423 258.78 133.253 259.14 131.563V131.553Z" fill="#1C1E22"/>
<path d="M264.64 122.412C264.33 122.412 264.03 122.302 263.79 122.072C261.15 119.602 258.04 120.972 257.91 121.032C257.29 121.312 256.54 121.042 256.25 120.422C255.96 119.802 256.23 119.062 256.85 118.772C257.04 118.682 261.6 116.602 265.5 120.252C266 120.722 266.03 121.512 265.56 122.022C265.31 122.282 264.98 122.412 264.65 122.412H264.64Z" fill="#1C1E22"/>
<path d="M257.79 149.703C257.12 149.703 256.57 149.173 256.54 148.493C256.21 139.143 261.22 134.603 261.43 134.413C261.95 133.953 262.74 134.003 263.19 134.523C263.65 135.033 263.6 135.823 263.09 136.283C262.9 136.453 258.75 140.313 259.03 148.413C259.05 149.103 258.51 149.683 257.82 149.703C257.81 149.703 257.79 149.703 257.78 149.703H257.79Z" fill="#1C1E22"/>
<path d="M264.54 157.973C264.22 157.973 264.03 157.943 264 157.943C263.32 157.843 262.84 157.213 262.94 156.523C263.04 155.843 263.66 155.383 264.34 155.463C264.48 155.483 267.04 155.713 270.17 152.713C270.67 152.233 271.46 152.253 271.94 152.753C272.42 153.253 272.4 154.043 271.9 154.523C268.67 157.613 265.71 157.973 264.53 157.973H264.54Z" fill="#1C1E22"/>
<path d="M266.26 110.162C266.26 110.162 273.05 100.472 283.81 109.282C298.77 121.542 285.78 146.113 302.19 142.273C318.61 138.443 314.12 117.612 314.12 117.612C314.12 117.612 280.11 79.6509 266.27 110.152L266.26 110.162Z" fill="#1C1E22"/>
<path d="M199.31 370H375C374.61 317.098 366.7 258.007 355.13 236.346C345.37 218.075 332.81 183.174 274.76 186.084C260.82 186.784 249.07 192.685 238.87 200.815C216.89 218.335 204.02 244.876 202.96 272.967L199.32 369.99L199.31 370Z" fill="#D0DEFF"/>
<path d="M22.4598 132.553C20.6798 132.553 19.2198 131.113 19.2098 129.323C19.1998 127.532 20.6398 126.062 22.4398 126.052L101.03 125.462L174.1 52.8202H22.2998C20.5098 52.8202 19.0498 51.3602 19.0498 49.5701C19.0498 47.7801 20.5098 46.32 22.2998 46.32H181.98C183.3 46.32 184.48 47.11 184.98 48.3301C185.48 49.5501 185.2 50.9501 184.27 51.8702L104.67 131.003C104.07 131.603 103.25 131.943 102.4 131.953L22.4798 132.553H22.4598Z" fill="#2D6AFF"/>
<path d="M22.24 56.48C26.24 56.48 29.48 53.24 29.48 49.24C29.48 45.24 26.24 42 22.24 42C18.24 42 15 45.24 15 49.24C15 53.24 18.24 56.48 22.24 56.48Z" fill="#9D70FF"/>
<path d="M101.94 56.48C105.94 56.48 109.18 53.24 109.18 49.24C109.18 45.24 105.94 42 101.94 42C97.9402 42 94.7002 45.24 94.7002 49.24C94.7002 53.24 97.9402 56.48 101.94 56.48Z" fill="#B9DD39"/>
<path d="M181.64 56.48C185.64 56.48 188.88 53.24 188.88 49.24C188.88 45.24 185.64 42 181.64 42C177.64 42 174.4 45.24 174.4 49.24C174.4 53.24 177.64 56.48 181.64 56.48Z" fill="#9D70FF"/>
<path d="M22.24 135.732C26.24 135.732 29.48 132.492 29.48 128.492C29.48 124.492 26.24 121.252 22.24 121.252C18.24 121.252 15 124.492 15 128.492C15 132.492 18.24 135.732 22.24 135.732Z" fill="#B9DD39"/>
<path d="M101.94 135.732C105.94 135.732 109.18 132.492 109.18 128.492C109.18 124.492 105.94 121.252 101.94 121.252C97.9402 121.252 94.7002 124.492 94.7002 128.492C94.7002 132.492 97.9402 135.732 101.94 135.732Z" fill="#9D70FF"/>
<path d="M181.64 135.732C185.64 135.732 188.88 132.492 188.88 128.492C188.88 124.492 185.64 121.252 181.64 121.252C177.64 121.252 174.4 124.492 174.4 128.492C174.4 132.492 177.64 135.732 181.64 135.732Z" fill="#B9DD39"/>
<path d="M22.6399 214.985C26.6399 214.985 29.8799 211.745 29.8799 207.745C29.8799 203.745 26.6399 200.505 22.6399 200.505C18.6399 200.505 15.3999 203.745 15.3999 207.745C15.3999 211.745 18.6399 214.985 22.6399 214.985Z" fill="#9D70FF"/>
<path d="M182.03 214.985C186.03 214.985 189.27 211.745 189.27 207.745C189.27 203.745 186.03 200.505 182.03 200.505C178.03 200.505 174.79 203.745 174.79 207.745C174.79 211.745 178.03 214.985 182.03 214.985Z" fill="#9D70FF"/>
<path d="M32.5698 129.983L23.8298 128.163C22.9598 127.983 22.3198 128.373 22.8598 129.093L28.0798 136.633L128.56 204.295L133.04 197.645L32.5598 129.983H32.5698Z" fill="#1C1E22"/>
<path d="M96.48 224.946C96.48 224.946 113.52 204.255 114.21 198.705C114.9 193.155 104.15 186.504 104.15 186.504C104.15 186.504 107.19 164.244 103.09 161.474C98.99 158.704 94.94 164.734 94.94 164.734C94.94 164.734 95.68 150.523 89.71 150.723C83.73 150.913 80.64 158.784 80.64 158.784C80.64 158.784 82.26 147.833 74.97 148.773C67.68 149.723 55.34 174.384 52.91 197.575C50.49 220.755 68.87 235.926 68.87 235.926L96.49 224.956L96.48 224.946Z" fill="#FFA6A6"/>
<path d="M101.65 204.404C101.58 204.404 101.52 204.404 101.45 204.384C100.77 204.274 100.3 203.634 100.42 202.954L103.07 186.574C103.18 185.894 103.82 185.434 104.5 185.534C105.18 185.644 105.65 186.284 105.53 186.964L102.88 203.344C102.78 203.954 102.25 204.394 101.65 204.394V204.404Z" fill="#C26060"/>
<path d="M200.99 350.609C181.36 358.46 149.95 356.1 149.95 356.1C149.95 356.1 67.2098 353.2 60.2598 234.806L106.77 216.375C106.77 216.375 125.83 259.717 159.62 261.597C169.48 262.147 174.96 261.417 186.53 255.377C206.36 245.036 226.78 196.165 265.4 187.374C271.98 185.874 278.86 187.004 284.6 190.555C297.82 198.745 316.69 220.275 289.62 271.277C289.62 271.277 256.91 327.939 200.99 350.599V350.609Z" fill="#D0DEFF"/>
<path d="M200.78 352.379C200.26 352.379 199.77 352.049 199.59 351.519C199.37 350.869 199.73 350.159 200.38 349.939C200.63 349.859 225.25 341.469 251.23 315.868C251.72 315.388 252.51 315.388 253 315.878C253.48 316.368 253.48 317.158 252.99 317.648C226.56 343.689 201.42 352.229 201.17 352.309C201.04 352.349 200.91 352.369 200.78 352.369V352.379Z" fill="#91B1FF"/>
<path d="M196.14 280.327C190.4 280.327 182.43 274.417 172.44 262.737C172.09 262.327 172.04 261.737 172.32 261.277C172.6 260.817 173.15 260.587 173.68 260.717C174.49 260.907 193.6 265.527 199.85 272.537C201.04 273.877 201.38 275.737 200.73 277.407C200.09 279.047 198.67 280.127 196.93 280.297C196.67 280.327 196.41 280.337 196.14 280.337V280.327ZM177.07 264.217C188.26 276.527 194.11 278.067 196.68 277.797C197.81 277.687 198.26 276.847 198.4 276.487C198.71 275.687 198.55 274.837 197.98 274.197C193.88 269.597 182.99 265.937 177.07 264.217Z" fill="#91B1FF"/>
</g>
</g>
<defs>
<clipPath id="clip0_1321_4054">
<rect width="400" height="400" fill="white"/>
</clipPath>
<clipPath id="clip1_1321_4054">
<rect width="400" height="400" fill="white"/>
</clipPath>
</defs>
</svg>
