<svg width="400" height="400" viewBox="0 0 400 400" fill="none" xmlns="http://www.w3.org/2000/svg">
<g clip-path="url(#clip0_1325_4934)">
<g clip-path="url(#clip1_1325_4934)">
<path d="M87.72 74.5697H39.7C28.82 74.5697 20 83.3693 20 94.2288V142.157C20 153.006 28.82 161.816 39.7 161.816H87.72C98.6 161.816 107.42 153.016 107.42 142.157V94.2288C107.42 83.3693 98.6 74.5697 87.72 74.5697Z" fill="#2D6AFF"/>
<path d="M37.7798 110.608L37.7098 110.928C37.5798 111.938 37.5098 112.718 37.5098 113.338V122.878C37.5098 124.087 37.6398 124.957 37.6398 124.957C38.1398 128.897 41.0198 131.237 45.4698 131.237H48.2598C48.4898 131.237 48.6898 131.037 48.6898 130.817V128.047C48.6898 127.817 48.4898 127.627 48.2598 127.627H46.0298C42.8498 127.627 41.1498 125.837 41.1498 122.978V113.308C41.1498 110.608 42.9798 108.748 46.0298 108.748H81.3398C84.9198 108.748 86.2598 110.638 86.2598 113.338V123.008C86.2598 125.507 84.5498 127.637 81.3398 127.637H58.8198V115.398C58.8198 115.168 58.6198 114.978 58.3898 114.978H55.5698C55.3398 114.978 55.1398 115.178 55.1398 115.398V130.857C55.1398 131.087 55.3398 131.277 55.5698 131.277H81.9198C86.3698 131.277 89.2898 128.937 89.7898 124.967C89.7898 124.937 89.9198 124.087 89.9198 122.918V113.348C89.9198 112.468 89.8498 111.718 89.7198 110.968L89.6498 110.648C88.9298 107.228 85.9798 105.118 81.9098 105.118H45.4398C41.3798 105.118 38.4598 107.198 37.7298 110.618H37.7698L37.7798 110.608Z" fill="white"/>
<path d="M162.8 329.988H331.96C332.42 326.589 335.44 291.73 335.44 291.73L280.07 157.816L247.57 157.636C247.57 157.636 242.91 157.826 236.79 158.636C221.94 160.596 207.98 167.136 197.45 177.785C191.65 183.645 186.37 191.175 184.58 200.114C179.5 225.483 172.45 265.131 162.8 329.998V329.988Z" fill="#D0DEFF"/>
<path d="M248.67 168.036C248.67 168.036 233.06 215.343 226.45 256.132C219.85 296.92 218.02 329.988 218.02 329.988H228.18C228.18 329.988 235.67 258.992 240.45 237.572C246.23 211.664 258.1 169.126 258.1 169.126C258.1 169.126 254.03 165.846 248.67 168.036Z" fill="#8EAEFF"/>
<path d="M91.2703 197.335C91.2703 197.335 44.6404 198.145 36.2004 197.335C27.7604 196.525 36.2004 190.515 36.2004 190.515C36.2004 190.515 20.1204 188.915 25.7504 184.495C31.3804 180.075 84.5404 179.115 96.5004 180.805C108.46 182.495 125.85 184.895 125.85 184.895L91.2803 197.325L91.2703 197.335Z" fill="#FFA6A6"/>
<path d="M34.8704 192.255C34.3704 192.255 33.8904 191.945 33.7004 191.455C33.4504 190.805 33.7804 190.085 34.4204 189.845C44.5604 185.975 52.0304 184.265 57.0004 183.515L53.7004 182.625C53.0304 182.445 52.6404 181.755 52.8204 181.095C53.0004 180.425 53.6904 180.035 54.3504 180.215L64.8504 183.055C65.4804 183.225 65.8704 183.845 65.7504 184.485C65.6304 185.125 65.0504 185.555 64.4004 185.505C64.3104 185.495 54.9104 184.715 35.3104 192.185C35.1604 192.245 35.0104 192.265 34.8604 192.265L34.8704 192.255Z" fill="#C26060"/>
<path d="M113.871 172.045L70.3306 207.814C70.3306 207.814 89.5906 254.092 147.871 260.631C155.731 261.511 163.691 261.021 171.391 259.222C175.601 258.242 176.721 257.562 179.061 256.942C193.651 252.162 204.441 236.513 204.441 236.513L212.131 166.676C212.131 166.676 155.851 200.824 113.861 172.045H113.871Z" fill="#D0DEFF"/>
<path d="M186.28 198.775H186.23C182.29 198.755 175.17 196.095 163.61 183.545C163.26 183.165 163.2 182.605 163.46 182.155C163.72 181.705 164.23 181.485 164.74 181.605C167.11 182.155 188.02 187.215 190.79 193.615C191.31 194.805 191.23 196.035 190.58 197.155C190.54 197.235 190.48 197.305 190.42 197.375C190.28 197.515 189.03 198.765 186.28 198.765V198.775ZM168.15 184.895C177.8 194.635 183.44 196.325 186.04 196.425C187.59 196.475 188.37 196.015 188.64 195.825C188.84 195.405 188.84 195.005 188.64 194.555C187.16 191.115 176.52 187.205 168.15 184.895Z" fill="#91B1FF"/>
<path d="M173.53 259.521C173.46 259.521 173.38 259.521 173.31 259.501C172.67 259.381 172.25 258.771 172.37 258.131L177.97 228.363C178.09 227.723 178.7 227.313 179.34 227.423C179.98 227.543 180.4 228.153 180.28 228.793L174.68 258.561C174.57 259.121 174.08 259.521 173.53 259.521Z" fill="#91B1FF"/>
<path d="M243.53 226.863C243.53 226.863 237.13 218.583 234.88 216.013C232.63 213.434 229.84 203.114 225.65 202.624C221.46 202.134 225.75 218.763 225.75 218.763C225.75 218.763 196.25 201.644 192.64 204.064C189.02 206.484 203.64 219.823 203.64 219.823C203.64 219.823 181.81 207.764 179.79 211.884C177.76 216.003 197.17 228.753 197.17 228.753C197.17 228.753 181.44 222.323 180.15 226.503C178.85 230.683 207.28 250.922 207.28 250.922C207.28 250.922 227.79 275.111 241.99 265.991C256.17 256.872 243.54 226.853 243.54 226.853L243.53 226.863Z" fill="#FFA6A6"/>
<path d="M231.59 229.253C231.2 229.253 230.82 229.053 230.6 228.703L224.16 218.433C223.82 217.883 223.98 217.163 224.53 216.813C225.08 216.463 225.8 216.633 226.15 217.183L232.59 227.453C232.93 228.003 232.77 228.723 232.22 229.073C232.03 229.193 231.81 229.253 231.6 229.253H231.59Z" fill="#C26060"/>
<path d="M209.21 224.823C208.99 224.823 208.77 224.763 208.57 224.633L202.61 220.723C202.07 220.363 201.92 219.643 202.27 219.103C202.63 218.563 203.35 218.413 203.89 218.763L209.85 222.673C210.39 223.033 210.54 223.753 210.19 224.293C209.96 224.633 209.59 224.823 209.21 224.823Z" fill="#C26060"/>
<path d="M202.12 233.623C201.9 233.623 201.68 233.563 201.48 233.433L195.52 229.523C194.98 229.163 194.83 228.443 195.18 227.903C195.54 227.363 196.26 227.213 196.8 227.563L202.76 231.473C203.3 231.833 203.45 232.553 203.1 233.093C202.87 233.433 202.5 233.623 202.12 233.623Z" fill="#C26060"/>
<path d="M280.07 157.806C280.07 157.806 332.93 159.986 362.69 207.934C390.21 252.262 386.87 308.079 338.51 310.869C290.16 313.659 230.62 276.481 230.62 276.481L244.62 219.993L275.22 223.983L280.07 157.806Z" fill="#D0DEFF"/>
<path d="M329.63 236.143C329.48 236.143 329.32 236.113 329.17 236.043C328.95 235.943 306.38 226.383 274.13 225.063C273.48 225.033 272.98 224.493 273.01 223.843C273.04 223.193 273.58 222.713 274.23 222.723C306.93 224.063 329.87 233.803 330.1 233.893C330.69 234.153 330.97 234.843 330.71 235.433C330.52 235.873 330.09 236.143 329.63 236.143Z" fill="#91B1FF"/>
<path d="M293.52 226.753C293.26 226.753 292.99 226.753 292.72 226.753C292.17 226.753 291.7 226.373 291.58 225.833C291.46 225.293 291.73 224.753 292.22 224.513C293.24 224.033 317.29 212.733 325.8 216.443C326.94 216.943 327.69 217.983 327.81 219.233C327.92 220.483 327.35 221.683 326.32 222.373C322.01 225.273 310.98 226.743 293.52 226.743V226.753ZM321.36 218.023C315.2 218.023 305.25 221.523 298.39 224.363C316.82 224.033 322.96 221.813 325.01 220.443C325.34 220.223 325.51 219.853 325.47 219.453C325.45 219.263 325.36 218.813 324.86 218.593C323.94 218.193 322.74 218.013 321.36 218.013V218.023Z" fill="#91B1FF"/>
<path d="M333.31 312.189C286.16 312.189 230.58 277.831 230 277.471C229.45 277.131 229.28 276.401 229.63 275.851C229.97 275.301 230.7 275.131 231.25 275.481C231.4 275.571 246.32 284.84 266.94 293.65C285.91 301.76 313.72 311.129 338.46 309.689C339.11 309.669 339.66 310.149 339.7 310.789C339.74 311.439 339.24 311.989 338.6 312.029C336.86 312.129 335.1 312.179 333.33 312.179L333.31 312.189Z" fill="#91B1FF"/>
<path d="M247.13 157.606C247.13 157.606 247.13 157.656 247.13 157.736C247.18 158.886 247.87 167.386 258.5 165.906C269.71 164.346 279.73 158.036 280.07 157.816L280.09 157.806C280.09 157.806 281.95 157.966 283.03 158.096C285.43 158.386 272.46 181.645 268.5 180.365C265.58 179.425 260.38 175.355 256.75 172.195C255.44 171.055 254.33 170.025 253.62 169.316C252.54 168.236 250.08 169.255 247.42 170.725C243.45 172.925 239 176.125 237.93 174.845C236.13 172.715 247.14 157.606 247.14 157.606H247.13Z" fill="#8EAEFF"/>
<path d="M247.05 137.727C235.33 139.397 231.99 133.197 231.99 133.197C227.39 125.447 235.91 109.828 241.77 100.709L240.2 98.3786C240.2 98.3786 229.01 82.0994 234.44 74.4297C238.86 68.19 246.1 70.8299 248.64 72.0398C252.37 70.5499 256.17 69.2899 259.04 68.8899C273.63 66.87 280.64 68.4 286.45 72.2898C290.74 75.1597 292.68 78.1395 295.21 82.2994C296.18 83.8793 297.72 87.6691 298.77 89.199L302.55 94.6788C309.91 105.998 313.4 122.838 307.08 134.757C302.58 143.217 292.51 147.186 280.94 144.687L247.04 137.717L247.05 137.727Z" fill="#1C1E22"/>
<path d="M247.13 157.726L247.3 156.876L249.74 144.517L276.85 140.637L281.4 139.987L280.07 157.806C279.73 158.026 269.71 164.326 258.5 165.896C247.87 167.386 247.17 158.876 247.13 157.726Z" fill="#FFA6A6"/>
<path d="M276.85 140.647C276.73 141.327 276.41 142.127 275.94 143.027C269.35 155.217 253.7 156.787 247.3 156.887L249.74 144.527L276.85 140.647Z" fill="#C26060"/>
<path d="M254.37 81.0994C250.88 83.4493 248.2 86.8191 246.46 90.659C242.41 99.6086 233.66 121.238 236.7 135.207C240.61 153.186 256.89 151.346 266.73 148.496C276.58 145.647 281.4 139.997 281.4 139.997C281.4 139.997 290.23 143.577 296.74 135.567C303.26 127.557 300.12 117.718 295.1 115.208C290.08 112.708 283.75 116.058 283.75 116.058L289.08 107.198C289.08 107.198 274.57 67.51 254.35 81.1194L254.37 81.0994Z" fill="#FFA6A6"/>
<path d="M284.3 129.768C283.96 129.768 283.63 129.628 283.4 129.348C282.99 128.848 283.06 128.108 283.55 127.698L292.94 119.908C293.44 119.498 294.18 119.568 294.59 120.058C295 120.558 294.93 121.298 294.44 121.708L285.05 129.498C284.83 129.678 284.57 129.768 284.3 129.768Z" fill="#C26060"/>
<path d="M292.94 131.268C292.7 131.268 292.46 131.198 292.26 131.048L286.66 127.018C286.13 126.638 286.01 125.908 286.39 125.378C286.77 124.848 287.5 124.738 288.03 125.108L293.63 129.138C294.16 129.518 294.28 130.248 293.9 130.778C293.67 131.098 293.31 131.268 292.95 131.268H292.94Z" fill="#C26060"/>
<path d="M262.56 114.598C261.47 114.458 260.76 113.018 260.98 111.378C261.2 109.748 262.25 108.538 263.34 108.688C264.43 108.828 265.14 110.268 264.92 111.898C264.7 113.528 263.65 114.738 262.56 114.598Z" fill="#1C1E22"/>
<path d="M268.64 104.889C268.2 104.889 267.78 104.639 267.58 104.219C267.51 104.089 266.14 101.419 262.22 101.969C261.58 102.059 260.99 101.609 260.9 100.969C260.81 100.329 261.26 99.7386 261.9 99.6486C267.61 98.8486 269.62 103.039 269.71 103.219C269.98 103.809 269.73 104.509 269.14 104.779C268.98 104.859 268.81 104.889 268.65 104.889H268.64Z" fill="#1C1E22"/>
<path d="M245.19 112.248C244.1 112.108 243.39 110.668 243.61 109.028C243.82 107.398 244.88 106.188 245.97 106.338C247.06 106.478 247.77 107.918 247.55 109.548C247.33 111.178 246.28 112.388 245.19 112.248Z" fill="#1C1E22"/>
<path d="M250.94 100.019C250.65 100.019 250.37 99.9187 250.14 99.7087C250.03 99.6087 247.77 97.6487 244.33 99.6087C243.77 99.9287 243.05 99.7387 242.73 99.1687C242.41 98.6087 242.6 97.8887 243.17 97.5687C248.16 94.7087 251.6 97.8487 251.74 97.9887C252.21 98.4287 252.24 99.1787 251.79 99.6487C251.56 99.8987 251.25 100.019 250.94 100.019Z" fill="#1C1E22"/>
<path d="M257.83 135.437C257.48 135.437 257.12 135.397 256.77 135.327C254.99 134.937 253.64 133.677 253.14 131.947L253.1 131.807C253.02 131.497 253.06 131.167 253.23 130.897C253.4 130.627 253.67 130.427 253.98 130.357L262.08 128.567C262.47 128.487 262.87 128.597 263.15 128.877C263.43 129.157 263.56 129.557 263.48 129.947C263.46 130.027 263.06 131.987 261.55 133.757C260.61 134.847 259.25 135.457 257.83 135.457V135.437ZM255.97 132.317C256.31 132.667 256.75 132.927 257.27 133.037C258.22 133.247 259.15 132.937 259.77 132.217C260.02 131.927 260.23 131.627 260.4 131.337L255.97 132.317Z" fill="#1C1E22"/>
<path d="M247.471 126.968C246.891 126.968 246.391 126.538 246.311 125.958C245.101 117.108 249.871 112.218 250.081 112.008C250.541 111.548 251.281 111.548 251.741 112.008C252.201 112.468 252.201 113.208 251.741 113.668C251.561 113.848 247.591 117.998 248.631 125.638C248.721 126.278 248.271 126.868 247.631 126.958C247.581 126.958 247.521 126.968 247.471 126.968Z" fill="#1C1E22"/>
<path d="M248.51 86.8292C248.51 86.8292 252.95 78.5395 263.83 86.1092C278.96 96.6287 268.48 120.938 283.78 116.058C299.09 111.168 293.25 91.7389 293.25 91.7389C293.25 91.7389 259.36 56.8205 248.51 86.8292Z" fill="#1C1E22"/>
</g>
</g>
<defs>
<clipPath id="clip0_1325_4934">
<rect width="400" height="400" fill="white"/>
</clipPath>
<clipPath id="clip1_1325_4934">
<rect width="400" height="400" fill="white"/>
</clipPath>
</defs>
</svg>
