<svg width="400" height="400" viewBox="0 0 400 400" fill="none" xmlns="http://www.w3.org/2000/svg">
<g clip-path="url(#clip0_6414_31270)">
<g clip-path="url(#clip1_6414_31270)">
<path d="M400 0H0V400H400V0Z" fill="#A1BCFF"/>
<path d="M200 347.217C180.127 347.217 160.847 343.323 142.697 335.647C125.167 328.23 109.423 317.617 95.9033 304.1C82.3866 290.58 71.77 274.84 64.3566 257.307C56.68 239.153 52.7866 219.873 52.7866 200.003C52.7866 180.133 56.68 160.85 64.3566 142.7C71.7733 125.17 82.3866 109.427 95.9033 95.9067C109.423 82.39 125.167 71.7734 142.697 64.36C160.85 56.6834 180.13 52.79 200 52.79C219.87 52.79 239.153 56.6834 257.303 64.36C274.833 71.7767 290.577 82.39 304.097 95.9067C317.613 109.423 328.23 125.167 335.643 142.7C343.32 160.853 347.213 180.133 347.213 200.003C347.213 219.873 343.32 239.157 335.643 257.307C328.227 274.837 317.613 290.58 304.097 304.1C290.577 317.617 274.833 328.233 257.303 335.647C239.15 343.323 219.87 347.217 200 347.217ZM200 63.45C181.563 63.45 163.68 67.06 146.85 74.18C130.59 81.0567 115.987 90.9034 103.443 103.447C90.8999 115.99 81.0533 130.593 74.1766 146.853C67.0566 163.683 63.4466 181.567 63.4466 200.003C63.4466 218.44 67.0566 236.323 74.1766 253.153C81.0533 269.413 90.8999 284.017 103.443 296.56C115.987 309.103 130.59 318.95 146.85 325.827C163.68 332.947 181.563 336.557 200 336.557C218.437 336.557 236.32 332.947 253.15 325.827C269.41 318.95 284.013 309.103 296.557 296.56C309.1 284.017 318.947 269.413 325.823 253.153C332.943 236.323 336.553 218.44 336.553 200.003C336.553 181.567 332.943 163.683 325.823 146.853C318.947 130.593 309.1 115.99 296.557 103.447C284.013 90.9034 269.41 81.0567 253.15 74.18C236.32 67.06 218.437 63.45 200 63.45Z" fill="#DBE4FF"/>
<path d="M200 276.6C179.54 276.6 160.303 268.633 145.837 254.163C131.37 239.697 123.4 220.46 123.4 200C123.4 179.54 131.367 160.303 145.837 145.837C160.303 131.37 179.54 123.4 200 123.4C220.46 123.4 239.697 131.367 254.163 145.837C268.63 160.303 276.6 179.54 276.6 200C276.6 220.46 268.633 239.697 254.163 254.163C239.697 268.63 220.46 276.6 200 276.6ZM200 134.067C163.643 134.067 134.067 163.643 134.067 200C134.067 236.357 163.643 265.933 200 265.933C236.357 265.933 265.933 236.357 265.933 200C265.933 163.643 236.357 134.067 200 134.067Z" fill="#DBE4FF"/>
</g>
</g>
<defs>
<clipPath id="clip0_6414_31270">
<rect width="400" height="400" fill="white"/>
</clipPath>
<clipPath id="clip1_6414_31270">
<rect width="400" height="400" fill="white"/>
</clipPath>
</defs>
</svg>
