<svg width="112" height="112" viewBox="0 0 112 112" fill="none" xmlns="http://www.w3.org/2000/svg">
<g clip-path="url(#clip0_7391_34489)">
<g clip-path="url(#clip1_7391_34489)">
<path d="M56 107.52C84.4537 107.52 107.52 84.4537 107.52 56C107.52 27.5463 84.4537 4.47998 56 4.47998C27.5463 4.47998 4.47998 27.5463 4.47998 56C4.47998 84.4537 27.5463 107.52 56 107.52Z" fill="#F32B5C"/>
<g opacity="0.2">
<path d="M56 107.52C27.546 107.52 4.47998 84.454 4.47998 56C4.47998 27.5459 27.546 4.47998 56 4.47998V107.52Z" fill="white"/>
</g>
<path d="M75.6713 79.1007C74.2334 79.1007 73.0672 77.9344 73.0672 76.4966C73.0672 67.0862 65.4113 59.4294 56 59.4294C46.5887 59.4294 38.9328 67.0853 38.9328 76.4966C38.9328 77.9344 37.7666 79.1007 36.3287 79.1007C34.8908 79.1007 33.7246 77.9344 33.7246 76.4966C33.7246 70.5465 36.0421 64.9523 40.2489 60.7455C44.4567 56.5377 50.0499 54.2212 56 54.2212C61.9501 54.2212 67.5442 56.5387 71.7511 60.7455C75.9588 64.9523 78.2754 70.5465 78.2754 76.4966C78.2754 77.9344 77.1091 79.1007 75.6713 79.1007Z" fill="white"/>
</g>
</g>
<defs>
<clipPath id="clip0_7391_34489">
<rect width="112" height="112" fill="white"/>
</clipPath>
<clipPath id="clip1_7391_34489">
<rect width="112" height="112" fill="white"/>
</clipPath>
</defs>
</svg>
