<svg width="400" height="400" viewBox="0 0 400 400" fill="none" xmlns="http://www.w3.org/2000/svg">
<g clip-path="url(#clip0_5107_24934)">
<g clip-path="url(#clip1_5107_24934)">
<path d="M200 384C301.62 384 384 301.62 384 200C384 98.3796 301.62 16 200 16C98.3796 16 16 98.3796 16 200C16 301.62 98.3796 384 200 384Z" fill="#F32B5C"/>
<g opacity="0.2">
<path d="M200 384C98.3785 384 16 301.622 16 200C16 98.3785 98.3785 16 200 16V384Z" fill="white"/>
</g>
<path d="M270.255 282.502C265.119 282.502 260.954 278.337 260.954 273.202C260.954 239.593 233.612 212.248 200 212.248C166.388 212.248 139.046 239.59 139.046 273.202C139.046 278.337 134.881 282.502 129.746 282.502C124.61 282.502 120.445 278.337 120.445 273.202C120.445 251.952 128.722 231.972 143.746 216.948C158.774 201.92 178.75 193.647 200 193.647C221.251 193.647 241.23 201.924 256.254 216.948C271.282 231.972 279.555 251.952 279.555 273.202C279.555 278.337 275.39 282.502 270.255 282.502Z" fill="white"/>
</g>
</g>
<defs>
<clipPath id="clip0_5107_24934">
<rect width="400" height="400" fill="white"/>
</clipPath>
<clipPath id="clip1_5107_24934">
<rect width="400" height="400" fill="white"/>
</clipPath>
</defs>
</svg>
