<svg width="400" height="400" viewBox="0 0 400 400" fill="none" xmlns="http://www.w3.org/2000/svg">
<g clip-path="url(#clip0_5107_24930)">
<g clip-path="url(#clip1_5107_24930)">
<path d="M200 384C301.62 384 384 301.62 384 200C384 98.3796 301.62 16 200 16C98.3796 16 16 98.3796 16 200C16 301.62 98.3796 384 200 384Z" fill="#9770FF"/>
<g opacity="0.2">
<path d="M200 384C98.3785 384 16 301.622 16 200C16 98.3785 98.3785 16 200 16V384Z" fill="white"/>
</g>
<path d="M200 295.884C178.75 295.884 158.771 287.607 143.746 272.583C128.722 257.559 120.445 237.579 120.445 216.329C120.445 211.194 124.61 207.029 129.745 207.029C134.881 207.029 139.046 211.194 139.046 216.329C139.046 249.938 166.388 277.283 200 277.283C233.612 277.283 260.954 249.941 260.954 216.329C260.954 211.194 265.119 207.029 270.255 207.029C275.39 207.029 279.555 211.194 279.555 216.329C279.555 237.579 271.278 257.559 256.254 272.583C241.229 287.607 221.25 295.884 200 295.884Z" fill="white"/>
</g>
</g>
<defs>
<clipPath id="clip0_5107_24930">
<rect width="400" height="400" fill="white"/>
</clipPath>
<clipPath id="clip1_5107_24930">
<rect width="400" height="400" fill="white"/>
</clipPath>
</defs>
</svg>
