<svg width="400" height="400" viewBox="0 0 400 400" fill="none" xmlns="http://www.w3.org/2000/svg">
<g clip-path="url(#clip0_2230_11356)">
<path d="M292.41 64.11H98C86.9543 64.11 78 73.0643 78 84.11V295.26C78 306.306 86.9543 315.26 98 315.26H292.41C303.456 315.26 312.41 306.306 312.41 295.26V84.11C312.41 73.0643 303.456 64.11 292.41 64.11Z" fill="#D4E0FF"/>
<path d="M279.67 80.85H127.49C118.654 80.85 111.49 88.0134 111.49 96.85V282.51C111.49 291.347 118.654 298.51 127.49 298.51H279.67C288.507 298.51 295.67 291.347 295.67 282.51V96.85C295.67 88.0134 288.507 80.85 279.67 80.85Z" fill="#628EFF"/>
<path d="M218.9 327.94L117.65 300.2C114.01 299.2 111.49 295.9 111.49 292.13V87.24C111.49 83.47 114.01 80.16 117.65 79.17L218.9 51.42C226.36 49.38 233.72 54.99 233.72 62.72V316.63C233.72 324.36 226.36 329.98 218.9 327.93V327.94Z" fill="#BCD2FF"/>
<path d="M205.6 330.36C204.41 330.36 203.2 330.2 202.02 329.86L103.54 302.12C99.1498 300.89 96.0898 296.77 96.0898 292.12V87.24C96.0898 82.59 99.1498 78.48 103.54 77.24L202.02 49.5C206.01 48.38 210.21 49.18 213.54 51.7C216.99 54.32 218.97 58.34 218.97 62.73V316.64C218.97 321.04 216.99 325.06 213.54 327.67C211.2 329.44 208.43 330.36 205.6 330.36ZM203.1 326.01C205.88 326.79 208.8 326.23 211.12 324.47C213.57 322.62 214.97 319.76 214.97 316.63V62.73C214.97 59.6 213.57 56.74 211.12 54.89C208.8 53.13 205.88 52.57 203.1 53.36L104.62 81.09C101.95 81.84 100.09 84.37 100.09 87.24V292.13C100.09 295 101.95 297.53 104.62 298.28L203.1 326.02V326.01Z" fill="#90B0FF"/>
<path d="M151.67 233.54C136.26 233.54 123.72 213.87 123.72 189.68C123.72 165.49 136.26 145.82 151.67 145.82C167.08 145.82 179.62 165.49 179.62 189.68C179.62 213.87 167.08 233.54 151.67 233.54ZM151.67 149.82C138.46 149.82 127.72 167.7 127.72 189.68C127.72 211.66 138.47 229.54 151.67 229.54C164.87 229.54 175.62 211.66 175.62 189.68C175.62 167.7 164.87 149.82 151.67 149.82Z" fill="#2D6AFF"/>
<path d="M135.76 218.98H145.81C155.52 218.98 163.39 205.86 163.39 189.68C163.39 173.5 155.52 160.38 145.81 160.38H135.76" fill="white"/>
<path d="M135.76 218.98C145.469 218.98 153.34 205.862 153.34 189.68C153.34 173.498 145.469 160.38 135.76 160.38C126.051 160.38 118.18 173.498 118.18 189.68C118.18 205.862 126.051 218.98 135.76 218.98Z" fill="#1C1E22"/>
<path d="M274.31 146.06C273.23 146.06 272.33 145.19 272.31 144.1C272.29 143 273.16 142.08 274.27 142.06C274.59 142.06 300.78 141.36 319.21 130.52C316.21 126.42 314.75 121.38 314.65 117.06C314.51 111 316.84 106.17 321.04 103.81C327.42 100.22 333.19 100.39 336.47 104.25C340.29 108.75 339.12 116.68 333.63 123.55C331.28 126.49 328.49 129.05 325.42 131.27C326.15 131.85 326.95 132.37 327.8 132.8C333.33 135.59 340.2 134.29 347.66 129.04C358.82 121.19 364.13 108.47 366.63 99.18C369.37 88.97 369.41 80.53 369.41 80.45C369.41 79.35 370.31 78.45 371.41 78.45C372.51 78.45 373.41 79.35 373.41 80.45C373.41 80.81 373.38 89.42 370.52 100.12C366.7 114.41 359.59 125.54 349.96 132.32C338.9 140.1 330.83 138.82 325.99 136.38C324.48 135.62 323.13 134.67 321.94 133.59C302.69 145.34 275.73 146.05 274.34 146.08C274.33 146.08 274.31 146.08 274.3 146.08L274.31 146.06ZM329.55 105.23C327.69 105.23 325.45 105.92 323.01 107.29C320.14 108.9 318.55 112.43 318.66 116.96C318.74 120.54 320.02 124.89 322.61 128.34C325.6 126.24 328.29 123.83 330.52 121.04C335.29 115.08 335.6 109.38 333.44 106.83C332.53 105.76 331.19 105.23 329.56 105.23H329.55Z" fill="#2D6AFF"/>
<path d="M328.42 189.34C318.92 189.34 308.64 187.64 297.85 183.6C265.51 171.49 241.13 183.39 240.89 183.51C239.9 184.01 238.7 183.6 238.21 182.62C237.71 181.63 238.11 180.43 239.1 179.94C240.15 179.41 265.3 167.14 299.26 179.85C330.67 191.61 357.46 182.61 372.06 170.26C372.9 169.55 374.17 169.65 374.88 170.5C375.59 171.34 375.49 172.61 374.64 173.32C364.22 182.13 347.99 189.34 328.42 189.34Z" fill="#2D6AFF"/>
<path d="M326.71 210.44C325.37 210.44 324.04 210.4 322.74 210.32C307.58 209.33 297.35 206.16 289.13 203.62C284.82 202.29 281.1 201.13 277.3 200.44C276.21 200.24 275.49 199.2 275.69 198.11C275.89 197.02 276.93 196.31 278.02 196.5C282.05 197.23 286.06 198.48 290.31 199.79C298.75 202.4 308.31 205.36 323 206.32C338.42 207.33 358.72 201.33 358.92 201.27C359.98 200.95 361.09 201.55 361.41 202.61C361.73 203.67 361.13 204.78 360.07 205.1C359.28 205.34 342.04 210.44 326.71 210.44Z" fill="#2D6AFF"/>
<path d="M365.96 219.14C360.74 217.22 355.01 217.19 349.77 219.06L343.01 221.47L346.59 227.69C349.36 232.51 353.74 236.21 358.96 238.14C364.53 240.19 370.67 240.09 376.16 237.84L381.49 235.66L378.85 230.54C376.13 225.26 371.53 221.2 365.96 219.14Z" fill="#AFD542"/>
<path d="M376.87 234.55C376.81 234.55 376.75 234.55 376.7 234.52L347.4 223.64C347.14 223.54 347.01 223.26 347.11 223C347.21 222.74 347.5 222.61 347.75 222.71L377.05 233.59C377.31 233.69 377.44 233.97 377.34 234.23C377.26 234.43 377.07 234.56 376.87 234.56V234.55Z" fill="#7DBC24"/>
<path d="M356.97 227.16C356.78 227.16 356.59 227.05 356.51 226.86C356.4 226.61 356.51 226.31 356.77 226.2L364.96 222.71C365.21 222.6 365.51 222.71 365.62 222.97C365.73 223.22 365.62 223.52 365.36 223.63L357.17 227.12C357.11 227.15 357.04 227.16 356.97 227.16Z" fill="#7DBC24"/>
<path d="M369.75 236.65C369.56 236.65 369.38 236.54 369.3 236.36L366.66 230.64C366.54 230.39 366.66 230.09 366.91 229.98C367.16 229.86 367.46 229.98 367.57 230.23L370.21 235.95C370.33 236.2 370.21 236.5 369.96 236.61C369.89 236.64 369.82 236.66 369.75 236.66V236.65Z" fill="#7DBC24"/>
<path d="M365.48 144.35C363.14 147.09 361.84 150.57 361.8 154.17L361.75 158.82L366.33 158.04C369.88 157.44 373.11 155.6 375.45 152.86C377.95 149.93 379.26 146.18 379.12 142.34L378.99 138.61L375.29 139.07C371.47 139.54 367.97 141.42 365.48 144.35Z" fill="#AFD542"/>
<path d="M363.81 156.93C363.69 156.93 363.58 156.89 363.48 156.81C363.27 156.63 363.25 156.31 363.43 156.1L376.61 140.73C376.79 140.52 377.11 140.5 377.32 140.68C377.53 140.86 377.55 141.18 377.37 141.39L364.19 156.76C364.09 156.88 363.95 156.93 363.81 156.93Z" fill="#7DBC24"/>
<path d="M368.04 152C367.78 152 367.55 151.79 367.54 151.52L367.25 145.76C367.24 145.48 367.45 145.25 367.72 145.24C368.02 145.21 368.23 145.44 368.24 145.71L368.53 151.47C368.54 151.75 368.33 151.98 368.06 151.99C368.06 151.99 368.04 151.99 368.03 151.99L368.04 152Z" fill="#7DBC24"/>
<path d="M372.6 146.68C372.34 146.68 372.12 146.48 372.1 146.22C372.08 145.94 372.28 145.7 372.56 145.68L376.62 145.36C376.88 145.34 377.14 145.54 377.16 145.82C377.18 146.1 376.98 146.34 376.7 146.36L372.64 146.68C372.64 146.68 372.61 146.68 372.6 146.68Z" fill="#7DBC24"/>
<path d="M287.62 86.59C285.28 89.33 283.98 92.81 283.94 96.41L283.89 101.06L288.47 100.28C292.02 99.68 295.25 97.84 297.59 95.1C300.09 92.17 301.4 88.42 301.26 84.58L301.13 80.85L297.43 81.31C293.61 81.78 290.11 83.66 287.62 86.59Z" fill="#AFD542"/>
<path d="M285.95 99.17C285.83 99.17 285.72 99.13 285.62 99.05C285.41 98.87 285.39 98.55 285.57 98.34L298.75 82.97C298.93 82.76 299.25 82.74 299.46 82.92C299.67 83.1 299.69 83.42 299.51 83.63L286.33 99C286.23 99.12 286.09 99.17 285.95 99.17Z" fill="#7DBC24"/>
<path d="M290.18 94.23C289.92 94.23 289.69 94.02 289.68 93.75L289.39 87.99C289.38 87.71 289.59 87.48 289.86 87.47C290.16 87.45 290.37 87.67 290.38 87.94L290.67 93.7C290.68 93.98 290.47 94.21 290.2 94.22C290.2 94.22 290.18 94.22 290.17 94.22L290.18 94.23Z" fill="#7DBC24"/>
<path d="M294.74 88.91C294.48 88.91 294.26 88.71 294.24 88.45C294.22 88.17 294.42 87.93 294.7 87.91L298.76 87.59C299.01 87.58 299.28 87.77 299.3 88.05C299.32 88.33 299.12 88.57 298.84 88.59L294.78 88.91C294.78 88.91 294.75 88.91 294.74 88.91Z" fill="#7DBC24"/>
<path d="M259.67 297.68V312.75C259.67 316.45 276.54 319.45 297.34 319.45C318.14 319.45 335.01 316.45 335.01 312.75V297.68H259.66H259.67Z" fill="#FFBC28"/>
<path d="M297.34 304.38C318.144 304.38 335.01 301.38 335.01 297.68C335.01 293.98 318.144 290.98 297.34 290.98C276.535 290.98 259.67 293.98 259.67 297.68C259.67 301.38 276.535 304.38 297.34 304.38Z" fill="#FFDB25"/>
<path d="M298.18 315.42C297.63 315.42 297.18 314.97 297.18 314.42V303.54C297.18 302.99 297.63 302.54 298.18 302.54C298.73 302.54 299.18 302.99 299.18 303.54V314.42C299.18 314.97 298.73 315.42 298.18 315.42Z" fill="#FFDB25"/>
<path d="M308.22 315.42C307.67 315.42 307.22 314.97 307.22 314.42V303.54C307.22 302.99 307.67 302.54 308.22 302.54C308.77 302.54 309.22 302.99 309.22 303.54V314.42C309.22 314.97 308.77 315.42 308.22 315.42Z" fill="#FFDB25"/>
<path d="M317.43 314.58C316.88 314.58 316.43 314.13 316.43 313.58V302.7C316.43 302.15 316.88 301.7 317.43 301.7C317.98 301.7 318.43 302.15 318.43 302.7V313.58C318.43 314.13 317.98 314.58 317.43 314.58Z" fill="#FFDB25"/>
<path d="M326.64 312.07C326.09 312.07 325.64 311.62 325.64 311.07V300.19C325.64 299.64 326.09 299.19 326.64 299.19C327.19 299.19 327.64 299.64 327.64 300.19V311.07C327.64 311.62 327.19 312.07 326.64 312.07Z" fill="#FFDB25"/>
<path d="M268.87 312.07C268.32 312.07 267.87 311.62 267.87 311.07V300.19C267.87 299.64 268.32 299.19 268.87 299.19C269.42 299.19 269.87 299.64 269.87 300.19V311.07C269.87 311.62 269.42 312.07 268.87 312.07Z" fill="#FFDB25"/>
<path d="M278.08 314.58C277.53 314.58 277.08 314.13 277.08 313.58V302.7C277.08 302.15 277.53 301.7 278.08 301.7C278.63 301.7 279.08 302.15 279.08 302.7V313.58C279.08 314.13 278.63 314.58 278.08 314.58Z" fill="#FFDB25"/>
<path d="M288.13 315.42C287.58 315.42 287.13 314.97 287.13 314.42V303.54C287.13 302.99 287.58 302.54 288.13 302.54C288.68 302.54 289.13 302.99 289.13 303.54V314.42C289.13 314.97 288.68 315.42 288.13 315.42Z" fill="#FFDB25"/>
<path d="M299.01 277.59V292.66C299.01 296.36 315.88 299.36 336.68 299.36C357.48 299.36 374.35 296.36 374.35 292.66V277.59H299H299.01Z" fill="#FFBC28"/>
<path d="M336.69 284.29C357.495 284.29 374.36 281.29 374.36 277.59C374.36 273.89 357.495 270.89 336.69 270.89C315.885 270.89 299.02 273.89 299.02 277.59C299.02 281.29 315.885 284.29 336.69 284.29Z" fill="#FFDB25"/>
<path d="M337.52 295.33C336.97 295.33 336.52 294.88 336.52 294.33V283.45C336.52 282.9 336.97 282.45 337.52 282.45C338.07 282.45 338.52 282.9 338.52 283.45V294.33C338.52 294.88 338.07 295.33 337.52 295.33Z" fill="#FFDB25"/>
<path d="M347.57 295.33C347.02 295.33 346.57 294.88 346.57 294.33V283.45C346.57 282.9 347.02 282.45 347.57 282.45C348.12 282.45 348.57 282.9 348.57 283.45V294.33C348.57 294.88 348.12 295.33 347.57 295.33Z" fill="#FFDB25"/>
<path d="M356.78 294.49C356.23 294.49 355.78 294.04 355.78 293.49V282.61C355.78 282.06 356.23 281.61 356.78 281.61C357.33 281.61 357.78 282.06 357.78 282.61V293.49C357.78 294.04 357.33 294.49 356.78 294.49Z" fill="#FFDB25"/>
<path d="M365.99 291.98C365.44 291.98 364.99 291.53 364.99 290.98V280.1C364.99 279.55 365.44 279.1 365.99 279.1C366.54 279.1 366.99 279.55 366.99 280.1V290.98C366.99 291.53 366.54 291.98 365.99 291.98Z" fill="#FFDB25"/>
<path d="M308.22 291.98C307.67 291.98 307.22 291.53 307.22 290.98V280.1C307.22 279.55 307.67 279.1 308.22 279.1C308.77 279.1 309.22 279.55 309.22 280.1V290.98C309.22 291.53 308.77 291.98 308.22 291.98Z" fill="#FFDB25"/>
<path d="M317.43 294.49C316.88 294.49 316.43 294.04 316.43 293.49V282.61C316.43 282.06 316.88 281.61 317.43 281.61C317.98 281.61 318.43 282.06 318.43 282.61V293.49C318.43 294.04 317.98 294.49 317.43 294.49Z" fill="#FFDB25"/>
<path d="M327.48 295.33C326.93 295.33 326.48 294.88 326.48 294.33V283.45C326.48 282.9 326.93 282.45 327.48 282.45C328.03 282.45 328.48 282.9 328.48 283.45V294.33C328.48 294.88 328.03 295.33 327.48 295.33Z" fill="#FFDB25"/>
</g>
<defs>
<clipPath id="clip0_2230_11356">
<rect width="303.49" height="281.36" fill="white" transform="translate(78 49)"/>
</clipPath>
</defs>
</svg>
