<svg width="112" height="112" viewBox="0 0 112 112" fill="none" xmlns="http://www.w3.org/2000/svg">
<g clip-path="url(#clip0_7391_34472)">
<g clip-path="url(#clip1_7391_34472)">
<path d="M56 107.52C84.4537 107.52 107.52 84.4537 107.52 56C107.52 27.5463 84.4537 4.47998 56 4.47998C27.5463 4.47998 4.47998 27.5463 4.47998 56C4.47998 84.4537 27.5463 107.52 56 107.52Z" fill="#FFC200"/>
<g opacity="0.2">
<path d="M56 107.52C27.546 107.52 4.47998 84.454 4.47998 56C4.47998 27.5459 27.546 4.47998 56 4.47998V107.52Z" fill="white"/>
</g>
<path d="M56 82.8477C50.0499 82.8477 44.4558 80.5303 40.2489 76.3234C36.0411 72.1157 33.7246 66.5225 33.7246 60.5724C33.7246 59.1345 34.8908 57.9683 36.3287 57.9683C37.7666 57.9683 38.9328 59.1345 38.9328 60.5724C38.9328 69.9827 46.5887 77.6395 56 77.6395C65.4113 77.6395 73.0672 69.9837 73.0672 60.5724C73.0672 59.1345 74.2334 57.9683 75.6713 57.9683C77.1091 57.9683 78.2754 59.1345 78.2754 60.5724C78.2754 66.5225 75.9579 72.1166 71.7511 76.3234C67.5442 80.5303 61.9501 82.8477 56 82.8477Z" fill="white"/>
</g>
</g>
<defs>
<clipPath id="clip0_7391_34472">
<rect width="112" height="112" fill="white"/>
</clipPath>
<clipPath id="clip1_7391_34472">
<rect width="112" height="112" fill="white"/>
</clipPath>
</defs>
</svg>
