<svg width="400" height="400" viewBox="0 0 400 400" fill="none" xmlns="http://www.w3.org/2000/svg">
<g clip-path="url(#clip0_1246_3791)">
<g clip-path="url(#clip1_1246_3791)">
<path d="M115.435 370C115.145 367.192 119.405 339.883 119.405 339.883C119.405 339.883 59.4052 345.758 45.9252 324.465C32.4552 303.131 40.9552 277.011 81.7252 227.459C118.705 182.603 162.305 175.378 170.175 174.409C171.025 174.299 171.875 174.169 172.715 174.009C178.735 172.84 205.195 168.594 243.825 175.538C293.495 184.471 354.075 230.177 359.715 288.003C365.315 345.848 286.175 342.111 286.175 342.111C286.175 342.111 288.905 361.297 289.725 370" fill="#D2DEFF"/>
<path d="M186.385 369.99C186.675 350.455 187.275 316.761 188.585 276.911C190.725 210.981 194.225 183.272 194.225 183.272C197.145 182.443 203.265 184.441 203.265 184.441H203.275C203.275 184.441 202.215 195.483 201.915 242.847C201.675 276.731 200.985 338.644 200.215 370H186.385V369.99Z" fill="#8EAEFF"/>
<path d="M184.715 172.541C184.715 172.541 188.545 181.963 199.905 182.763C213.435 183.732 222.595 172.57 222.595 172.57C222.595 172.57 230.425 193.005 224.125 196.502C217.835 200.01 199.895 185.81 199.895 185.81C199.895 185.81 181.155 197.312 177.475 191.656C173.795 186 184.715 172.541 184.715 172.541Z" fill="#91B1FF"/>
<path d="M121.095 340.672C120.415 340.672 119.855 340.133 119.845 339.443C119.835 338.754 120.385 338.184 121.075 338.174C121.205 338.174 133.795 337.884 149.005 332.948C149.655 332.738 150.365 333.098 150.585 333.748C150.795 334.407 150.435 335.107 149.785 335.326C134.195 340.383 121.645 340.662 121.125 340.672H121.105H121.095Z" fill="#8EAEFF"/>
<path d="M142.015 269.816C141.845 269.816 141.685 269.786 141.525 269.716C107.115 254.898 77.5855 267.558 77.2955 267.688C76.6655 267.968 75.9255 267.688 75.6455 267.048C75.3655 266.419 75.6455 265.68 76.2855 265.4C76.5855 265.27 107.065 252.16 142.515 267.418C143.145 267.688 143.445 268.427 143.165 269.057C142.965 269.527 142.505 269.816 142.015 269.816Z" fill="#8EAEFF"/>
<path d="M111.066 262.582C110.956 262.582 110.856 262.572 110.746 262.542C102.386 260.314 96.7556 257.776 94.0156 254.988C92.6156 253.559 92.1456 251.48 92.7956 249.552C93.4256 247.683 94.9356 246.414 96.8356 246.134C100.206 245.655 103.846 248.033 107.656 253.239C110.336 256.906 112.126 260.643 112.196 260.793C112.406 261.233 112.336 261.752 112.026 262.132C111.786 262.422 111.426 262.582 111.066 262.582ZM97.7056 248.573C97.5356 248.573 97.3656 248.583 97.1956 248.613C96.2456 248.752 95.4856 249.402 95.1656 250.351C94.8956 251.161 94.9156 252.34 95.7956 253.239C97.2956 254.768 100.736 257.006 108.616 259.344C106.136 254.948 101.666 248.573 97.7056 248.573Z" fill="#8EAEFF"/>
<path d="M284.755 343.27C284.755 343.27 284.705 343.27 284.675 343.27C267.175 342.211 259.705 335.606 259.395 335.326C258.885 334.867 258.845 334.077 259.315 333.558C259.775 333.048 260.565 333.008 261.075 333.468C261.165 333.548 268.315 339.773 284.825 340.772C285.515 340.812 286.035 341.402 285.995 342.091C285.955 342.751 285.405 343.26 284.745 343.26L284.755 343.27Z" fill="#8EAEFF"/>
<path d="M252.645 275.952C252.345 275.952 252.045 275.842 251.815 275.632C251.305 275.172 251.255 274.383 251.715 273.863C251.915 273.643 271.805 251.8 305.415 241.978C306.075 241.788 306.775 242.167 306.965 242.827C307.155 243.486 306.775 244.186 306.115 244.376C273.185 253.998 253.765 275.312 253.575 275.532C253.325 275.812 252.985 275.952 252.645 275.952Z" fill="#8EAEFF"/>
<path d="M271.475 260.473C271.285 260.473 271.105 260.434 270.925 260.344C270.415 260.094 270.135 259.524 270.255 258.965C270.445 258.055 275.015 236.612 284.755 234.583C284.805 234.583 284.845 234.563 284.895 234.563C285.125 234.543 287.145 234.393 288.195 235.942C289.065 237.221 288.895 239.02 287.655 241.438C287.005 242.707 286.135 243.976 285.055 245.205L272.425 260.024C272.185 260.314 271.835 260.463 271.475 260.463V260.473ZM285.175 237.051C280.005 238.22 276.115 247.463 274.055 254.278L283.165 243.586C284.115 242.497 284.875 241.408 285.425 240.319C286.275 238.64 286.335 237.681 286.125 237.361C285.955 237.111 285.445 237.041 285.175 237.051Z" fill="#8EAEFF"/>
<path d="M257.655 258.525C257.655 258.525 263.915 283.896 270.365 267.498C277.555 249.262 269.255 248.163 265.425 248.523C264.385 248.623 263.445 249.202 262.895 250.091L257.645 258.525H257.655Z" fill="#FFA6A6"/>
<path d="M237.665 290.62C237.665 290.62 234.005 316.161 254.655 314.962C275.315 313.763 275.835 284.335 275.835 284.335L237.645 290.631H237.655L237.665 290.62Z" fill="#FFA6A6"/>
<path d="M162.685 289.022C162.685 289.022 166.345 314.562 145.695 313.363C125.035 312.164 124.515 282.737 124.515 282.737L162.705 289.032H162.695L162.685 289.022Z" fill="#FFA6A6"/>
<path d="M142.695 256.936C142.695 256.936 136.435 282.307 129.985 265.909C122.795 247.673 131.095 246.574 134.925 246.934C135.965 247.034 136.905 247.613 137.455 248.503L142.695 256.936Z" fill="#FFA6A6"/>
<path d="M200.015 336.496C235.015 336.496 263.395 308.177 263.395 273.244C263.395 238.31 235.015 209.992 200.015 209.992C165.015 209.992 136.635 238.31 136.635 273.244C136.635 308.177 165.015 336.496 200.015 336.496Z" fill="#F72B5C"/>
<path d="M241.505 305.249C241.505 305.249 241.535 305.209 241.545 305.189C243.035 303.261 244.385 301.232 245.595 299.114C251.135 289.401 253.635 277.86 251.955 265.959C247.935 237.361 221.345 217.366 192.695 221.393C174.055 224.001 159.065 236.152 151.975 252.2C151.505 253.269 151.075 254.358 150.665 255.457C150.665 255.477 150.655 255.487 150.645 255.507C150.045 257.146 149.535 258.815 149.115 260.503C149.115 260.543 149.095 260.583 149.085 260.623C148.805 261.733 148.565 262.852 148.365 263.981C148.355 264.061 148.345 264.131 148.325 264.201C148.225 264.72 148.145 265.25 148.065 265.779C148.065 265.809 148.065 265.839 148.065 265.879C147.975 266.439 147.915 267.019 147.855 267.588C147.855 267.648 147.845 267.718 147.835 267.788C147.785 268.278 147.735 268.777 147.695 269.267C147.695 269.377 147.675 269.487 147.675 269.597C147.605 270.696 147.555 271.815 147.545 272.934V273.334C147.545 273.793 147.545 274.253 147.565 274.713V275.032C147.585 275.582 147.605 276.142 147.655 276.691C147.655 276.811 147.675 276.931 147.685 277.051C147.715 277.501 147.755 277.94 147.805 278.39C147.815 278.55 147.835 278.7 147.845 278.859C147.905 279.409 147.975 279.979 148.045 280.528C152.065 309.126 178.655 329.121 207.305 325.094C207.795 325.034 208.285 324.944 208.765 324.874C208.925 324.854 209.075 324.824 209.235 324.794C209.565 324.745 209.895 324.675 210.215 324.615C210.395 324.585 210.575 324.545 210.755 324.505C211.055 324.445 211.365 324.375 211.655 324.315C211.835 324.275 212.015 324.235 212.195 324.185C212.495 324.115 212.795 324.035 213.095 323.965C213.265 323.925 213.435 323.885 213.605 323.825C213.935 323.745 214.255 323.645 214.585 323.545C214.725 323.505 214.865 323.475 215.005 323.426C215.935 323.146 216.845 322.856 217.745 322.536C217.875 322.496 217.985 322.436 218.115 322.396C218.445 322.276 218.765 322.156 219.095 322.027C219.245 321.977 219.395 321.907 219.535 321.847C219.835 321.727 220.135 321.607 220.425 321.477C220.575 321.417 220.725 321.347 220.865 321.287C221.175 321.157 221.475 321.017 221.765 320.887C221.895 320.827 222.035 320.768 222.155 320.708C222.495 320.548 222.835 320.388 223.175 320.218C223.265 320.178 223.345 320.138 223.435 320.088C224.295 319.648 225.145 319.209 225.975 318.729C226.045 318.689 226.115 318.639 226.185 318.599C226.525 318.409 226.865 318.209 227.195 318C227.295 317.94 227.385 317.88 227.485 317.82C227.795 317.63 228.105 317.44 228.415 317.24C228.515 317.18 228.605 317.11 228.705 317.05C229.025 316.851 229.335 316.631 229.645 316.421C229.715 316.371 229.805 316.311 229.875 316.261C230.245 316.001 230.605 315.741 230.975 315.482C230.985 315.482 231.005 315.462 231.015 315.452C231.805 314.872 232.575 314.272 233.335 313.643C233.335 313.643 233.355 313.623 233.365 313.623C233.715 313.323 234.065 313.023 234.415 312.734C234.455 312.694 234.515 312.654 234.555 312.614C234.875 312.334 235.185 312.064 235.495 311.774C235.545 311.734 235.595 311.694 235.645 311.644C235.965 311.345 236.285 311.045 236.595 310.745C236.615 310.725 236.645 310.695 236.665 310.675C238.055 309.316 239.365 307.887 240.605 306.388C240.615 306.378 240.625 306.358 240.635 306.349C240.935 305.989 241.215 305.629 241.505 305.249ZM157.855 279.159C157.805 278.79 157.755 278.4 157.715 278.03C157.705 277.93 157.695 277.84 157.685 277.74C157.655 277.451 157.625 277.181 157.595 276.891C157.595 276.791 157.595 276.711 157.575 276.611C157.555 276.321 157.535 276.042 157.515 275.742C157.515 275.672 157.515 275.592 157.505 275.522C157.485 275.212 157.475 274.893 157.465 274.583V274.443C157.465 274.103 157.445 273.753 157.445 273.414V273.384C157.435 269.217 158.025 265.16 159.165 261.313C163.735 245.795 177.025 233.564 194.085 231.176C203.555 229.847 213.235 231.775 221.485 236.592L170.625 303.96C163.705 297.375 159.185 288.612 157.855 279.169V279.159ZM178.525 309.886L229.385 242.517C236.305 249.102 240.825 257.865 242.155 267.308C243.935 279.899 239.945 292.009 232.215 300.963H232.205C227.345 306.588 221.005 310.975 213.675 313.463C213.635 313.473 213.605 313.483 213.555 313.503C212.995 313.693 212.415 313.863 211.845 314.033C211.785 314.053 211.705 314.073 211.645 314.093C211.085 314.252 210.515 314.402 209.945 314.542C209.875 314.562 209.785 314.572 209.715 314.592C209.135 314.732 208.555 314.852 207.965 314.962C207.905 314.972 207.845 314.982 207.785 314.992C207.175 315.112 206.565 315.202 205.935 315.302C196.465 316.631 186.785 314.702 178.535 309.886H178.525Z" fill="white"/>
<path d="M130.105 274.293C130.105 274.293 111.875 273.314 116.945 264.68C122.005 256.047 154.515 250.091 158.585 259.624C162.665 269.157 130.105 274.293 130.105 274.293Z" fill="#FFA6A6"/>
<path d="M132.975 289.072C132.975 289.072 114.745 288.092 119.815 279.459C124.875 270.826 157.385 264.87 161.455 274.403C165.535 283.936 132.975 289.072 132.975 289.072Z" fill="#FFA6A6"/>
<path d="M144.815 299.814C140.775 300.483 136.575 300.233 132.765 298.754C129.345 297.425 126.525 295.177 128.955 291.46C133.785 284.026 162.745 280.059 165.975 288.642C168.375 295.047 152.875 298.475 144.835 299.814H144.815Z" fill="#FFA6A6"/>
<path d="M128.075 275.542C127.505 275.542 126.995 275.152 126.855 274.573C126.705 273.903 127.125 273.234 127.795 273.074L148.265 268.377C148.945 268.218 149.605 268.647 149.765 269.317C149.915 269.986 149.495 270.656 148.825 270.816L128.355 275.512C128.265 275.532 128.165 275.542 128.075 275.542Z" fill="#C26060"/>
<path d="M129.045 289.851C128.465 289.851 127.936 289.441 127.826 288.842C127.696 288.162 128.136 287.513 128.806 287.373L152.306 282.717C152.986 282.587 153.646 283.026 153.776 283.696C153.906 284.375 153.465 285.025 152.795 285.165L129.295 289.821C129.215 289.841 129.136 289.841 129.056 289.841L129.045 289.851Z" fill="#C26060"/>
<path d="M270.245 274.293C270.245 274.293 288.475 273.314 283.405 264.68C278.345 256.047 245.835 250.091 241.765 259.624C237.685 269.157 270.245 274.293 270.245 274.293Z" fill="#FFA6A6"/>
<path d="M267.385 289.072C267.385 289.072 285.615 288.092 280.545 279.459C275.485 270.826 242.975 264.87 238.905 274.403C234.825 283.936 267.385 289.072 267.385 289.072Z" fill="#FFA6A6"/>
<path d="M255.535 299.814C259.575 300.483 263.775 300.233 267.585 298.754C271.005 297.425 273.825 295.177 271.395 291.46C266.565 284.026 237.605 280.059 234.375 288.642C231.975 295.047 247.475 298.475 255.515 299.814H255.535Z" fill="#FFA6A6"/>
<path d="M272.275 275.542C272.185 275.542 272.085 275.532 271.995 275.512L251.525 270.816C250.855 270.666 250.435 269.986 250.585 269.317C250.735 268.647 251.415 268.228 252.085 268.377L272.555 273.074C273.225 273.224 273.645 273.903 273.495 274.573C273.365 275.152 272.845 275.542 272.275 275.542Z" fill="#C26060"/>
<path d="M271.315 289.851C271.235 289.851 271.155 289.851 271.075 289.831L247.575 285.175C246.895 285.045 246.455 284.385 246.595 283.706C246.725 283.026 247.385 282.597 248.065 282.727L271.565 287.383C272.245 287.513 272.685 288.172 272.545 288.852C272.425 289.441 271.905 289.861 271.325 289.861L271.315 289.851Z" fill="#C26060"/>
<path d="M235.145 155.983C248.635 156.922 255.065 142.573 257.095 131.562C259.935 116.044 255.985 100.246 243.905 90.0734H243.925L237.825 85.2171C236.135 83.8681 233.115 80.1409 231.485 78.692C227.235 74.8949 224.045 72.217 218.315 70.4583C210.535 68.0901 202.245 68.7496 186.835 76.0041C183.805 77.423 180.025 80.1409 176.425 83.0787C173.205 82.5991 164.275 82.0994 161.555 90.603C158.555 100.026 169.335 117.702 171.485 121.09C167.695 127.925 164.765 135.299 165.345 141.064C165.635 143.952 167.065 146.46 169.155 147.989C171.325 149.578 174.905 151.257 180.135 150.947C182.185 150.827 184.235 150.917 186.265 151.207C193.005 152.156 209.155 154.174 235.145 155.983Z" fill="#1C1E22"/>
<path d="M186.545 149.898L184.725 172.56C184.875 172.94 188.765 181.973 199.905 182.763C213.095 183.702 222.125 173.13 222.575 172.59V172.491L223.435 157.602L186.535 149.898H186.545Z" fill="#FFA9A9"/>
<path d="M223.445 157.602C223.445 157.602 213.445 177.557 197.635 174.929C184.885 172.81 186.555 149.888 186.555 149.888L223.455 157.592L223.445 157.602Z" fill="#C26060"/>
<path d="M237.475 117.862C231.055 117.233 230.295 118.382 230.295 118.382L232.385 106.701C232.385 106.701 194.065 62.7841 180.185 101.295C180.185 101.295 178.855 107.61 178.145 116.253C172.585 115.464 165.985 116.403 164.985 124.877C163.575 136.878 173.085 140.835 179.105 142.134C180.085 147 181.675 151.556 184.115 155.274C195.715 172.92 211.255 168.064 218.265 162.868C227.735 155.863 229.805 145.961 229.805 145.961C229.805 145.961 242.605 148.719 247.065 138.357C251.745 127.465 243.905 118.482 237.475 117.852V117.862Z" fill="#FFA9A9"/>
<path d="M190.485 120.3C190.625 118.402 189.715 116.793 188.455 116.693C187.195 116.593 186.045 118.052 185.905 119.951C185.765 121.849 186.675 123.458 187.935 123.558C189.195 123.658 190.345 122.199 190.485 120.3Z" fill="#1C1E22"/>
<path d="M186.155 113.206C185.935 113.206 185.705 113.146 185.505 113.016C184.925 112.656 184.735 111.917 185.085 111.327C185.275 110.997 187.145 108.14 193.025 108.14C193.715 108.14 194.275 108.699 194.275 109.389C194.275 110.078 193.715 110.638 193.025 110.638C188.585 110.638 187.275 112.546 187.225 112.626C186.985 112.996 186.575 113.196 186.165 113.196L186.155 113.206Z" fill="#1C1E22"/>
<path d="M213.835 121.769C213.975 119.871 213.065 118.262 211.805 118.162C210.535 118.062 209.395 119.521 209.255 121.419C209.115 123.318 210.025 124.927 211.285 125.027C212.545 125.127 213.695 123.658 213.835 121.769Z" fill="#1C1E22"/>
<path d="M216.105 115.894C215.725 115.894 215.345 115.724 215.095 115.384C212.445 111.817 210.135 111.917 210.045 111.907C209.375 111.947 208.765 111.437 208.715 110.758C208.665 110.078 209.145 109.489 209.815 109.419C210.195 109.379 213.605 109.169 217.105 113.895C217.515 114.445 217.395 115.234 216.845 115.644C216.625 115.814 216.365 115.894 216.105 115.894Z" fill="#1C1E22"/>
<path d="M197.555 140.615C197.195 140.615 196.845 140.465 196.595 140.165C191.295 133.84 198.275 121.429 198.575 120.9C198.915 120.3 199.675 120.09 200.275 120.43C200.875 120.77 201.085 121.529 200.745 122.129C198.945 125.296 195.035 134.41 198.515 138.556C198.955 139.086 198.885 139.875 198.355 140.315C198.125 140.515 197.835 140.605 197.555 140.605V140.615Z" fill="#1C1E22"/>
<path d="M232.135 135.359C231.775 135.359 231.415 135.209 231.175 134.909C230.735 134.38 230.815 133.59 231.345 133.151L241.375 124.877C241.905 124.437 242.695 124.517 243.135 125.047C243.575 125.576 243.495 126.366 242.965 126.805L232.935 135.079C232.705 135.269 232.425 135.369 232.145 135.369L232.135 135.359Z" fill="#C26060"/>
<path d="M241.345 136.988C241.095 136.988 240.835 136.908 240.615 136.748L234.655 132.441C234.095 132.041 233.965 131.252 234.375 130.692C234.775 130.133 235.565 130.013 236.125 130.413L242.085 134.719C242.645 135.119 242.775 135.908 242.365 136.468C242.125 136.808 241.735 136.988 241.355 136.988H241.345Z" fill="#C26060"/>
<path d="M176.735 133.92C176.325 133.92 175.925 133.72 175.685 133.35L168.555 122.479C168.175 121.899 168.335 121.13 168.915 120.75C169.495 120.37 170.265 120.53 170.645 121.11L177.775 131.981C178.155 132.561 177.995 133.33 177.415 133.71C177.205 133.85 176.965 133.91 176.735 133.91V133.92Z" fill="#C26060"/>
<path d="M168.605 130.403C167.915 130.403 167.355 129.843 167.355 129.154C167.355 128.464 167.915 127.905 168.605 127.905H174.415V127.895C175.105 127.895 175.665 128.454 175.665 129.144C175.665 129.833 175.105 130.393 174.415 130.393H168.605V130.403Z" fill="#C26060"/>
<path d="M197.495 148.669C197.245 148.669 196.995 148.589 196.775 148.439C196.215 148.039 196.085 147.27 196.475 146.71C197.655 145.041 201.145 142.613 205.955 145.391C206.555 145.741 206.755 146.5 206.405 147.1C206.055 147.699 205.295 147.899 204.695 147.55C200.775 145.281 198.725 147.849 198.505 148.149C198.255 148.489 197.875 148.669 197.485 148.669H197.495Z" fill="#1C1E22"/>
<path d="M180.325 100.675C180.325 100.675 184.855 86.1464 200.075 91.0626C221.225 97.8874 217.725 130.433 233.645 119.021C239.215 115.034 241.175 109.888 241.365 104.902C241.745 94.8797 235.015 85.9165 225.345 82.8589C209.495 77.8427 181.455 72.5967 180.095 100.825V101.545L180.335 100.685L180.325 100.675Z" fill="#1C1E22"/>
<path d="M119.015 156.683C118.325 156.683 117.765 156.123 117.765 155.434V43.249C117.765 42.5596 118.325 42 119.015 42C119.705 42 120.265 42.5596 120.265 43.249V155.434C120.265 156.123 119.705 156.683 119.015 156.683Z" fill="#8396B2"/>
<path d="M131.425 156.683C130.735 156.683 130.175 156.123 130.175 155.434V43.249C130.175 42.5596 130.735 42 131.425 42C132.115 42 132.675 42.5596 132.675 43.249V155.434C132.675 156.123 132.115 156.683 131.425 156.683Z" fill="#8396B2"/>
<path d="M143.845 156.683C143.155 156.683 142.595 156.123 142.595 155.434V79.5614C142.595 78.8719 143.155 78.3123 143.845 78.3123C144.535 78.3123 145.095 78.8719 145.095 79.5614V155.434C145.095 156.123 144.535 156.683 143.845 156.683Z" fill="#8396B2"/>
<path d="M156.265 156.683C155.575 156.683 155.015 156.123 155.015 155.434V130.313C155.015 129.623 155.575 129.064 156.265 129.064C156.955 129.064 157.515 129.623 157.515 130.313V155.434C157.515 156.123 156.955 156.683 156.265 156.683Z" fill="#8396B2"/>
</g>
</g>
<defs>
<clipPath id="clip0_1246_3791">
<rect width="400" height="400" fill="white"/>
</clipPath>
<clipPath id="clip1_1246_3791">
<rect width="400" height="400" fill="white"/>
</clipPath>
</defs>
</svg>
