<svg width="400" height="400" viewBox="0 0 400 400" fill="none" xmlns="http://www.w3.org/2000/svg">
<g clip-path="url(#clip0_2024_6790)">
<path d="M232 230H82V330H232V230Z" fill="#D5E1FF"/>
<path d="M320 230H232V330H320V230Z" fill="#91B1FF"/>
<path d="M149 230H143V330H149V230Z" fill="#91B1FF"/>
<path d="M275 330H281V230H275V330Z" fill="#4D88FF"/>
<path d="M218.806 102.065L67.8848 141.546L74.4649 166.7L225.386 127.219L218.806 102.065Z" fill="#E3EBFC"/>
<path d="M133.67 124.333L127.865 125.852L134.445 151.005L140.25 149.487L133.67 124.333Z" fill="#91B1FF"/>
<path d="M311.671 77.7581L218.796 102.054L225.377 127.208L318.251 102.912L311.671 77.7581Z" fill="#D5E1FF"/>
<path d="M271.82 115.035L277.625 113.516L271.045 88.3629L265.24 89.8814L271.82 115.035Z" fill="#4D88FF"/>
<path d="M150.61 76.04C157.86 76.04 165 80.42 175.26 91.15C179.09 95.16 184.26 100.69 188.18 104.9L155.63 113.42C154.05 113.83 152.42 114.04 150.8 114.04C142.17 114.04 134.62 108.2 132.43 99.84C131.15 94.93 131.85 89.81 134.41 85.43C136.97 81.05 141.09 77.93 146 76.65C147.55 76.25 149.1 76.04 150.6 76.04M150.6 71.04C148.69 71.04 146.74 71.29 144.73 71.81C131.91 75.17 124.23 88.28 127.59 101.1C130.41 111.89 140.14 119.03 150.79 119.03C152.8 119.03 154.84 118.78 156.88 118.24L197.51 107.61C197.51 107.61 185.97 95.12 178.86 87.68C169.79 78.2 160.86 71.03 150.6 71.03V71.04Z" fill="#4D88FF"/>
<path d="M219.52 58.05C228.15 58.05 235.7 63.89 237.88 72.25C240.53 82.39 234.44 92.79 224.31 95.44L191.76 103.96C193.11 98.37 194.91 91.02 196.29 85.65C199.95 71.4 204.48 61.36 214.69 58.69C216.27 58.28 217.9 58.07 219.52 58.07M219.52 53.07C217.51 53.07 215.46 53.32 213.43 53.86C200.61 57.22 195.32 69.35 191.45 84.42C188.89 94.39 184.95 110.93 184.95 110.93L225.58 100.3C238.4 96.94 246.08 83.83 242.72 71.01C239.9 60.22 230.17 53.08 219.52 53.08V53.07Z" fill="#4D88FF"/>
<path d="M57 166C50.37 166 45 157.05 45 146C45 157.05 39.63 166 33 166C39.63 166 45 174.95 45 186C45 174.95 50.37 166 57 166Z" fill="#FFDB25"/>
<path d="M348 95C341.37 95 336 86.05 336 75C336 86.05 330.63 95 324 95C330.63 95 336 103.95 336 115C336 103.95 341.37 95 348 95Z" fill="#FFDB25"/>
<path d="M375 196C371.13 196 368 191.08 368 185C368 191.08 364.87 196 361 196C364.87 196 368 200.92 368 207C368 200.92 371.13 196 375 196Z" fill="#FFDB25"/>
<path d="M283 61C279.13 61 276 56.08 276 50C276 56.08 272.87 61 269 61C272.87 61 276 65.92 276 72C276 65.92 279.13 61 283 61Z" fill="#FFDB25"/>
<path d="M301 152C297.13 152 294 147.08 294 141C294 147.08 290.87 152 287 152C290.87 152 294 156.92 294 163C294 156.92 297.13 152 301 152Z" fill="#FFDB25"/>
<path d="M78 202C74.13 202 71 197.08 71 191C71 197.08 67.87 202 64 202C67.87 202 71 206.92 71 213C71 206.92 74.13 202 78 202Z" fill="#FFDB25"/>
<path d="M361 247C352.72 247 346 235.81 346 222C346 235.81 339.28 247 331 247C339.28 247 346 258.19 346 272C346 258.19 352.72 247 361 247Z" fill="#FFDB25"/>
<path d="M112 61C103.72 61 97 49.81 97 36C97 49.81 90.28 61 82 61C90.28 61 97 72.19 97 86C97 72.19 103.72 61 112 61Z" fill="#FFDB25"/>
<path d="M29 232C31.2091 232 33 230.209 33 228C33 225.791 31.2091 224 29 224C26.7909 224 25 225.791 25 228C25 230.209 26.7909 232 29 232Z" fill="#BB9BFF"/>
<path d="M29 75C31.2091 75 33 73.2091 33 71C33 68.7909 31.2091 67 29 67C26.7909 67 25 68.7909 25 71C25 73.2091 26.7909 75 29 75Z" fill="#BB9BFF"/>
<path d="M97 206C99.2091 206 101 204.209 101 202C101 199.791 99.2091 198 97 198C94.7909 198 93 199.791 93 202C93 204.209 94.7909 206 97 206Z" fill="#D8C6FF"/>
<path d="M57 276C59.2091 276 61 274.209 61 272C61 269.791 59.2091 268 57 268C54.7909 268 53 269.791 53 272C53 274.209 54.7909 276 57 276Z" fill="#D8C6FF"/>
<path d="M346 168C348.209 168 350 166.209 350 164C350 161.791 348.209 160 346 160C343.791 160 342 161.791 342 164C342 166.209 343.791 168 346 168Z" fill="#BB9BFF"/>
<path d="M357 44C359.209 44 361 42.2091 361 40C361 37.7909 359.209 36 357 36C354.791 36 353 37.7909 353 40C353 42.2091 354.791 44 357 44Z" fill="#BB9BFF"/>
<path d="M287 224C289.209 224 291 222.209 291 220C291 217.791 289.209 216 287 216C284.791 216 283 217.791 283 220C283 222.209 284.791 224 287 224Z" fill="#D8C6FF"/>
<path d="M336 301C338.209 301 340 299.209 340 297C340 294.791 338.209 293 336 293C333.791 293 332 294.791 332 297C332 299.209 333.791 301 336 301Z" fill="#D8C6FF"/>
<path d="M248 218.5C247.57 218.5 247.13 218.39 246.72 218.15C245.53 217.44 245.14 215.91 245.85 214.73C246.07 214.37 251.26 205.7 260.48 197.12C272.84 185.61 286.53 179.87 300.11 180.52C303.14 180.66 305.64 181.05 307.7 181.58C309.13 180 310.83 178.53 312.77 177.31C317.81 174.14 328.24 170.42 341.55 181.06C342.63 181.92 342.8 183.5 341.94 184.57C341.08 185.65 339.5 185.82 338.43 184.96C325.68 174.76 316.71 179.97 312.77 183.57C315.18 184.98 316.37 186.58 316.96 187.78C318.15 190.2 317.92 192.98 316.35 195.21C314.43 197.95 310.93 199.39 307.21 198.99C304.87 198.74 303.15 197.18 302.61 194.84C302.06 192.47 302.76 189.23 304.53 186C303.17 185.76 301.61 185.59 299.86 185.5C270.31 184.11 250.32 216.95 250.13 217.28C249.66 218.07 248.83 218.5 247.98 218.5H248ZM307.61 193.99C307.61 193.99 307.68 194.01 307.77 194.02C310.05 194.27 311.62 193.27 312.27 192.34C312.64 191.82 312.97 190.98 312.48 189.98C312.07 189.14 311.1 188.24 309.48 187.47C307.41 190.72 307.15 193.47 307.6 193.99H307.61Z" fill="#BB9BFF"/>
<path d="M157 213.5C156.04 213.5 155.13 212.95 154.71 212.01C139.59 177.99 106.4 177.5 104.99 177.49C103.61 177.49 102.49 176.37 102.5 174.99C102.5 173.61 103.62 172.49 105 172.49C105.38 172.49 142.82 172.92 159.28 209.97C159.84 211.23 159.28 212.71 158.01 213.27C157.68 213.42 157.34 213.49 157 213.49V213.5Z" fill="#BB9BFF"/>
<path d="M172.19 222.5C171.03 222.5 169.99 221.69 169.75 220.51C165.12 198.37 155.08 184.33 154.98 184.19C154.17 183.07 154.42 181.51 155.53 180.7C156.65 179.89 158.21 180.14 159.02 181.25C159.46 181.85 169.78 196.23 174.64 219.49C174.92 220.84 174.06 222.17 172.7 222.45C172.53 222.49 172.36 222.5 172.19 222.5Z" fill="#D8C6FF"/>
<path d="M236.13 218.5C236.01 218.5 235.88 218.5 235.76 218.47C234.4 218.26 233.46 217 233.66 215.63C233.82 214.53 237.96 188.4 261.55 171.47C262.67 170.67 264.23 170.92 265.04 172.04C265.84 173.16 265.59 174.72 264.47 175.53C242.65 191.19 238.65 216.11 238.61 216.36C238.42 217.6 237.36 218.49 236.14 218.49L236.13 218.5Z" fill="#D8C6FF"/>
</g>
<defs>
<clipPath id="clip0_2024_6790">
<rect width="350" height="294" fill="white" transform="translate(25 36)"/>
</clipPath>
</defs>
</svg>
