<svg width="400" height="400" viewBox="0 0 400 400" fill="none" xmlns="http://www.w3.org/2000/svg">
<g clip-path="url(#clip0_2747_13597)">
<path d="M318.481 355.39C317.752 362.246 317.072 368.483 316.872 370H128.755C128.075 359.691 136.051 290.564 136.051 290.564L118 210.141C121.778 210.141 148.614 202.736 167.024 197.257C185.804 191.669 214.048 188.156 219.585 187.857C221.454 187.757 223.823 187.577 225.012 187.508L253.697 187.148C259.234 186.799 264.79 187.108 270.248 188.106L318.471 355.39H318.481Z" fill="#D3E1FF"/>
<path d="M224.482 197.936C224.482 197.936 207.222 250.008 199.916 294.905C192.62 339.802 190.591 370 190.591 370H201.825C201.825 370 210.11 298.059 215.387 274.478C221.784 245.957 234.907 199.143 234.907 199.143C234.907 199.143 230.409 195.541 224.472 197.946L224.482 197.936Z" fill="#91B1FF"/>
<path d="M202.364 245.977C205.553 245.687 208.491 247.683 209.361 250.747C213.398 265.067 223.093 306.002 213.778 341.818C212.359 347.257 207.032 350.78 201.445 349.981C201.375 349.971 201.305 349.961 201.235 349.952C197.837 349.443 194.699 347.816 192.31 345.351C188.212 341.12 179.827 333.765 167.733 329.404C161.377 327.109 158.378 319.854 161.337 313.786C169.302 297.45 183.135 269.189 191.031 253.661C193.239 249.33 197.527 246.416 202.384 245.967L202.364 245.977Z" fill="white"/>
<path d="M202.894 299.396C210.67 300.434 234.517 281.942 234.517 281.942C234.517 281.942 237.015 250.098 229.619 234.47L226.731 229.64C226.731 229.64 222.863 223.653 218.076 225.489C215.507 226.477 215.967 231.277 216.946 235.548C212.359 230.05 204.693 222.495 198.416 224.222C193.749 225.499 193.169 235.698 187.542 241.167C181.925 246.635 171.911 255.946 172.051 262.582C172.191 269.238 195.118 298.358 202.894 299.396Z" fill="#FFA9A9"/>
<path d="M206.033 225.569C206.033 225.569 216.237 216.787 218.936 235.039V237.963L206.033 225.569Z" fill="white"/>
<path d="M228.161 251.904C227.761 251.904 227.371 251.715 227.131 251.355L218.716 239.021C218.326 238.452 218.476 237.674 219.046 237.285C219.615 236.895 220.395 237.045 220.785 237.614L229.2 249.948C229.59 250.517 229.44 251.296 228.87 251.685C228.65 251.834 228.41 251.904 228.171 251.904H228.161Z" fill="#C26060"/>
<path d="M259.843 186.749C259.843 186.749 318.191 189.214 350.983 242.055C381.316 290.914 377.488 352.347 324.008 355.311C270.537 358.264 188.182 298.638 188.182 298.638L238.554 256.784L254.206 259.539L259.833 186.769L259.843 186.749Z" fill="#D3E1FF"/>
<path d="M320.13 356.658C266.859 356.658 189.451 300.683 188.651 300.095C188.092 299.686 187.972 298.907 188.381 298.348C188.791 297.789 189.571 297.67 190.13 298.079C190.94 298.668 271.586 356.947 323.958 354.053C324.637 354.013 325.237 354.542 325.277 355.231C325.317 355.919 324.787 356.508 324.097 356.548C322.798 356.618 321.469 356.658 320.14 356.658H320.13Z" fill="#91B1FF"/>
<path d="M314.813 275.426C314.663 275.426 314.513 275.396 314.373 275.346C293.555 267.512 254.406 260.836 254.006 260.766C253.327 260.646 252.867 260.008 252.987 259.329C253.107 258.65 253.736 258.191 254.426 258.311C254.826 258.381 294.214 265.087 315.253 273.011C315.903 273.25 316.222 273.969 315.982 274.617C315.793 275.116 315.313 275.426 314.813 275.426Z" fill="#91B1FF"/>
<path d="M277.863 264.568C276.694 264.568 275.504 264.568 274.275 264.548C273.705 264.548 273.216 264.149 273.076 263.6C272.936 263.051 273.196 262.472 273.695 262.203C277.094 260.377 307.007 244.699 313.074 254.639C313.494 255.237 313.943 256.535 313.224 257.972C311.015 262.353 299.122 264.568 277.863 264.568ZM305.468 253.87C298.852 253.87 288.078 257.912 279.462 262.073C306.018 261.924 310.295 258.121 310.965 256.904C311.215 256.445 311.065 256.136 311.005 256.056C310.086 254.519 308.107 253.88 305.458 253.88L305.468 253.87Z" fill="#91B1FF"/>
<path d="M262.811 187.009C261.622 186.859 259.563 186.679 259.563 186.679C259.563 186.679 259.553 186.679 259.543 186.689C259.153 186.929 248.079 193.864 235.696 195.591C223.713 197.257 223.363 188.406 223.333 187.677C223.333 187.637 223.333 187.617 223.333 187.617C223.333 187.617 210.95 203.095 212.938 205.44C213.858 206.528 216.986 204.682 220.384 202.676C224.352 200.331 228.69 197.756 230.289 199.353C231.778 200.83 234.777 203.504 237.955 205.989C241.163 208.494 244.551 210.809 246.75 211.518C249.029 212.246 253.976 205.71 257.854 199.203C258.154 198.694 258.454 198.195 258.743 197.687C261.872 192.198 264.001 187.148 262.831 187.009H262.811Z" fill="#91B1FF"/>
<path d="M260.263 175.672C273.056 178.426 284.19 174.065 289.167 164.745C296.164 151.632 292.306 133.09 284.16 120.626H284.15L279.962 114.588C278.803 112.912 277.094 108.731 276.025 106.994C273.226 102.414 271.077 99.1404 266.34 95.9769C259.913 91.7058 252.168 90.0093 236.026 92.2447C232.848 92.6838 228.65 94.0709 224.523 95.7075C221.714 94.3802 213.708 91.4762 208.821 98.342C202.814 106.785 215.198 124.707 215.198 124.707L216.927 127.262C210.45 137.301 201.015 154.496 206.113 163.028C206.113 163.028 209.811 169.844 222.764 168.008L260.273 175.672H260.263Z" fill="#1C1E22"/>
<path d="M235.697 195.601C248.09 193.884 259.164 186.949 259.544 186.699L260.753 170.513L255.726 171.231L225.742 175.502L223.043 189.104V189.144C223.073 189.873 223.713 197.257 235.697 195.591V195.601Z" fill="#FFA9A9"/>
<path d="M255.716 171.221C255.586 171.97 255.226 172.848 254.706 173.846C247.42 187.268 230.12 188.985 223.034 189.094L225.732 175.492L255.716 171.221Z" fill="#C56060"/>
<path d="M230.849 105.677C226.991 108.262 224.033 111.974 222.104 116.195C217.626 126.045 207.952 149.855 211.32 165.234C215.647 185.023 233.648 182.997 244.532 179.853C255.426 176.71 260.753 170.493 260.753 170.493C260.753 170.493 270.517 174.435 277.724 165.613C284.93 156.791 281.461 145.964 275.915 143.199C270.368 140.445 263.361 144.127 263.361 144.127L269.258 134.378C269.258 134.378 253.217 90.6879 230.849 105.667H230.859L230.849 105.677Z" fill="#FFA9A9"/>
<path d="M240.874 145.365C240.534 144.686 239.585 144.616 239.165 145.255C237.866 147.231 235.647 151.093 235.267 155.095C234.767 160.414 243.143 161.062 243.513 155.733C243.683 153.169 243.053 149.786 240.874 145.365Z" fill="white"/>
<path d="M223.323 137.002C223.563 135.206 222.774 133.619 221.574 133.459C220.375 133.3 219.206 134.627 218.966 136.423C218.726 138.22 219.505 139.806 220.715 139.966C221.914 140.126 223.083 138.798 223.323 137.002Z" fill="#1C1E22"/>
<path d="M227.092 126.913C226.712 126.913 226.342 126.743 226.102 126.424C225.363 125.456 224.533 124.937 223.563 124.837C221.595 124.618 219.666 126.204 219.646 126.214C219.116 126.653 218.326 126.584 217.887 126.065C217.447 125.536 217.507 124.757 218.037 124.308C218.146 124.219 220.785 122.033 223.823 122.352C225.482 122.532 226.922 123.39 228.081 124.907C228.501 125.456 228.401 126.234 227.851 126.653C227.621 126.823 227.351 126.913 227.092 126.913Z" fill="#1C1E22"/>
<path d="M242.523 139.577C242.763 137.78 241.973 136.194 240.774 136.034C239.575 135.874 238.405 137.202 238.165 138.998C237.926 140.794 238.705 142.381 239.914 142.541C241.114 142.7 242.283 141.373 242.523 139.577Z" fill="#1C1E22"/>
<path d="M246.7 132.112C246.251 132.112 245.811 131.863 245.591 131.434C245.561 131.374 244.392 129.208 242.503 128.659C241.573 128.39 240.604 128.55 239.554 129.158C238.955 129.498 238.195 129.298 237.845 128.699C237.505 128.1 237.705 127.342 238.305 126.993C239.964 126.035 241.623 125.795 243.222 126.264C246.161 127.133 247.75 130.156 247.82 130.286C248.14 130.895 247.89 131.653 247.28 131.963C247.1 132.052 246.9 132.102 246.71 132.102L246.7 132.112Z" fill="#1C1E22"/>
<path d="M223.343 155.943C222.744 155.943 222.224 155.514 222.114 154.905C220.425 145.145 225.992 139.846 226.232 139.617C226.741 139.148 227.531 139.178 228.001 139.677C228.47 140.176 228.44 140.964 227.941 141.433C227.741 141.623 223.133 146.103 224.573 154.466C224.693 155.145 224.233 155.793 223.553 155.903C223.483 155.913 223.413 155.923 223.343 155.923V155.943Z" fill="#1C1E22"/>
<path d="M227.621 164.555C224.293 164.555 222.504 162.998 222.394 162.898C221.884 162.439 221.835 161.651 222.294 161.132C222.754 160.623 223.534 160.583 224.043 161.032C224.163 161.132 226.552 163.068 231.229 161.352C231.879 161.112 232.599 161.451 232.829 162.09C233.068 162.739 232.729 163.457 232.089 163.687C230.38 164.316 228.881 164.545 227.601 164.545L227.621 164.555Z" fill="#1C1E22"/>
<path d="M263.971 159.256C263.611 159.256 263.252 159.106 263.012 158.807C262.572 158.278 262.652 157.49 263.182 157.051L273.216 148.788C273.746 148.349 274.535 148.428 274.975 148.957C275.415 149.486 275.335 150.275 274.805 150.714L264.771 158.977C264.541 159.166 264.261 159.266 263.981 159.266L263.971 159.256Z" fill="#C26060"/>
<path d="M273.176 160.873C272.926 160.873 272.667 160.793 272.447 160.633L266.49 156.332C265.93 155.933 265.81 155.145 266.21 154.586C266.61 154.027 267.389 153.907 267.959 154.306L273.916 158.607C274.476 159.007 274.595 159.795 274.196 160.354C273.956 160.693 273.566 160.873 273.186 160.873H273.176Z" fill="#C26060"/>
<path d="M223.573 113.251C223.573 113.251 229.27 102.863 241.304 111.186C258.034 122.762 246.441 149.516 263.372 144.147C280.292 138.768 273.846 117.383 273.846 117.383C273.846 117.383 235.577 80.2196 223.583 113.251H223.573Z" fill="#1C1E22"/>
<path d="M73.7047 178.786C73.7047 178.786 56.564 149.147 52.6361 128.031C48.6983 106.914 52.1564 98.851 55.2347 97.8331C58.2931 96.8152 63.7301 109.489 63.7301 109.489C63.7301 109.489 60.5818 89.5403 67.3481 87.4247C74.1044 85.2991 78.8219 102.513 78.8219 102.513C78.8219 102.513 79.5315 87.8138 85.5082 89.6002C91.475 91.3964 97.4617 123.69 97.4617 123.69C97.4617 123.69 99.8204 106.864 104.458 108.202C109.095 109.529 115.222 132.911 113.183 142.062C111.144 151.213 104.298 162.889 104.298 162.889L73.7147 178.796H73.7047V178.786Z" fill="#FFA9A9"/>
<path d="M62.7005 134.338C62.2208 134.338 61.761 134.058 61.5611 133.599C61.2813 132.97 61.5611 132.232 62.1908 131.953L92.0945 118.64C92.7241 118.361 93.4637 118.64 93.7436 119.269C94.0234 119.897 93.7436 120.636 93.1139 120.915L63.2102 134.228C63.0403 134.298 62.8704 134.338 62.7005 134.338Z" fill="#C26060"/>
<path d="M86.8477 158.677C86.248 158.677 85.7283 158.248 85.6184 157.639C81.9404 136.363 96.0027 123.32 96.6124 122.772C97.1221 122.312 97.9117 122.342 98.3714 122.851C98.8312 123.36 98.8012 124.149 98.2915 124.618C98.1515 124.737 84.6489 137.321 88.087 157.21C88.207 157.889 87.7472 158.538 87.0676 158.647C86.9976 158.657 86.9277 158.667 86.8577 158.667L86.8477 158.677Z" fill="#C26060"/>
<path d="M158.129 295.684L131.433 307.1C112.663 314.455 83.819 314.175 73.2848 290.844C55.3346 251.086 63.5101 172.908 63.5101 172.908L119.829 155.065C119.829 155.065 149.933 225.868 158.129 295.694V295.684Z" fill="#D3E1FF"/>
<path d="M150.263 236.596C149.523 236.596 148.384 236.406 147.075 235.538C143.617 233.263 139.009 226.247 136.71 205.76C136.65 205.201 136.97 204.672 137.49 204.463C138.01 204.253 138.609 204.423 138.949 204.862C141.927 208.774 156.659 228.603 153.951 234.58C153.591 235.379 152.782 236.357 150.993 236.526C150.833 236.556 150.583 236.596 150.263 236.596ZM139.799 210.241C142.217 226.966 146.185 231.966 148.454 233.463C149.623 234.231 150.443 234.101 150.453 234.101C150.543 234.071 150.633 234.061 150.723 234.051C151.482 234.001 151.612 233.702 151.682 233.562C153.021 230.608 146.225 219.232 139.809 210.241H139.799Z" fill="#91B1FF"/>
<path d="M133.722 101.196C133.042 101.196 132.483 100.657 132.473 99.9687C131.953 73.6931 114.902 60.3806 114.732 60.2409C114.182 59.8218 114.083 59.0434 114.492 58.4945C114.912 57.9456 115.692 57.8359 116.241 58.255C116.981 58.8138 134.421 72.3858 134.961 99.9188C134.971 100.607 134.421 101.176 133.732 101.186H133.712L133.722 101.196Z" fill="#8396B2"/>
<path d="M118.24 75.1401C117.791 75.1401 117.361 74.9006 117.131 74.4715C116.811 73.8627 117.041 73.1043 117.651 72.7849L133.852 64.2825C134.461 63.9632 135.221 64.1927 135.541 64.8015C135.861 65.4102 135.631 66.1686 135.021 66.488L118.82 74.9904C118.63 75.0902 118.44 75.1301 118.24 75.1301V75.1401Z" fill="#8396B2"/>
<path d="M124.717 90.3686C124.187 90.3686 123.697 90.0293 123.528 89.5004C123.318 88.8417 123.677 88.1432 124.337 87.9336L141.898 82.2853C142.547 82.0757 143.257 82.435 143.467 83.0936C143.677 83.7522 143.317 84.4508 142.657 84.6604L125.097 90.3087C124.967 90.3486 124.837 90.3686 124.717 90.3686Z" fill="#8396B2"/>
<path d="M54.865 179.983C54.6551 179.983 54.4352 179.933 54.2353 179.813C33.0269 167.499 30.1185 144.576 30.0085 143.598C29.9286 142.91 30.4183 142.291 31.108 142.211C31.7776 142.131 32.4172 142.62 32.4972 143.299C32.5272 143.529 35.4056 165.972 55.5047 177.648C56.1043 177.997 56.3042 178.756 55.9544 179.354C55.7245 179.754 55.3048 179.973 54.875 179.973L54.865 179.983Z" fill="#8396B2"/>
</g>
<defs>
<clipPath id="clip0_2747_13597">
<rect width="400" height="400" fill="white"/>
</clipPath>
</defs>
</svg>
