<svg width="72" height="72" viewBox="0 0 72 72" fill="none" xmlns="http://www.w3.org/2000/svg">
<g clip-path="url(#clip0_2546_31325)">
<path d="M24.0891 31.2125L35.7411 19.5609L47.3994 31.2187L54.1793 24.4387L35.7411 6L17.3091 24.4325L24.0891 31.2125Z" fill="#F3BA2F"/>
<path d="M19.3009 35.9989L12.521 29.2191L5.7408 35.9993L12.5207 42.7791L19.3009 35.9989Z" fill="#F3BA2F"/>
<path d="M24.089 40.7875L35.7411 52.4391L47.3988 40.7818L54.1826 47.558L54.1793 47.5618L35.7411 66L17.3086 47.5679L17.2991 47.5585L24.089 40.7875Z" fill="#F3BA2F"/>
<path d="M58.9615 42.7823L65.7417 36.0021L58.9618 29.2223L52.1816 36.0025L58.9615 42.7823Z" fill="#F3BA2F"/>
<path d="M42.6181 35.9964H42.6209L35.741 29.1165L30.6566 34.2008H30.6561L30.0723 34.7852L28.8671 35.9903L28.8577 35.9997L28.8671 36.0097L35.741 42.8835L42.6209 36.0035L42.6242 35.9997L42.6181 35.9964Z" fill="#F3BA2F"/>
</g>
<defs>
<clipPath id="clip0_2546_31325">
<rect width="60" height="60" fill="white" transform="translate(6 6)"/>
</clipPath>
</defs>
</svg>
