<svg width="72" height="72" viewBox="0 0 72 72" fill="none" xmlns="http://www.w3.org/2000/svg">
<g clip-path="url(#clip0_7520_34652)">
<path fill-rule="evenodd" clip-rule="evenodd" d="M65.9999 61.1929V49.8269C65.7357 48.7548 65.0444 47.9811 64.2833 47.2212C54.991 37.9362 45.7019 28.6481 36.4159 19.3567C36.3355 19.2762 36.2637 19.1872 36.1777 19.0805C36.1327 19.0246 36.0837 18.9639 36.0276 18.8971C35.8526 19.0755 35.6832 19.2496 35.5172 19.4204C35.169 19.7785 34.8353 20.1216 34.4945 20.4576C32.3494 22.5722 29.853 24.1195 26.9199 24.8298C20.9177 26.2839 15.6967 24.7766 11.2778 20.4819C10.4199 19.6479 10.4614 18.6411 11.3234 17.7782L21.163 7.93436C21.1872 7.91016 21.2116 7.88604 21.2359 7.86192C21.3475 7.75142 21.4593 7.64066 21.5584 7.51977C21.8109 7.21121 21.929 6.82618 21.6732 6.51594C21.5245 6.33542 21.2851 6.22643 21.0503 6.11957C20.9786 6.08694 20.9073 6.05451 20.8392 6.02029C20.782 5.99161 20.7067 5.99916 20.6313 6.00671C20.5969 6.01016 20.5624 6.01361 20.5297 6.01361C16.9508 6.01312 13.3719 6.01319 9.79292 6.01382C7.58542 6.01413 6.09628 7.44498 6.00742 9.65038C6.00384 9.73884 6.00442 9.82747 6.005 9.91606C6.00522 9.94913 6.00543 9.9822 6.00543 10.0152C6.01044 27.3414 6.00863 44.6675 6 61.9936C5.99917 63.6079 6.55096 64.8913 8.04167 65.6214C8.50964 65.8461 9.02092 65.9663 9.54 65.9735C11.8546 65.9914 14.1694 65.9913 16.4841 65.9911C17.8873 65.9911 19.2905 65.991 20.6936 65.9949C21.1543 65.9962 21.5173 65.8862 21.7138 65.4439C21.9253 64.9662 21.7038 64.6197 21.3719 64.2894C20.499 63.4212 19.6288 62.5503 18.7586 61.6795C17.8971 60.8172 17.0355 59.9549 16.1714 59.0953C15.5737 58.5013 15.2793 57.8133 15.4882 56.9748C15.5752 56.619 15.7551 56.2926 16.0095 56.029C16.2639 55.7654 16.5837 55.5741 16.9362 55.4747C17.2887 55.3752 17.6613 55.3711 18.0159 55.4628C18.3705 55.5546 18.6944 55.7388 18.9545 55.9967C19.7247 56.7465 20.4823 57.5092 21.24 58.2719C21.5722 58.6063 21.9045 58.9408 22.2379 59.2743C22.7664 59.8029 23.2954 60.331 23.8245 60.8592C25.1277 62.1601 26.431 63.4611 27.7262 64.77C28.5391 65.5915 29.4844 66.0061 30.6555 65.9977C33.991 65.9741 37.3269 65.9841 40.6625 65.9956C41.12 65.9972 41.4963 65.9031 41.6936 65.4621C41.9025 64.9966 41.7079 64.6402 41.3699 64.3026C36.3358 59.2616 31.2966 54.2259 26.2521 49.1954C25.5982 48.5433 25.2459 47.8171 25.5054 46.9008C25.919 45.4408 27.7045 44.9213 28.8631 45.9085C28.9565 45.9882 29.0424 46.0769 29.1282 46.1655C29.1634 46.2019 29.1987 46.2383 29.2344 46.2741C35.3946 52.4252 41.5478 58.5831 47.6942 64.7477C48.5405 65.5965 49.5093 66.01 50.7173 65.9996C53.6281 65.9737 56.5392 65.9825 59.4502 65.9913C59.8054 65.9924 60.1606 65.9935 60.5159 65.9945C61.0094 65.9958 61.4787 65.9786 61.6903 65.443C61.8941 64.9271 61.6249 64.565 61.2675 64.208C52.9259 55.8644 44.5817 47.5232 36.2352 39.1844C35.6607 38.6104 35.3103 37.9777 35.4443 37.1421C35.5025 36.7939 35.6485 36.4663 35.8684 36.1903C36.0884 35.9143 36.3751 35.699 36.7015 35.5647C37.0278 35.4305 37.383 35.3817 37.7334 35.423C38.0839 35.4642 38.418 35.5943 38.7043 35.8007C38.8959 35.9502 39.0758 36.1142 39.2425 36.291C47.5599 44.6096 55.8771 52.9284 64.1939 61.2474C64.9082 61.9619 65.3754 61.9472 65.9999 61.1929ZM65.9998 41.1721V8.95094C65.7145 8.08531 65.3419 7.27984 64.5689 6.72361C63.9706 6.26847 63.2412 6.01928 62.4895 6.01331C51.7906 6.01414 41.0916 6.01414 30.3926 6.01331C29.9306 6.00939 29.4726 6.09958 29.0466 6.27837C28.6205 6.45716 28.2353 6.72081 27.9144 7.05328C24.2244 10.7333 20.5396 14.4184 16.86 18.1087C16.2649 18.7055 16.3871 19.3481 17.1383 19.7598C21.6706 22.2444 27.3939 21.4676 31.2221 17.8291C31.9894 17.1002 32.7368 16.3498 33.4841 15.5994C33.7787 15.3036 34.0734 15.0077 34.3692 14.7132C35.4396 13.6474 36.584 13.6417 37.6477 14.7056C46.5027 23.5628 55.3578 32.4198 64.2129 41.2766C64.9173 41.9817 65.4022 41.952 65.9998 41.1721Z" fill="black"/>
</g>
<defs>
<clipPath id="clip0_7520_34652">
<rect width="72" height="72" fill="white"/>
</clipPath>
</defs>
</svg>
