<svg width="72" height="72" viewBox="0 0 72 72" fill="none" xmlns="http://www.w3.org/2000/svg">
<g clip-path="url(#clip0_608_3261)">
<path d="M36 69C54.2254 69 69 54.2254 69 36C69 17.7746 54.2254 3 36 3C17.7746 3 3 17.7746 3 36C3 54.2254 17.7746 69 36 69Z" fill="black"/>
<path d="M23.7586 22.4858L31.6472 29.8715C32.8258 30.9558 34.3658 31.5529 35.9686 31.5529C37.5715 31.5529 39.1115 30.9558 40.2901 29.8715L48.2258 22.4858H53.2229L42.8044 32.2444C40.9344 33.9415 38.4986 34.8686 35.9844 34.8686C33.4701 34.8686 31.0344 33.9258 29.1644 32.2444L18.7615 22.4858H23.7586ZM36.0001 37.1158C38.5301 37.1158 40.9658 38.0587 42.8201 39.7715L53.2858 49.5772H48.2886L40.3529 42.0972C39.1744 41.0129 37.6344 40.4158 36.0315 40.4158C34.4286 40.4158 32.8886 41.0129 31.7101 42.0972L23.7272 49.5772H18.7144L29.1801 39.7715C31.0344 38.0587 33.4701 37.1158 36.0001 37.1158Z" fill="white"/>
<path fill-rule="evenodd" clip-rule="evenodd" d="M48 60C48 66.6272 53.3725 72 60 72C66.6275 72 72 66.6272 72 60C72 53.3725 66.6275 48 60 48C53.3725 48 48 53.3725 48 60Z" fill="url(#paint0_linear_608_3261)"/>
<path d="M60.1755 52.5109V52.5116L60.1616 52.5112L60.1472 52.5109C59.7912 52.5109 59.5023 52.8014 59.5023 53.1597C59.5023 53.518 59.7912 53.8086 60.1472 53.8086C60.1568 53.8086 60.1661 53.8083 60.1755 53.8086H60.1771L60.2764 53.8092C63.5438 53.8625 66.1765 56.5424 66.1781 59.841L66.178 59.8456L66.1777 59.8505C66.1777 60.2087 66.4666 60.4992 66.8229 60.4992C67.1793 60.4992 67.468 60.2087 67.468 59.8505C67.468 59.8472 67.4679 59.8442 67.468 59.841L67.467 59.7197C67.4012 55.7271 64.1627 52.5109 60.1771 52.5109H60.1755ZM55.5194 60C55.5194 62.4816 57.5254 64.4934 60.0001 64.4934C62.4748 64.4934 64.4808 62.4816 64.4808 60C64.4808 57.5182 62.4748 55.5065 60.0001 55.5065C57.5254 55.5065 55.5194 57.5182 55.5194 60ZM57.4137 60C57.4137 58.5672 58.5717 57.4062 60.0001 57.4062C61.4286 57.4062 62.5865 58.5672 62.5865 60C62.5865 61.4323 61.4286 62.5937 60.0001 62.5937C58.5717 62.5937 57.4137 61.4323 57.4137 60ZM52.8641 58.1694C52.8641 58.5368 53.1615 58.8349 53.528 58.8349C53.8945 58.8349 54.1917 58.5368 54.1917 58.1694C54.1917 57.8016 53.8945 57.5037 53.528 57.5037C53.1615 57.5037 52.8641 57.8016 52.8641 58.1694ZM52.5322 60.1494V60.1588L52.533 60.263C52.5818 63.6969 54.9777 66.5596 58.1799 67.3011C58.7089 67.4242 59.2602 67.489 59.8266 67.489C59.8615 67.489 59.8963 67.4887 59.931 67.4881H59.8528H59.8248V67.4875L59.8388 67.488L59.8528 67.4881C60.2091 67.4881 60.4979 67.1978 60.4979 66.8395C60.4979 66.4812 60.2091 66.1908 59.8528 66.1908C59.8434 66.1908 59.8342 66.1911 59.8248 66.1905H59.824L59.823 66.1908C59.3825 66.1908 58.9531 66.1424 58.5397 66.0519C55.8439 65.4594 53.826 63.0455 53.826 60.157V60.1546H53.8222L53.8224 60.1519V60.1494C53.8224 59.7911 53.5337 59.5007 53.1773 59.5007C52.8209 59.5007 52.5322 59.7911 52.5322 60.1494ZM65.8085 61.8307C65.8085 62.1982 66.1057 62.4964 66.4724 62.4964C66.8389 62.4964 67.136 62.1982 67.136 61.8307C67.136 61.4628 66.8389 61.1648 66.4724 61.1648C66.1057 61.1648 65.8085 61.4628 65.8085 61.8307Z" fill="white"/>
</g>
<defs>
<linearGradient id="paint0_linear_608_3261" x1="49.6061" y1="53.9989" x2="70.3939" y2="66.0009" gradientUnits="userSpaceOnUse">
<stop stop-color="#0174AC"/>
<stop offset="1" stop-color="#00A38D"/>
</linearGradient>
<clipPath id="clip0_608_3261">
<rect width="72" height="72" fill="white"/>
</clipPath>
</defs>
</svg>
