<svg width="72" height="72" viewBox="0 0 72 72" fill="none" xmlns="http://www.w3.org/2000/svg">
<path d="M52.8043 25.0608C51.5867 24.3525 50.0036 24.3525 48.6643 25.0608L39.1661 30.4918L32.7123 34.0342L23.2142 39.4653C21.9964 40.1738 20.4134 40.1738 19.0738 39.4653L11.5241 35.2149C10.3064 34.5064 9.4541 33.2076 9.4541 31.7908V23.4082C9.44773 22.7017 9.63795 22.0073 10.0035 21.4027C10.369 20.7981 10.8955 20.307 11.5241 19.9843L18.9522 15.852C20.1698 15.1435 21.7529 15.1435 23.0924 15.852L30.5203 19.9843C31.7381 20.6927 32.5904 21.9914 32.5904 23.4082V28.8394L39.0444 25.1793V19.7481C39.0507 19.0416 38.8604 18.3472 38.4949 17.7426C38.1293 17.138 37.6028 16.6469 36.9743 16.3242L23.2142 8.53135C21.9964 7.82288 20.4134 7.82288 19.0738 8.53135L5.07026 16.3238C4.44167 16.6465 3.91518 17.1375 3.54962 17.7422C3.18405 18.3468 2.99381 19.0412 3.00015 19.7477V35.4507C2.99381 36.1572 3.18405 36.8516 3.54962 37.4562C3.91518 38.0609 4.44167 38.5519 5.07026 38.8746L19.0738 46.667C20.2916 47.3755 21.8746 47.3755 23.2142 46.667L32.7123 41.3535L39.1661 37.6941L48.6643 32.3806C49.8819 31.6721 51.465 31.6721 52.8043 32.3806L60.2323 36.513C61.4501 37.2214 62.3025 38.5199 62.3025 39.9369V48.3195C62.3089 49.0261 62.1186 49.7204 61.753 50.3251C61.3874 50.9297 60.8609 51.4208 60.2323 51.7434L52.8043 55.9939C51.5867 56.7024 50.0036 56.7024 48.6643 55.9939L41.2362 51.8616C40.0185 51.1532 39.1661 49.8543 39.1661 48.4377V43.0076L32.7123 46.6676V52.0987C32.7059 52.8053 32.8961 53.4997 33.2617 54.1043C33.6272 54.709 34.1537 55.2001 34.7824 55.5228L48.7859 63.3152C50.0036 64.0235 51.5867 64.0235 52.926 63.3152L66.9297 55.5228C68.1474 54.8144 68.9998 53.5157 68.9998 52.0987V36.3953C69.0062 35.6888 68.816 34.9944 68.4504 34.3897C68.0849 33.785 67.5583 33.2939 66.9297 32.9712L52.8043 25.0608Z" fill="#8247E5"/>
</svg>
