<svg width="72" height="72" viewBox="0 0 72 72" fill="none" xmlns="http://www.w3.org/2000/svg">
<path d="M12.0107 30C8.69519 30 6 32.6904 6 36C6 39.3096 8.69519 42 12.0107 42C15.3048 42 18 39.3096 18 36C18 32.6904 15.3048 30 12.0107 30Z" fill="#BBBCBD"/>
<path d="M36 42C39.3137 42 42 39.3137 42 36C42 32.6863 39.3137 30 36 30C32.6863 30 30 32.6863 30 36C30 39.3137 32.6863 42 36 42Z" fill="#8D8E90"/>
<path d="M59.9893 30C56.6952 30 54 32.6904 54 36C54 39.3096 56.6952 42 59.9893 42C63.3048 42 66 39.3096 66 36C66 32.6904 63.3048 30 59.9893 30Z" fill="#616265"/>
</svg>
