<svg width="72" height="72" viewBox="0 0 72 72" fill="none" xmlns="http://www.w3.org/2000/svg">
<path d="M56.8462 25.6179C56.1128 25.6179 55.5064 25.3745 55.0269 24.8877C54.5474 24.4009 54.3077 23.7852 54.3077 23.0407V17.8862H49.2308C48.4974 17.8862 47.891 17.6428 47.4115 17.156C46.932 16.6692 46.6923 16.0535 46.6923 15.309C46.6923 14.5644 46.932 13.9487 47.4115 13.4619C47.891 12.9751 48.4974 12.7317 49.2308 12.7317H54.3077V7.57724C54.3077 6.8327 54.5474 6.21703 55.0269 5.73022C55.5064 5.24341 56.1128 5 56.8462 5C57.5795 5 58.1859 5.24341 58.6654 5.73022C59.1449 6.21703 59.3846 6.8327 59.3846 7.57724V12.7317H64.4615C65.1949 12.7317 65.8013 12.9751 66.2808 13.4619C66.7603 13.9487 67 14.5644 67 15.309C67 16.0535 66.7603 16.6692 66.2808 17.156C65.8013 17.6428 65.1949 17.8862 64.4615 17.8862H59.3846V23.0407C59.3846 23.7852 59.1449 24.4009 58.6654 24.8877C58.1859 25.3745 57.5795 25.6179 56.8462 25.6179ZM15.5538 65.7369C14.7077 66.1378 13.9038 66.0805 13.1423 65.5651C12.3808 65.0496 12 64.3337 12 63.4174V10.1545C12 8.77995 12.5077 7.57724 13.5231 6.54634C14.5385 5.51545 15.7231 5 17.0769 5H45.5077C44.2103 6.48907 43.2372 8.07837 42.5885 9.76789C41.9397 11.4574 41.6154 13.3044 41.6154 15.309C41.6154 19.1462 42.8282 22.4966 45.2538 25.3602C47.6795 28.2238 50.6974 29.9706 54.3077 30.6006C55.2667 30.7151 56.1128 30.7724 56.8462 30.7724C57.5795 30.7724 58.4256 30.7151 59.3846 30.6006V63.4174C59.3846 64.3337 59.0038 65.0496 58.2423 65.5651C57.4808 66.0805 56.6769 66.1378 55.8308 65.7369L35.6923 56.9743L15.5538 65.7369Z" fill="#77787A"/>
</svg>
