<svg width="72" height="72" viewBox="0 0 72 72" fill="none" xmlns="http://www.w3.org/2000/svg">
<path d="M23.25 38.025H48.825C49.425 38.025 49.9375 37.8 50.3625 37.35C50.7875 36.9 51 36.375 51 35.775C51 35.125 50.7875 34.5875 50.3625 34.1625C49.9375 33.7375 49.4 33.525 48.75 33.525H23.175C22.575 33.525 22.0625 33.75 21.6375 34.2C21.2125 34.65 21 35.175 21 35.775C21 36.425 21.2125 36.9625 21.6375 37.3875C22.0625 37.8125 22.6 38.025 23.25 38.025ZM36 66C31.75 66 27.8 65.2375 24.15 63.7125C20.5 62.1875 17.325 60.075 14.625 57.375C11.925 54.675 9.8125 51.5 8.2875 47.85C6.7625 44.2 6 40.25 6 36C6 31.8 6.7625 27.875 8.2875 24.225C9.8125 20.575 11.925 17.4 14.625 14.7C17.325 12 20.5 9.875 24.15 8.325C27.8 6.775 31.75 6 36 6C40.2 6 44.125 6.775 47.775 8.325C51.425 9.875 54.6 12 57.3 14.7C60 17.4 62.125 20.575 63.675 24.225C65.225 27.875 66 31.8 66 36C66 40.25 65.225 44.2 63.675 47.85C62.125 51.5 60 54.675 57.3 57.375C54.6 60.075 51.425 62.1875 47.775 63.7125C44.125 65.2375 40.2 66 36 66Z" fill="white"/>
</svg>
