<svg width="72" height="72" viewBox="0 0 72 72" fill="none" xmlns="http://www.w3.org/2000/svg">
<path d="M31.575 42.825L24.225 35.475C23.775 35.025 23.225 34.8 22.575 34.8C21.925 34.8 21.375 35.025 20.925 35.475C20.425 35.975 20.175 36.5625 20.175 37.2375C20.175 37.9125 20.4 38.475 20.85 38.925L30 48.075C30.4 48.475 30.925 48.675 31.575 48.675C32.225 48.675 32.75 48.475 33.15 48.075L51.15 30.075C51.6 29.625 51.825 29.075 51.825 28.425C51.825 27.775 51.575 27.2 51.075 26.7C50.625 26.25 50.0625 26.025 49.3875 26.025C48.7125 26.025 48.125 26.275 47.625 26.775L31.575 42.825ZM36 66C31.75 66 27.8 65.2375 24.15 63.7125C20.5 62.1875 17.325 60.075 14.625 57.375C11.925 54.675 9.8125 51.5 8.2875 47.85C6.7625 44.2 6 40.25 6 36C6 31.8 6.7625 27.875 8.2875 24.225C9.8125 20.575 11.925 17.4 14.625 14.7C17.325 12 20.5 9.875 24.15 8.325C27.8 6.775 31.75 6 36 6C40.2 6 44.125 6.775 47.775 8.325C51.425 9.875 54.6 12 57.3 14.7C60 17.4 62.125 20.575 63.675 24.225C65.225 27.875 66 31.8 66 36C66 40.25 65.225 44.2 63.675 47.85C62.125 51.5 60 54.675 57.3 57.375C54.6 60.075 51.425 62.1875 47.775 63.7125C44.125 65.2375 40.2 66 36 66Z" fill="#8AC923"/>
</svg>
