<svg width="72" height="72" viewBox="0 0 72 72" fill="none" xmlns="http://www.w3.org/2000/svg">
<circle cx="36" cy="36" r="36" fill="#BBBCBD"/>
<circle cx="36" cy="35.9999" r="30.1" stroke="white"/>
<path d="M30.4636 29.6149L27.5018 31.3249L33.9548 42.5018L36.9166 40.7918L34.2796 36.2244L35.9943 35.2344L34.5183 32.6779L32.8036 33.6679L30.4636 29.6149ZM27.2518 40.8639L26.6218 39.7727L27.105 39.4937C28.5392 38.6657 29.0015 36.6944 28.0745 35.0888C27.1475 33.4832 25.1912 32.8668 23.757 33.6948L19.9379 35.8998C18.4881 36.7368 18.075 38.7212 19.002 40.3268C19.929 41.9325 21.8361 42.5357 23.2859 41.6987L23.8159 41.3927L24.5269 42.6242L21.1562 44.7781L22.4702 47.054L32.2926 40.7387L30.9786 38.4628L27.2518 40.8639ZM21.6365 38.8058C21.4025 38.4005 21.4982 37.8464 21.8723 37.6304L24.3197 36.2174C24.6783 36.0104 25.2216 36.1955 25.4556 36.6008C25.6896 37.0061 25.5603 37.5381 25.2017 37.7451L22.7543 39.1581C22.3802 39.3741 21.8705 39.2111 21.6365 38.8058ZM23.8158 46.9006L26.3268 51.2498L39.1094 43.8698L37.7954 41.5939L28.0058 47.2459L26.8088 45.1726L23.8158 46.9006Z" fill="white"/>
<path d="M51.2785 29.0913L49.9915 26.8622L39.7966 32.7482L39.2296 31.7661L49.2686 25.9701L46.2896 20.8103L33.2888 28.3163L34.5308 30.4675L44.5854 24.6625L45.1254 25.5978L35.0708 31.4028L38.1218 36.6873L51.2785 29.0913ZM54.9813 34.3528L53.5143 31.8119L50.8019 33.3779L49.3709 30.8993L46.6273 32.4833L48.0583 34.9619L44.7536 36.8699L43.3226 34.3913L40.5634 35.9843L41.9944 38.4629L39.2197 40.0649L40.6867 42.6058L54.9813 34.3528Z" fill="white"/>
<path d="M26.2279 19.4548C26.1876 19.2653 26.4134 19.1349 26.5574 19.2646L27.9357 20.5056C28.0001 20.5636 28.0945 20.5735 28.1695 20.5302L29.7757 19.6028C29.9435 19.506 30.1372 19.6804 30.0584 19.8574L29.3041 21.5518C29.2688 21.6309 29.2886 21.7238 29.3529 21.7817L30.7313 23.0228C30.8752 23.1524 30.7692 23.3906 30.5765 23.3703L28.732 23.1764C28.6458 23.1674 28.5636 23.2148 28.5284 23.294L27.774 24.9884C27.6952 25.1654 27.4359 25.1381 27.3957 24.9486L27.01 23.1344C26.992 23.0497 26.9215 22.9862 26.8353 22.9771L24.9908 22.7832C24.7981 22.763 24.7439 22.508 24.9117 22.4111L26.5179 21.4838C26.5929 21.4404 26.6315 21.3537 26.6135 21.269L26.2279 19.4548Z" fill="white"/>
<path d="M43.3279 49.0728C43.2876 48.8833 43.5134 48.753 43.6573 48.8826L45.0357 50.1237C45.1 50.1816 45.1944 50.1916 45.2695 50.1482L46.8757 49.2209C47.0435 49.124 47.2372 49.2984 47.1584 49.4754L46.404 51.1698C46.3688 51.249 46.3885 51.3418 46.4529 51.3998L47.8312 52.6408C47.9752 52.7705 47.8692 53.0086 47.6765 52.9884L45.832 52.7945C45.7458 52.7854 45.6636 52.8329 45.6283 52.912L44.874 54.6064C44.7952 54.7834 44.5359 54.7561 44.4956 54.5666L44.11 52.7525C44.092 52.6677 44.0215 52.6042 43.9353 52.5951L42.0907 52.4013C41.8981 52.381 41.8439 52.126 42.0116 52.0292L43.6179 51.1018C43.6929 51.0585 43.7315 50.9718 43.7135 50.887L43.3279 49.0728Z" fill="white"/>
<path d="M34.0222 14.9548C33.9819 14.7653 34.2076 14.6349 34.3516 14.7646L35.7299 16.0056C35.7943 16.0636 35.8887 16.0735 35.9638 16.0302L37.57 15.1028C37.7378 15.006 37.9315 15.1804 37.8527 15.3574L37.0983 17.0518C37.0631 17.1309 37.0828 17.2238 37.1472 17.2817L38.5255 18.5228C38.6695 18.6524 38.5635 18.8906 38.3708 18.8703L36.5262 18.6764C36.4401 18.6674 36.3579 18.7148 36.3226 18.794L35.5682 20.4884C35.4894 20.6654 35.2302 20.6381 35.1899 20.4486L34.8043 18.6344C34.7863 18.5497 34.7157 18.4862 34.6296 18.4771L32.785 18.2832C32.5923 18.263 32.5381 18.008 32.7059 17.9111L34.3121 16.9838C34.3872 16.9404 34.4258 16.8537 34.4078 16.769L34.0222 14.9548Z" fill="white"/>
<path d="M51.1221 44.5728C51.0819 44.3833 51.3076 44.253 51.4516 44.3826L52.8299 45.6237C52.8943 45.6816 52.9887 45.6916 53.0637 45.6482L54.67 44.7209C54.8377 44.624 55.0315 44.7984 54.9527 44.9754L54.1983 46.6698C54.163 46.749 54.1828 46.8418 54.2472 46.8998L55.6255 48.1408C55.7695 48.2705 55.6634 48.5086 55.4708 48.4884L53.6262 48.2945C53.54 48.2854 53.4578 48.3329 53.4226 48.412L52.6682 50.1064C52.5894 50.2834 52.3302 50.2561 52.2899 50.0666L51.9043 48.2525C51.8862 48.1677 51.8157 48.1042 51.7295 48.0951L49.885 47.9013C49.6923 47.881 49.6381 47.626 49.8059 47.5292L51.4121 46.6018C51.4872 46.5585 51.5258 46.4718 51.5077 46.387L51.1221 44.5728Z" fill="white"/>
<path d="M18.4337 23.9548C18.3934 23.7653 18.6191 23.6349 18.7631 23.7646L20.1414 25.0056C20.2058 25.0636 20.3002 25.0735 20.3753 25.0302L21.9815 24.1028C22.1493 24.006 22.343 24.1804 22.2642 24.3574L21.5098 26.0518C21.4746 26.1309 21.4943 26.2238 21.5587 26.2817L22.937 27.5228C23.081 27.6524 22.975 27.8906 22.7823 27.8703L20.9377 27.6764C20.8516 27.6674 20.7694 27.7148 20.7341 27.794L19.9797 29.4884C19.9009 29.6654 19.6417 29.6381 19.6014 29.4486L19.2158 27.6344C19.1978 27.5497 19.1272 27.4862 19.0411 27.4771L17.1965 27.2832C17.0038 27.263 16.9496 27.008 17.1174 26.9111L18.7236 25.9838C18.7987 25.9404 18.8373 25.8537 18.8193 25.769L18.4337 23.9548Z" fill="white"/>
<path d="M35.5336 53.5728C35.4934 53.3833 35.7191 53.253 35.8631 53.3826L37.2414 54.6237C37.3058 54.6816 37.4002 54.6916 37.4752 54.6482L39.0815 53.7209C39.2492 53.624 39.443 53.7984 39.3642 53.9754L38.6098 55.6698C38.5745 55.749 38.5943 55.8418 38.6587 55.8998L40.037 57.1408C40.181 57.2705 40.0749 57.5086 39.8823 57.4884L38.0377 57.2945C37.9515 57.2854 37.8693 57.3329 37.8341 57.412L37.0797 59.1064C37.0009 59.2834 36.7417 59.2561 36.7014 59.0666L36.3158 57.2525C36.2977 57.1677 36.2272 57.1042 36.141 57.0951L34.2965 56.9013C34.1038 56.881 34.0496 56.626 34.2174 56.5292L35.8236 55.6018C35.8987 55.5585 35.9373 55.4718 35.9192 55.387L35.5336 53.5728Z" fill="white"/>
</svg>
