<svg width="72" height="72" viewBox="0 0 72 72" fill="none" xmlns="http://www.w3.org/2000/svg">
<path d="M59.55 22.05L49.95 12.45L53.1 9.29997C53.95 8.44997 55.0125 8.03747 56.2875 8.06247C57.5625 8.08747 58.625 8.52497 59.475 9.37497L62.7 12.6C63.55 13.45 63.975 14.5 63.975 15.75C63.975 17 63.55 18.05 62.7 18.9L59.55 22.05ZM11.25 63C10.6 63 10.0625 62.7875 9.6375 62.3625C9.2125 61.9375 9 61.4 9 60.75V54.3C9 54 9.05 53.725 9.15 53.475C9.25 53.225 9.425 52.975 9.675 52.725L46.8 15.6L56.4 25.2L19.275 62.325C19.025 62.575 18.775 62.75 18.525 62.85C18.275 62.95 18 63 17.7 63H11.25Z" fill="#77787A"/>
</svg>
