<svg width="72" height="72" viewBox="0 0 72 72" fill="none" xmlns="http://www.w3.org/2000/svg">
<rect x="16" y="16" width="40" height="40" fill="white"/>
<path d="M36.225 39.525C36.875 39.525 37.4125 39.3125 37.8375 38.8875C38.2625 38.4625 38.475 37.925 38.475 37.275V22.725C38.475 22.125 38.25 21.6125 37.8 21.1875C37.35 20.7625 36.825 20.55 36.225 20.55C35.575 20.55 35.0375 20.7625 34.6125 21.1875C34.1875 21.6125 33.975 22.15 33.975 22.8V37.35C33.975 37.95 34.2 38.4625 34.65 38.8875C35.1 39.3125 35.625 39.525 36.225 39.525ZM36 51C36.7 51 37.2875 50.7625 37.7625 50.2875C38.2375 49.8125 38.475 49.225 38.475 48.525C38.475 47.825 38.2375 47.2375 37.7625 46.7625C37.2875 46.2875 36.7 46.05 36 46.05C35.3 46.05 34.7125 46.2875 34.2375 46.7625C33.7625 47.2375 33.525 47.825 33.525 48.525C33.525 49.225 33.7625 49.8125 34.2375 50.2875C34.7125 50.7625 35.3 51 36 51ZM36 66C31.75 66 27.8 65.2375 24.15 63.7125C20.5 62.1875 17.325 60.075 14.625 57.375C11.925 54.675 9.8125 51.5 8.2875 47.85C6.7625 44.2 6 40.25 6 36C6 31.8 6.7625 27.875 8.2875 24.225C9.8125 20.575 11.925 17.4 14.625 14.7C17.325 12 20.5 9.875 24.15 8.325C27.8 6.775 31.75 6 36 6C40.2 6 44.125 6.775 47.775 8.325C51.425 9.875 54.6 12 57.3 14.7C60 17.4 62.125 20.575 63.675 24.225C65.225 27.875 66 31.8 66 36C66 40.25 65.225 44.2 63.675 47.85C62.125 51.5 60 54.675 57.3 57.375C54.6 60.075 51.425 62.1875 47.775 63.7125C44.125 65.2375 40.2 66 36 66Z" fill="#FA2B5C"/>
</svg>
