<svg width="72" height="72" viewBox="0 0 72 72" fill="none" xmlns="http://www.w3.org/2000/svg">
<path d="M56.85 50.25L47.175 40.575C47.675 39.775 48.0625 38.8375 48.3375 37.7625C48.6125 36.6875 48.75 35.6 48.75 34.5C48.75 30.95 47.5125 27.9375 45.0375 25.4625C42.5625 22.9875 39.55 21.75 36 21.75C34.9 21.75 33.825 21.875 32.775 22.125C31.725 22.375 30.775 22.775 29.925 23.325L21.675 15C23.425 14.2 25.6625 13.5 28.3875 12.9C31.1125 12.3 33.775 12 36.375 12C43.125 12 49.35 13.85 55.05 17.55C60.75 21.25 65.1 26.225 68.1 32.475C68.25 32.725 68.35 33.025 68.4 33.375C68.45 33.725 68.475 34.1 68.475 34.5C68.475 34.9 68.45 35.2875 68.4 35.6625C68.35 36.0375 68.25 36.35 68.1 36.6C66.8 39.35 65.2 41.875 63.3 44.175C61.4 46.475 59.25 48.5 56.85 50.25ZM59.55 65.55L48.6 54.825C46.85 55.525 44.875 56.0625 42.675 56.4375C40.475 56.8125 38.25 57 36 57C29.1 57 22.775 55.15 17.025 51.45C11.275 47.75 6.89999 42.775 3.89999 36.525C3.74999 36.225 3.64999 35.9125 3.59999 35.5875C3.54999 35.2625 3.52499 34.9 3.52499 34.5C3.52499 34.1 3.56249 33.7125 3.63749 33.3375C3.71249 32.9625 3.79999 32.65 3.89999 32.4C4.94999 30.15 6.28749 27.9625 7.91249 25.8375C9.53749 23.7125 11.45 21.7 13.65 19.8L5.77499 11.925C5.32499 11.475 5.09999 10.95 5.09999 10.35C5.09999 9.74998 5.32499 9.22498 5.77499 8.77498C6.22499 8.32498 6.76249 8.09998 7.38749 8.09998C8.01249 8.09998 8.54999 8.32498 8.99999 8.77498L62.7 62.475C63.1 62.875 63.3 63.3625 63.3 63.9375C63.3 64.5125 63.1 65.025 62.7 65.475C62.3 65.975 61.7875 66.225 61.1625 66.225C60.5375 66.225 60 66 59.55 65.55ZM36 47.25C36.7 47.25 37.45 47.1875 38.25 47.0625C39.05 46.9375 39.725 46.75 40.275 46.5L24 30.225C23.75 30.825 23.5625 31.5 23.4375 32.25C23.3125 33 23.25 33.75 23.25 34.5C23.25 38.1 24.5 41.125 27 43.575C29.5 46.025 32.5 47.25 36 47.25ZM43.875 37.275L33.225 26.625C36.325 25.475 39.2 26.075 41.85 28.425C44.5 30.775 45.175 33.725 43.875 37.275Z" fill="#D2D2D3"/>
</svg>
