<svg width="72" height="72" viewBox="0 0 72 72" fill="none" xmlns="http://www.w3.org/2000/svg">
<g clip-path="url(#clip0_6741_36793)">
<path d="M15.8489 52.8016L5.08297 42.2682V52.8016H0V18H5.08297V38.1118L13.3095 30.4258H20.1359L10.1235 40.19L22.4269 52.8016H15.8509H15.8489Z" fill="#1C1E22"/>
<path d="M25.2532 18.5933H30.3039V52.8017H25.2532V18.5933Z" fill="#1C1E22"/>
<path d="M35.5565 22.9434C35.5565 21.0234 37.1465 19.5819 38.991 19.5819C40.8355 19.5819 42.4254 21.0234 42.4254 22.9434C42.4254 24.8635 40.888 26.305 38.991 26.305C37.094 26.305 35.5565 24.8635 35.5565 22.9434ZM36.4798 30.4574H41.585V52.8016H36.4798V30.4574Z" fill="#1C1E22"/>
<path d="M72 41.9735C72 49.3689 66.6766 54.0335 60.236 54.0335C56.8905 54.0335 53.3914 52.7423 51.8196 50.1124V64.9999H47.2538V30.3605H51.8196V33.8347C53.3914 31.2048 57.042 29.8641 60.236 29.8641C66.6241 29.8641 72 34.5782 72 41.9735ZM66.9797 42.2187C66.9797 37.8507 63.7351 34.6256 59.6279 34.6256C55.5207 34.6256 51.8701 37.5541 51.8701 42.2187C51.8701 46.8833 55.9773 49.6141 59.6279 49.6141C63.7351 49.6141 66.9797 46.5867 66.9797 42.2187Z" fill="#1C1E22"/>
</g>
<defs>
<clipPath id="clip0_6741_36793">
<rect width="72" height="47" fill="white" transform="translate(0 18)"/>
</clipPath>
</defs>
</svg>
