<svg width="72" height="72" viewBox="0 0 72 72" fill="none" xmlns="http://www.w3.org/2000/svg">
<rect width="72" height="72" rx="12" fill="#2D6AFF"/>
<g clip-path="url(#clip0_3492_21827)">
<path d="M57.384 29.7403C56.79 26.9194 54.387 25.2 51.039 25.2H20.988C17.64 25.2 15.21 26.9463 14.616 29.7672L14.562 30.0358C14.454 30.6537 14.4 31.2717 14.4 31.997V39.8955C14.4 40.8627 14.508 41.5612 14.508 41.5881C14.913 44.8657 17.316 46.8 20.988 46.8H42.696C42.885 46.8 43.047 46.6388 43.047 46.4508V33.6896C43.047 33.5015 42.885 33.3403 42.696 33.3403H40.374C40.185 33.3403 40.023 33.5015 40.023 33.6896V43.7911H21.474C18.828 43.7911 17.424 42.0448 17.424 39.9761V31.997C17.424 29.7672 18.531 28.209 21.474 28.209H50.553C53.064 28.209 54.576 29.7403 54.576 31.9702V39.9493C54.576 42.3134 53.172 43.7911 50.553 43.7911H49.878C49.608 43.7911 49.365 43.7911 49.095 43.7911H48.717C48.528 43.7911 48.366 43.9523 48.366 44.1403V46.4239C48.366 46.612 48.528 46.7731 48.717 46.7731H49.581H49.932H51.012C54.684 46.7731 57.06 44.8388 57.465 41.5881C57.465 41.5881 57.573 40.8627 57.573 39.8687V31.997C57.573 31.4866 57.519 30.8418 57.411 30.009L57.357 29.7403H57.384Z" fill="white"/>
</g>
<defs>
<clipPath id="clip0_3492_21827">
<rect width="43.2" height="21.6" fill="white" transform="translate(14.4 25.2)"/>
</clipPath>
</defs>
</svg>
