<svg width="72" height="72" viewBox="0 0 72 72" fill="none" xmlns="http://www.w3.org/2000/svg">
<g clip-path="url(#clip0_1471_5431)">
<path d="M36 6.96774C37.9241 6.96774 39.4839 5.40796 39.4839 3.48387C39.4839 1.55978 37.9241 0 36 0C34.0759 0 32.5161 1.55978 32.5161 3.48387C32.5161 5.40796 34.0759 6.96774 36 6.96774Z" fill="#FA2B5C"/>
<path d="M19.7422 11.2656C21.6663 11.2656 23.226 9.70581 23.226 7.78172C23.226 5.85763 21.6663 4.29785 19.7422 4.29785C17.8181 4.29785 16.2583 5.85763 16.2583 7.78172C16.2583 9.70581 17.8181 11.2656 19.7422 11.2656Z" fill="#FA2B5C"/>
<path d="M9.5223 16.7228C11.1481 17.6518 11.7287 19.7422 10.7997 21.4841C9.87068 23.1099 7.78036 23.6906 6.03843 22.7615C4.41262 21.8325 3.83197 19.7422 4.76101 18.0002C5.69004 16.2583 7.89649 15.7938 9.5223 16.7228Z" fill="#FA2B5C"/>
<path d="M3.48387 39.4843C5.40796 39.4843 6.96774 37.9246 6.96774 36.0005C6.96774 34.0764 5.40796 32.5166 3.48387 32.5166C1.55978 32.5166 0 34.0764 0 36.0005C0 37.9246 1.55978 39.4843 3.48387 39.4843Z" fill="#FA2B5C" fill-opacity="0.9"/>
<path d="M6.03874 49.2388C7.66455 48.3098 9.75487 48.8904 10.8 50.5162C11.7291 52.142 11.1484 54.2323 9.52261 55.2775C7.8968 56.2065 5.80648 55.6259 4.76132 54.0001C3.71616 52.3743 4.41293 50.284 6.03874 49.2388Z" fill="#FA2B5C" fill-opacity="0.8"/>
<path d="M16.7222 62.4767C17.6512 60.8509 19.7415 60.2702 21.4835 61.1992C23.1093 62.1283 23.6899 64.2186 22.7609 65.9605C21.8319 67.5863 19.7415 68.167 17.9996 67.2379C16.3738 66.1928 15.7932 64.1025 16.7222 62.4767Z" fill="#FA2B5C" fill-opacity="0.7"/>
<path d="M36 72.0002C37.9241 72.0002 39.4839 70.4404 39.4839 68.5163C39.4839 66.5922 37.9241 65.0325 36 65.0325C34.0759 65.0325 32.5161 66.5922 32.5161 68.5163C32.5161 70.4404 34.0759 72.0002 36 72.0002Z" fill="#FA2B5C" fill-opacity="0.6"/>
<path d="M55.2774 62.4774C56.2064 64.1032 55.6258 66.1935 54 67.2387C52.3742 68.1677 50.2839 67.5871 49.2387 65.9613C48.3097 64.3355 48.8903 62.2451 50.5161 61.2C52.1419 60.2709 54.3484 60.8516 55.2774 62.4774Z" fill="#FA2B5C" fill-opacity="0.5"/>
<path d="M65.9613 49.2388C67.5871 50.1678 68.1677 52.2581 67.2387 54.0001C66.3096 55.6259 64.2193 56.2065 62.4774 55.2775C60.8516 54.3485 60.2709 52.2581 61.2 50.5162C62.129 48.8904 64.2193 48.3098 65.9613 49.2388Z" fill="#FA2B5C" fill-opacity="0.4"/>
<path d="M68.5162 39.4836C70.4402 39.4836 72 37.9238 72 35.9997C72 34.0757 70.4402 32.5159 68.5162 32.5159C66.5921 32.5159 65.0323 34.0757 65.0323 35.9997C65.0323 37.9238 66.5921 39.4836 68.5162 39.4836Z" fill="#FA2B5C" fill-opacity="0.3"/>
<path d="M62.4774 16.7229C64.1032 15.7939 66.1935 16.3745 67.2387 18.0003C68.1677 19.6261 67.5871 21.7165 65.9613 22.7616C64.3355 23.6907 62.2451 23.11 61.2 21.4842C60.2709 19.8584 60.8516 17.652 62.4774 16.7229Z" fill="#FA2B5C" fill-opacity="0.2"/>
<path d="M49.2387 6.03843C50.1677 4.41262 52.2581 3.83197 54 4.76101C55.6258 5.69004 56.2064 7.78036 55.2774 9.5223C54.3484 11.1481 52.2581 11.7287 50.5161 10.7997C48.8903 9.87068 48.3097 7.78036 49.2387 6.03843Z" fill="#FA2B5C" fill-opacity="0.1"/>
</g>
<defs>
<clipPath id="clip0_1471_5431">
<rect width="72" height="72" fill="white"/>
</clipPath>
</defs>
</svg>
