<svg width="72" height="72" viewBox="0 0 72 72" fill="none" xmlns="http://www.w3.org/2000/svg">
<path d="M63 40.5C66.7279 40.5 69.75 37.4779 69.75 33.75C69.75 30.0221 66.7279 27 63 27C59.2721 27 56.25 30.0221 56.25 33.75C56.25 37.4779 59.2721 40.5 63 40.5Z" fill="#BBBCBD"/>
<path d="M32.6044 27.8643C35.7736 26.0533 39.8483 27.1852 41.8857 30.3544C43.6967 33.5236 42.5648 37.5983 39.3956 39.6357C36.2264 41.4467 32.1517 40.3148 30.1143 37.1456C28.3033 33.9764 29.4352 29.6753 32.6044 27.8643Z" fill="#BBBCBD"/>
<path d="M3.11429 30.3544C4.92528 27.1852 9 26.0533 12.3956 27.8643C15.5648 29.6753 16.6967 33.75 14.8857 37.1456C13.0747 40.3148 9 41.4467 5.6044 39.6357C2.43517 37.8247 1.3033 33.75 3.11429 30.3544Z" fill="#BBBCBD"/>
</svg>
