<svg width="72" height="72" viewBox="0 0 72 72" fill="none" xmlns="http://www.w3.org/2000/svg">
<path d="M16.5 66C15.25 66 14.1875 65.5625 13.3125 64.6875C12.4375 63.8125 12 62.75 12 61.5V28.95C12 27.7 12.4375 26.6375 13.3125 25.7625C14.1875 24.8875 15.25 24.45 16.5 24.45H21.75V17.25C21.75 13.3 23.1375 9.9375 25.9125 7.1625C28.6875 4.3875 32.05 3 36 3C39.95 3 43.3125 4.3875 46.0875 7.1625C48.8625 9.9375 50.25 13.3 50.25 17.25V24.45H55.5C56.75 24.45 57.8125 24.8875 58.6875 25.7625C59.5625 26.6375 60 27.7 60 28.95V61.5C60 62.75 59.5625 63.8125 58.6875 64.6875C57.8125 65.5625 56.75 66 55.5 66H16.5ZM36 51C37.6 51 38.9625 50.45 40.0875 49.35C41.2125 48.25 41.775 46.925 41.775 45.375C41.775 43.875 41.2125 42.5125 40.0875 41.2875C38.9625 40.0625 37.6 39.45 36 39.45C34.4 39.45 33.0375 40.0625 31.9125 41.2875C30.7875 42.5125 30.225 43.875 30.225 45.375C30.225 46.925 30.7875 48.25 31.9125 49.35C33.0375 50.45 34.4 51 36 51ZM26.25 24.45H45.75V17.25C45.75 14.55 44.8 12.25 42.9 10.35C41 8.45 38.7 7.5 36 7.5C33.3 7.5 31 8.45 29.1 10.35C27.2 12.25 26.25 14.55 26.25 17.25V24.45Z" fill="#2D6AFF"/>
</svg>
