<svg width="72" height="72" viewBox="0 0 72 72" fill="none" xmlns="http://www.w3.org/2000/svg">
<path fill-rule="evenodd" clip-rule="evenodd" d="M18.7723 56.3141C23.0528 58.0264 29.1426 59.1428 36 59.1428C42.8574 59.1428 48.9472 58.0264 53.2277 56.3141C55.3751 55.4552 56.9404 54.4967 57.9267 53.5639C58.9076 52.6363 59.1429 51.9138 59.1429 51.4286L64.2857 51.4286C64.2857 53.7836 63.0819 55.767 61.4604 57.3005C59.8443 58.8289 57.6437 60.0868 55.1378 61.0892C50.1115 63.0997 43.3442 64.2857 36 64.2857C28.6558 64.2857 21.8885 63.0997 16.8623 61.0892C14.3563 60.0868 12.1557 58.8289 10.5396 57.3005C8.91809 55.767 7.71429 53.7836 7.71429 51.4286L12.8572 51.4286C12.8572 51.9138 13.0924 52.6363 14.0733 53.5639C15.0596 54.4967 16.6249 55.4552 18.7723 56.3141Z" fill="#BBBCBD"/>
<path fill-rule="evenodd" clip-rule="evenodd" d="M18.7723 42.1713C23.0528 43.8835 29.1426 45 36 45C42.8574 45 48.9472 43.8835 53.2277 42.1713C55.3751 41.3123 56.9404 40.3539 57.9267 39.4211C58.9076 38.4934 59.1429 37.771 59.1429 37.2857L64.2857 37.2857C64.2857 39.6408 63.0819 41.6242 61.4604 43.1577C59.8443 44.686 57.6437 45.9439 55.1378 46.9463C50.1115 48.9568 43.3442 50.1428 36 50.1428C28.6558 50.1428 21.8885 48.9568 16.8623 46.9463C14.3563 45.9439 12.1557 44.686 10.5396 43.1577C8.91809 41.6242 7.71429 39.6408 7.71429 37.2857L12.8572 37.2857C12.8572 37.771 13.0924 38.4934 14.0733 39.4211C15.0596 40.3539 16.6249 41.3123 18.7723 42.1713Z" fill="#BBBCBD"/>
<ellipse cx="36" cy="21.8572" rx="28.2857" ry="14.1429" fill="#BBBCBD"/>
<path d="M59.1429 23.1429L64.2857 23.1429L64.2857 51.4286L59.1429 51.4286L59.6571 42.4286L59.1429 37.2857L59.1429 23.1429Z" fill="#BBBCBD"/>
<path d="M12.8571 23.1429L7.71429 23.1429L7.71429 51.4286L12.8571 51.4286L12.3429 42.4286L12.8571 37.2857L12.8571 23.1429Z" fill="#BBBCBD"/>
</svg>
