<svg width="72" height="72" viewBox="0 0 72 72" fill="none" xmlns="http://www.w3.org/2000/svg">
<g clip-path="url(#clip0_743_3250)">
<path d="M63 31.32C63.03 29.76 62.46 28.2 61.26 27L40.2 10.74C37.89 8.43001 34.11 8.43001 31.8 10.74L10.74 27C9.54003 28.2 8.97003 29.76 9.00003 31.32C9.00003 31.35 9.00003 57 9.00003 57C9.00003 60.33 11.7 63 15 63H26.97C28.62 63 29.97 61.65 29.97 60V48H41.97V60.03C41.97 61.68 43.32 63.03 44.97 63.03H56.97C60.3 63.03 62.97 60.33 62.97 57.03C62.97 57.03 62.97 31.38 62.97 31.35L63 31.32Z" fill="#BBBCBD"/>
</g>
<defs>
<clipPath id="clip0_743_3250">
<rect width="72" height="72" fill="white"/>
</clipPath>
</defs>
</svg>
