<svg width="72" height="72" viewBox="0 0 72 72" fill="none" xmlns="http://www.w3.org/2000/svg">
<path d="M14.0107 30C10.6952 30 8 32.6904 8 36C8 39.3096 10.6952 42 14.0107 42C17.3048 42 20 39.3096 20 36C20 32.6904 17.3048 30 14.0107 30Z" fill="#1C1E22"/>
<path d="M36 42C39.3137 42 42 39.3137 42 36C42 32.6863 39.3137 30 36 30C32.6863 30 30 32.6863 30 36C30 39.3137 32.6863 42 36 42Z" fill="#1C1E22"/>
<path d="M57.9893 30C54.6952 30 52 32.6904 52 36C52 39.3096 54.6952 42 57.9893 42C61.3048 42 64 39.3096 64 36C64 32.6904 61.3048 30 57.9893 30Z" fill="#1C1E22"/>
</svg>
