<svg width="72" height="72" viewBox="0 0 72 72" fill="none" xmlns="http://www.w3.org/2000/svg">
<g clip-path="url(#clip0_747_4593)">
<path d="M65.59 34.93C65.71 34.77 65.82 34.6 65.92 34.43C65.95 34.39 65.97 34.34 65.99 34.3C66.09 34.12 66.19 33.95 66.27 33.76C66.28 33.73 66.3 33.7 66.31 33.67C66.4 33.47 66.48 33.27 66.56 33.07C66.56 33.05 66.56 33.04 66.57 33.02C66.65 32.8 66.71 32.57 66.77 32.35C67.41 29.75 66.71 26.85 64.71 24.93L49.07 9.87001C48.63 9.45001 48.14 9.09001 47.62 8.81001C47.17 8.56001 46.69 8.37001 46.2 8.24001C46.14 8.22001 46.09 8.21001 46.03 8.20001C45.84 8.15001 45.66 8.12001 45.47 8.09001C45.41 8.09001 45.34 8.07001 45.28 8.06001C45.04 8.03001 44.79 8.01001 44.54 8.01001H27.47C27.22 8.01001 26.98 8.03001 26.73 8.06001C26.67 8.06001 26.6 8.08001 26.54 8.09001C26.35 8.12001 26.16 8.16001 25.97 8.20001C25.91 8.21001 25.86 8.23001 25.81 8.24001C25.32 8.37001 24.84 8.57001 24.38 8.81001C23.86 9.09001 23.37 9.45001 22.93 9.87001L7.29 24.92C5.84 26.31 5.08 28.2 5 30.12C4.97 30.86 5.04 31.61 5.22 32.34C5.28 32.57 5.34 32.79 5.42 33.01C5.42 33.03 5.42 33.04 5.43 33.06C5.5 33.27 5.59 33.47 5.68 33.67C5.69 33.7 5.7 33.73 5.72 33.76C5.81 33.95 5.91 34.13 6.01 34.31C6.03 34.35 6.05 34.39 6.07 34.43C6.17 34.6 6.29 34.77 6.41 34.94C6.44 34.98 6.46 35.02 6.49 35.06C6.64 35.26 6.81 35.46 6.98 35.65L31.16 61.83C31.33 62.01 31.5 62.18 31.68 62.34C34.36 64.71 38.32 64.54 40.82 61.83L65 35.65C65.18 35.46 65.34 35.26 65.49 35.06C65.52 35.02 65.55 34.97 65.58 34.92L65.59 34.93Z" fill="#1C1E22"/>
<path d="M24 34L35 60H37L48 34H24Z" fill="white"/>
<path d="M23 28L29 12H27L11 28H23Z" fill="white"/>
<path d="M49 28L43 12H45L61 28H49Z" fill="white"/>
</g>
<defs>
<clipPath id="clip0_747_4593">
<rect width="62" height="56" fill="white" transform="translate(5 8)"/>
</clipPath>
</defs>
</svg>
