<svg width="72" height="72" viewBox="0 0 72 72" fill="none" xmlns="http://www.w3.org/2000/svg">
<path fill-rule="evenodd" clip-rule="evenodd" d="M36.0002 65.9996C52.5687 65.9996 66.0002 52.5682 66.0002 35.9996C66.0002 19.4311 52.5687 5.99963 36.0002 5.99963C19.4316 5.99963 6.00018 19.4311 6.00018 35.9996C6.00018 52.5682 19.4316 65.9996 36.0002 65.9996ZM34.7914 47.542C34.7914 47.9031 34.9026 48.1947 35.1248 48.417C35.347 48.6392 35.6387 48.7572 35.9998 48.7711C36.3609 48.785 36.6526 48.6808 36.8748 48.4586L48.4581 36.8753C48.597 36.7364 48.6942 36.5906 48.7498 36.4378C48.8053 36.285 48.8331 36.1392 48.8331 36.0003C48.8331 35.8336 48.8053 35.6808 48.7498 35.542C48.6942 35.4031 48.597 35.2642 48.4581 35.1253L36.8748 23.542C36.6526 23.3197 36.3609 23.2086 35.9998 23.2086C35.6387 23.2086 35.347 23.3197 35.1248 23.542C34.9026 23.7642 34.7914 24.0628 34.7914 24.4378C34.7914 24.8128 34.9026 25.1114 35.1248 25.3336L44.5414 34.7503H23.9164C23.5553 34.7503 23.2567 34.8683 23.0206 35.1045C22.7845 35.3406 22.6664 35.6392 22.6664 36.0003C22.6664 36.3614 22.7845 36.66 23.0206 36.8961C23.2567 37.1322 23.5553 37.2503 23.9164 37.2503H44.5414L35.1248 46.667C34.9026 46.8892 34.7914 47.1808 34.7914 47.542Z" fill="#2D6AFF"/>
</svg>
