<svg width="72" height="72" viewBox="0 0 72 72" fill="none" xmlns="http://www.w3.org/2000/svg">
<path fill-rule="evenodd" clip-rule="evenodd" d="M53.8889 7C56.7117 7 59 9.31382 59 12.1681L59 61.1166C59 64.3894 55.2364 66.1891 52.7346 64.1126L38.4321 52.2419C37.0183 51.0685 34.9817 51.0685 33.5679 52.2419L19.2654 64.1126C16.7636 66.1891 13 64.3894 13 61.1166L13 12.1681C13 9.31382 15.2883 7 18.1111 7L53.8889 7Z" fill="#1C1E22"/>
<path d="M36 15L40.6385 24.2167L51 25.6983L43.5 32.8733L45.2654 43L36 38.2167L26.7346 43L28.5 32.8733L21 25.6983L31.3615 24.2167L36 15Z" fill="white"/>
</svg>
