<svg width="72" height="72" viewBox="0 0 72 72" fill="none" xmlns="http://www.w3.org/2000/svg">
<path d="M35.9894 60C34.9965 60 34.15 59.6465 33.45 58.9394C32.75 58.2323 32.4 57.3823 32.4 56.3894C32.4 55.3965 32.7536 54.55 33.4607 53.85C34.1677 53.15 35.0177 52.8 36.0107 52.8C37.0036 52.8 37.85 53.1536 38.55 53.8607C39.25 54.5677 39.6 55.4177 39.6 56.4107C39.6 57.4036 39.2465 58.25 38.5394 58.95C37.8323 59.65 36.9823 60 35.9894 60ZM35.9894 39.6C34.9965 39.6 34.15 39.2464 33.45 38.5393C32.75 37.8323 32.4 36.9823 32.4 35.9893C32.4 34.9964 32.7536 34.15 33.4607 33.45C34.1677 32.75 35.0177 32.4 36.0107 32.4C37.0036 32.4 37.85 32.7536 38.55 33.4607C39.25 34.1677 39.6 35.0177 39.6 36.0107C39.6 37.0036 39.2465 37.85 38.5394 38.55C37.8323 39.25 36.9823 39.6 35.9894 39.6ZM35.9894 19.2C34.9965 19.2 34.15 18.8465 33.45 18.1394C32.75 17.4323 32.4 16.5823 32.4 15.5894C32.4 14.5965 32.7536 13.75 33.4607 13.05C34.1677 12.35 35.0177 12 36.0107 12C37.0036 12 37.85 12.3535 38.55 13.0606C39.25 13.7677 39.6 14.6177 39.6 15.6107C39.6 16.6035 39.2465 17.45 38.5394 18.15C37.8323 18.85 36.9823 19.2 35.9894 19.2Z" fill="#1C1E22"/>
</svg>
