<svg width="72" height="72" viewBox="0 0 72 72" fill="none" xmlns="http://www.w3.org/2000/svg">
<path d="M52.2951 25.3793C51.1144 24.6577 49.5792 24.6577 48.2805 25.3793L39.0701 30.9116L32.8119 34.5201L23.6016 40.0526C22.4208 40.7743 20.8858 40.7743 19.5868 40.0526L12.2658 35.7229C11.085 35.0012 10.2585 33.6782 10.2585 32.2349V23.6958C10.2523 22.9761 10.4368 22.2688 10.7913 21.6529C11.1457 21.0369 11.6562 20.5367 12.2658 20.208L19.4688 15.9985C20.6495 15.2768 22.1846 15.2768 23.4835 15.9985L30.6864 20.208C31.8673 20.9296 32.6938 22.2526 32.6938 23.6958V29.2283L38.9521 25.4999V19.9674C38.9582 19.2477 38.7738 18.5404 38.4193 17.9245C38.0648 17.3085 37.5543 16.8083 36.9448 16.4796L23.6016 8.54127C22.4208 7.81958 20.8858 7.81958 19.5868 8.54127L6.00752 16.4792C5.39799 16.8079 4.88745 17.3081 4.53296 17.924C4.17848 18.5399 3.994 19.2473 4.00015 19.967V35.9631C3.994 36.6828 4.17848 37.3901 4.53296 38.006C4.88745 38.622 5.39799 39.1222 6.00752 39.4509L19.5868 47.3888C20.7676 48.1105 22.3026 48.1105 23.6016 47.3888L32.8119 41.9761L39.0701 38.2484L48.2805 32.8357C49.4612 32.114 50.9964 32.114 52.2951 32.8357L59.498 37.0452C60.6789 37.7669 61.5055 39.0896 61.5055 40.533V49.0721C61.5116 49.7918 61.3271 50.4992 60.9726 51.1151C60.6181 51.731 60.1075 52.2313 59.498 52.5599L52.2951 56.8898C51.1144 57.6115 49.5792 57.6115 48.2805 56.8898L41.0775 52.6803C39.8968 51.9587 39.0701 50.6356 39.0701 49.1925V43.6611L32.8119 47.3894V52.9219C32.8057 53.6416 32.9902 54.349 33.3446 54.9649C33.6991 55.5809 34.2097 56.0811 34.8193 56.4098L48.3985 64.3477C49.5792 65.0693 51.1144 65.0693 52.4131 64.3477L65.9925 56.4098C67.1732 55.6883 67.9998 54.3652 67.9998 52.9219V36.9254C68.006 36.2056 67.8216 35.4982 67.4671 34.8823C67.1126 34.2663 66.602 33.766 65.9925 33.4373L52.2951 25.3793Z" fill="white"/>
</svg>
