<svg width="72" height="72" viewBox="0 0 72 72" fill="none" xmlns="http://www.w3.org/2000/svg">
<path d="M50.7268 62C48.7277 62 47.0157 61.2742 45.5909 59.8225C44.166 58.3708 43.4535 56.6267 43.4535 54.59C43.4535 54.2867 43.4854 53.9292 43.5492 53.5175C43.613 53.1058 43.7087 52.7267 43.8363 52.38L24.5049 40.94C23.8669 41.6767 23.08 42.2725 22.1442 42.7275C21.2085 43.1825 20.2515 43.41 19.2732 43.41C17.2742 43.41 15.5622 42.6842 14.1373 41.2325C12.7124 39.7808 12 38.0367 12 36C12 33.92 12.7124 32.165 14.1373 30.735C15.5622 29.305 17.2742 28.59 19.2732 28.59C20.2515 28.59 21.1872 28.785 22.0804 29.175C22.9736 29.565 23.7818 30.1283 24.5049 30.865L43.8363 19.555C43.7087 19.2517 43.613 18.905 43.5492 18.515C43.4854 18.125 43.4535 17.7567 43.4535 17.41C43.4535 15.33 44.166 13.575 45.5909 12.145C47.0157 10.715 48.7277 10 50.7268 10C52.7684 10 54.491 10.715 55.8946 12.145C57.2982 13.575 58 15.33 58 17.41C58 19.4467 57.2982 21.1908 55.8946 22.6425C54.491 24.0942 52.7684 24.82 50.7268 24.82C49.7485 24.82 48.8021 24.6575 47.8877 24.3325C46.9732 24.0075 46.1969 23.4767 45.5589 22.74L26.2275 33.66C26.3125 34.0067 26.387 34.4075 26.4508 34.8625C26.5146 35.3175 26.5465 35.6967 26.5465 36C26.5465 36.3033 26.5146 36.6283 26.4508 36.975C26.387 37.3217 26.3125 37.6683 26.2275 38.015L45.5589 49.195C46.1969 48.5883 46.9413 48.1008 47.792 47.7325C48.6426 47.3642 49.6209 47.18 50.7268 47.18C52.7684 47.18 54.491 47.895 55.8946 49.325C57.2982 50.755 58 52.51 58 54.59C58 56.6267 57.2982 58.3708 55.8946 59.8225C54.491 61.2742 52.7684 62 50.7268 62Z" fill="white"/>
</svg>
