<svg width="72" height="72" viewBox="0 0 72 72" fill="none" xmlns="http://www.w3.org/2000/svg">
<path fill-rule="evenodd" clip-rule="evenodd" d="M56.2677 15.7326C55.4868 14.9514 54.2204 14.9512 53.4393 15.7322C52.6581 16.5131 52.6579 17.7794 53.4388 18.5606C58.0631 23.1863 60.6609 29.4592 60.6609 35.9999C60.6609 42.5407 58.0631 48.8136 53.4388 53.4393C52.6579 54.2204 52.6581 55.4868 53.4393 56.2677C54.2204 57.0486 55.4868 57.0484 56.2677 56.2673C61.6419 50.8915 64.6609 43.6013 64.6609 35.9999C64.6609 28.3986 61.6419 21.1084 56.2677 15.7326ZM46.8544 25.1459C46.0734 24.3648 44.8071 24.3646 44.0259 25.1455C43.2448 25.9264 43.2446 27.1928 44.0255 27.9739C46.1502 30.0993 47.3438 32.9814 47.3438 35.9866C47.3438 38.9918 46.1502 41.874 44.0255 43.9993C43.2446 44.7804 43.2448 46.0468 44.0259 46.8277C44.8071 47.6086 46.0734 47.6084 46.8544 46.8273C49.7289 43.9519 51.3438 40.0525 51.3438 35.9866C51.3438 31.9208 49.7289 28.0214 46.8544 25.1459ZM35.3335 17.3333C35.3335 16.5645 34.8928 15.8637 34.1999 15.5307C33.5069 15.1976 32.6844 15.2913 32.0841 15.7715L19.2986 25.9999H9.3335C8.22893 25.9999 7.3335 26.8954 7.3335 27.9999V43.9999C7.3335 45.1045 8.22893 45.9999 9.3335 45.9999H19.2986L32.0841 56.2283C32.6844 56.7086 33.5069 56.8022 34.1999 56.4692C34.8928 56.1362 35.3335 55.4354 35.3335 54.6666V17.3333Z" fill="white"/>
</svg>
