<svg width="72" height="72" viewBox="0 0 72 72" fill="none" xmlns="http://www.w3.org/2000/svg">
<path fill-rule="evenodd" clip-rule="evenodd" d="M34.1999 15.5308C34.8928 15.8638 35.3335 16.5646 35.3335 17.3334V54.6667C35.3335 55.4355 34.8928 56.1363 34.1999 56.4693C33.5069 56.8024 32.6844 56.7087 32.0841 56.2285L19.2986 46.0001H9.3335C8.22893 46.0001 7.3335 45.1046 7.3335 44.0001V28.0001C7.3335 26.8955 8.22893 26.0001 9.3335 26.0001H19.2986L32.0841 15.7717C32.6844 15.2914 33.5069 15.1977 34.1999 15.5308ZM66.7477 26.5858C67.5288 27.3668 67.5288 28.6332 66.7477 29.4142L60.1619 36L66.7477 42.5858C67.5288 43.3668 67.5288 44.6332 66.7477 45.4142C65.9667 46.1953 64.7003 46.1953 63.9193 45.4142L57.3335 38.8284L50.7477 45.4142C49.9667 46.1953 48.7003 46.1953 47.9193 45.4142C47.1382 44.6332 47.1382 43.3668 47.9193 42.5858L54.5051 36L47.9193 29.4142C47.1382 28.6332 47.1382 27.3668 47.9193 26.5858C48.7003 25.8047 49.9667 25.8047 50.7477 26.5858L57.3335 33.1716L63.9193 26.5858C64.7003 25.8047 65.9667 25.8047 66.7477 26.5858Z" fill="white"/>
</svg>
