<svg width="72" height="72" viewBox="0 0 72 72" fill="none" xmlns="http://www.w3.org/2000/svg">
<circle cx="36" cy="36" r="36" fill="#1C1E22" fill-opacity="0.4"/>
<path fill-rule="evenodd" clip-rule="evenodd" d="M22.5 24.0002C20.0147 24.0002 18 26.0149 18 28.5002V43.5002C18 45.9855 20.0147 48.0002 22.5 48.0002H39C41.4853 48.0002 43.5 45.9855 43.5 43.5002V38.7503L51.8589 44.7209C52.3161 45.0475 52.9175 45.0912 53.4171 44.8341C53.9167 44.577 54.2308 44.0622 54.2308 43.5003V28.5004C54.2308 27.9385 53.9167 27.4237 53.4171 27.1666C52.9175 26.9095 52.3161 26.9532 51.8589 27.2798L43.5 33.2504V28.5002C43.5 26.0149 41.4853 24.0002 39 24.0002H22.5Z" fill="white"/>
</svg>
