<svg width="72" height="72" viewBox="0 0 72 72" fill="none" xmlns="http://www.w3.org/2000/svg">
<path d="M20.25 57.75L10.95 55.875C10.4 55.775 9.93749 55.4875 9.56249 55.0125C9.18749 54.5375 9.04999 54 9.14999 53.4L10.2 44.4L4.27499 37.5C3.87499 37.1 3.67499 36.6 3.67499 36C3.67499 35.4 3.87499 34.9 4.27499 34.5L10.2 27.675L9.14999 18.675C9.04999 18.075 9.18749 17.5375 9.56249 17.0625C9.93749 16.5875 10.4 16.3 10.95 16.2L20.25 14.325L24.9 6.30001C25.2 5.80001 25.625 5.45001 26.175 5.25001C26.725 5.05001 27.275 5.07501 27.825 5.32501L36 9.15001L44.175 5.32501C44.725 5.07501 45.2875 5.02501 45.8625 5.17501C46.4375 5.32501 46.85 5.67501 47.1 6.22501L51.825 14.325L61.05 16.2C61.6 16.3 62.0625 16.5875 62.4375 17.0625C62.8125 17.5375 62.95 18.075 62.85 18.675L61.8 27.675L67.725 34.5C68.125 34.9 68.325 35.4 68.325 36C68.325 36.6 68.125 37.1 67.725 37.5L61.8 44.4L62.85 53.4C62.95 54 62.8125 54.5375 62.4375 55.0125C62.0625 55.4875 61.6 55.775 61.05 55.875L51.825 57.75L47.1 65.775C46.85 66.325 46.4375 66.675 45.8625 66.825C45.2875 66.975 44.725 66.925 44.175 66.675L36 62.85L27.825 66.675C27.275 66.925 26.725 66.95 26.175 66.75C25.625 66.55 25.2 66.2 24.9 65.7L20.25 57.75ZM31.2 44.4C31.65 44.85 32.175 45.075 32.775 45.075C33.375 45.075 33.9 44.85 34.35 44.4L48.225 30.675C48.625 30.275 48.8125 29.7625 48.7875 29.1375C48.7625 28.5125 48.525 27.975 48.075 27.525C47.625 27.075 47.0875 26.8625 46.4625 26.8875C45.8375 26.9125 45.275 27.15 44.775 27.6L32.775 39.525L27.3 33.75C26.85 33.25 26.2875 33.0125 25.6125 33.0375C24.9375 33.0625 24.375 33.325 23.925 33.825C23.475 34.325 23.2375 34.9 23.2125 35.55C23.1875 36.2 23.425 36.75 23.925 37.2L31.2 44.4Z" fill="white"/>
</svg>
