<svg width="72" height="72" viewBox="0 0 72 72" fill="none" xmlns="http://www.w3.org/2000/svg">
<path d="M36 47.25C39.55 47.25 42.5625 46.0125 45.0375 43.5375C47.5125 41.0625 48.75 38.05 48.75 34.5C48.75 30.95 47.5125 27.9375 45.0375 25.4625C42.5625 22.9875 39.55 21.75 36 21.75C32.45 21.75 29.4375 22.9875 26.9625 25.4625C24.4875 27.9375 23.25 30.95 23.25 34.5C23.25 38.05 24.4875 41.0625 26.9625 43.5375C29.4375 46.0125 32.45 47.25 36 47.25ZM36 42.9C33.65 42.9 31.6625 42.0875 30.0375 40.4625C28.4125 38.8375 27.6 36.85 27.6 34.5C27.6 32.15 28.4125 30.1625 30.0375 28.5375C31.6625 26.9125 33.65 26.1 36 26.1C38.35 26.1 40.3375 26.9125 41.9625 28.5375C43.5875 30.1625 44.4 32.15 44.4 34.5C44.4 36.85 43.5875 38.8375 41.9625 40.4625C40.3375 42.0875 38.35 42.9 36 42.9ZM36 57C29.1 57 22.8125 55.125 17.1375 51.375C11.4625 47.625 7.07499 42.675 3.97499 36.525C3.82499 36.275 3.71249 35.975 3.63749 35.625C3.56249 35.275 3.52499 34.9 3.52499 34.5C3.52499 34.1 3.56249 33.725 3.63749 33.375C3.71249 33.025 3.82499 32.725 3.97499 32.475C7.07499 26.325 11.4625 21.375 17.1375 17.625C22.8125 13.875 29.1 12 36 12C42.9 12 49.1875 13.875 54.8625 17.625C60.5375 21.375 64.925 26.325 68.025 32.475C68.175 32.725 68.2875 33.025 68.3625 33.375C68.4375 33.725 68.475 34.1 68.475 34.5C68.475 34.9 68.4375 35.275 68.3625 35.625C68.2875 35.975 68.175 36.275 68.025 36.525C64.925 42.675 60.5375 47.625 54.8625 51.375C49.1875 55.125 42.9 57 36 57Z" fill="#77787A"/>
</svg>
