<svg width="72" height="72" viewBox="0 0 72 72" fill="none" xmlns="http://www.w3.org/2000/svg">
<path d="M53.6745 62C53.2651 62 52.7192 61.8553 52.3097 61.5659C50.9449 60.8424 50.5354 58.9614 51.2178 57.6591C51.2178 57.5144 56.2677 47.8198 56.2677 35.9548C56.2677 24.0898 51.3543 14.2505 51.3543 14.2505C50.6719 12.8035 51.0814 11.0672 52.4462 10.3437C53.811 9.6202 55.4488 10.0543 56.1312 11.5012C56.4042 11.9353 62 22.4981 62 36.0995C62 49.7009 56.4042 60.2637 56.1312 60.6977C55.5853 61.4212 54.6299 62 53.6745 62ZM47.9423 53.0289C48.0787 52.7395 50.9449 45.7941 50.9449 35.9548C50.9449 26.1155 48.0787 19.1701 47.9423 18.8807C47.3963 17.4338 45.7585 16.7103 44.3937 17.4338C43.0289 18.0125 42.3465 19.7489 43.0289 21.1958C43.0289 21.1958 45.4856 27.4178 45.4856 35.9548C45.4856 44.4918 43.0289 50.7138 43.0289 50.7138C42.4829 52.1607 43.0289 53.897 44.3937 54.4758C44.8032 54.6205 45.0761 54.7652 45.4856 54.7652C46.5774 54.7652 47.5328 54.1864 47.9423 53.0289ZM34.9764 48.9774C35.7953 48.8327 36.4777 48.2539 36.8871 47.5304C37.0236 47.2411 40.0262 41.8873 40.0262 35.9548C40.0262 30.0223 37.0236 24.5238 36.8871 24.3792C36.0682 22.9322 34.4304 22.4981 33.2021 23.3663C31.8373 24.2345 31.4278 25.9708 32.2467 27.2731C32.2467 27.2731 34.5669 31.6139 34.5669 35.9548C34.5669 37.8358 34.1575 39.8616 33.6115 41.3085L15.8688 25.1026C15.1864 24.5238 14.231 24.2345 13.4121 24.5238C12.5932 24.8132 11.7743 25.392 11.5013 26.4049C11.5013 26.5496 10 30.8905 10 35.9548C10 41.0191 11.5013 45.36 11.5013 45.6494C12.0472 47.0964 13.5486 47.9645 15.0499 47.3857C16.4147 46.807 17.2336 45.2153 16.6877 43.6237C16.6877 43.6237 15.4593 39.8616 15.4593 35.9548C15.4593 34.7972 15.5958 33.6397 15.7323 32.6268L32.7927 48.2539C33.3386 48.688 33.8845 48.9774 34.5669 48.9774C34.7034 48.9774 34.8399 48.9774 34.9764 48.9774Z" fill="white"/>
</svg>
