<svg width="72" height="72" viewBox="0 0 72 72" fill="none" xmlns="http://www.w3.org/2000/svg">
<path d="M35.9999 18C37.6568 18 38.9999 19.3431 38.9999 21V30.8043L47.4907 25.9021C48.9256 25.0737 50.7603 25.5653 51.5888 27.0002C52.4172 28.4351 51.9256 30.2698 50.4907 31.0983L42.0002 36.0002L50.4899 40.9017C51.9247 41.7302 52.4164 43.5649 51.5879 44.9998C50.7595 46.4347 48.9247 46.9263 47.4899 46.0979L38.9999 41.1962V51C38.9999 52.6569 37.6568 54 35.9999 54C34.343 54 32.9999 52.6569 32.9999 51V41.1966L24.5099 46.0983C23.075 46.9267 21.2403 46.4351 20.4118 45.0002C19.5834 43.5653 20.075 41.7305 21.5099 40.9021L30.0002 36.0002L21.5091 31.0979C20.0742 30.2695 19.5826 28.4347 20.411 26.9998C21.2395 25.5649 23.0742 25.0733 24.5091 25.9017L32.9999 30.8039V21C32.9999 19.3431 34.343 18 35.9999 18Z" fill="white"/>
</svg>
