<svg width="72" height="72" viewBox="0 0 72 72" fill="none" xmlns="http://www.w3.org/2000/svg">
<path d="M25.425 55.425L7.57498 37.575C7.32498 37.325 7.16248 37.075 7.08748 36.825C7.01248 36.575 6.97498 36.3 6.97498 36C6.97498 35.7 7.01248 35.425 7.08748 35.175C7.16248 34.925 7.32498 34.675 7.57498 34.425L25.425 16.575C25.875 16.125 26.4 15.9 27 15.9C27.6 15.9 28.125 16.125 28.575 16.575C28.975 17.025 29.1875 17.55 29.2125 18.15C29.2375 18.75 29.025 19.275 28.575 19.725L14.55 33.75H63.75C64.4 33.75 64.9375 33.9625 65.3625 34.3875C65.7875 34.8125 66 35.35 66 36C66 36.65 65.7875 37.1875 65.3625 37.6125C64.9375 38.0375 64.4 38.25 63.75 38.25H14.55L28.575 52.275C29.025 52.725 29.25 53.25 29.25 53.85C29.25 54.45 29.025 54.975 28.575 55.425C28.125 55.875 27.6 56.1 27 56.1C26.4 56.1 25.875 55.875 25.425 55.425Z" fill="white"/>
</svg>
