<svg width="72" height="72" viewBox="0 0 72 72" fill="none" xmlns="http://www.w3.org/2000/svg">
<path d="M22.6 59.6L1.05001 37.05C0.883339 36.8833 0.766673 36.7166 0.700006 36.55C0.633339 36.3833 0.600006 36.2 0.600006 36C0.600006 35.8 0.633339 35.6166 0.700006 35.45C0.766673 35.2833 0.883339 35.1166 1.05001 34.95L22.6 13.4C22.9667 13.0333 23.4333 12.85 24 12.85C24.5667 12.85 25.0333 13.0333 25.4 13.4C25.8 13.8 26 14.275 26 14.825C26 15.375 25.8 15.85 25.4 16.25L5.65001 36L25.4 56.75C25.8 57.15 25.9917 57.625 25.975 58.175C25.9583 58.725 25.7667 59.1833 25.4 59.55C25 59.95 24.525 60.15 23.975 60.15C23.425 60.15 22.9667 59.9666 22.6 59.6Z" fill="white"/>
</svg>
