<svg width="72" height="72" viewBox="0 0 72 72" fill="none" xmlns="http://www.w3.org/2000/svg">
<path fill-rule="evenodd" clip-rule="evenodd" d="M60.7397 11.2237C61.7429 12.199 61.7549 13.792 60.7665 14.7818L14.8665 60.7498C13.8781 61.7396 12.2636 61.7515 11.2604 60.7763C10.2571 59.801 10.2451 58.208 11.2335 57.2182L57.1335 11.2502C58.1219 10.2604 59.7364 10.2485 60.7397 11.2237Z" fill="white" stroke="white" stroke-width="0.5" stroke-linecap="round" stroke-linejoin="round"/>
<path fill-rule="evenodd" clip-rule="evenodd" d="M11.2604 11.2237C12.2636 10.2485 13.8781 10.2604 14.8665 11.2502L60.7665 57.2182C61.7549 58.208 61.7429 59.801 60.7397 60.7763C59.7364 61.7515 58.1219 61.7396 57.1335 60.7498L11.2335 14.7818C10.2451 13.792 10.2571 12.199 11.2604 11.2237Z" fill="white" stroke="white" stroke-width="0.5" stroke-linecap="round" stroke-linejoin="round"/>
</svg>
