<svg width="72" height="72" viewBox="0 0 72 72" fill="none" xmlns="http://www.w3.org/2000/svg">
<path d="M22.5 56.925C21.25 56.925 20.1875 56.4875 19.3125 55.6125C18.4375 54.7375 18 53.675 18 52.425V10.425C18 9.17499 18.4375 8.11249 19.3125 7.23749C20.1875 6.36249 21.25 5.92499 22.5 5.92499H55.5C56.75 5.92499 57.8125 6.36249 58.6875 7.23749C59.5625 8.11249 60 9.17499 60 10.425V52.425C60 53.675 59.5625 54.7375 58.6875 55.6125C57.8125 56.4875 56.75 56.925 55.5 56.925H22.5ZM22.5 52.425H55.5V10.425H22.5V52.425ZM13.5 65.925C12.25 65.925 11.1875 65.4875 10.3125 64.6125C9.4375 63.7375 9 62.675 9 61.425V18.45C9 17.8 9.2125 17.2625 9.6375 16.8375C10.0625 16.4125 10.6 16.2 11.25 16.2C11.9 16.2 12.4375 16.4125 12.8625 16.8375C13.2875 17.2625 13.5 17.8 13.5 18.45V61.425H46.8C47.45 61.425 47.9875 61.6375 48.4125 62.0625C48.8375 62.4875 49.05 63.025 49.05 63.675C49.05 64.325 48.8375 64.8625 48.4125 65.2875C47.9875 65.7125 47.45 65.925 46.8 65.925H13.5ZM22.5 10.425V52.425V10.425Z" fill="#1C1E22"/>
</svg>
