<svg width="72" height="72" viewBox="0 0 72 72" fill="none" xmlns="http://www.w3.org/2000/svg">
<path fill-rule="evenodd" clip-rule="evenodd" d="M55.4036 16.305C56.1905 17.0802 56.1999 18.3465 55.4247 19.1334L19.4247 55.6734C18.6495 56.4602 17.3832 56.4696 16.5964 55.6944C15.8095 54.9192 15.8001 53.6529 16.5753 52.8661L52.5753 16.3261C53.3505 15.5392 54.6168 15.5298 55.4036 16.305Z" fill="#1C1E22"/>
<path fill-rule="evenodd" clip-rule="evenodd" d="M16.5964 16.305C17.3832 15.5298 18.6495 15.5392 19.4247 16.3261L55.4247 52.8661C56.1999 53.6529 56.1905 54.9192 55.4036 55.6944C54.6168 56.4696 53.3505 56.4602 52.5753 55.6734L16.5753 19.1334C15.8001 18.3465 15.8095 17.0802 16.5964 16.305Z" fill="#1C1E22"/>
</svg>
