<svg width="72" height="72" viewBox="0 0 72 72" fill="none" xmlns="http://www.w3.org/2000/svg">
<path d="M19.575 63C18.375 63 17.325 62.55 16.425 61.65C15.525 60.75 15.075 59.7 15.075 58.5V15.75H14.25C13.6 15.75 13.0625 15.5375 12.6375 15.1125C12.2125 14.6875 12 14.15 12 13.5C12 12.85 12.2125 12.3125 12.6375 11.8875C13.0625 11.4625 13.6 11.25 14.25 11.25H26.1C26.1 10.6 26.3125 10.0625 26.7375 9.6375C27.1625 9.2125 27.7 9 28.35 9H43.65C44.3 9 44.8375 9.2125 45.2625 9.6375C45.6875 10.0625 45.9 10.6 45.9 11.25H57.75C58.4 11.25 58.9375 11.4625 59.3625 11.8875C59.7875 12.3125 60 12.85 60 13.5C60 14.15 59.7875 14.6875 59.3625 15.1125C58.9375 15.5375 58.4 15.75 57.75 15.75H56.925V58.5C56.925 59.7 56.475 60.75 55.575 61.65C54.675 62.55 53.625 63 52.425 63H19.575ZM19.575 15.75V58.5H52.425V15.75H19.575ZM27.525 49.8C27.525 50.45 27.7375 50.9875 28.1625 51.4125C28.5875 51.8375 29.125 52.05 29.775 52.05C30.425 52.05 30.9625 51.8375 31.3875 51.4125C31.8125 50.9875 32.025 50.45 32.025 49.8V24.375C32.025 23.725 31.8125 23.1875 31.3875 22.7625C30.9625 22.3375 30.425 22.125 29.775 22.125C29.125 22.125 28.5875 22.3375 28.1625 22.7625C27.7375 23.1875 27.525 23.725 27.525 24.375V49.8ZM39.975 49.8C39.975 50.45 40.1875 50.9875 40.6125 51.4125C41.0375 51.8375 41.575 52.05 42.225 52.05C42.875 52.05 43.4125 51.8375 43.8375 51.4125C44.2625 50.9875 44.475 50.45 44.475 49.8V24.375C44.475 23.725 44.2625 23.1875 43.8375 22.7625C43.4125 22.3375 42.875 22.125 42.225 22.125C41.575 22.125 41.0375 22.3375 40.6125 22.7625C40.1875 23.1875 39.975 23.725 39.975 24.375V49.8ZM19.575 15.75V58.5V15.75Z" fill="#1C1E22"/>
</svg>
