<svg width="72" height="72" viewBox="0 0 72 72" fill="none" xmlns="http://www.w3.org/2000/svg">
<path d="M28.35 52.65C28.05 52.65 27.775 52.6 27.525 52.5C27.275 52.4 27.025 52.225 26.775 51.975L13.2 38.4C12.75 37.95 12.525 37.4 12.525 36.75C12.525 36.1 12.75 35.55 13.2 35.1C13.65 34.65 14.175 34.425 14.775 34.425C15.375 34.425 15.9 34.65 16.35 35.1L28.35 47.1L55.575 19.875C56.025 19.425 56.5625 19.2 57.1875 19.2C57.8125 19.2 58.35 19.425 58.8 19.875C59.25 20.325 59.475 20.8625 59.475 21.4875C59.475 22.1125 59.25 22.65 58.8 23.1L29.925 51.975C29.675 52.225 29.425 52.4 29.175 52.5C28.925 52.6 28.65 52.65 28.35 52.65Z" fill="#2D6AFF"/>
</svg>
