<svg width="72" height="72" viewBox="0 0 72 72" fill="none" xmlns="http://www.w3.org/2000/svg">
<path d="M36 47.625C35.7 47.625 35.425 47.575 35.175 47.475C34.925 47.375 34.675 47.2 34.425 46.95L23.1 35.625C22.65 35.175 22.4375 34.6375 22.4625 34.0125C22.4875 33.3875 22.725 32.85 23.175 32.4C23.625 31.95 24.1625 31.725 24.7875 31.725C25.4125 31.725 25.95 31.95 26.4 32.4L33.75 39.825V14.25C33.75 13.6 33.9625 13.0625 34.3875 12.6375C34.8125 12.2125 35.35 12 36 12C36.65 12 37.1875 12.2125 37.6125 12.6375C38.0375 13.0625 38.25 13.6 38.25 14.25V39.825L45.675 32.4C46.125 31.95 46.6625 31.725 47.2875 31.725C47.9125 31.725 48.45 31.95 48.9 32.4C49.35 32.85 49.575 33.3875 49.575 34.0125C49.575 34.6375 49.35 35.175 48.9 35.625L37.575 46.95C37.325 47.2 37.075 47.375 36.825 47.475C36.575 47.575 36.3 47.625 36 47.625ZM16.5 60C15.3 60 14.25 59.55 13.35 58.65C12.45 57.75 12 56.7 12 55.5V47.025C12 46.375 12.2125 45.8375 12.6375 45.4125C13.0625 44.9875 13.6 44.775 14.25 44.775C14.9 44.775 15.4375 44.9875 15.8625 45.4125C16.2875 45.8375 16.5 46.375 16.5 47.025V55.5H55.5V47.025C55.5 46.375 55.7125 45.8375 56.1375 45.4125C56.5625 44.9875 57.1 44.775 57.75 44.775C58.4 44.775 58.9375 44.9875 59.3625 45.4125C59.7875 45.8375 60 46.375 60 47.025V55.5C60 56.7 59.55 57.75 58.65 58.65C57.75 59.55 56.7 60 55.5 60H16.5Z" fill="#1C1E22"/>
</svg>
