<svg width="72" height="72" viewBox="0 0 72 72" fill="none" xmlns="http://www.w3.org/2000/svg">
<path d="M14.25 33.75C13.6 33.75 13.0625 33.5375 12.6375 33.1125C12.2125 32.6875 12 32.15 12 31.5C12 30.85 12.2125 30.3125 12.6375 29.8875C13.0625 29.4625 13.6 29.25 14.25 29.25H57.75C58.4 29.25 58.9375 29.4625 59.3625 29.8875C59.7875 30.3125 60 30.85 60 31.5C60 32.15 59.7875 32.6875 59.3625 33.1125C58.9375 33.5375 58.4 33.75 57.75 33.75H14.25ZM14.25 42.75C13.6 42.75 13.0625 42.5375 12.6375 42.1125C12.2125 41.6875 12 41.15 12 40.5C12 39.85 12.2125 39.3125 12.6375 38.8875C13.0625 38.4625 13.6 38.25 14.25 38.25H57.75C58.4 38.25 58.9375 38.4625 59.3625 38.8875C59.7875 39.3125 60 39.85 60 40.5C60 41.15 59.7875 41.6875 59.3625 42.1125C58.9375 42.5375 58.4 42.75 57.75 42.75H14.25Z" fill="#77787A"/>
</svg>
