<svg width="72" height="72" viewBox="0 0 72 72" fill="none" xmlns="http://www.w3.org/2000/svg">
<path d="M6.37378 24.4057C7.17224 24.4057 7.60474 23.94 7.60474 23.1415V14.1921C7.60474 9.8671 9.86704 7.6048 14.192 7.6048H23.1747C23.9732 7.6048 24.4389 7.1723 24.4389 6.37384C24.4389 5.57538 23.9732 5.14288 23.1747 5.14288H14.1255C8.23685 5.14288 5.14282 8.20365 5.14282 14.059V23.1415C5.14282 23.94 5.57532 24.4057 6.37378 24.4057ZM65.6261 24.4057C66.4246 24.4057 66.8571 23.94 66.8571 23.1415V14.059C66.8571 8.27018 63.7963 5.14288 57.9077 5.14288H48.8252C48.0268 5.14288 47.561 5.57538 47.561 6.37384C47.561 7.1723 48.0268 7.6048 48.8252 7.6048H57.8079C61.9998 7.6048 64.3952 9.8671 64.3952 14.1921V23.1415C64.3952 23.94 64.8277 24.4057 65.6261 24.4057ZM33.2885 40.4747H33.588C36.2828 40.4747 37.6468 39.144 37.6468 36.4159V26.2023C37.6468 25.4371 37.2808 25.0711 36.5156 25.0711C35.7837 25.0711 35.3845 25.4371 35.3845 26.2023V36.7153C35.3845 37.6136 34.6526 38.1792 33.9206 38.1792H32.7895C32.1574 38.1792 31.6916 38.6449 31.6916 39.277C31.6916 40.0755 32.1906 40.4747 33.2885 40.4747ZM24.0397 32.8228C25.0378 32.8228 25.6699 32.1907 25.6699 31.1926V26.7678C25.6699 25.7365 25.0378 25.1044 24.0397 25.1044C23.0749 25.1044 22.4428 25.7698 22.4428 26.7678V31.1926C22.4428 32.1907 23.0749 32.8228 24.0397 32.8228ZM47.6608 32.8228C48.6256 32.8228 49.2577 32.1907 49.2577 31.1926V26.7678C49.2577 25.7698 48.6256 25.1044 47.6608 25.1044C46.6627 25.1044 45.9973 25.7365 45.9973 26.7678V31.1926C45.9973 32.1907 46.6627 32.8228 47.6608 32.8228ZM35.7172 50.6551C39.3768 50.6551 43.0364 49.1247 45.7312 46.4299C45.9308 46.2636 46.1304 45.9641 46.1304 45.5316C46.1304 44.8663 45.6314 44.4338 45.0325 44.4338C44.6666 44.4338 44.3672 44.5336 43.9347 44.9993C41.9385 46.9955 38.8445 48.4261 35.7172 48.4261C32.5899 48.4261 29.5291 46.9955 27.4997 44.9993C27.1005 44.5668 26.801 44.4338 26.4018 44.4338C25.803 44.4338 25.3039 44.8663 25.3039 45.5316C25.3039 45.9309 25.5035 46.2303 25.7032 46.4299C28.3314 49.158 32.0576 50.6551 35.7172 50.6551ZM14.1255 66.8572H23.1747C23.9732 66.8572 24.4389 66.4247 24.4389 65.6262C24.4389 64.8278 23.9732 64.3953 23.1747 64.3953H14.192C9.86704 64.3953 7.60474 62.1329 7.60474 57.7747V48.8586C7.60474 48.0601 7.17224 47.5611 6.37378 47.5611C5.57532 47.5611 5.14282 48.0601 5.14282 48.8586V57.9078C5.14282 63.7964 8.23685 66.8572 14.1255 66.8572ZM48.8252 66.8572H57.9077C63.7963 66.8572 66.8571 63.6966 66.8571 57.9078V48.8586C66.8571 48.0601 66.4246 47.5611 65.6261 47.5611C64.8277 47.5611 64.3952 48.0601 64.3952 48.8586V57.7747C64.3952 62.1329 61.9998 64.3953 57.8079 64.3953H48.8252C48.0268 64.3953 47.561 64.8278 47.561 65.6262C47.561 66.4247 48.0268 66.8572 48.8252 66.8572Z" fill="white"/>
</svg>
