<svg width="72" height="72" viewBox="0 0 72 72" fill="none" xmlns="http://www.w3.org/2000/svg">
<path d="M36.3 53.475C37.1 53.475 37.775 53.2 38.325 52.65C38.875 52.1 39.15 51.425 39.15 50.625C39.15 49.825 38.875 49.15 38.325 48.6C37.775 48.05 37.1 47.775 36.3 47.775C35.5 47.775 34.825 48.05 34.275 48.6C33.725 49.15 33.45 49.825 33.45 50.625C33.45 51.425 33.725 52.1 34.275 52.65C34.825 53.2 35.5 53.475 36.3 53.475ZM36.225 22.5C37.925 22.5 39.3 22.9625 40.35 23.8875C41.4 24.8125 41.925 26 41.925 27.45C41.925 28.45 41.625 29.4375 41.025 30.4125C40.425 31.3875 39.45 32.45 38.1 33.6C36.8 34.75 35.7625 35.9625 34.9875 37.2375C34.2125 38.5125 33.825 39.675 33.825 40.725C33.825 41.275 34.0375 41.7125 34.4625 42.0375C34.8875 42.3625 35.375 42.525 35.925 42.525C36.525 42.525 37.025 42.325 37.425 41.925C37.825 41.525 38.075 41.025 38.175 40.425C38.325 39.425 38.6625 38.5375 39.1875 37.7625C39.7125 36.9875 40.525 36.15 41.625 35.25C43.125 34 44.2125 32.75 44.8875 31.5C45.5625 30.25 45.9 28.85 45.9 27.3C45.9 24.65 45.0375 22.525 43.3125 20.925C41.5875 19.325 39.3 18.525 36.45 18.525C34.55 18.525 32.8 18.9 31.2 19.65C29.6 20.4 28.275 21.5 27.225 22.95C26.825 23.5 26.6625 24.0625 26.7375 24.6375C26.8125 25.2125 27.05 25.65 27.45 25.95C28 26.35 28.5875 26.475 29.2125 26.325C29.8375 26.175 30.35 25.825 30.75 25.275C31.4 24.375 32.1875 23.6875 33.1125 23.2125C34.0375 22.7375 35.075 22.5 36.225 22.5ZM36 66C31.8 66 27.875 65.2375 24.225 63.7125C20.575 62.1875 17.4 60.075 14.7 57.375C12 54.675 9.875 51.5 8.325 47.85C6.775 44.2 6 40.25 6 36C6 31.8 6.775 27.875 8.325 24.225C9.875 20.575 12 17.4 14.7 14.7C17.4 12 20.575 9.875 24.225 8.325C27.875 6.775 31.8 6 36 6C40.15 6 44.05 6.775 47.7 8.325C51.35 9.875 54.525 12 57.225 14.7C59.925 17.4 62.0625 20.575 63.6375 24.225C65.2125 27.875 66 31.8 66 36C66 40.25 65.2125 44.2 63.6375 47.85C62.0625 51.5 59.925 54.675 57.225 57.375C54.525 60.075 51.35 62.1875 47.7 63.7125C44.05 65.2375 40.15 66 36 66ZM36 61.5C43.05 61.5 49.0625 59 54.0375 54C59.0125 49 61.5 43 61.5 36C61.5 29 59.0125 23 54.0375 18C49.0625 13 43.05 10.5 36 10.5C28.85 10.5 22.8125 13 17.8875 18C12.9625 23 10.5 29 10.5 36C10.5 43 12.9625 49 17.8875 54C22.8125 59 28.85 61.5 36 61.5Z" fill="#BBBCBD"/>
</svg>
