<svg width="72" height="72" viewBox="0 0 72 72" fill="none" xmlns="http://www.w3.org/2000/svg">
<path fill-rule="evenodd" clip-rule="evenodd" d="M14.2401 9.81816C11.8469 9.81816 9.81817 11.7886 9.81817 14.3746V19.6363C9.81817 21.4438 8.35292 22.9091 6.54545 22.9091C4.73797 22.9091 3.27272 21.4438 3.27272 19.6363V14.3746C3.27272 8.2671 8.13922 3.27271 14.2401 3.27271H19.6364C21.4438 3.27271 22.9091 4.73795 22.9091 6.54543C22.9091 8.35291 21.4438 9.81816 19.6364 9.81816H14.2401Z" fill="#2D6AFF"/>
<path fill-rule="evenodd" clip-rule="evenodd" d="M14.2401 62.1818C11.8469 62.1818 9.81817 60.2114 9.81817 57.6254V52.3637C9.81817 50.5562 8.35292 49.0909 6.54545 49.0909C4.73797 49.0909 3.27272 50.5562 3.27272 52.3637V57.6254C3.27272 63.7329 8.13922 68.7273 14.2401 68.7273H19.6364C21.4438 68.7273 22.9091 67.262 22.9091 65.4546C22.9091 63.6471 21.4438 62.1818 19.6364 62.1818H14.2401Z" fill="#2D6AFF"/>
<path fill-rule="evenodd" clip-rule="evenodd" d="M57.7599 9.81816C60.1531 9.81816 62.1818 11.7886 62.1818 14.3746V19.6363C62.1818 21.4438 63.6471 22.9091 65.4545 22.9091C67.262 22.9091 68.7273 21.4438 68.7273 19.6363V14.3746C68.7273 8.2671 63.8608 3.27271 57.7599 3.27271H52.3636C50.5562 3.27271 49.0909 4.73795 49.0909 6.54543C49.0909 8.35291 50.5562 9.81816 52.3636 9.81816H57.7599Z" fill="#2D6AFF"/>
<path fill-rule="evenodd" clip-rule="evenodd" d="M57.7599 62.1818C60.1531 62.1818 62.1818 60.2114 62.1818 57.6254V52.3637C62.1818 50.5562 63.6471 49.0909 65.4545 49.0909C67.262 49.0909 68.7273 50.5562 68.7273 52.3637V57.6254C68.7273 63.7329 63.8608 68.7273 57.7599 68.7273H52.3636C50.5562 68.7273 49.0909 67.262 49.0909 65.4546C49.0909 63.6471 50.5562 62.1818 52.3636 62.1818H57.7599Z" fill="#2D6AFF"/>
<path fill-rule="evenodd" clip-rule="evenodd" d="M6.54546 36C6.54546 34.1925 8.01071 32.7273 9.81818 32.7273H62.1818C63.9893 32.7273 65.4545 34.1925 65.4545 36C65.4545 37.8075 63.9893 39.2727 62.1818 39.2727H9.81818C8.01071 39.2727 6.54546 37.8075 6.54546 36Z" fill="#2D6AFF"/>
</svg>
