<svg width="72" height="72" viewBox="0 0 72 72" fill="none" xmlns="http://www.w3.org/2000/svg">
<g clip-path="url(#clip0_555_2508)">
<path d="M23.4 62.97H17.01C12.6 62.97 9 59.37 9 54.96V48.21H12.6V54.96C12.6 57.39 14.58 59.37 17.01 59.37H23.4V62.97Z" fill="#1C1E22"/>
<path d="M55.05 62.97H48.54V59.37H55.05C57.48 59.37 59.46 57.39 59.46 54.96V48.21H63.06V54.96C63.06 59.37 59.46 62.97 55.05 62.97Z" fill="#1C1E22"/>
<path d="M23.4 8.94H17.01C12.6 8.94 9 12.54 9 16.95V23.7H12.6V16.95C12.6 14.52 14.58 12.54 17.01 12.54H23.4V8.94Z" fill="#1C1E22"/>
<path d="M55.05 8.94H48.54V12.54H55.05C57.48 12.54 59.46 14.52 59.46 16.95V23.7H63.06V16.95C63.06 12.54 59.46 8.94 55.05 8.94Z" fill="#1C1E22"/>
<path d="M36 36.03C31.05 36.03 27 31.98 27 27.03C27 22.08 31.05 18.03 36 18.03C40.95 18.03 45 22.08 45 27.03C45 31.98 40.95 36.03 36 36.03ZM36 21.63C33.03 21.63 30.6 24.06 30.6 27.03C30.6 30 33.03 32.43 36 32.43C38.97 32.43 41.4 30 41.4 27.03C41.4 24.06 38.97 21.63 36 21.63Z" fill="#1C1E22"/>
<path d="M52.14 54.09H48.54V46.83C48.54 43.89 46.14 41.49 43.2 41.49H28.74C25.8 41.49 23.4 43.89 23.4 46.83V54.09H19.8V46.83C19.8 41.91 23.82 37.89 28.74 37.89H43.2C48.12 37.89 52.14 41.91 52.14 46.83V54.09Z" fill="#1C1E22"/>
</g>
<defs>
<clipPath id="clip0_555_2508">
<rect width="72" height="72" fill="white"/>
</clipPath>
</defs>
</svg>
