<svg width="72" height="72" viewBox="0 0 72 72" fill="none" xmlns="http://www.w3.org/2000/svg">
<path d="M55.77 52.2C57.24 52.2 58.56 51.42 59.31 50.13C60.12 48.72 60.12 46.95 59.31 45.51L56.4 40.92V31.14C56.4 22.2 50.61 14.37 42.15 11.7C41.37 9.02999 38.91 7.10999 36.03 7.10999C33.15 7.10999 30.69 8.99999 29.91 11.7C21.45 14.34 15.66 22.2 15.66 31.14V40.92L12.75 45.51C11.91 46.95 11.91 48.69 12.75 50.13C13.5 51.42 14.82 52.2 16.29 52.2H55.83H55.77ZM16.23 48.6C15.75 48.6 15.42 47.97 15.78 47.4L19.2 41.97V31.14C19.2 23.46 24.39 16.77 31.86 14.88L33.09 14.58L33.21 13.32C33.33 11.85 34.53 10.77 36 10.77C37.47 10.77 38.64 11.88 38.79 13.32L38.91 14.58L40.14 14.88C47.58 16.77 52.8 23.46 52.8 31.14V41.97L56.22 47.4C56.58 47.97 56.25 48.6 55.77 48.6H16.23Z" fill="#1C1E22"/>
<path d="M41.22 54.51C40.62 56.85 38.52 58.59 36 58.59C33.48 58.59 31.38 56.85 30.78 54.51H27.12C27.78 58.83 31.47 62.19 36 62.19C40.53 62.19 44.22 58.86 44.88 54.51H41.22Z" fill="#1C1E22"/>
</svg>
