<svg width="72" height="72" viewBox="0 0 72 72" fill="none" xmlns="http://www.w3.org/2000/svg">
<path d="M43.5 31.65V38.775C43.5 39.375 43.725 39.8875 44.175 40.3125C44.625 40.7375 45.15 40.95 45.75 40.95C46.4 40.95 46.9375 40.7375 47.3625 40.3125C47.7875 39.8875 48 39.35 48 38.7V26.25C48 25.6 47.7875 25.0625 47.3625 24.6375C46.9375 24.2125 46.4 24 45.75 24H33.225C32.625 24 32.1125 24.225 31.6875 24.675C31.2625 25.125 31.05 25.65 31.05 26.25C31.05 26.9 31.2625 27.4375 31.6875 27.8625C32.1125 28.2875 32.65 28.5 33.3 28.5H40.275L24.3 44.475C23.9 44.875 23.7 45.3875 23.7 46.0125C23.7 46.6375 23.925 47.175 24.375 47.625C24.775 48.075 25.2875 48.3 25.9125 48.3C26.5375 48.3 27.075 48.075 27.525 47.625L43.5 31.65ZM36 66C31.75 66 27.8 65.2375 24.15 63.7125C20.5 62.1875 17.325 60.075 14.625 57.375C11.925 54.675 9.8125 51.5 8.2875 47.85C6.7625 44.2 6 40.25 6 36C6 31.8 6.7625 27.875 8.2875 24.225C9.8125 20.575 11.925 17.4 14.625 14.7C17.325 12 20.5 9.875 24.15 8.325C27.8 6.775 31.75 6 36 6C40.2 6 44.125 6.775 47.775 8.325C51.425 9.875 54.6 12 57.3 14.7C60 17.4 62.125 20.575 63.675 24.225C65.225 27.875 66 31.8 66 36C66 40.25 65.225 44.2 63.675 47.85C62.125 51.5 60 54.675 57.3 57.375C54.6 60.075 51.425 62.1875 47.775 63.7125C44.125 65.2375 40.2 66 36 66ZM36 61.5C43.25 61.5 49.3125 59.0625 54.1875 54.1875C59.0625 49.3125 61.5 43.25 61.5 36C61.5 28.75 59.0625 22.6875 54.1875 17.8125C49.3125 12.9375 43.25 10.5 36 10.5C28.75 10.5 22.6875 12.9375 17.8125 17.8125C12.9375 22.6875 10.5 28.75 10.5 36C10.5 43.25 12.9375 49.3125 17.8125 54.1875C22.6875 59.0625 28.75 61.5 36 61.5Z" fill="#BBBCBD"/>
</svg>
