<svg width="72" height="72" viewBox="0 0 72 72" fill="none" xmlns="http://www.w3.org/2000/svg">
<path d="M13.5 33.75C12.25 33.75 11.1875 33.3125 10.3125 32.4375C9.4375 31.5625 9 30.5 9 29.25V13.5C9 12.25 9.4375 11.1875 10.3125 10.3125C11.1875 9.4375 12.25 9 13.5 9H29.25C30.5 9 31.5625 9.4375 32.4375 10.3125C33.3125 11.1875 33.75 12.25 33.75 13.5V29.25C33.75 30.5 33.3125 31.5625 32.4375 32.4375C31.5625 33.3125 30.5 33.75 29.25 33.75H13.5ZM13.5 29.25H29.25V13.5H13.5V29.25ZM13.5 63C12.25 63 11.1875 62.5625 10.3125 61.6875C9.4375 60.8125 9 59.75 9 58.5V42.75C9 41.5 9.4375 40.4375 10.3125 39.5625C11.1875 38.6875 12.25 38.25 13.5 38.25H29.25C30.5 38.25 31.5625 38.6875 32.4375 39.5625C33.3125 40.4375 33.75 41.5 33.75 42.75V58.5C33.75 59.75 33.3125 60.8125 32.4375 61.6875C31.5625 62.5625 30.5 63 29.25 63H13.5ZM13.5 58.5H29.25V42.75H13.5V58.5ZM42.75 33.75C41.5 33.75 40.4375 33.3125 39.5625 32.4375C38.6875 31.5625 38.25 30.5 38.25 29.25V13.5C38.25 12.25 38.6875 11.1875 39.5625 10.3125C40.4375 9.4375 41.5 9 42.75 9H58.5C59.75 9 60.8125 9.4375 61.6875 10.3125C62.5625 11.1875 63 12.25 63 13.5V29.25C63 30.5 62.5625 31.5625 61.6875 32.4375C60.8125 33.3125 59.75 33.75 58.5 33.75H42.75ZM42.75 29.25H58.5V13.5H42.75V29.25ZM57.975 63C57.675 63 57.4125 62.8875 57.1875 62.6625C56.9625 62.4375 56.85 62.175 56.85 61.875V57.975C56.85 57.675 56.9625 57.4125 57.1875 57.1875C57.4125 56.9625 57.675 56.85 57.975 56.85H61.875C62.175 56.85 62.4375 56.9625 62.6625 57.1875C62.8875 57.4125 63 57.675 63 57.975V61.875C63 62.175 62.8875 62.4375 62.6625 62.6625C62.4375 62.8875 62.175 63 61.875 63H57.975ZM39.375 44.475C39.075 44.475 38.8125 44.3625 38.5875 44.1375C38.3625 43.9125 38.25 43.65 38.25 43.35V39.375C38.25 39.075 38.3625 38.8125 38.5875 38.5875C38.8125 38.3625 39.075 38.25 39.375 38.25H43.275C43.575 38.25 43.8375 38.3625 44.0625 38.5875C44.2875 38.8125 44.4 39.075 44.4 39.375V43.35C44.4 43.65 44.2875 43.9125 44.0625 44.1375C43.8375 44.3625 43.575 44.475 43.275 44.475H39.375ZM45.525 50.625C45.225 50.625 44.9625 50.5125 44.7375 50.2875C44.5125 50.0625 44.4 49.8 44.4 49.5V45.6C44.4 45.3 44.5125 45.0375 44.7375 44.8125C44.9625 44.5875 45.225 44.475 45.525 44.475H49.5C49.8 44.475 50.0625 44.5875 50.2875 44.8125C50.5125 45.0375 50.625 45.3 50.625 45.6V49.5C50.625 49.8 50.5125 50.0625 50.2875 50.2875C50.0625 50.5125 49.8 50.625 49.5 50.625H45.525ZM39.375 56.85C39.075 56.85 38.8125 56.7375 38.5875 56.5125C38.3625 56.2875 38.25 56.025 38.25 55.725V51.75C38.25 51.45 38.3625 51.1875 38.5875 50.9625C38.8125 50.7375 39.075 50.625 39.375 50.625H43.275C43.575 50.625 43.8375 50.7375 44.0625 50.9625C44.2875 51.1875 44.4 51.45 44.4 51.75V55.725C44.4 56.025 44.2875 56.2875 44.0625 56.5125C43.8375 56.7375 43.575 56.85 43.275 56.85H39.375ZM45.525 63C45.225 63 44.9625 62.8875 44.7375 62.6625C44.5125 62.4375 44.4 62.175 44.4 61.875V57.975C44.4 57.675 44.5125 57.4125 44.7375 57.1875C44.9625 56.9625 45.225 56.85 45.525 56.85H49.5C49.8 56.85 50.0625 56.9625 50.2875 57.1875C50.5125 57.4125 50.625 57.675 50.625 57.975V61.875C50.625 62.175 50.5125 62.4375 50.2875 62.6625C50.0625 62.8875 49.8 63 49.5 63H45.525ZM51.75 56.85C51.45 56.85 51.1875 56.7375 50.9625 56.5125C50.7375 56.2875 50.625 56.025 50.625 55.725V51.75C50.625 51.45 50.7375 51.1875 50.9625 50.9625C51.1875 50.7375 51.45 50.625 51.75 50.625H55.725C56.025 50.625 56.2875 50.7375 56.5125 50.9625C56.7375 51.1875 56.85 51.45 56.85 51.75V55.725C56.85 56.025 56.7375 56.2875 56.5125 56.5125C56.2875 56.7375 56.025 56.85 55.725 56.85H51.75ZM51.75 44.475C51.45 44.475 51.1875 44.3625 50.9625 44.1375C50.7375 43.9125 50.625 43.65 50.625 43.35V39.375C50.625 39.075 50.7375 38.8125 50.9625 38.5875C51.1875 38.3625 51.45 38.25 51.75 38.25H55.725C56.025 38.25 56.2875 38.3625 56.5125 38.5875C56.7375 38.8125 56.85 39.075 56.85 39.375V43.35C56.85 43.65 56.7375 43.9125 56.5125 44.1375C56.2875 44.3625 56.025 44.475 55.725 44.475H51.75ZM57.975 50.625C57.675 50.625 57.4125 50.5125 57.1875 50.2875C56.9625 50.0625 56.85 49.8 56.85 49.5V45.6C56.85 45.3 56.9625 45.0375 57.1875 44.8125C57.4125 44.5875 57.675 44.475 57.975 44.475H61.875C62.175 44.475 62.4375 44.5875 62.6625 44.8125C62.8875 45.0375 63 45.3 63 45.6V49.5C63 49.8 62.8875 50.0625 62.6625 50.2875C62.4375 50.5125 62.175 50.625 61.875 50.625H57.975Z" fill="white"/>
</svg>
