<svg width="72" height="72" viewBox="0 0 72 72" fill="none" xmlns="http://www.w3.org/2000/svg">
<path fill-rule="evenodd" clip-rule="evenodd" d="M9 13C9 10.7909 10.7909 9 13 9H30C32.2091 9 34 10.7909 34 13V30C34 32.2091 32.2091 34 30 34H13C10.7909 34 9 32.2091 9 30V13ZM12.5 14.5C12.5 13.3954 13.3954 12.5 14.5 12.5H28.5C29.6046 12.5 30.5 13.3954 30.5 14.5V28.5C30.5 29.6046 29.6046 30.5 28.5 30.5H14.5C13.3954 30.5 12.5 29.6046 12.5 28.5V14.5ZM39.375 44.475C39.075 44.475 38.8125 44.3625 38.5875 44.1375C38.3625 43.9125 38.25 43.65 38.25 43.35V39.375C38.25 39.075 38.3625 38.8125 38.5875 38.5875C38.8125 38.3625 39.075 38.25 39.375 38.25H43.275C43.575 38.25 43.8375 38.3625 44.0625 38.5875C44.2875 38.8125 44.4 39.075 44.4 39.375V43.35C44.4 43.65 44.2875 43.9125 44.0625 44.1375C43.8375 44.3625 43.575 44.475 43.275 44.475H39.375ZM57.975 63C57.675 63 57.4125 62.8875 57.1875 62.6625C56.9625 62.4375 56.85 62.175 56.85 61.875V57.975C56.85 57.675 56.9625 57.4125 57.1875 57.1875C57.4125 56.9625 57.675 56.85 57.975 56.85H61.875C62.175 56.85 62.4375 56.9625 62.6625 57.1875C62.8875 57.4125 63 57.675 63 57.975V61.875C63 62.175 62.8875 62.4375 62.6625 62.6625C62.4375 62.8875 62.175 63 61.875 63H57.975ZM44.7375 50.2875C44.9625 50.5125 45.225 50.625 45.525 50.625H49.5C49.8 50.625 50.0625 50.5125 50.2875 50.2875C50.5125 50.0625 50.625 49.8 50.625 49.5V45.6C50.625 45.3 50.5125 45.0375 50.2875 44.8125C50.0625 44.5875 49.8 44.475 49.5 44.475H45.525C45.225 44.475 44.9625 44.5875 44.7375 44.8125C44.5125 45.0375 44.4 45.3 44.4 45.6V49.5C44.4 49.8 44.5125 50.0625 44.7375 50.2875ZM39.375 56.85C39.075 56.85 38.8125 56.7375 38.5875 56.5125C38.3625 56.2875 38.25 56.025 38.25 55.725V51.75C38.25 51.45 38.3625 51.1875 38.5875 50.9625C38.8125 50.7375 39.075 50.625 39.375 50.625H43.275C43.575 50.625 43.8375 50.7375 44.0625 50.9625C44.2875 51.1875 44.4 51.45 44.4 51.75V55.725C44.4 56.025 44.2875 56.2875 44.0625 56.5125C43.8375 56.7375 43.575 56.85 43.275 56.85H39.375ZM44.7375 62.6625C44.9625 62.8875 45.225 63 45.525 63H49.5C49.8 63 50.0625 62.8875 50.2875 62.6625C50.5125 62.4375 50.625 62.175 50.625 61.875V57.975C50.625 57.675 50.5125 57.4125 50.2875 57.1875C50.0625 56.9625 49.8 56.85 49.5 56.85H45.525C45.225 56.85 44.9625 56.9625 44.7375 57.1875C44.5125 57.4125 44.4 57.675 44.4 57.975V61.875C44.4 62.175 44.5125 62.4375 44.7375 62.6625ZM51.75 56.85C51.45 56.85 51.1875 56.7375 50.9625 56.5125C50.7375 56.2875 50.625 56.025 50.625 55.725V51.75C50.625 51.45 50.7375 51.1875 50.9625 50.9625C51.1875 50.7375 51.45 50.625 51.75 50.625H55.725C56.025 50.625 56.2875 50.7375 56.5125 50.9625C56.7375 51.1875 56.85 51.45 56.85 51.75V55.725C56.85 56.025 56.7375 56.2875 56.5125 56.5125C56.2875 56.7375 56.025 56.85 55.725 56.85H51.75ZM50.9625 44.1375C51.1875 44.3625 51.45 44.475 51.75 44.475H55.725C56.025 44.475 56.2875 44.3625 56.5125 44.1375C56.7375 43.9125 56.85 43.65 56.85 43.35V39.375C56.85 39.075 56.7375 38.8125 56.5125 38.5875C56.2875 38.3625 56.025 38.25 55.725 38.25H51.75C51.45 38.25 51.1875 38.3625 50.9625 38.5875C50.7375 38.8125 50.625 39.075 50.625 39.375V43.35C50.625 43.65 50.7375 43.9125 50.9625 44.1375ZM57.975 50.625C57.675 50.625 57.4125 50.5125 57.1875 50.2875C56.9625 50.0625 56.85 49.8 56.85 49.5V45.6C56.85 45.3 56.9625 45.0375 57.1875 44.8125C57.4125 44.5875 57.675 44.475 57.975 44.475H61.875C62.175 44.475 62.4375 44.5875 62.6625 44.8125C62.8875 45.0375 63 45.3 63 45.6V49.5C63 49.8 62.8875 50.0625 62.6625 50.2875C62.4375 50.5125 62.175 50.625 61.875 50.625H57.975ZM13 38C10.7909 38 9 39.7909 9 42V59C9 61.2091 10.7909 63 13 63H30C32.2091 63 34 61.2091 34 59V42C34 39.7909 32.2091 38 30 38H13ZM14.5 41.5C13.3954 41.5 12.5 42.3954 12.5 43.5V57.5C12.5 58.6046 13.3954 59.5 14.5 59.5H28.5C29.6046 59.5 30.5 58.6046 30.5 57.5V43.5C30.5 42.3954 29.6046 41.5 28.5 41.5H14.5ZM38 13C38 10.7909 39.7909 9 42 9H59C61.2091 9 63 10.7909 63 13V30C63 32.2091 61.2091 34 59 34H42C39.7909 34 38 32.2091 38 30V13ZM41.5 14.5C41.5 13.3954 42.3954 12.5 43.5 12.5H57.5C58.6046 12.5 59.5 13.3954 59.5 14.5V28.5C59.5 29.6046 58.6046 30.5 57.5 30.5H43.5C42.3954 30.5 41.5 29.6046 41.5 28.5V14.5Z" fill="#1C1E22"/>
</svg>
