<svg width="72" height="72" viewBox="0 0 72 72" fill="none" xmlns="http://www.w3.org/2000/svg">
<path d="M36 60C29.35 60 23.6875 57.6625 19.0125 52.9875C14.3375 48.3125 12 42.65 12 36C12 29.35 14.3375 23.6875 19.0125 19.0125C23.6875 14.3375 29.35 12 36 12C40.25 12 43.975 12.8625 47.175 14.5875C50.375 16.3125 53.15 18.675 55.5 21.675V14.25C55.5 13.6 55.7125 13.0625 56.1375 12.6375C56.5625 12.2125 57.1 12 57.75 12C58.4 12 58.9375 12.2125 59.3625 12.6375C59.7875 13.0625 60 13.6 60 14.25V28.8C60 29.45 59.7875 29.9875 59.3625 30.4125C58.9375 30.8375 58.4 31.05 57.75 31.05H43.2C42.55 31.05 42.0125 30.8375 41.5875 30.4125C41.1625 29.9875 40.95 29.45 40.95 28.8C40.95 28.15 41.1625 27.6125 41.5875 27.1875C42.0125 26.7625 42.55 26.55 43.2 26.55H53.55C51.65 23.55 49.225 21.125 46.275 19.275C43.325 17.425 39.9 16.5 36 16.5C30.55 16.5 25.9375 18.3875 22.1625 22.1625C18.3875 25.9375 16.5 30.55 16.5 36C16.5 41.45 18.3875 46.0625 22.1625 49.8375C25.9375 53.6125 30.55 55.5 36 55.5C39.9 55.5 43.475 54.4625 46.725 52.3875C49.975 50.3125 52.4 47.525 54 44.025C54.2 43.625 54.525 43.275 54.975 42.975C55.425 42.675 55.875 42.525 56.325 42.525C57.175 42.525 57.7875 42.8 58.1625 43.35C58.5375 43.9 58.575 44.55 58.275 45.3C56.425 49.75 53.4875 53.3125 49.4625 55.9875C45.4375 58.6625 40.95 60 36 60Z" fill="#1C1E22"/>
</svg>
