<svg width="72" height="72" viewBox="0 0 72 72" fill="none" xmlns="http://www.w3.org/2000/svg">
<path d="M46.05 57.675C45.25 58.075 44.55 58.075 43.95 57.675C43.35 57.275 43.05 56.6 43.05 55.65C43.05 55.25 43.175 54.85 43.425 54.45C43.675 54.05 44 53.75 44.4 53.55C47.85 51.95 50.5625 49.5375 52.5375 46.3125C54.5125 43.0875 55.5 39.575 55.5 35.775C55.5 33.375 54.9125 30.9375 53.7375 28.4625C52.5625 25.9875 51.025 23.8 49.125 21.9L46.95 19.95V27C46.95 27.65 46.7375 28.1875 46.3125 28.6125C45.8875 29.0375 45.35 29.25 44.7 29.25C44.05 29.25 43.5125 29.0375 43.0875 28.6125C42.6625 28.1875 42.45 27.65 42.45 27V14.25C42.45 13.6 42.6625 13.0625 43.0875 12.6375C43.5125 12.2125 44.05 12 44.7 12H57.45C58.1 12 58.6375 12.2125 59.0625 12.6375C59.4875 13.0625 59.7 13.6 59.7 14.25C59.7 14.9 59.4875 15.4375 59.0625 15.8625C58.6375 16.2875 58.1 16.5 57.45 16.5H49.875L51 17.55C54 20.35 56.25 23.35 57.75 26.55C59.25 29.75 60 32.825 60 35.775C60 40.575 58.7375 44.925 56.2125 48.825C53.6875 52.725 50.3 55.675 46.05 57.675ZM14.775 60C14.125 60 13.5875 59.7875 13.1625 59.3625C12.7375 58.9375 12.525 58.4 12.525 57.75C12.525 57.1 12.7375 56.5625 13.1625 56.1375C13.5875 55.7125 14.125 55.5 14.775 55.5H22.275L21.15 54.6C17.95 52.05 15.625 49.275 14.175 46.275C12.725 43.275 12 39.925 12 36.225C12 31.425 13.2875 27.0625 15.8625 23.1375C18.4375 19.2125 21.85 16.275 26.1 14.325C26.9 13.975 27.5875 14.0125 28.1625 14.4375C28.7375 14.8625 29.025 15.525 29.025 16.425C29.025 16.825 28.9 17.2125 28.65 17.5875C28.4 17.9625 28.075 18.25 27.675 18.45C24.275 20.05 21.5625 22.4625 19.5375 25.6875C17.5125 28.9125 16.5 32.425 16.5 36.225C16.5 39.375 17.0875 42.1125 18.2625 44.4375C19.4375 46.7625 21.025 48.775 23.025 50.475L25.275 52.05V45C25.275 44.35 25.4875 43.8125 25.9125 43.3875C26.3375 42.9625 26.875 42.75 27.525 42.75C28.175 42.75 28.7125 42.9625 29.1375 43.3875C29.5625 43.8125 29.775 44.35 29.775 45V57.75C29.775 58.4 29.5625 58.9375 29.1375 59.3625C28.7125 59.7875 28.175 60 27.525 60H14.775Z" fill="#77787A"/>
</svg>
