<svg width="72" height="72" viewBox="0 0 72 72" fill="none" xmlns="http://www.w3.org/2000/svg">
<path d="M63 33.075V58.5C63 59.7 62.55 60.75 61.65 61.65C60.75 62.55 59.7 63 58.5 63H13.425C12.225 63 11.175 62.55 10.275 61.65C9.375 60.75 8.925 59.7 8.925 58.5V33.075C7.525 31.875 6.6 30.4 6.15 28.65C5.7 26.9 5.75 25.15 6.3 23.4L9.525 13.275C9.925 11.925 10.625 10.875 11.625 10.125C12.625 9.375 13.775 9 15.075 9H56.55C57.95 9 59.175 9.3875 60.225 10.1625C61.275 10.9375 62 11.975 62.4 13.275L65.7 23.4C66.25 25.15 66.2875 26.9 65.8125 28.65C65.3375 30.4 64.4 31.875 63 33.075ZM42.75 30.75C44.2 30.75 45.425 30.275 46.425 29.325C47.425 28.375 47.825 27.225 47.625 25.875L45.75 13.5H38.25V25.875C38.25 27.175 38.675 28.3125 39.525 29.2875C40.375 30.2625 41.45 30.75 42.75 30.75ZM28.725 30.75C30.125 30.75 31.3125 30.275 32.2875 29.325C33.2625 28.375 33.75 27.225 33.75 25.875V13.5H26.25L24.375 25.875C24.175 27.175 24.525 28.3125 25.425 29.2875C26.325 30.2625 27.425 30.75 28.725 30.75ZM15.075 30.75C16.275 30.75 17.3125 30.3375 18.1875 29.5125C19.0625 28.6875 19.575 27.675 19.725 26.475L21.675 13.5H14.175L10.725 24.45C10.225 26 10.425 27.4375 11.325 28.7625C12.225 30.0875 13.475 30.75 15.075 30.75ZM56.85 30.75C58.45 30.75 59.7125 30.1 60.6375 28.8C61.5625 27.5 61.775 26.05 61.275 24.45L57.825 13.5H50.325L52.275 26.475C52.425 27.675 52.9375 28.6875 53.8125 29.5125C54.6875 30.3375 55.7 30.75 56.85 30.75ZM13.425 58.5H58.5V35.175C58.55 35.225 58.3875 35.25 58.0125 35.25H56.85C55.6 35.25 54.4125 34.9875 53.2875 34.4625C52.1625 33.9375 51.05 33.125 49.95 32.025C49.15 33.025 48.15 33.8125 46.95 34.3875C45.75 34.9625 44.425 35.25 42.975 35.25C41.475 35.25 40.1875 35.0375 39.1125 34.6125C38.0375 34.1875 37 33.475 36 32.475C35.25 33.375 34.3 34.0625 33.15 34.5375C32 35.0125 30.7 35.25 29.25 35.25C27.7 35.25 26.325 34.975 25.125 34.425C23.925 33.875 22.9 33.075 22.05 32.025C20.85 33.075 19.675 33.875 18.525 34.425C17.375 34.975 16.225 35.25 15.075 35.25H14.0625C13.7375 35.25 13.525 35.225 13.425 35.175V58.5Z" fill="#1C1E22"/>
</svg>
