<svg width="72" height="72" viewBox="0 0 72 72" fill="none" xmlns="http://www.w3.org/2000/svg">
<path d="M33.525 58.425L12.675 37.575C12.425 37.325 12.25 37.075 12.15 36.825C12.05 36.575 12 36.3 12 36C12 35.7 12.05 35.425 12.15 35.175C12.25 34.925 12.425 34.675 12.675 34.425L33.6 13.5C34 13.1 34.5 12.9 35.1 12.9C35.7 12.9 36.225 13.125 36.675 13.575C37.125 14.025 37.35 14.55 37.35 15.15C37.35 15.75 37.125 16.275 36.675 16.725L19.65 33.75H56.85C57.5 33.75 58.0375 33.9625 58.4625 34.3875C58.8875 34.8125 59.1 35.35 59.1 36C59.1 36.65 58.8875 37.1875 58.4625 37.6125C58.0375 38.0375 57.5 38.25 56.85 38.25H19.65L36.75 55.35C37.15 55.75 37.35 56.25 37.35 56.85C37.35 57.45 37.125 57.975 36.675 58.425C36.225 58.875 35.7 59.1 35.1 59.1C34.5 59.1 33.975 58.875 33.525 58.425Z" fill="#D2D2D3"/>
</svg>
