<svg width="72" height="72" viewBox="0 0 72 72" fill="none" xmlns="http://www.w3.org/2000/svg">
<path d="M34.425 58.35C34.025 57.95 33.825 57.425 33.825 56.775C33.825 56.125 34.025 55.6 34.425 55.2L51.375 38.25H14.25C13.6 38.25 13.0625 38.0375 12.6375 37.6125C12.2125 37.1875 12 36.65 12 36C12 35.35 12.2125 34.8125 12.6375 34.3875C13.0625 33.9625 13.6 33.75 14.25 33.75H51.375L34.425 16.8C34.025 16.4 33.825 15.8625 33.825 15.1875C33.825 14.5125 34.025 13.975 34.425 13.575C34.825 13.175 35.35 12.975 36 12.975C36.65 12.975 37.175 13.175 37.575 13.575L58.425 34.425C58.675 34.675 58.85 34.925 58.95 35.175C59.05 35.425 59.1 35.7 59.1 36C59.1 36.25 59.05 36.5125 58.95 36.7875C58.85 37.0625 58.675 37.325 58.425 37.575L37.575 58.425C37.175 58.825 36.65 59.0125 36 58.9875C35.35 58.9625 34.825 58.75 34.425 58.35Z" fill="#D2D2D3"/>
</svg>
